M48
; DRILL file {KiCad 7.0.7} date Sun Jun  9 16:00:57 2024
; FORMAT={-:-/ absolute / metric / decimal}
; #@! TF.CreationDate,2024-06-09T16:00:57+02:00
; #@! TF.GenerationSoftware,Kicad,Pcbnew,7.0.7
; #@! TF.FileFunction,Plated,1,2,PTH
FMAT,2
METRIC
; #@! TA.AperFunction,Plated,PTH,ViaDrill
T1C0.400
; #@! TA.AperFunction,Plated,PTH,ComponentDrill
T2C0.750
; #@! TA.AperFunction,Plated,PTH,ComponentDrill
T3C0.800
; #@! TA.AperFunction,Plated,PTH,ComponentDrill
T4C1.000
; #@! TA.AperFunction,Plated,PTH,ComponentDrill
T5C1.100
; #@! TA.AperFunction,Plated,PTH,ComponentDrill
T6C1.200
; #@! TA.AperFunction,Plated,PTH,ComponentDrill
T7C1.400
; #@! TA.AperFunction,Plated,PTH,ComponentDrill
T8C1.500
; #@! TA.AperFunction,Plated,PTH,ComponentDrill
T9C2.700
%
G90
G05
T1
X108.112Y-92.695
X133.35Y-95.25
X133.512Y-101.585
X136.052Y-99.045
X147.32Y-92.71
X166.37Y-93.98
X166.37Y-127.0
X168.91Y-87.63
X168.91Y-92.71
X172.68Y-101.54
X175.26Y-99.06
T2
X134.782Y-96.505
X136.052Y-96.505
X137.322Y-96.505
X173.99Y-96.52
X175.26Y-96.52
X176.53Y-96.52
T3
X106.99Y-142.24
X108.112Y-97.775
X108.112Y-107.935
X109.382Y-111.735
X109.382Y-121.895
X109.382Y-125.705
X109.382Y-135.865
X110.49Y-142.24
X113.284Y-97.79
X113.284Y-107.95
X114.462Y-113.045
X114.462Y-118.045
X114.542Y-124.435
X115.733Y-129.515
X115.733Y-134.595
X117.002Y-99.035
X117.002Y-102.845
X118.272Y-111.735
X118.272Y-119.355
X119.542Y-106.655
X119.542Y-124.435
X120.65Y-141.51
X120.65Y-143.51
X120.812Y-111.735
X120.812Y-119.355
X122.122Y-124.435
X123.352Y-111.735
X123.352Y-119.355
X124.542Y-106.655
X125.892Y-111.735
X125.892Y-119.355
X125.892Y-129.515
X125.892Y-134.595
X127.122Y-124.435
X127.162Y-99.035
X127.162Y-102.845
X130.972Y-111.745
X130.972Y-121.905
X130.972Y-125.705
X130.972Y-135.865
X147.2Y-97.76
X147.2Y-107.92
X148.47Y-111.72
X148.47Y-121.88
X148.47Y-125.69
X148.47Y-135.85
X152.019Y-97.79
X152.019Y-107.95
X153.55Y-113.03
X153.55Y-118.03
X153.63Y-124.42
X154.82Y-129.5
X154.82Y-134.58
X156.09Y-99.02
X156.09Y-102.83
X157.36Y-111.72
X157.36Y-119.34
X158.63Y-106.64
X158.63Y-124.42
X159.9Y-111.72
X159.9Y-119.34
X160.02Y-140.97
X160.02Y-142.97
X161.21Y-124.42
X162.44Y-111.72
X162.44Y-119.34
X163.63Y-106.64
X164.98Y-111.72
X164.98Y-119.34
X164.98Y-129.5
X164.98Y-134.58
X166.21Y-124.42
X166.25Y-99.02
X166.25Y-102.83
X170.06Y-111.73
X170.06Y-121.89
X170.06Y-125.69
X170.06Y-135.85
T4
X104.14Y-148.59
X104.14Y-151.13
X149.86Y-55.245
X151.21Y-151.13
X152.4Y-55.245
X153.75Y-151.13
X154.94Y-55.245
X156.29Y-151.13
X157.48Y-55.245
X158.83Y-151.13
T5
X120.812Y-81.59
X120.812Y-91.1
X123.352Y-81.59
X123.352Y-91.1
X125.892Y-81.59
X125.892Y-91.1
X133.512Y-104.145
X136.012Y-106.645
X138.512Y-104.145
X160.02Y-81.605
X160.02Y-91.115
X162.56Y-81.605
X162.56Y-91.115
X165.1Y-81.605
X165.1Y-91.115
X172.68Y-104.1
X175.18Y-106.6
X177.68Y-104.1
T6
X108.112Y-76.185
X120.812Y-76.185
X123.352Y-62.038
X123.352Y-69.538
X125.892Y-76.185
X138.593Y-76.185
X147.32Y-76.2
X160.02Y-76.2
X162.56Y-62.053
X162.56Y-69.553
X165.1Y-76.2
X177.8Y-76.2
T7
X168.97Y-141.67
X168.97Y-146.67
X172.72Y-141.67
X172.72Y-146.67
X176.47Y-141.67
X176.47Y-146.67
T8
X134.78Y-65.92
X134.78Y-140.92
X139.78Y-60.92
X139.78Y-145.92
X144.78Y-65.92
X144.78Y-140.92
T9
X110.652Y-86.345
X136.052Y-86.345
X149.86Y-86.36
X175.26Y-86.36
T0
M30
