%TF.GenerationSoftware,KiCad,Pcbnew,7.0.7*%
%TF.CreationDate,2024-06-09T16:01:03+02:00*%
%TF.ProjectId,Audio Amplifier,41756469-6f20-4416-9d70-6c6966696572,rev?*%
%TF.SameCoordinates,Original*%
%TF.FileFunction,Drillmap*%
%TF.FilePolarity,Positive*%
%FSLAX45Y45*%
G04 Gerber Fmt 4.5, Leading zero omitted, Abs format (unit mm)*
G04 Created by KiCad (PCBNEW 7.0.7) date 2024-06-09 16:01:03*
%MOMM*%
%LPD*%
G01*
G04 APERTURE LIST*
%ADD10C,0.100000*%
%ADD11C,0.200000*%
%ADD12C,0.040000*%
%ADD13C,0.075000*%
%ADD14C,0.080000*%
%ADD15C,0.110000*%
%ADD16C,0.120000*%
%ADD17C,0.140000*%
%ADD18C,0.150000*%
%ADD19C,0.270000*%
G04 APERTURE END LIST*
D10*
X10176250Y-5316276D02*
X18405850Y-5316276D01*
X18405850Y-15349275D01*
X10176250Y-15349275D01*
X10176250Y-5316276D01*
D11*
D12*
X10791250Y-9249526D02*
X10831250Y-9289526D01*
X10831250Y-9249526D02*
X10791250Y-9289526D01*
X13315000Y-9505000D02*
X13355000Y-9545000D01*
X13355000Y-9505000D02*
X13315000Y-9545000D01*
X13331250Y-10138526D02*
X13371250Y-10178526D01*
X13371250Y-10138526D02*
X13331250Y-10178526D01*
X13585250Y-9884526D02*
X13625250Y-9924526D01*
X13625250Y-9884526D02*
X13585250Y-9924526D01*
X14712000Y-9251000D02*
X14752000Y-9291000D01*
X14752000Y-9251000D02*
X14712000Y-9291000D01*
X16617000Y-9378000D02*
X16657000Y-9418000D01*
X16657000Y-9378000D02*
X16617000Y-9418000D01*
X16617000Y-12680000D02*
X16657000Y-12720000D01*
X16657000Y-12680000D02*
X16617000Y-12720000D01*
X16871000Y-8743000D02*
X16911000Y-8783000D01*
X16911000Y-8743000D02*
X16871000Y-8783000D01*
X16871000Y-9251000D02*
X16911000Y-9291000D01*
X16911000Y-9251000D02*
X16871000Y-9291000D01*
X17248000Y-10134000D02*
X17288000Y-10174000D01*
X17288000Y-10134000D02*
X17248000Y-10174000D01*
X17506000Y-9886000D02*
X17546000Y-9926000D01*
X17546000Y-9886000D02*
X17506000Y-9926000D01*
D13*
X13515750Y-9650526D02*
G75*
G03*
X13515750Y-9650526I-37500J0D01*
G01*
X13642750Y-9650526D02*
G75*
G03*
X13642750Y-9650526I-37500J0D01*
G01*
X13769750Y-9650526D02*
G75*
G03*
X13769750Y-9650526I-37500J0D01*
G01*
X17436500Y-9652000D02*
G75*
G03*
X17436500Y-9652000I-37500J0D01*
G01*
X17563500Y-9652000D02*
G75*
G03*
X17563500Y-9652000I-37500J0D01*
G01*
X17690500Y-9652000D02*
G75*
G03*
X17690500Y-9652000I-37500J0D01*
G01*
D14*
X10699000Y-14184000D02*
X10699000Y-14264000D01*
X10659000Y-14224000D02*
X10739000Y-14224000D01*
X10811250Y-9737526D02*
X10811250Y-9817526D01*
X10771250Y-9777526D02*
X10851250Y-9777526D01*
X10811250Y-10753526D02*
X10811250Y-10833526D01*
X10771250Y-10793526D02*
X10851250Y-10793526D01*
X10938250Y-11133526D02*
X10938250Y-11213525D01*
X10898250Y-11173526D02*
X10978250Y-11173526D01*
X10938250Y-12149525D02*
X10938250Y-12229525D01*
X10898250Y-12189525D02*
X10978250Y-12189525D01*
X10938250Y-12530525D02*
X10938250Y-12610525D01*
X10898250Y-12570525D02*
X10978250Y-12570525D01*
X10938250Y-13546525D02*
X10938250Y-13626525D01*
X10898250Y-13586525D02*
X10978250Y-13586525D01*
X11049000Y-14184000D02*
X11049000Y-14264000D01*
X11009000Y-14224000D02*
X11089000Y-14224000D01*
X11328400Y-9739000D02*
X11328400Y-9819000D01*
X11288400Y-9779000D02*
X11368400Y-9779000D01*
X11328400Y-10755000D02*
X11328400Y-10835000D01*
X11288400Y-10795000D02*
X11368400Y-10795000D01*
X11446250Y-11264525D02*
X11446250Y-11344525D01*
X11406250Y-11304525D02*
X11486250Y-11304525D01*
X11446250Y-11764525D02*
X11446250Y-11844525D01*
X11406250Y-11804525D02*
X11486250Y-11804525D01*
X11454250Y-12403525D02*
X11454250Y-12483525D01*
X11414250Y-12443525D02*
X11494250Y-12443525D01*
X11573250Y-12911525D02*
X11573250Y-12991525D01*
X11533250Y-12951525D02*
X11613250Y-12951525D01*
X11573250Y-13419525D02*
X11573250Y-13499525D01*
X11533250Y-13459525D02*
X11613250Y-13459525D01*
X11700250Y-9863526D02*
X11700250Y-9943526D01*
X11660250Y-9903526D02*
X11740250Y-9903526D01*
X11700250Y-10244526D02*
X11700250Y-10324526D01*
X11660250Y-10284526D02*
X11740250Y-10284526D01*
X11827250Y-11133526D02*
X11827250Y-11213525D01*
X11787250Y-11173526D02*
X11867250Y-11173526D01*
X11827250Y-11895525D02*
X11827250Y-11975525D01*
X11787250Y-11935525D02*
X11867250Y-11935525D01*
X11954250Y-10625526D02*
X11954250Y-10705526D01*
X11914250Y-10665526D02*
X11994250Y-10665526D01*
X11954250Y-12403525D02*
X11954250Y-12483525D01*
X11914250Y-12443525D02*
X11994250Y-12443525D01*
X12065000Y-14111000D02*
X12065000Y-14191000D01*
X12025000Y-14151000D02*
X12105000Y-14151000D01*
X12065000Y-14311000D02*
X12065000Y-14391000D01*
X12025000Y-14351000D02*
X12105000Y-14351000D01*
X12081250Y-11133526D02*
X12081250Y-11213525D01*
X12041250Y-11173526D02*
X12121250Y-11173526D01*
X12081250Y-11895525D02*
X12081250Y-11975525D01*
X12041250Y-11935525D02*
X12121250Y-11935525D01*
X12212250Y-12403525D02*
X12212250Y-12483525D01*
X12172250Y-12443525D02*
X12252250Y-12443525D01*
X12335250Y-11133526D02*
X12335250Y-11213525D01*
X12295250Y-11173526D02*
X12375250Y-11173526D01*
X12335250Y-11895525D02*
X12335250Y-11975525D01*
X12295250Y-11935525D02*
X12375250Y-11935525D01*
X12454250Y-10625526D02*
X12454250Y-10705526D01*
X12414250Y-10665526D02*
X12494250Y-10665526D01*
X12589250Y-11133526D02*
X12589250Y-11213525D01*
X12549250Y-11173526D02*
X12629250Y-11173526D01*
X12589250Y-11895525D02*
X12589250Y-11975525D01*
X12549250Y-11935525D02*
X12629250Y-11935525D01*
X12589250Y-12911525D02*
X12589250Y-12991525D01*
X12549250Y-12951525D02*
X12629250Y-12951525D01*
X12589250Y-13419525D02*
X12589250Y-13499525D01*
X12549250Y-13459525D02*
X12629250Y-13459525D01*
X12712250Y-12403525D02*
X12712250Y-12483525D01*
X12672250Y-12443525D02*
X12752250Y-12443525D01*
X12716250Y-9863526D02*
X12716250Y-9943526D01*
X12676250Y-9903526D02*
X12756250Y-9903526D01*
X12716250Y-10244526D02*
X12716250Y-10324526D01*
X12676250Y-10284526D02*
X12756250Y-10284526D01*
X13097250Y-11134526D02*
X13097250Y-11214525D01*
X13057250Y-11174526D02*
X13137250Y-11174526D01*
X13097250Y-12150525D02*
X13097250Y-12230525D01*
X13057250Y-12190525D02*
X13137250Y-12190525D01*
X13097250Y-12530525D02*
X13097250Y-12610525D01*
X13057250Y-12570525D02*
X13137250Y-12570525D01*
X13097250Y-13546525D02*
X13097250Y-13626525D01*
X13057250Y-13586525D02*
X13137250Y-13586525D01*
X14720000Y-9736000D02*
X14720000Y-9816000D01*
X14680000Y-9776000D02*
X14760000Y-9776000D01*
X14720000Y-10752000D02*
X14720000Y-10832000D01*
X14680000Y-10792000D02*
X14760000Y-10792000D01*
X14847000Y-11132000D02*
X14847000Y-11212000D01*
X14807000Y-11172000D02*
X14887000Y-11172000D01*
X14847000Y-12148000D02*
X14847000Y-12228000D01*
X14807000Y-12188000D02*
X14887000Y-12188000D01*
X14847000Y-12529000D02*
X14847000Y-12609000D01*
X14807000Y-12569000D02*
X14887000Y-12569000D01*
X14847000Y-13545000D02*
X14847000Y-13625000D01*
X14807000Y-13585000D02*
X14887000Y-13585000D01*
X15201900Y-9739000D02*
X15201900Y-9819000D01*
X15161900Y-9779000D02*
X15241900Y-9779000D01*
X15201900Y-10755000D02*
X15201900Y-10835000D01*
X15161900Y-10795000D02*
X15241900Y-10795000D01*
X15355000Y-11263000D02*
X15355000Y-11343000D01*
X15315000Y-11303000D02*
X15395000Y-11303000D01*
X15355000Y-11763000D02*
X15355000Y-11843000D01*
X15315000Y-11803000D02*
X15395000Y-11803000D01*
X15363000Y-12402000D02*
X15363000Y-12482000D01*
X15323000Y-12442000D02*
X15403000Y-12442000D01*
X15482000Y-12910000D02*
X15482000Y-12990000D01*
X15442000Y-12950000D02*
X15522000Y-12950000D01*
X15482000Y-13418000D02*
X15482000Y-13498000D01*
X15442000Y-13458000D02*
X15522000Y-13458000D01*
X15609000Y-9862000D02*
X15609000Y-9942000D01*
X15569000Y-9902000D02*
X15649000Y-9902000D01*
X15609000Y-10243000D02*
X15609000Y-10323000D01*
X15569000Y-10283000D02*
X15649000Y-10283000D01*
X15736000Y-11132000D02*
X15736000Y-11212000D01*
X15696000Y-11172000D02*
X15776000Y-11172000D01*
X15736000Y-11894000D02*
X15736000Y-11974000D01*
X15696000Y-11934000D02*
X15776000Y-11934000D01*
X15863000Y-10624000D02*
X15863000Y-10704000D01*
X15823000Y-10664000D02*
X15903000Y-10664000D01*
X15863000Y-12402000D02*
X15863000Y-12482000D01*
X15823000Y-12442000D02*
X15903000Y-12442000D01*
X15990000Y-11132000D02*
X15990000Y-11212000D01*
X15950000Y-11172000D02*
X16030000Y-11172000D01*
X15990000Y-11894000D02*
X15990000Y-11974000D01*
X15950000Y-11934000D02*
X16030000Y-11934000D01*
X16002000Y-14057000D02*
X16002000Y-14137000D01*
X15962000Y-14097000D02*
X16042000Y-14097000D01*
X16002000Y-14257000D02*
X16002000Y-14337000D01*
X15962000Y-14297000D02*
X16042000Y-14297000D01*
X16121000Y-12402000D02*
X16121000Y-12482000D01*
X16081000Y-12442000D02*
X16161000Y-12442000D01*
X16244000Y-11132000D02*
X16244000Y-11212000D01*
X16204000Y-11172000D02*
X16284000Y-11172000D01*
X16244000Y-11894000D02*
X16244000Y-11974000D01*
X16204000Y-11934000D02*
X16284000Y-11934000D01*
X16363000Y-10624000D02*
X16363000Y-10704000D01*
X16323000Y-10664000D02*
X16403000Y-10664000D01*
X16498000Y-11132000D02*
X16498000Y-11212000D01*
X16458000Y-11172000D02*
X16538000Y-11172000D01*
X16498000Y-11894000D02*
X16498000Y-11974000D01*
X16458000Y-11934000D02*
X16538000Y-11934000D01*
X16498000Y-12910000D02*
X16498000Y-12990000D01*
X16458000Y-12950000D02*
X16538000Y-12950000D01*
X16498000Y-13418000D02*
X16498000Y-13498000D01*
X16458000Y-13458000D02*
X16538000Y-13458000D01*
X16621000Y-12402000D02*
X16621000Y-12482000D01*
X16581000Y-12442000D02*
X16661000Y-12442000D01*
X16625000Y-9862000D02*
X16625000Y-9942000D01*
X16585000Y-9902000D02*
X16665000Y-9902000D01*
X16625000Y-10243000D02*
X16625000Y-10323000D01*
X16585000Y-10283000D02*
X16665000Y-10283000D01*
X17006000Y-11133000D02*
X17006000Y-11213000D01*
X16966000Y-11173000D02*
X17046000Y-11173000D01*
X17006000Y-12149000D02*
X17006000Y-12229000D01*
X16966000Y-12189000D02*
X17046000Y-12189000D01*
X17006000Y-12529000D02*
X17006000Y-12609000D01*
X16966000Y-12569000D02*
X17046000Y-12569000D01*
X17006000Y-13545000D02*
X17006000Y-13625000D01*
X16966000Y-13585000D02*
X17046000Y-13585000D01*
D10*
X10449356Y-14894356D02*
X10449356Y-14823644D01*
X10378644Y-14823644D01*
X10378644Y-14894356D01*
X10449356Y-14894356D01*
X10449356Y-15148356D02*
X10449356Y-15077644D01*
X10378644Y-15077644D01*
X10378644Y-15148356D01*
X10449356Y-15148356D01*
X15021356Y-5559856D02*
X15021356Y-5489144D01*
X14950644Y-5489144D01*
X14950644Y-5559856D01*
X15021356Y-5559856D01*
X15156356Y-15148356D02*
X15156356Y-15077644D01*
X15085644Y-15077644D01*
X15085644Y-15148356D01*
X15156356Y-15148356D01*
X15275356Y-5559856D02*
X15275356Y-5489144D01*
X15204644Y-5489144D01*
X15204644Y-5559856D01*
X15275356Y-5559856D01*
X15410356Y-15148356D02*
X15410356Y-15077644D01*
X15339644Y-15077644D01*
X15339644Y-15148356D01*
X15410356Y-15148356D01*
X15529356Y-5559856D02*
X15529356Y-5489144D01*
X15458644Y-5489144D01*
X15458644Y-5559856D01*
X15529356Y-5559856D01*
X15664356Y-15148356D02*
X15664356Y-15077644D01*
X15593644Y-15077644D01*
X15593644Y-15148356D01*
X15664356Y-15148356D01*
X15783356Y-5559856D02*
X15783356Y-5489144D01*
X15712644Y-5489144D01*
X15712644Y-5559856D01*
X15783356Y-5559856D01*
X15918356Y-15148356D02*
X15918356Y-15077644D01*
X15847644Y-15077644D01*
X15847644Y-15148356D01*
X15918356Y-15148356D01*
D15*
X12081250Y-8214025D02*
X12136250Y-8159025D01*
X12081250Y-8104025D01*
X12026250Y-8159025D01*
X12081250Y-8214025D01*
X12081250Y-9165026D02*
X12136250Y-9110026D01*
X12081250Y-9055026D01*
X12026250Y-9110026D01*
X12081250Y-9165026D01*
X12335250Y-8214025D02*
X12390250Y-8159025D01*
X12335250Y-8104025D01*
X12280250Y-8159025D01*
X12335250Y-8214025D01*
X12335250Y-9165026D02*
X12390250Y-9110026D01*
X12335250Y-9055026D01*
X12280250Y-9110026D01*
X12335250Y-9165026D01*
X12589250Y-8214025D02*
X12644250Y-8159025D01*
X12589250Y-8104025D01*
X12534250Y-8159025D01*
X12589250Y-8214025D01*
X12589250Y-9165026D02*
X12644250Y-9110026D01*
X12589250Y-9055026D01*
X12534250Y-9110026D01*
X12589250Y-9165026D01*
X13351250Y-10469526D02*
X13406250Y-10414526D01*
X13351250Y-10359526D01*
X13296250Y-10414526D01*
X13351250Y-10469526D01*
X13601250Y-10719526D02*
X13656250Y-10664526D01*
X13601250Y-10609526D01*
X13546250Y-10664526D01*
X13601250Y-10719526D01*
X13851250Y-10469526D02*
X13906250Y-10414526D01*
X13851250Y-10359526D01*
X13796250Y-10414526D01*
X13851250Y-10469526D01*
X16002000Y-8215500D02*
X16057000Y-8160500D01*
X16002000Y-8105500D01*
X15947000Y-8160500D01*
X16002000Y-8215500D01*
X16002000Y-9166500D02*
X16057000Y-9111500D01*
X16002000Y-9056500D01*
X15947000Y-9111500D01*
X16002000Y-9166500D01*
X16256000Y-8215500D02*
X16311000Y-8160500D01*
X16256000Y-8105500D01*
X16201000Y-8160500D01*
X16256000Y-8215500D01*
X16256000Y-9166500D02*
X16311000Y-9111500D01*
X16256000Y-9056500D01*
X16201000Y-9111500D01*
X16256000Y-9166500D01*
X16510000Y-8215500D02*
X16565000Y-8160500D01*
X16510000Y-8105500D01*
X16455000Y-8160500D01*
X16510000Y-8215500D01*
X16510000Y-9166500D02*
X16565000Y-9111500D01*
X16510000Y-9056500D01*
X16455000Y-9111500D01*
X16510000Y-9166500D01*
X17268000Y-10465000D02*
X17323000Y-10410000D01*
X17268000Y-10355000D01*
X17213000Y-10410000D01*
X17268000Y-10465000D01*
X17518000Y-10715000D02*
X17573000Y-10660000D01*
X17518000Y-10605000D01*
X17463000Y-10660000D01*
X17518000Y-10715000D01*
X17768000Y-10465000D02*
X17823000Y-10410000D01*
X17768000Y-10355000D01*
X17713000Y-10410000D01*
X17768000Y-10465000D01*
D16*
X10751250Y-7558525D02*
X10871250Y-7678525D01*
X10871250Y-7558525D02*
X10751250Y-7678525D01*
X10871250Y-7618525D02*
G75*
G03*
X10871250Y-7618525I-60000J0D01*
G01*
X12021250Y-7558525D02*
X12141250Y-7678525D01*
X12141250Y-7558525D02*
X12021250Y-7678525D01*
X12141250Y-7618525D02*
G75*
G03*
X12141250Y-7618525I-60000J0D01*
G01*
X12275250Y-6143801D02*
X12395250Y-6263801D01*
X12395250Y-6143801D02*
X12275250Y-6263801D01*
X12395250Y-6203801D02*
G75*
G03*
X12395250Y-6203801I-60000J0D01*
G01*
X12275250Y-6893801D02*
X12395250Y-7013801D01*
X12395250Y-6893801D02*
X12275250Y-7013801D01*
X12395250Y-6953801D02*
G75*
G03*
X12395250Y-6953801I-60000J0D01*
G01*
X12529250Y-7558525D02*
X12649250Y-7678525D01*
X12649250Y-7558525D02*
X12529250Y-7678525D01*
X12649250Y-7618525D02*
G75*
G03*
X12649250Y-7618525I-60000J0D01*
G01*
X13799250Y-7558525D02*
X13919250Y-7678525D01*
X13919250Y-7558525D02*
X13799250Y-7678525D01*
X13919250Y-7618525D02*
G75*
G03*
X13919250Y-7618525I-60000J0D01*
G01*
X14672000Y-7560000D02*
X14792000Y-7680000D01*
X14792000Y-7560000D02*
X14672000Y-7680000D01*
X14792000Y-7620000D02*
G75*
G03*
X14792000Y-7620000I-60000J0D01*
G01*
X15942000Y-7560000D02*
X16062000Y-7680000D01*
X16062000Y-7560000D02*
X15942000Y-7680000D01*
X16062000Y-7620000D02*
G75*
G03*
X16062000Y-7620000I-60000J0D01*
G01*
X16196000Y-6145275D02*
X16316000Y-6265275D01*
X16316000Y-6145275D02*
X16196000Y-6265275D01*
X16316000Y-6205275D02*
G75*
G03*
X16316000Y-6205275I-60000J0D01*
G01*
X16196000Y-6895275D02*
X16316000Y-7015275D01*
X16316000Y-6895275D02*
X16196000Y-7015275D01*
X16316000Y-6955275D02*
G75*
G03*
X16316000Y-6955275I-60000J0D01*
G01*
X16450000Y-7560000D02*
X16570000Y-7680000D01*
X16570000Y-7560000D02*
X16450000Y-7680000D01*
X16570000Y-7620000D02*
G75*
G03*
X16570000Y-7620000I-60000J0D01*
G01*
X17720000Y-7560000D02*
X17840000Y-7680000D01*
X17840000Y-7560000D02*
X17720000Y-7680000D01*
X17840000Y-7620000D02*
G75*
G03*
X17840000Y-7620000I-60000J0D01*
G01*
D17*
X16827000Y-14097000D02*
X16967000Y-14237000D01*
X16967000Y-14097000D02*
X16827000Y-14237000D01*
X16897000Y-14097000D02*
X16897000Y-14237000D01*
X16827000Y-14167000D02*
X16967000Y-14167000D01*
X16827000Y-14597000D02*
X16967000Y-14737000D01*
X16967000Y-14597000D02*
X16827000Y-14737000D01*
X16897000Y-14597000D02*
X16897000Y-14737000D01*
X16827000Y-14667000D02*
X16967000Y-14667000D01*
X17202000Y-14097000D02*
X17342000Y-14237000D01*
X17342000Y-14097000D02*
X17202000Y-14237000D01*
X17272000Y-14097000D02*
X17272000Y-14237000D01*
X17202000Y-14167000D02*
X17342000Y-14167000D01*
X17202000Y-14597000D02*
X17342000Y-14737000D01*
X17342000Y-14597000D02*
X17202000Y-14737000D01*
X17272000Y-14597000D02*
X17272000Y-14737000D01*
X17202000Y-14667000D02*
X17342000Y-14667000D01*
X17577000Y-14097000D02*
X17717000Y-14237000D01*
X17717000Y-14097000D02*
X17577000Y-14237000D01*
X17647000Y-14097000D02*
X17647000Y-14237000D01*
X17577000Y-14167000D02*
X17717000Y-14167000D01*
X17577000Y-14597000D02*
X17717000Y-14737000D01*
X17717000Y-14597000D02*
X17577000Y-14737000D01*
X17647000Y-14597000D02*
X17647000Y-14737000D01*
X17577000Y-14667000D02*
X17717000Y-14667000D01*
D18*
X13403000Y-6517000D02*
X13553000Y-6667000D01*
X13553000Y-6517000D02*
X13403000Y-6667000D01*
X13531033Y-6645033D02*
X13531033Y-6538966D01*
X13424966Y-6538966D01*
X13424966Y-6645033D01*
X13531033Y-6645033D01*
X13403000Y-14017000D02*
X13553000Y-14167000D01*
X13553000Y-14017000D02*
X13403000Y-14167000D01*
X13531033Y-14145033D02*
X13531033Y-14038966D01*
X13424966Y-14038966D01*
X13424966Y-14145033D01*
X13531033Y-14145033D01*
X13903000Y-6017000D02*
X14053000Y-6167000D01*
X14053000Y-6017000D02*
X13903000Y-6167000D01*
X14031033Y-6145033D02*
X14031033Y-6038966D01*
X13924966Y-6038966D01*
X13924966Y-6145033D01*
X14031033Y-6145033D01*
X13903000Y-14517000D02*
X14053000Y-14667000D01*
X14053000Y-14517000D02*
X13903000Y-14667000D01*
X14031033Y-14645033D02*
X14031033Y-14538966D01*
X13924966Y-14538966D01*
X13924966Y-14645033D01*
X14031033Y-14645033D01*
X14403000Y-6517000D02*
X14553000Y-6667000D01*
X14553000Y-6517000D02*
X14403000Y-6667000D01*
X14531033Y-6645033D02*
X14531033Y-6538966D01*
X14424966Y-6538966D01*
X14424966Y-6645033D01*
X14531033Y-6645033D01*
X14403000Y-14017000D02*
X14553000Y-14167000D01*
X14553000Y-14017000D02*
X14403000Y-14167000D01*
X14531033Y-14145033D02*
X14531033Y-14038966D01*
X14424966Y-14038966D01*
X14424966Y-14145033D01*
X14531033Y-14145033D01*
D19*
X10930250Y-8499526D02*
X11200250Y-8769526D01*
X11200250Y-8499526D02*
X10930250Y-8769526D01*
X11065250Y-8769526D02*
X11200250Y-8634526D01*
X11065250Y-8499526D01*
X10930250Y-8634526D01*
X11065250Y-8769526D01*
X13470250Y-8499526D02*
X13740250Y-8769526D01*
X13740250Y-8499526D02*
X13470250Y-8769526D01*
X13605250Y-8769526D02*
X13740250Y-8634526D01*
X13605250Y-8499526D01*
X13470250Y-8634526D01*
X13605250Y-8769526D01*
X14851000Y-8501000D02*
X15121000Y-8771000D01*
X15121000Y-8501000D02*
X14851000Y-8771000D01*
X14986000Y-8771000D02*
X15121000Y-8636000D01*
X14986000Y-8501000D01*
X14851000Y-8636000D01*
X14986000Y-8771000D01*
X17391000Y-8501000D02*
X17661000Y-8771000D01*
X17661000Y-8501000D02*
X17391000Y-8771000D01*
X17526000Y-8771000D02*
X17661000Y-8636000D01*
X17526000Y-8501000D01*
X17391000Y-8636000D01*
X17526000Y-8771000D01*
D11*
X10432027Y-15665759D02*
X10432027Y-15465759D01*
X10432027Y-15465759D02*
X10479646Y-15465759D01*
X10479646Y-15465759D02*
X10508217Y-15475283D01*
X10508217Y-15475283D02*
X10527265Y-15494331D01*
X10527265Y-15494331D02*
X10536789Y-15513378D01*
X10536789Y-15513378D02*
X10546313Y-15551473D01*
X10546313Y-15551473D02*
X10546313Y-15580045D01*
X10546313Y-15580045D02*
X10536789Y-15618140D01*
X10536789Y-15618140D02*
X10527265Y-15637188D01*
X10527265Y-15637188D02*
X10508217Y-15656235D01*
X10508217Y-15656235D02*
X10479646Y-15665759D01*
X10479646Y-15665759D02*
X10432027Y-15665759D01*
X10632027Y-15665759D02*
X10632027Y-15532426D01*
X10632027Y-15570521D02*
X10641551Y-15551473D01*
X10641551Y-15551473D02*
X10651074Y-15541950D01*
X10651074Y-15541950D02*
X10670122Y-15532426D01*
X10670122Y-15532426D02*
X10689170Y-15532426D01*
X10755836Y-15665759D02*
X10755836Y-15532426D01*
X10755836Y-15465759D02*
X10746313Y-15475283D01*
X10746313Y-15475283D02*
X10755836Y-15484807D01*
X10755836Y-15484807D02*
X10765360Y-15475283D01*
X10765360Y-15475283D02*
X10755836Y-15465759D01*
X10755836Y-15465759D02*
X10755836Y-15484807D01*
X10879646Y-15665759D02*
X10860598Y-15656235D01*
X10860598Y-15656235D02*
X10851074Y-15637188D01*
X10851074Y-15637188D02*
X10851074Y-15465759D01*
X10984408Y-15665759D02*
X10965360Y-15656235D01*
X10965360Y-15656235D02*
X10955836Y-15637188D01*
X10955836Y-15637188D02*
X10955836Y-15465759D01*
X11212979Y-15665759D02*
X11212979Y-15465759D01*
X11212979Y-15465759D02*
X11279646Y-15608616D01*
X11279646Y-15608616D02*
X11346312Y-15465759D01*
X11346312Y-15465759D02*
X11346312Y-15665759D01*
X11527265Y-15665759D02*
X11527265Y-15560997D01*
X11527265Y-15560997D02*
X11517741Y-15541950D01*
X11517741Y-15541950D02*
X11498693Y-15532426D01*
X11498693Y-15532426D02*
X11460598Y-15532426D01*
X11460598Y-15532426D02*
X11441551Y-15541950D01*
X11527265Y-15656235D02*
X11508217Y-15665759D01*
X11508217Y-15665759D02*
X11460598Y-15665759D01*
X11460598Y-15665759D02*
X11441551Y-15656235D01*
X11441551Y-15656235D02*
X11432027Y-15637188D01*
X11432027Y-15637188D02*
X11432027Y-15618140D01*
X11432027Y-15618140D02*
X11441551Y-15599093D01*
X11441551Y-15599093D02*
X11460598Y-15589569D01*
X11460598Y-15589569D02*
X11508217Y-15589569D01*
X11508217Y-15589569D02*
X11527265Y-15580045D01*
X11622503Y-15532426D02*
X11622503Y-15732426D01*
X11622503Y-15541950D02*
X11641551Y-15532426D01*
X11641551Y-15532426D02*
X11679646Y-15532426D01*
X11679646Y-15532426D02*
X11698693Y-15541950D01*
X11698693Y-15541950D02*
X11708217Y-15551473D01*
X11708217Y-15551473D02*
X11717741Y-15570521D01*
X11717741Y-15570521D02*
X11717741Y-15627664D01*
X11717741Y-15627664D02*
X11708217Y-15646712D01*
X11708217Y-15646712D02*
X11698693Y-15656235D01*
X11698693Y-15656235D02*
X11679646Y-15665759D01*
X11679646Y-15665759D02*
X11641551Y-15665759D01*
X11641551Y-15665759D02*
X11622503Y-15656235D01*
X11803455Y-15646712D02*
X11812979Y-15656235D01*
X11812979Y-15656235D02*
X11803455Y-15665759D01*
X11803455Y-15665759D02*
X11793932Y-15656235D01*
X11793932Y-15656235D02*
X11803455Y-15646712D01*
X11803455Y-15646712D02*
X11803455Y-15665759D01*
X11803455Y-15541950D02*
X11812979Y-15551473D01*
X11812979Y-15551473D02*
X11803455Y-15560997D01*
X11803455Y-15560997D02*
X11793932Y-15551473D01*
X11793932Y-15551473D02*
X11803455Y-15541950D01*
X11803455Y-15541950D02*
X11803455Y-15560997D01*
D12*
X10131250Y-15974275D02*
X10171250Y-16014275D01*
X10171250Y-15974275D02*
X10131250Y-16014275D01*
D11*
X10470122Y-15885759D02*
X10489170Y-15885759D01*
X10489170Y-15885759D02*
X10508217Y-15895283D01*
X10508217Y-15895283D02*
X10517741Y-15904807D01*
X10517741Y-15904807D02*
X10527265Y-15923854D01*
X10527265Y-15923854D02*
X10536789Y-15961950D01*
X10536789Y-15961950D02*
X10536789Y-16009569D01*
X10536789Y-16009569D02*
X10527265Y-16047664D01*
X10527265Y-16047664D02*
X10517741Y-16066712D01*
X10517741Y-16066712D02*
X10508217Y-16076235D01*
X10508217Y-16076235D02*
X10489170Y-16085759D01*
X10489170Y-16085759D02*
X10470122Y-16085759D01*
X10470122Y-16085759D02*
X10451074Y-16076235D01*
X10451074Y-16076235D02*
X10441551Y-16066712D01*
X10441551Y-16066712D02*
X10432027Y-16047664D01*
X10432027Y-16047664D02*
X10422503Y-16009569D01*
X10422503Y-16009569D02*
X10422503Y-15961950D01*
X10422503Y-15961950D02*
X10432027Y-15923854D01*
X10432027Y-15923854D02*
X10441551Y-15904807D01*
X10441551Y-15904807D02*
X10451074Y-15895283D01*
X10451074Y-15895283D02*
X10470122Y-15885759D01*
X10622503Y-16066712D02*
X10632027Y-16076235D01*
X10632027Y-16076235D02*
X10622503Y-16085759D01*
X10622503Y-16085759D02*
X10612979Y-16076235D01*
X10612979Y-16076235D02*
X10622503Y-16066712D01*
X10622503Y-16066712D02*
X10622503Y-16085759D01*
X10803455Y-15952426D02*
X10803455Y-16085759D01*
X10755836Y-15876235D02*
X10708217Y-16019093D01*
X10708217Y-16019093D02*
X10832027Y-16019093D01*
X10946313Y-15885759D02*
X10965360Y-15885759D01*
X10965360Y-15885759D02*
X10984408Y-15895283D01*
X10984408Y-15895283D02*
X10993932Y-15904807D01*
X10993932Y-15904807D02*
X11003455Y-15923854D01*
X11003455Y-15923854D02*
X11012979Y-15961950D01*
X11012979Y-15961950D02*
X11012979Y-16009569D01*
X11012979Y-16009569D02*
X11003455Y-16047664D01*
X11003455Y-16047664D02*
X10993932Y-16066712D01*
X10993932Y-16066712D02*
X10984408Y-16076235D01*
X10984408Y-16076235D02*
X10965360Y-16085759D01*
X10965360Y-16085759D02*
X10946313Y-16085759D01*
X10946313Y-16085759D02*
X10927265Y-16076235D01*
X10927265Y-16076235D02*
X10917741Y-16066712D01*
X10917741Y-16066712D02*
X10908217Y-16047664D01*
X10908217Y-16047664D02*
X10898694Y-16009569D01*
X10898694Y-16009569D02*
X10898694Y-15961950D01*
X10898694Y-15961950D02*
X10908217Y-15923854D01*
X10908217Y-15923854D02*
X10917741Y-15904807D01*
X10917741Y-15904807D02*
X10927265Y-15895283D01*
X10927265Y-15895283D02*
X10946313Y-15885759D01*
X11136789Y-15885759D02*
X11155836Y-15885759D01*
X11155836Y-15885759D02*
X11174884Y-15895283D01*
X11174884Y-15895283D02*
X11184408Y-15904807D01*
X11184408Y-15904807D02*
X11193932Y-15923854D01*
X11193932Y-15923854D02*
X11203455Y-15961950D01*
X11203455Y-15961950D02*
X11203455Y-16009569D01*
X11203455Y-16009569D02*
X11193932Y-16047664D01*
X11193932Y-16047664D02*
X11184408Y-16066712D01*
X11184408Y-16066712D02*
X11174884Y-16076235D01*
X11174884Y-16076235D02*
X11155836Y-16085759D01*
X11155836Y-16085759D02*
X11136789Y-16085759D01*
X11136789Y-16085759D02*
X11117741Y-16076235D01*
X11117741Y-16076235D02*
X11108217Y-16066712D01*
X11108217Y-16066712D02*
X11098694Y-16047664D01*
X11098694Y-16047664D02*
X11089170Y-16009569D01*
X11089170Y-16009569D02*
X11089170Y-15961950D01*
X11089170Y-15961950D02*
X11098694Y-15923854D01*
X11098694Y-15923854D02*
X11108217Y-15904807D01*
X11108217Y-15904807D02*
X11117741Y-15895283D01*
X11117741Y-15895283D02*
X11136789Y-15885759D01*
X11289170Y-16085759D02*
X11289170Y-15952426D01*
X11289170Y-15971473D02*
X11298693Y-15961950D01*
X11298693Y-15961950D02*
X11317741Y-15952426D01*
X11317741Y-15952426D02*
X11346313Y-15952426D01*
X11346313Y-15952426D02*
X11365360Y-15961950D01*
X11365360Y-15961950D02*
X11374884Y-15980997D01*
X11374884Y-15980997D02*
X11374884Y-16085759D01*
X11374884Y-15980997D02*
X11384408Y-15961950D01*
X11384408Y-15961950D02*
X11403455Y-15952426D01*
X11403455Y-15952426D02*
X11432027Y-15952426D01*
X11432027Y-15952426D02*
X11451074Y-15961950D01*
X11451074Y-15961950D02*
X11460598Y-15980997D01*
X11460598Y-15980997D02*
X11460598Y-16085759D01*
X11555836Y-16085759D02*
X11555836Y-15952426D01*
X11555836Y-15971473D02*
X11565360Y-15961950D01*
X11565360Y-15961950D02*
X11584408Y-15952426D01*
X11584408Y-15952426D02*
X11612979Y-15952426D01*
X11612979Y-15952426D02*
X11632027Y-15961950D01*
X11632027Y-15961950D02*
X11641551Y-15980997D01*
X11641551Y-15980997D02*
X11641551Y-16085759D01*
X11641551Y-15980997D02*
X11651074Y-15961950D01*
X11651074Y-15961950D02*
X11670122Y-15952426D01*
X11670122Y-15952426D02*
X11698693Y-15952426D01*
X11698693Y-15952426D02*
X11717741Y-15961950D01*
X11717741Y-15961950D02*
X11727265Y-15980997D01*
X11727265Y-15980997D02*
X11727265Y-16085759D01*
X12117741Y-15876235D02*
X11946313Y-16133378D01*
X12374884Y-15885759D02*
X12393932Y-15885759D01*
X12393932Y-15885759D02*
X12412979Y-15895283D01*
X12412979Y-15895283D02*
X12422503Y-15904807D01*
X12422503Y-15904807D02*
X12432027Y-15923854D01*
X12432027Y-15923854D02*
X12441551Y-15961950D01*
X12441551Y-15961950D02*
X12441551Y-16009569D01*
X12441551Y-16009569D02*
X12432027Y-16047664D01*
X12432027Y-16047664D02*
X12422503Y-16066712D01*
X12422503Y-16066712D02*
X12412979Y-16076235D01*
X12412979Y-16076235D02*
X12393932Y-16085759D01*
X12393932Y-16085759D02*
X12374884Y-16085759D01*
X12374884Y-16085759D02*
X12355836Y-16076235D01*
X12355836Y-16076235D02*
X12346313Y-16066712D01*
X12346313Y-16066712D02*
X12336789Y-16047664D01*
X12336789Y-16047664D02*
X12327265Y-16009569D01*
X12327265Y-16009569D02*
X12327265Y-15961950D01*
X12327265Y-15961950D02*
X12336789Y-15923854D01*
X12336789Y-15923854D02*
X12346313Y-15904807D01*
X12346313Y-15904807D02*
X12355836Y-15895283D01*
X12355836Y-15895283D02*
X12374884Y-15885759D01*
X12527265Y-16066712D02*
X12536789Y-16076235D01*
X12536789Y-16076235D02*
X12527265Y-16085759D01*
X12527265Y-16085759D02*
X12517741Y-16076235D01*
X12517741Y-16076235D02*
X12527265Y-16066712D01*
X12527265Y-16066712D02*
X12527265Y-16085759D01*
X12660598Y-15885759D02*
X12679646Y-15885759D01*
X12679646Y-15885759D02*
X12698694Y-15895283D01*
X12698694Y-15895283D02*
X12708217Y-15904807D01*
X12708217Y-15904807D02*
X12717741Y-15923854D01*
X12717741Y-15923854D02*
X12727265Y-15961950D01*
X12727265Y-15961950D02*
X12727265Y-16009569D01*
X12727265Y-16009569D02*
X12717741Y-16047664D01*
X12717741Y-16047664D02*
X12708217Y-16066712D01*
X12708217Y-16066712D02*
X12698694Y-16076235D01*
X12698694Y-16076235D02*
X12679646Y-16085759D01*
X12679646Y-16085759D02*
X12660598Y-16085759D01*
X12660598Y-16085759D02*
X12641551Y-16076235D01*
X12641551Y-16076235D02*
X12632027Y-16066712D01*
X12632027Y-16066712D02*
X12622503Y-16047664D01*
X12622503Y-16047664D02*
X12612979Y-16009569D01*
X12612979Y-16009569D02*
X12612979Y-15961950D01*
X12612979Y-15961950D02*
X12622503Y-15923854D01*
X12622503Y-15923854D02*
X12632027Y-15904807D01*
X12632027Y-15904807D02*
X12641551Y-15895283D01*
X12641551Y-15895283D02*
X12660598Y-15885759D01*
X12917741Y-16085759D02*
X12803456Y-16085759D01*
X12860598Y-16085759D02*
X12860598Y-15885759D01*
X12860598Y-15885759D02*
X12841551Y-15914331D01*
X12841551Y-15914331D02*
X12822503Y-15933378D01*
X12822503Y-15933378D02*
X12803456Y-15942902D01*
X13098694Y-15885759D02*
X13003456Y-15885759D01*
X13003456Y-15885759D02*
X12993932Y-15980997D01*
X12993932Y-15980997D02*
X13003456Y-15971473D01*
X13003456Y-15971473D02*
X13022503Y-15961950D01*
X13022503Y-15961950D02*
X13070122Y-15961950D01*
X13070122Y-15961950D02*
X13089170Y-15971473D01*
X13089170Y-15971473D02*
X13098694Y-15980997D01*
X13098694Y-15980997D02*
X13108217Y-16000045D01*
X13108217Y-16000045D02*
X13108217Y-16047664D01*
X13108217Y-16047664D02*
X13098694Y-16066712D01*
X13098694Y-16066712D02*
X13089170Y-16076235D01*
X13089170Y-16076235D02*
X13070122Y-16085759D01*
X13070122Y-16085759D02*
X13022503Y-16085759D01*
X13022503Y-16085759D02*
X13003456Y-16076235D01*
X13003456Y-16076235D02*
X12993932Y-16066712D01*
X13174884Y-15885759D02*
X13308217Y-15885759D01*
X13308217Y-15885759D02*
X13222503Y-16085759D01*
X13374884Y-15885759D02*
X13374884Y-15923854D01*
X13451075Y-15885759D02*
X13451075Y-15923854D01*
X13746313Y-16161950D02*
X13736789Y-16152426D01*
X13736789Y-16152426D02*
X13717741Y-16123854D01*
X13717741Y-16123854D02*
X13708218Y-16104807D01*
X13708218Y-16104807D02*
X13698694Y-16076235D01*
X13698694Y-16076235D02*
X13689170Y-16028616D01*
X13689170Y-16028616D02*
X13689170Y-15990521D01*
X13689170Y-15990521D02*
X13698694Y-15942902D01*
X13698694Y-15942902D02*
X13708218Y-15914331D01*
X13708218Y-15914331D02*
X13717741Y-15895283D01*
X13717741Y-15895283D02*
X13736789Y-15866712D01*
X13736789Y-15866712D02*
X13746313Y-15857188D01*
X13927265Y-16085759D02*
X13812979Y-16085759D01*
X13870122Y-16085759D02*
X13870122Y-15885759D01*
X13870122Y-15885759D02*
X13851075Y-15914331D01*
X13851075Y-15914331D02*
X13832027Y-15933378D01*
X13832027Y-15933378D02*
X13812979Y-15942902D01*
X14117741Y-16085759D02*
X14003456Y-16085759D01*
X14060598Y-16085759D02*
X14060598Y-15885759D01*
X14060598Y-15885759D02*
X14041551Y-15914331D01*
X14041551Y-15914331D02*
X14022503Y-15933378D01*
X14022503Y-15933378D02*
X14003456Y-15942902D01*
X14355837Y-16085759D02*
X14355837Y-15885759D01*
X14441551Y-16085759D02*
X14441551Y-15980997D01*
X14441551Y-15980997D02*
X14432027Y-15961950D01*
X14432027Y-15961950D02*
X14412980Y-15952426D01*
X14412980Y-15952426D02*
X14384408Y-15952426D01*
X14384408Y-15952426D02*
X14365360Y-15961950D01*
X14365360Y-15961950D02*
X14355837Y-15971473D01*
X14565360Y-16085759D02*
X14546313Y-16076235D01*
X14546313Y-16076235D02*
X14536789Y-16066712D01*
X14536789Y-16066712D02*
X14527265Y-16047664D01*
X14527265Y-16047664D02*
X14527265Y-15990521D01*
X14527265Y-15990521D02*
X14536789Y-15971473D01*
X14536789Y-15971473D02*
X14546313Y-15961950D01*
X14546313Y-15961950D02*
X14565360Y-15952426D01*
X14565360Y-15952426D02*
X14593932Y-15952426D01*
X14593932Y-15952426D02*
X14612980Y-15961950D01*
X14612980Y-15961950D02*
X14622503Y-15971473D01*
X14622503Y-15971473D02*
X14632027Y-15990521D01*
X14632027Y-15990521D02*
X14632027Y-16047664D01*
X14632027Y-16047664D02*
X14622503Y-16066712D01*
X14622503Y-16066712D02*
X14612980Y-16076235D01*
X14612980Y-16076235D02*
X14593932Y-16085759D01*
X14593932Y-16085759D02*
X14565360Y-16085759D01*
X14746313Y-16085759D02*
X14727265Y-16076235D01*
X14727265Y-16076235D02*
X14717741Y-16057188D01*
X14717741Y-16057188D02*
X14717741Y-15885759D01*
X14898694Y-16076235D02*
X14879646Y-16085759D01*
X14879646Y-16085759D02*
X14841551Y-16085759D01*
X14841551Y-16085759D02*
X14822503Y-16076235D01*
X14822503Y-16076235D02*
X14812980Y-16057188D01*
X14812980Y-16057188D02*
X14812980Y-15980997D01*
X14812980Y-15980997D02*
X14822503Y-15961950D01*
X14822503Y-15961950D02*
X14841551Y-15952426D01*
X14841551Y-15952426D02*
X14879646Y-15952426D01*
X14879646Y-15952426D02*
X14898694Y-15961950D01*
X14898694Y-15961950D02*
X14908218Y-15980997D01*
X14908218Y-15980997D02*
X14908218Y-16000045D01*
X14908218Y-16000045D02*
X14812980Y-16019093D01*
X14984408Y-16076235D02*
X15003456Y-16085759D01*
X15003456Y-16085759D02*
X15041551Y-16085759D01*
X15041551Y-16085759D02*
X15060599Y-16076235D01*
X15060599Y-16076235D02*
X15070122Y-16057188D01*
X15070122Y-16057188D02*
X15070122Y-16047664D01*
X15070122Y-16047664D02*
X15060599Y-16028616D01*
X15060599Y-16028616D02*
X15041551Y-16019093D01*
X15041551Y-16019093D02*
X15012980Y-16019093D01*
X15012980Y-16019093D02*
X14993932Y-16009569D01*
X14993932Y-16009569D02*
X14984408Y-15990521D01*
X14984408Y-15990521D02*
X14984408Y-15980997D01*
X14984408Y-15980997D02*
X14993932Y-15961950D01*
X14993932Y-15961950D02*
X15012980Y-15952426D01*
X15012980Y-15952426D02*
X15041551Y-15952426D01*
X15041551Y-15952426D02*
X15060599Y-15961950D01*
X15136789Y-16161950D02*
X15146313Y-16152426D01*
X15146313Y-16152426D02*
X15165361Y-16123854D01*
X15165361Y-16123854D02*
X15174884Y-16104807D01*
X15174884Y-16104807D02*
X15184408Y-16076235D01*
X15184408Y-16076235D02*
X15193932Y-16028616D01*
X15193932Y-16028616D02*
X15193932Y-15990521D01*
X15193932Y-15990521D02*
X15184408Y-15942902D01*
X15184408Y-15942902D02*
X15174884Y-15914331D01*
X15174884Y-15914331D02*
X15165361Y-15895283D01*
X15165361Y-15895283D02*
X15146313Y-15866712D01*
X15146313Y-15866712D02*
X15136789Y-15857188D01*
D13*
X10171250Y-16258275D02*
G75*
G03*
X10171250Y-16258275I-37500J0D01*
G01*
D11*
X10470122Y-16149759D02*
X10489170Y-16149759D01*
X10489170Y-16149759D02*
X10508217Y-16159283D01*
X10508217Y-16159283D02*
X10517741Y-16168807D01*
X10517741Y-16168807D02*
X10527265Y-16187854D01*
X10527265Y-16187854D02*
X10536789Y-16225950D01*
X10536789Y-16225950D02*
X10536789Y-16273569D01*
X10536789Y-16273569D02*
X10527265Y-16311664D01*
X10527265Y-16311664D02*
X10517741Y-16330712D01*
X10517741Y-16330712D02*
X10508217Y-16340235D01*
X10508217Y-16340235D02*
X10489170Y-16349759D01*
X10489170Y-16349759D02*
X10470122Y-16349759D01*
X10470122Y-16349759D02*
X10451074Y-16340235D01*
X10451074Y-16340235D02*
X10441551Y-16330712D01*
X10441551Y-16330712D02*
X10432027Y-16311664D01*
X10432027Y-16311664D02*
X10422503Y-16273569D01*
X10422503Y-16273569D02*
X10422503Y-16225950D01*
X10422503Y-16225950D02*
X10432027Y-16187854D01*
X10432027Y-16187854D02*
X10441551Y-16168807D01*
X10441551Y-16168807D02*
X10451074Y-16159283D01*
X10451074Y-16159283D02*
X10470122Y-16149759D01*
X10622503Y-16330712D02*
X10632027Y-16340235D01*
X10632027Y-16340235D02*
X10622503Y-16349759D01*
X10622503Y-16349759D02*
X10612979Y-16340235D01*
X10612979Y-16340235D02*
X10622503Y-16330712D01*
X10622503Y-16330712D02*
X10622503Y-16349759D01*
X10698694Y-16149759D02*
X10832027Y-16149759D01*
X10832027Y-16149759D02*
X10746313Y-16349759D01*
X11003455Y-16149759D02*
X10908217Y-16149759D01*
X10908217Y-16149759D02*
X10898694Y-16244997D01*
X10898694Y-16244997D02*
X10908217Y-16235473D01*
X10908217Y-16235473D02*
X10927265Y-16225950D01*
X10927265Y-16225950D02*
X10974884Y-16225950D01*
X10974884Y-16225950D02*
X10993932Y-16235473D01*
X10993932Y-16235473D02*
X11003455Y-16244997D01*
X11003455Y-16244997D02*
X11012979Y-16264045D01*
X11012979Y-16264045D02*
X11012979Y-16311664D01*
X11012979Y-16311664D02*
X11003455Y-16330712D01*
X11003455Y-16330712D02*
X10993932Y-16340235D01*
X10993932Y-16340235D02*
X10974884Y-16349759D01*
X10974884Y-16349759D02*
X10927265Y-16349759D01*
X10927265Y-16349759D02*
X10908217Y-16340235D01*
X10908217Y-16340235D02*
X10898694Y-16330712D01*
X11136789Y-16149759D02*
X11155836Y-16149759D01*
X11155836Y-16149759D02*
X11174884Y-16159283D01*
X11174884Y-16159283D02*
X11184408Y-16168807D01*
X11184408Y-16168807D02*
X11193932Y-16187854D01*
X11193932Y-16187854D02*
X11203455Y-16225950D01*
X11203455Y-16225950D02*
X11203455Y-16273569D01*
X11203455Y-16273569D02*
X11193932Y-16311664D01*
X11193932Y-16311664D02*
X11184408Y-16330712D01*
X11184408Y-16330712D02*
X11174884Y-16340235D01*
X11174884Y-16340235D02*
X11155836Y-16349759D01*
X11155836Y-16349759D02*
X11136789Y-16349759D01*
X11136789Y-16349759D02*
X11117741Y-16340235D01*
X11117741Y-16340235D02*
X11108217Y-16330712D01*
X11108217Y-16330712D02*
X11098694Y-16311664D01*
X11098694Y-16311664D02*
X11089170Y-16273569D01*
X11089170Y-16273569D02*
X11089170Y-16225950D01*
X11089170Y-16225950D02*
X11098694Y-16187854D01*
X11098694Y-16187854D02*
X11108217Y-16168807D01*
X11108217Y-16168807D02*
X11117741Y-16159283D01*
X11117741Y-16159283D02*
X11136789Y-16149759D01*
X11289170Y-16349759D02*
X11289170Y-16216426D01*
X11289170Y-16235473D02*
X11298693Y-16225950D01*
X11298693Y-16225950D02*
X11317741Y-16216426D01*
X11317741Y-16216426D02*
X11346313Y-16216426D01*
X11346313Y-16216426D02*
X11365360Y-16225950D01*
X11365360Y-16225950D02*
X11374884Y-16244997D01*
X11374884Y-16244997D02*
X11374884Y-16349759D01*
X11374884Y-16244997D02*
X11384408Y-16225950D01*
X11384408Y-16225950D02*
X11403455Y-16216426D01*
X11403455Y-16216426D02*
X11432027Y-16216426D01*
X11432027Y-16216426D02*
X11451074Y-16225950D01*
X11451074Y-16225950D02*
X11460598Y-16244997D01*
X11460598Y-16244997D02*
X11460598Y-16349759D01*
X11555836Y-16349759D02*
X11555836Y-16216426D01*
X11555836Y-16235473D02*
X11565360Y-16225950D01*
X11565360Y-16225950D02*
X11584408Y-16216426D01*
X11584408Y-16216426D02*
X11612979Y-16216426D01*
X11612979Y-16216426D02*
X11632027Y-16225950D01*
X11632027Y-16225950D02*
X11641551Y-16244997D01*
X11641551Y-16244997D02*
X11641551Y-16349759D01*
X11641551Y-16244997D02*
X11651074Y-16225950D01*
X11651074Y-16225950D02*
X11670122Y-16216426D01*
X11670122Y-16216426D02*
X11698693Y-16216426D01*
X11698693Y-16216426D02*
X11717741Y-16225950D01*
X11717741Y-16225950D02*
X11727265Y-16244997D01*
X11727265Y-16244997D02*
X11727265Y-16349759D01*
X12117741Y-16140235D02*
X11946313Y-16397378D01*
X12374884Y-16149759D02*
X12393932Y-16149759D01*
X12393932Y-16149759D02*
X12412979Y-16159283D01*
X12412979Y-16159283D02*
X12422503Y-16168807D01*
X12422503Y-16168807D02*
X12432027Y-16187854D01*
X12432027Y-16187854D02*
X12441551Y-16225950D01*
X12441551Y-16225950D02*
X12441551Y-16273569D01*
X12441551Y-16273569D02*
X12432027Y-16311664D01*
X12432027Y-16311664D02*
X12422503Y-16330712D01*
X12422503Y-16330712D02*
X12412979Y-16340235D01*
X12412979Y-16340235D02*
X12393932Y-16349759D01*
X12393932Y-16349759D02*
X12374884Y-16349759D01*
X12374884Y-16349759D02*
X12355836Y-16340235D01*
X12355836Y-16340235D02*
X12346313Y-16330712D01*
X12346313Y-16330712D02*
X12336789Y-16311664D01*
X12336789Y-16311664D02*
X12327265Y-16273569D01*
X12327265Y-16273569D02*
X12327265Y-16225950D01*
X12327265Y-16225950D02*
X12336789Y-16187854D01*
X12336789Y-16187854D02*
X12346313Y-16168807D01*
X12346313Y-16168807D02*
X12355836Y-16159283D01*
X12355836Y-16159283D02*
X12374884Y-16149759D01*
X12527265Y-16330712D02*
X12536789Y-16340235D01*
X12536789Y-16340235D02*
X12527265Y-16349759D01*
X12527265Y-16349759D02*
X12517741Y-16340235D01*
X12517741Y-16340235D02*
X12527265Y-16330712D01*
X12527265Y-16330712D02*
X12527265Y-16349759D01*
X12660598Y-16149759D02*
X12679646Y-16149759D01*
X12679646Y-16149759D02*
X12698694Y-16159283D01*
X12698694Y-16159283D02*
X12708217Y-16168807D01*
X12708217Y-16168807D02*
X12717741Y-16187854D01*
X12717741Y-16187854D02*
X12727265Y-16225950D01*
X12727265Y-16225950D02*
X12727265Y-16273569D01*
X12727265Y-16273569D02*
X12717741Y-16311664D01*
X12717741Y-16311664D02*
X12708217Y-16330712D01*
X12708217Y-16330712D02*
X12698694Y-16340235D01*
X12698694Y-16340235D02*
X12679646Y-16349759D01*
X12679646Y-16349759D02*
X12660598Y-16349759D01*
X12660598Y-16349759D02*
X12641551Y-16340235D01*
X12641551Y-16340235D02*
X12632027Y-16330712D01*
X12632027Y-16330712D02*
X12622503Y-16311664D01*
X12622503Y-16311664D02*
X12612979Y-16273569D01*
X12612979Y-16273569D02*
X12612979Y-16225950D01*
X12612979Y-16225950D02*
X12622503Y-16187854D01*
X12622503Y-16187854D02*
X12632027Y-16168807D01*
X12632027Y-16168807D02*
X12641551Y-16159283D01*
X12641551Y-16159283D02*
X12660598Y-16149759D01*
X12803456Y-16168807D02*
X12812979Y-16159283D01*
X12812979Y-16159283D02*
X12832027Y-16149759D01*
X12832027Y-16149759D02*
X12879646Y-16149759D01*
X12879646Y-16149759D02*
X12898694Y-16159283D01*
X12898694Y-16159283D02*
X12908217Y-16168807D01*
X12908217Y-16168807D02*
X12917741Y-16187854D01*
X12917741Y-16187854D02*
X12917741Y-16206902D01*
X12917741Y-16206902D02*
X12908217Y-16235473D01*
X12908217Y-16235473D02*
X12793932Y-16349759D01*
X12793932Y-16349759D02*
X12917741Y-16349759D01*
X13012979Y-16349759D02*
X13051075Y-16349759D01*
X13051075Y-16349759D02*
X13070122Y-16340235D01*
X13070122Y-16340235D02*
X13079646Y-16330712D01*
X13079646Y-16330712D02*
X13098694Y-16302140D01*
X13098694Y-16302140D02*
X13108217Y-16264045D01*
X13108217Y-16264045D02*
X13108217Y-16187854D01*
X13108217Y-16187854D02*
X13098694Y-16168807D01*
X13098694Y-16168807D02*
X13089170Y-16159283D01*
X13089170Y-16159283D02*
X13070122Y-16149759D01*
X13070122Y-16149759D02*
X13032027Y-16149759D01*
X13032027Y-16149759D02*
X13012979Y-16159283D01*
X13012979Y-16159283D02*
X13003456Y-16168807D01*
X13003456Y-16168807D02*
X12993932Y-16187854D01*
X12993932Y-16187854D02*
X12993932Y-16235473D01*
X12993932Y-16235473D02*
X13003456Y-16254521D01*
X13003456Y-16254521D02*
X13012979Y-16264045D01*
X13012979Y-16264045D02*
X13032027Y-16273569D01*
X13032027Y-16273569D02*
X13070122Y-16273569D01*
X13070122Y-16273569D02*
X13089170Y-16264045D01*
X13089170Y-16264045D02*
X13098694Y-16254521D01*
X13098694Y-16254521D02*
X13108217Y-16235473D01*
X13289170Y-16149759D02*
X13193932Y-16149759D01*
X13193932Y-16149759D02*
X13184408Y-16244997D01*
X13184408Y-16244997D02*
X13193932Y-16235473D01*
X13193932Y-16235473D02*
X13212979Y-16225950D01*
X13212979Y-16225950D02*
X13260598Y-16225950D01*
X13260598Y-16225950D02*
X13279646Y-16235473D01*
X13279646Y-16235473D02*
X13289170Y-16244997D01*
X13289170Y-16244997D02*
X13298694Y-16264045D01*
X13298694Y-16264045D02*
X13298694Y-16311664D01*
X13298694Y-16311664D02*
X13289170Y-16330712D01*
X13289170Y-16330712D02*
X13279646Y-16340235D01*
X13279646Y-16340235D02*
X13260598Y-16349759D01*
X13260598Y-16349759D02*
X13212979Y-16349759D01*
X13212979Y-16349759D02*
X13193932Y-16340235D01*
X13193932Y-16340235D02*
X13184408Y-16330712D01*
X13374884Y-16149759D02*
X13374884Y-16187854D01*
X13451075Y-16149759D02*
X13451075Y-16187854D01*
X13746313Y-16425950D02*
X13736789Y-16416426D01*
X13736789Y-16416426D02*
X13717741Y-16387854D01*
X13717741Y-16387854D02*
X13708218Y-16368807D01*
X13708218Y-16368807D02*
X13698694Y-16340235D01*
X13698694Y-16340235D02*
X13689170Y-16292616D01*
X13689170Y-16292616D02*
X13689170Y-16254521D01*
X13689170Y-16254521D02*
X13698694Y-16206902D01*
X13698694Y-16206902D02*
X13708218Y-16178331D01*
X13708218Y-16178331D02*
X13717741Y-16159283D01*
X13717741Y-16159283D02*
X13736789Y-16130712D01*
X13736789Y-16130712D02*
X13746313Y-16121188D01*
X13908218Y-16149759D02*
X13870122Y-16149759D01*
X13870122Y-16149759D02*
X13851075Y-16159283D01*
X13851075Y-16159283D02*
X13841551Y-16168807D01*
X13841551Y-16168807D02*
X13822503Y-16197378D01*
X13822503Y-16197378D02*
X13812979Y-16235473D01*
X13812979Y-16235473D02*
X13812979Y-16311664D01*
X13812979Y-16311664D02*
X13822503Y-16330712D01*
X13822503Y-16330712D02*
X13832027Y-16340235D01*
X13832027Y-16340235D02*
X13851075Y-16349759D01*
X13851075Y-16349759D02*
X13889170Y-16349759D01*
X13889170Y-16349759D02*
X13908218Y-16340235D01*
X13908218Y-16340235D02*
X13917741Y-16330712D01*
X13917741Y-16330712D02*
X13927265Y-16311664D01*
X13927265Y-16311664D02*
X13927265Y-16264045D01*
X13927265Y-16264045D02*
X13917741Y-16244997D01*
X13917741Y-16244997D02*
X13908218Y-16235473D01*
X13908218Y-16235473D02*
X13889170Y-16225950D01*
X13889170Y-16225950D02*
X13851075Y-16225950D01*
X13851075Y-16225950D02*
X13832027Y-16235473D01*
X13832027Y-16235473D02*
X13822503Y-16244997D01*
X13822503Y-16244997D02*
X13812979Y-16264045D01*
X14165360Y-16349759D02*
X14165360Y-16149759D01*
X14251075Y-16349759D02*
X14251075Y-16244997D01*
X14251075Y-16244997D02*
X14241551Y-16225950D01*
X14241551Y-16225950D02*
X14222503Y-16216426D01*
X14222503Y-16216426D02*
X14193932Y-16216426D01*
X14193932Y-16216426D02*
X14174884Y-16225950D01*
X14174884Y-16225950D02*
X14165360Y-16235473D01*
X14374884Y-16349759D02*
X14355837Y-16340235D01*
X14355837Y-16340235D02*
X14346313Y-16330712D01*
X14346313Y-16330712D02*
X14336789Y-16311664D01*
X14336789Y-16311664D02*
X14336789Y-16254521D01*
X14336789Y-16254521D02*
X14346313Y-16235473D01*
X14346313Y-16235473D02*
X14355837Y-16225950D01*
X14355837Y-16225950D02*
X14374884Y-16216426D01*
X14374884Y-16216426D02*
X14403456Y-16216426D01*
X14403456Y-16216426D02*
X14422503Y-16225950D01*
X14422503Y-16225950D02*
X14432027Y-16235473D01*
X14432027Y-16235473D02*
X14441551Y-16254521D01*
X14441551Y-16254521D02*
X14441551Y-16311664D01*
X14441551Y-16311664D02*
X14432027Y-16330712D01*
X14432027Y-16330712D02*
X14422503Y-16340235D01*
X14422503Y-16340235D02*
X14403456Y-16349759D01*
X14403456Y-16349759D02*
X14374884Y-16349759D01*
X14555837Y-16349759D02*
X14536789Y-16340235D01*
X14536789Y-16340235D02*
X14527265Y-16321188D01*
X14527265Y-16321188D02*
X14527265Y-16149759D01*
X14708218Y-16340235D02*
X14689170Y-16349759D01*
X14689170Y-16349759D02*
X14651075Y-16349759D01*
X14651075Y-16349759D02*
X14632027Y-16340235D01*
X14632027Y-16340235D02*
X14622503Y-16321188D01*
X14622503Y-16321188D02*
X14622503Y-16244997D01*
X14622503Y-16244997D02*
X14632027Y-16225950D01*
X14632027Y-16225950D02*
X14651075Y-16216426D01*
X14651075Y-16216426D02*
X14689170Y-16216426D01*
X14689170Y-16216426D02*
X14708218Y-16225950D01*
X14708218Y-16225950D02*
X14717741Y-16244997D01*
X14717741Y-16244997D02*
X14717741Y-16264045D01*
X14717741Y-16264045D02*
X14622503Y-16283093D01*
X14793932Y-16340235D02*
X14812980Y-16349759D01*
X14812980Y-16349759D02*
X14851075Y-16349759D01*
X14851075Y-16349759D02*
X14870122Y-16340235D01*
X14870122Y-16340235D02*
X14879646Y-16321188D01*
X14879646Y-16321188D02*
X14879646Y-16311664D01*
X14879646Y-16311664D02*
X14870122Y-16292616D01*
X14870122Y-16292616D02*
X14851075Y-16283093D01*
X14851075Y-16283093D02*
X14822503Y-16283093D01*
X14822503Y-16283093D02*
X14803456Y-16273569D01*
X14803456Y-16273569D02*
X14793932Y-16254521D01*
X14793932Y-16254521D02*
X14793932Y-16244997D01*
X14793932Y-16244997D02*
X14803456Y-16225950D01*
X14803456Y-16225950D02*
X14822503Y-16216426D01*
X14822503Y-16216426D02*
X14851075Y-16216426D01*
X14851075Y-16216426D02*
X14870122Y-16225950D01*
X14946313Y-16425950D02*
X14955837Y-16416426D01*
X14955837Y-16416426D02*
X14974884Y-16387854D01*
X14974884Y-16387854D02*
X14984408Y-16368807D01*
X14984408Y-16368807D02*
X14993932Y-16340235D01*
X14993932Y-16340235D02*
X15003456Y-16292616D01*
X15003456Y-16292616D02*
X15003456Y-16254521D01*
X15003456Y-16254521D02*
X14993932Y-16206902D01*
X14993932Y-16206902D02*
X14984408Y-16178331D01*
X14984408Y-16178331D02*
X14974884Y-16159283D01*
X14974884Y-16159283D02*
X14955837Y-16130712D01*
X14955837Y-16130712D02*
X14946313Y-16121188D01*
D14*
X10131250Y-16482275D02*
X10131250Y-16562275D01*
X10091250Y-16522275D02*
X10171250Y-16522275D01*
D11*
X10470122Y-16413759D02*
X10489170Y-16413759D01*
X10489170Y-16413759D02*
X10508217Y-16423283D01*
X10508217Y-16423283D02*
X10517741Y-16432807D01*
X10517741Y-16432807D02*
X10527265Y-16451854D01*
X10527265Y-16451854D02*
X10536789Y-16489950D01*
X10536789Y-16489950D02*
X10536789Y-16537569D01*
X10536789Y-16537569D02*
X10527265Y-16575664D01*
X10527265Y-16575664D02*
X10517741Y-16594712D01*
X10517741Y-16594712D02*
X10508217Y-16604235D01*
X10508217Y-16604235D02*
X10489170Y-16613759D01*
X10489170Y-16613759D02*
X10470122Y-16613759D01*
X10470122Y-16613759D02*
X10451074Y-16604235D01*
X10451074Y-16604235D02*
X10441551Y-16594712D01*
X10441551Y-16594712D02*
X10432027Y-16575664D01*
X10432027Y-16575664D02*
X10422503Y-16537569D01*
X10422503Y-16537569D02*
X10422503Y-16489950D01*
X10422503Y-16489950D02*
X10432027Y-16451854D01*
X10432027Y-16451854D02*
X10441551Y-16432807D01*
X10441551Y-16432807D02*
X10451074Y-16423283D01*
X10451074Y-16423283D02*
X10470122Y-16413759D01*
X10622503Y-16594712D02*
X10632027Y-16604235D01*
X10632027Y-16604235D02*
X10622503Y-16613759D01*
X10622503Y-16613759D02*
X10612979Y-16604235D01*
X10612979Y-16604235D02*
X10622503Y-16594712D01*
X10622503Y-16594712D02*
X10622503Y-16613759D01*
X10746313Y-16499473D02*
X10727265Y-16489950D01*
X10727265Y-16489950D02*
X10717741Y-16480426D01*
X10717741Y-16480426D02*
X10708217Y-16461378D01*
X10708217Y-16461378D02*
X10708217Y-16451854D01*
X10708217Y-16451854D02*
X10717741Y-16432807D01*
X10717741Y-16432807D02*
X10727265Y-16423283D01*
X10727265Y-16423283D02*
X10746313Y-16413759D01*
X10746313Y-16413759D02*
X10784408Y-16413759D01*
X10784408Y-16413759D02*
X10803455Y-16423283D01*
X10803455Y-16423283D02*
X10812979Y-16432807D01*
X10812979Y-16432807D02*
X10822503Y-16451854D01*
X10822503Y-16451854D02*
X10822503Y-16461378D01*
X10822503Y-16461378D02*
X10812979Y-16480426D01*
X10812979Y-16480426D02*
X10803455Y-16489950D01*
X10803455Y-16489950D02*
X10784408Y-16499473D01*
X10784408Y-16499473D02*
X10746313Y-16499473D01*
X10746313Y-16499473D02*
X10727265Y-16508997D01*
X10727265Y-16508997D02*
X10717741Y-16518521D01*
X10717741Y-16518521D02*
X10708217Y-16537569D01*
X10708217Y-16537569D02*
X10708217Y-16575664D01*
X10708217Y-16575664D02*
X10717741Y-16594712D01*
X10717741Y-16594712D02*
X10727265Y-16604235D01*
X10727265Y-16604235D02*
X10746313Y-16613759D01*
X10746313Y-16613759D02*
X10784408Y-16613759D01*
X10784408Y-16613759D02*
X10803455Y-16604235D01*
X10803455Y-16604235D02*
X10812979Y-16594712D01*
X10812979Y-16594712D02*
X10822503Y-16575664D01*
X10822503Y-16575664D02*
X10822503Y-16537569D01*
X10822503Y-16537569D02*
X10812979Y-16518521D01*
X10812979Y-16518521D02*
X10803455Y-16508997D01*
X10803455Y-16508997D02*
X10784408Y-16499473D01*
X10946313Y-16413759D02*
X10965360Y-16413759D01*
X10965360Y-16413759D02*
X10984408Y-16423283D01*
X10984408Y-16423283D02*
X10993932Y-16432807D01*
X10993932Y-16432807D02*
X11003455Y-16451854D01*
X11003455Y-16451854D02*
X11012979Y-16489950D01*
X11012979Y-16489950D02*
X11012979Y-16537569D01*
X11012979Y-16537569D02*
X11003455Y-16575664D01*
X11003455Y-16575664D02*
X10993932Y-16594712D01*
X10993932Y-16594712D02*
X10984408Y-16604235D01*
X10984408Y-16604235D02*
X10965360Y-16613759D01*
X10965360Y-16613759D02*
X10946313Y-16613759D01*
X10946313Y-16613759D02*
X10927265Y-16604235D01*
X10927265Y-16604235D02*
X10917741Y-16594712D01*
X10917741Y-16594712D02*
X10908217Y-16575664D01*
X10908217Y-16575664D02*
X10898694Y-16537569D01*
X10898694Y-16537569D02*
X10898694Y-16489950D01*
X10898694Y-16489950D02*
X10908217Y-16451854D01*
X10908217Y-16451854D02*
X10917741Y-16432807D01*
X10917741Y-16432807D02*
X10927265Y-16423283D01*
X10927265Y-16423283D02*
X10946313Y-16413759D01*
X11136789Y-16413759D02*
X11155836Y-16413759D01*
X11155836Y-16413759D02*
X11174884Y-16423283D01*
X11174884Y-16423283D02*
X11184408Y-16432807D01*
X11184408Y-16432807D02*
X11193932Y-16451854D01*
X11193932Y-16451854D02*
X11203455Y-16489950D01*
X11203455Y-16489950D02*
X11203455Y-16537569D01*
X11203455Y-16537569D02*
X11193932Y-16575664D01*
X11193932Y-16575664D02*
X11184408Y-16594712D01*
X11184408Y-16594712D02*
X11174884Y-16604235D01*
X11174884Y-16604235D02*
X11155836Y-16613759D01*
X11155836Y-16613759D02*
X11136789Y-16613759D01*
X11136789Y-16613759D02*
X11117741Y-16604235D01*
X11117741Y-16604235D02*
X11108217Y-16594712D01*
X11108217Y-16594712D02*
X11098694Y-16575664D01*
X11098694Y-16575664D02*
X11089170Y-16537569D01*
X11089170Y-16537569D02*
X11089170Y-16489950D01*
X11089170Y-16489950D02*
X11098694Y-16451854D01*
X11098694Y-16451854D02*
X11108217Y-16432807D01*
X11108217Y-16432807D02*
X11117741Y-16423283D01*
X11117741Y-16423283D02*
X11136789Y-16413759D01*
X11289170Y-16613759D02*
X11289170Y-16480426D01*
X11289170Y-16499473D02*
X11298693Y-16489950D01*
X11298693Y-16489950D02*
X11317741Y-16480426D01*
X11317741Y-16480426D02*
X11346313Y-16480426D01*
X11346313Y-16480426D02*
X11365360Y-16489950D01*
X11365360Y-16489950D02*
X11374884Y-16508997D01*
X11374884Y-16508997D02*
X11374884Y-16613759D01*
X11374884Y-16508997D02*
X11384408Y-16489950D01*
X11384408Y-16489950D02*
X11403455Y-16480426D01*
X11403455Y-16480426D02*
X11432027Y-16480426D01*
X11432027Y-16480426D02*
X11451074Y-16489950D01*
X11451074Y-16489950D02*
X11460598Y-16508997D01*
X11460598Y-16508997D02*
X11460598Y-16613759D01*
X11555836Y-16613759D02*
X11555836Y-16480426D01*
X11555836Y-16499473D02*
X11565360Y-16489950D01*
X11565360Y-16489950D02*
X11584408Y-16480426D01*
X11584408Y-16480426D02*
X11612979Y-16480426D01*
X11612979Y-16480426D02*
X11632027Y-16489950D01*
X11632027Y-16489950D02*
X11641551Y-16508997D01*
X11641551Y-16508997D02*
X11641551Y-16613759D01*
X11641551Y-16508997D02*
X11651074Y-16489950D01*
X11651074Y-16489950D02*
X11670122Y-16480426D01*
X11670122Y-16480426D02*
X11698693Y-16480426D01*
X11698693Y-16480426D02*
X11717741Y-16489950D01*
X11717741Y-16489950D02*
X11727265Y-16508997D01*
X11727265Y-16508997D02*
X11727265Y-16613759D01*
X12117741Y-16404235D02*
X11946313Y-16661378D01*
X12374884Y-16413759D02*
X12393932Y-16413759D01*
X12393932Y-16413759D02*
X12412979Y-16423283D01*
X12412979Y-16423283D02*
X12422503Y-16432807D01*
X12422503Y-16432807D02*
X12432027Y-16451854D01*
X12432027Y-16451854D02*
X12441551Y-16489950D01*
X12441551Y-16489950D02*
X12441551Y-16537569D01*
X12441551Y-16537569D02*
X12432027Y-16575664D01*
X12432027Y-16575664D02*
X12422503Y-16594712D01*
X12422503Y-16594712D02*
X12412979Y-16604235D01*
X12412979Y-16604235D02*
X12393932Y-16613759D01*
X12393932Y-16613759D02*
X12374884Y-16613759D01*
X12374884Y-16613759D02*
X12355836Y-16604235D01*
X12355836Y-16604235D02*
X12346313Y-16594712D01*
X12346313Y-16594712D02*
X12336789Y-16575664D01*
X12336789Y-16575664D02*
X12327265Y-16537569D01*
X12327265Y-16537569D02*
X12327265Y-16489950D01*
X12327265Y-16489950D02*
X12336789Y-16451854D01*
X12336789Y-16451854D02*
X12346313Y-16432807D01*
X12346313Y-16432807D02*
X12355836Y-16423283D01*
X12355836Y-16423283D02*
X12374884Y-16413759D01*
X12527265Y-16594712D02*
X12536789Y-16604235D01*
X12536789Y-16604235D02*
X12527265Y-16613759D01*
X12527265Y-16613759D02*
X12517741Y-16604235D01*
X12517741Y-16604235D02*
X12527265Y-16594712D01*
X12527265Y-16594712D02*
X12527265Y-16613759D01*
X12660598Y-16413759D02*
X12679646Y-16413759D01*
X12679646Y-16413759D02*
X12698694Y-16423283D01*
X12698694Y-16423283D02*
X12708217Y-16432807D01*
X12708217Y-16432807D02*
X12717741Y-16451854D01*
X12717741Y-16451854D02*
X12727265Y-16489950D01*
X12727265Y-16489950D02*
X12727265Y-16537569D01*
X12727265Y-16537569D02*
X12717741Y-16575664D01*
X12717741Y-16575664D02*
X12708217Y-16594712D01*
X12708217Y-16594712D02*
X12698694Y-16604235D01*
X12698694Y-16604235D02*
X12679646Y-16613759D01*
X12679646Y-16613759D02*
X12660598Y-16613759D01*
X12660598Y-16613759D02*
X12641551Y-16604235D01*
X12641551Y-16604235D02*
X12632027Y-16594712D01*
X12632027Y-16594712D02*
X12622503Y-16575664D01*
X12622503Y-16575664D02*
X12612979Y-16537569D01*
X12612979Y-16537569D02*
X12612979Y-16489950D01*
X12612979Y-16489950D02*
X12622503Y-16451854D01*
X12622503Y-16451854D02*
X12632027Y-16432807D01*
X12632027Y-16432807D02*
X12641551Y-16423283D01*
X12641551Y-16423283D02*
X12660598Y-16413759D01*
X12793932Y-16413759D02*
X12917741Y-16413759D01*
X12917741Y-16413759D02*
X12851075Y-16489950D01*
X12851075Y-16489950D02*
X12879646Y-16489950D01*
X12879646Y-16489950D02*
X12898694Y-16499473D01*
X12898694Y-16499473D02*
X12908217Y-16508997D01*
X12908217Y-16508997D02*
X12917741Y-16528045D01*
X12917741Y-16528045D02*
X12917741Y-16575664D01*
X12917741Y-16575664D02*
X12908217Y-16594712D01*
X12908217Y-16594712D02*
X12898694Y-16604235D01*
X12898694Y-16604235D02*
X12879646Y-16613759D01*
X12879646Y-16613759D02*
X12822503Y-16613759D01*
X12822503Y-16613759D02*
X12803456Y-16604235D01*
X12803456Y-16604235D02*
X12793932Y-16594712D01*
X13108217Y-16613759D02*
X12993932Y-16613759D01*
X13051075Y-16613759D02*
X13051075Y-16413759D01*
X13051075Y-16413759D02*
X13032027Y-16442331D01*
X13032027Y-16442331D02*
X13012979Y-16461378D01*
X13012979Y-16461378D02*
X12993932Y-16470902D01*
X13289170Y-16413759D02*
X13193932Y-16413759D01*
X13193932Y-16413759D02*
X13184408Y-16508997D01*
X13184408Y-16508997D02*
X13193932Y-16499473D01*
X13193932Y-16499473D02*
X13212979Y-16489950D01*
X13212979Y-16489950D02*
X13260598Y-16489950D01*
X13260598Y-16489950D02*
X13279646Y-16499473D01*
X13279646Y-16499473D02*
X13289170Y-16508997D01*
X13289170Y-16508997D02*
X13298694Y-16528045D01*
X13298694Y-16528045D02*
X13298694Y-16575664D01*
X13298694Y-16575664D02*
X13289170Y-16594712D01*
X13289170Y-16594712D02*
X13279646Y-16604235D01*
X13279646Y-16604235D02*
X13260598Y-16613759D01*
X13260598Y-16613759D02*
X13212979Y-16613759D01*
X13212979Y-16613759D02*
X13193932Y-16604235D01*
X13193932Y-16604235D02*
X13184408Y-16594712D01*
X13374884Y-16413759D02*
X13374884Y-16451854D01*
X13451075Y-16413759D02*
X13451075Y-16451854D01*
X13746313Y-16689950D02*
X13736789Y-16680426D01*
X13736789Y-16680426D02*
X13717741Y-16651854D01*
X13717741Y-16651854D02*
X13708218Y-16632807D01*
X13708218Y-16632807D02*
X13698694Y-16604235D01*
X13698694Y-16604235D02*
X13689170Y-16556616D01*
X13689170Y-16556616D02*
X13689170Y-16518521D01*
X13689170Y-16518521D02*
X13698694Y-16470902D01*
X13698694Y-16470902D02*
X13708218Y-16442331D01*
X13708218Y-16442331D02*
X13717741Y-16423283D01*
X13717741Y-16423283D02*
X13736789Y-16394712D01*
X13736789Y-16394712D02*
X13746313Y-16385188D01*
X13803456Y-16413759D02*
X13936789Y-16413759D01*
X13936789Y-16413759D02*
X13851075Y-16613759D01*
X14041551Y-16499473D02*
X14022503Y-16489950D01*
X14022503Y-16489950D02*
X14012979Y-16480426D01*
X14012979Y-16480426D02*
X14003456Y-16461378D01*
X14003456Y-16461378D02*
X14003456Y-16451854D01*
X14003456Y-16451854D02*
X14012979Y-16432807D01*
X14012979Y-16432807D02*
X14022503Y-16423283D01*
X14022503Y-16423283D02*
X14041551Y-16413759D01*
X14041551Y-16413759D02*
X14079646Y-16413759D01*
X14079646Y-16413759D02*
X14098694Y-16423283D01*
X14098694Y-16423283D02*
X14108218Y-16432807D01*
X14108218Y-16432807D02*
X14117741Y-16451854D01*
X14117741Y-16451854D02*
X14117741Y-16461378D01*
X14117741Y-16461378D02*
X14108218Y-16480426D01*
X14108218Y-16480426D02*
X14098694Y-16489950D01*
X14098694Y-16489950D02*
X14079646Y-16499473D01*
X14079646Y-16499473D02*
X14041551Y-16499473D01*
X14041551Y-16499473D02*
X14022503Y-16508997D01*
X14022503Y-16508997D02*
X14012979Y-16518521D01*
X14012979Y-16518521D02*
X14003456Y-16537569D01*
X14003456Y-16537569D02*
X14003456Y-16575664D01*
X14003456Y-16575664D02*
X14012979Y-16594712D01*
X14012979Y-16594712D02*
X14022503Y-16604235D01*
X14022503Y-16604235D02*
X14041551Y-16613759D01*
X14041551Y-16613759D02*
X14079646Y-16613759D01*
X14079646Y-16613759D02*
X14098694Y-16604235D01*
X14098694Y-16604235D02*
X14108218Y-16594712D01*
X14108218Y-16594712D02*
X14117741Y-16575664D01*
X14117741Y-16575664D02*
X14117741Y-16537569D01*
X14117741Y-16537569D02*
X14108218Y-16518521D01*
X14108218Y-16518521D02*
X14098694Y-16508997D01*
X14098694Y-16508997D02*
X14079646Y-16499473D01*
X14355837Y-16613759D02*
X14355837Y-16413759D01*
X14441551Y-16613759D02*
X14441551Y-16508997D01*
X14441551Y-16508997D02*
X14432027Y-16489950D01*
X14432027Y-16489950D02*
X14412980Y-16480426D01*
X14412980Y-16480426D02*
X14384408Y-16480426D01*
X14384408Y-16480426D02*
X14365360Y-16489950D01*
X14365360Y-16489950D02*
X14355837Y-16499473D01*
X14565360Y-16613759D02*
X14546313Y-16604235D01*
X14546313Y-16604235D02*
X14536789Y-16594712D01*
X14536789Y-16594712D02*
X14527265Y-16575664D01*
X14527265Y-16575664D02*
X14527265Y-16518521D01*
X14527265Y-16518521D02*
X14536789Y-16499473D01*
X14536789Y-16499473D02*
X14546313Y-16489950D01*
X14546313Y-16489950D02*
X14565360Y-16480426D01*
X14565360Y-16480426D02*
X14593932Y-16480426D01*
X14593932Y-16480426D02*
X14612980Y-16489950D01*
X14612980Y-16489950D02*
X14622503Y-16499473D01*
X14622503Y-16499473D02*
X14632027Y-16518521D01*
X14632027Y-16518521D02*
X14632027Y-16575664D01*
X14632027Y-16575664D02*
X14622503Y-16594712D01*
X14622503Y-16594712D02*
X14612980Y-16604235D01*
X14612980Y-16604235D02*
X14593932Y-16613759D01*
X14593932Y-16613759D02*
X14565360Y-16613759D01*
X14746313Y-16613759D02*
X14727265Y-16604235D01*
X14727265Y-16604235D02*
X14717741Y-16585188D01*
X14717741Y-16585188D02*
X14717741Y-16413759D01*
X14898694Y-16604235D02*
X14879646Y-16613759D01*
X14879646Y-16613759D02*
X14841551Y-16613759D01*
X14841551Y-16613759D02*
X14822503Y-16604235D01*
X14822503Y-16604235D02*
X14812980Y-16585188D01*
X14812980Y-16585188D02*
X14812980Y-16508997D01*
X14812980Y-16508997D02*
X14822503Y-16489950D01*
X14822503Y-16489950D02*
X14841551Y-16480426D01*
X14841551Y-16480426D02*
X14879646Y-16480426D01*
X14879646Y-16480426D02*
X14898694Y-16489950D01*
X14898694Y-16489950D02*
X14908218Y-16508997D01*
X14908218Y-16508997D02*
X14908218Y-16528045D01*
X14908218Y-16528045D02*
X14812980Y-16547093D01*
X14984408Y-16604235D02*
X15003456Y-16613759D01*
X15003456Y-16613759D02*
X15041551Y-16613759D01*
X15041551Y-16613759D02*
X15060599Y-16604235D01*
X15060599Y-16604235D02*
X15070122Y-16585188D01*
X15070122Y-16585188D02*
X15070122Y-16575664D01*
X15070122Y-16575664D02*
X15060599Y-16556616D01*
X15060599Y-16556616D02*
X15041551Y-16547093D01*
X15041551Y-16547093D02*
X15012980Y-16547093D01*
X15012980Y-16547093D02*
X14993932Y-16537569D01*
X14993932Y-16537569D02*
X14984408Y-16518521D01*
X14984408Y-16518521D02*
X14984408Y-16508997D01*
X14984408Y-16508997D02*
X14993932Y-16489950D01*
X14993932Y-16489950D02*
X15012980Y-16480426D01*
X15012980Y-16480426D02*
X15041551Y-16480426D01*
X15041551Y-16480426D02*
X15060599Y-16489950D01*
X15136789Y-16689950D02*
X15146313Y-16680426D01*
X15146313Y-16680426D02*
X15165361Y-16651854D01*
X15165361Y-16651854D02*
X15174884Y-16632807D01*
X15174884Y-16632807D02*
X15184408Y-16604235D01*
X15184408Y-16604235D02*
X15193932Y-16556616D01*
X15193932Y-16556616D02*
X15193932Y-16518521D01*
X15193932Y-16518521D02*
X15184408Y-16470902D01*
X15184408Y-16470902D02*
X15174884Y-16442331D01*
X15174884Y-16442331D02*
X15165361Y-16423283D01*
X15165361Y-16423283D02*
X15146313Y-16394712D01*
X15146313Y-16394712D02*
X15136789Y-16385188D01*
D10*
X10156606Y-16821631D02*
X10156606Y-16750920D01*
X10085894Y-16750920D01*
X10085894Y-16821631D01*
X10156606Y-16821631D01*
D11*
X10536789Y-16877759D02*
X10422503Y-16877759D01*
X10479646Y-16877759D02*
X10479646Y-16677759D01*
X10479646Y-16677759D02*
X10460598Y-16706331D01*
X10460598Y-16706331D02*
X10441551Y-16725378D01*
X10441551Y-16725378D02*
X10422503Y-16734902D01*
X10622503Y-16858712D02*
X10632027Y-16868236D01*
X10632027Y-16868236D02*
X10622503Y-16877759D01*
X10622503Y-16877759D02*
X10612979Y-16868236D01*
X10612979Y-16868236D02*
X10622503Y-16858712D01*
X10622503Y-16858712D02*
X10622503Y-16877759D01*
X10755836Y-16677759D02*
X10774884Y-16677759D01*
X10774884Y-16677759D02*
X10793932Y-16687283D01*
X10793932Y-16687283D02*
X10803455Y-16696807D01*
X10803455Y-16696807D02*
X10812979Y-16715854D01*
X10812979Y-16715854D02*
X10822503Y-16753950D01*
X10822503Y-16753950D02*
X10822503Y-16801569D01*
X10822503Y-16801569D02*
X10812979Y-16839664D01*
X10812979Y-16839664D02*
X10803455Y-16858712D01*
X10803455Y-16858712D02*
X10793932Y-16868236D01*
X10793932Y-16868236D02*
X10774884Y-16877759D01*
X10774884Y-16877759D02*
X10755836Y-16877759D01*
X10755836Y-16877759D02*
X10736789Y-16868236D01*
X10736789Y-16868236D02*
X10727265Y-16858712D01*
X10727265Y-16858712D02*
X10717741Y-16839664D01*
X10717741Y-16839664D02*
X10708217Y-16801569D01*
X10708217Y-16801569D02*
X10708217Y-16753950D01*
X10708217Y-16753950D02*
X10717741Y-16715854D01*
X10717741Y-16715854D02*
X10727265Y-16696807D01*
X10727265Y-16696807D02*
X10736789Y-16687283D01*
X10736789Y-16687283D02*
X10755836Y-16677759D01*
X10946313Y-16677759D02*
X10965360Y-16677759D01*
X10965360Y-16677759D02*
X10984408Y-16687283D01*
X10984408Y-16687283D02*
X10993932Y-16696807D01*
X10993932Y-16696807D02*
X11003455Y-16715854D01*
X11003455Y-16715854D02*
X11012979Y-16753950D01*
X11012979Y-16753950D02*
X11012979Y-16801569D01*
X11012979Y-16801569D02*
X11003455Y-16839664D01*
X11003455Y-16839664D02*
X10993932Y-16858712D01*
X10993932Y-16858712D02*
X10984408Y-16868236D01*
X10984408Y-16868236D02*
X10965360Y-16877759D01*
X10965360Y-16877759D02*
X10946313Y-16877759D01*
X10946313Y-16877759D02*
X10927265Y-16868236D01*
X10927265Y-16868236D02*
X10917741Y-16858712D01*
X10917741Y-16858712D02*
X10908217Y-16839664D01*
X10908217Y-16839664D02*
X10898694Y-16801569D01*
X10898694Y-16801569D02*
X10898694Y-16753950D01*
X10898694Y-16753950D02*
X10908217Y-16715854D01*
X10908217Y-16715854D02*
X10917741Y-16696807D01*
X10917741Y-16696807D02*
X10927265Y-16687283D01*
X10927265Y-16687283D02*
X10946313Y-16677759D01*
X11136789Y-16677759D02*
X11155836Y-16677759D01*
X11155836Y-16677759D02*
X11174884Y-16687283D01*
X11174884Y-16687283D02*
X11184408Y-16696807D01*
X11184408Y-16696807D02*
X11193932Y-16715854D01*
X11193932Y-16715854D02*
X11203455Y-16753950D01*
X11203455Y-16753950D02*
X11203455Y-16801569D01*
X11203455Y-16801569D02*
X11193932Y-16839664D01*
X11193932Y-16839664D02*
X11184408Y-16858712D01*
X11184408Y-16858712D02*
X11174884Y-16868236D01*
X11174884Y-16868236D02*
X11155836Y-16877759D01*
X11155836Y-16877759D02*
X11136789Y-16877759D01*
X11136789Y-16877759D02*
X11117741Y-16868236D01*
X11117741Y-16868236D02*
X11108217Y-16858712D01*
X11108217Y-16858712D02*
X11098694Y-16839664D01*
X11098694Y-16839664D02*
X11089170Y-16801569D01*
X11089170Y-16801569D02*
X11089170Y-16753950D01*
X11089170Y-16753950D02*
X11098694Y-16715854D01*
X11098694Y-16715854D02*
X11108217Y-16696807D01*
X11108217Y-16696807D02*
X11117741Y-16687283D01*
X11117741Y-16687283D02*
X11136789Y-16677759D01*
X11289170Y-16877759D02*
X11289170Y-16744426D01*
X11289170Y-16763473D02*
X11298693Y-16753950D01*
X11298693Y-16753950D02*
X11317741Y-16744426D01*
X11317741Y-16744426D02*
X11346313Y-16744426D01*
X11346313Y-16744426D02*
X11365360Y-16753950D01*
X11365360Y-16753950D02*
X11374884Y-16772997D01*
X11374884Y-16772997D02*
X11374884Y-16877759D01*
X11374884Y-16772997D02*
X11384408Y-16753950D01*
X11384408Y-16753950D02*
X11403455Y-16744426D01*
X11403455Y-16744426D02*
X11432027Y-16744426D01*
X11432027Y-16744426D02*
X11451074Y-16753950D01*
X11451074Y-16753950D02*
X11460598Y-16772997D01*
X11460598Y-16772997D02*
X11460598Y-16877759D01*
X11555836Y-16877759D02*
X11555836Y-16744426D01*
X11555836Y-16763473D02*
X11565360Y-16753950D01*
X11565360Y-16753950D02*
X11584408Y-16744426D01*
X11584408Y-16744426D02*
X11612979Y-16744426D01*
X11612979Y-16744426D02*
X11632027Y-16753950D01*
X11632027Y-16753950D02*
X11641551Y-16772997D01*
X11641551Y-16772997D02*
X11641551Y-16877759D01*
X11641551Y-16772997D02*
X11651074Y-16753950D01*
X11651074Y-16753950D02*
X11670122Y-16744426D01*
X11670122Y-16744426D02*
X11698693Y-16744426D01*
X11698693Y-16744426D02*
X11717741Y-16753950D01*
X11717741Y-16753950D02*
X11727265Y-16772997D01*
X11727265Y-16772997D02*
X11727265Y-16877759D01*
X12117741Y-16668235D02*
X11946313Y-16925378D01*
X12374884Y-16677759D02*
X12393932Y-16677759D01*
X12393932Y-16677759D02*
X12412979Y-16687283D01*
X12412979Y-16687283D02*
X12422503Y-16696807D01*
X12422503Y-16696807D02*
X12432027Y-16715854D01*
X12432027Y-16715854D02*
X12441551Y-16753950D01*
X12441551Y-16753950D02*
X12441551Y-16801569D01*
X12441551Y-16801569D02*
X12432027Y-16839664D01*
X12432027Y-16839664D02*
X12422503Y-16858712D01*
X12422503Y-16858712D02*
X12412979Y-16868236D01*
X12412979Y-16868236D02*
X12393932Y-16877759D01*
X12393932Y-16877759D02*
X12374884Y-16877759D01*
X12374884Y-16877759D02*
X12355836Y-16868236D01*
X12355836Y-16868236D02*
X12346313Y-16858712D01*
X12346313Y-16858712D02*
X12336789Y-16839664D01*
X12336789Y-16839664D02*
X12327265Y-16801569D01*
X12327265Y-16801569D02*
X12327265Y-16753950D01*
X12327265Y-16753950D02*
X12336789Y-16715854D01*
X12336789Y-16715854D02*
X12346313Y-16696807D01*
X12346313Y-16696807D02*
X12355836Y-16687283D01*
X12355836Y-16687283D02*
X12374884Y-16677759D01*
X12527265Y-16858712D02*
X12536789Y-16868236D01*
X12536789Y-16868236D02*
X12527265Y-16877759D01*
X12527265Y-16877759D02*
X12517741Y-16868236D01*
X12517741Y-16868236D02*
X12527265Y-16858712D01*
X12527265Y-16858712D02*
X12527265Y-16877759D01*
X12660598Y-16677759D02*
X12679646Y-16677759D01*
X12679646Y-16677759D02*
X12698694Y-16687283D01*
X12698694Y-16687283D02*
X12708217Y-16696807D01*
X12708217Y-16696807D02*
X12717741Y-16715854D01*
X12717741Y-16715854D02*
X12727265Y-16753950D01*
X12727265Y-16753950D02*
X12727265Y-16801569D01*
X12727265Y-16801569D02*
X12717741Y-16839664D01*
X12717741Y-16839664D02*
X12708217Y-16858712D01*
X12708217Y-16858712D02*
X12698694Y-16868236D01*
X12698694Y-16868236D02*
X12679646Y-16877759D01*
X12679646Y-16877759D02*
X12660598Y-16877759D01*
X12660598Y-16877759D02*
X12641551Y-16868236D01*
X12641551Y-16868236D02*
X12632027Y-16858712D01*
X12632027Y-16858712D02*
X12622503Y-16839664D01*
X12622503Y-16839664D02*
X12612979Y-16801569D01*
X12612979Y-16801569D02*
X12612979Y-16753950D01*
X12612979Y-16753950D02*
X12622503Y-16715854D01*
X12622503Y-16715854D02*
X12632027Y-16696807D01*
X12632027Y-16696807D02*
X12641551Y-16687283D01*
X12641551Y-16687283D02*
X12660598Y-16677759D01*
X12793932Y-16677759D02*
X12917741Y-16677759D01*
X12917741Y-16677759D02*
X12851075Y-16753950D01*
X12851075Y-16753950D02*
X12879646Y-16753950D01*
X12879646Y-16753950D02*
X12898694Y-16763473D01*
X12898694Y-16763473D02*
X12908217Y-16772997D01*
X12908217Y-16772997D02*
X12917741Y-16792045D01*
X12917741Y-16792045D02*
X12917741Y-16839664D01*
X12917741Y-16839664D02*
X12908217Y-16858712D01*
X12908217Y-16858712D02*
X12898694Y-16868236D01*
X12898694Y-16868236D02*
X12879646Y-16877759D01*
X12879646Y-16877759D02*
X12822503Y-16877759D01*
X12822503Y-16877759D02*
X12803456Y-16868236D01*
X12803456Y-16868236D02*
X12793932Y-16858712D01*
X13012979Y-16877759D02*
X13051075Y-16877759D01*
X13051075Y-16877759D02*
X13070122Y-16868236D01*
X13070122Y-16868236D02*
X13079646Y-16858712D01*
X13079646Y-16858712D02*
X13098694Y-16830140D01*
X13098694Y-16830140D02*
X13108217Y-16792045D01*
X13108217Y-16792045D02*
X13108217Y-16715854D01*
X13108217Y-16715854D02*
X13098694Y-16696807D01*
X13098694Y-16696807D02*
X13089170Y-16687283D01*
X13089170Y-16687283D02*
X13070122Y-16677759D01*
X13070122Y-16677759D02*
X13032027Y-16677759D01*
X13032027Y-16677759D02*
X13012979Y-16687283D01*
X13012979Y-16687283D02*
X13003456Y-16696807D01*
X13003456Y-16696807D02*
X12993932Y-16715854D01*
X12993932Y-16715854D02*
X12993932Y-16763473D01*
X12993932Y-16763473D02*
X13003456Y-16782521D01*
X13003456Y-16782521D02*
X13012979Y-16792045D01*
X13012979Y-16792045D02*
X13032027Y-16801569D01*
X13032027Y-16801569D02*
X13070122Y-16801569D01*
X13070122Y-16801569D02*
X13089170Y-16792045D01*
X13089170Y-16792045D02*
X13098694Y-16782521D01*
X13098694Y-16782521D02*
X13108217Y-16763473D01*
X13279646Y-16744426D02*
X13279646Y-16877759D01*
X13232027Y-16668235D02*
X13184408Y-16811093D01*
X13184408Y-16811093D02*
X13308217Y-16811093D01*
X13374884Y-16677759D02*
X13374884Y-16715854D01*
X13451075Y-16677759D02*
X13451075Y-16715854D01*
X13746313Y-16953950D02*
X13736789Y-16944426D01*
X13736789Y-16944426D02*
X13717741Y-16915855D01*
X13717741Y-16915855D02*
X13708218Y-16896807D01*
X13708218Y-16896807D02*
X13698694Y-16868236D01*
X13698694Y-16868236D02*
X13689170Y-16820616D01*
X13689170Y-16820616D02*
X13689170Y-16782521D01*
X13689170Y-16782521D02*
X13698694Y-16734902D01*
X13698694Y-16734902D02*
X13708218Y-16706331D01*
X13708218Y-16706331D02*
X13717741Y-16687283D01*
X13717741Y-16687283D02*
X13736789Y-16658712D01*
X13736789Y-16658712D02*
X13746313Y-16649188D01*
X13927265Y-16877759D02*
X13812979Y-16877759D01*
X13870122Y-16877759D02*
X13870122Y-16677759D01*
X13870122Y-16677759D02*
X13851075Y-16706331D01*
X13851075Y-16706331D02*
X13832027Y-16725378D01*
X13832027Y-16725378D02*
X13812979Y-16734902D01*
X14051075Y-16677759D02*
X14070122Y-16677759D01*
X14070122Y-16677759D02*
X14089170Y-16687283D01*
X14089170Y-16687283D02*
X14098694Y-16696807D01*
X14098694Y-16696807D02*
X14108218Y-16715854D01*
X14108218Y-16715854D02*
X14117741Y-16753950D01*
X14117741Y-16753950D02*
X14117741Y-16801569D01*
X14117741Y-16801569D02*
X14108218Y-16839664D01*
X14108218Y-16839664D02*
X14098694Y-16858712D01*
X14098694Y-16858712D02*
X14089170Y-16868236D01*
X14089170Y-16868236D02*
X14070122Y-16877759D01*
X14070122Y-16877759D02*
X14051075Y-16877759D01*
X14051075Y-16877759D02*
X14032027Y-16868236D01*
X14032027Y-16868236D02*
X14022503Y-16858712D01*
X14022503Y-16858712D02*
X14012979Y-16839664D01*
X14012979Y-16839664D02*
X14003456Y-16801569D01*
X14003456Y-16801569D02*
X14003456Y-16753950D01*
X14003456Y-16753950D02*
X14012979Y-16715854D01*
X14012979Y-16715854D02*
X14022503Y-16696807D01*
X14022503Y-16696807D02*
X14032027Y-16687283D01*
X14032027Y-16687283D02*
X14051075Y-16677759D01*
X14355837Y-16877759D02*
X14355837Y-16677759D01*
X14441551Y-16877759D02*
X14441551Y-16772997D01*
X14441551Y-16772997D02*
X14432027Y-16753950D01*
X14432027Y-16753950D02*
X14412980Y-16744426D01*
X14412980Y-16744426D02*
X14384408Y-16744426D01*
X14384408Y-16744426D02*
X14365360Y-16753950D01*
X14365360Y-16753950D02*
X14355837Y-16763473D01*
X14565360Y-16877759D02*
X14546313Y-16868236D01*
X14546313Y-16868236D02*
X14536789Y-16858712D01*
X14536789Y-16858712D02*
X14527265Y-16839664D01*
X14527265Y-16839664D02*
X14527265Y-16782521D01*
X14527265Y-16782521D02*
X14536789Y-16763473D01*
X14536789Y-16763473D02*
X14546313Y-16753950D01*
X14546313Y-16753950D02*
X14565360Y-16744426D01*
X14565360Y-16744426D02*
X14593932Y-16744426D01*
X14593932Y-16744426D02*
X14612980Y-16753950D01*
X14612980Y-16753950D02*
X14622503Y-16763473D01*
X14622503Y-16763473D02*
X14632027Y-16782521D01*
X14632027Y-16782521D02*
X14632027Y-16839664D01*
X14632027Y-16839664D02*
X14622503Y-16858712D01*
X14622503Y-16858712D02*
X14612980Y-16868236D01*
X14612980Y-16868236D02*
X14593932Y-16877759D01*
X14593932Y-16877759D02*
X14565360Y-16877759D01*
X14746313Y-16877759D02*
X14727265Y-16868236D01*
X14727265Y-16868236D02*
X14717741Y-16849188D01*
X14717741Y-16849188D02*
X14717741Y-16677759D01*
X14898694Y-16868236D02*
X14879646Y-16877759D01*
X14879646Y-16877759D02*
X14841551Y-16877759D01*
X14841551Y-16877759D02*
X14822503Y-16868236D01*
X14822503Y-16868236D02*
X14812980Y-16849188D01*
X14812980Y-16849188D02*
X14812980Y-16772997D01*
X14812980Y-16772997D02*
X14822503Y-16753950D01*
X14822503Y-16753950D02*
X14841551Y-16744426D01*
X14841551Y-16744426D02*
X14879646Y-16744426D01*
X14879646Y-16744426D02*
X14898694Y-16753950D01*
X14898694Y-16753950D02*
X14908218Y-16772997D01*
X14908218Y-16772997D02*
X14908218Y-16792045D01*
X14908218Y-16792045D02*
X14812980Y-16811093D01*
X14984408Y-16868236D02*
X15003456Y-16877759D01*
X15003456Y-16877759D02*
X15041551Y-16877759D01*
X15041551Y-16877759D02*
X15060599Y-16868236D01*
X15060599Y-16868236D02*
X15070122Y-16849188D01*
X15070122Y-16849188D02*
X15070122Y-16839664D01*
X15070122Y-16839664D02*
X15060599Y-16820616D01*
X15060599Y-16820616D02*
X15041551Y-16811093D01*
X15041551Y-16811093D02*
X15012980Y-16811093D01*
X15012980Y-16811093D02*
X14993932Y-16801569D01*
X14993932Y-16801569D02*
X14984408Y-16782521D01*
X14984408Y-16782521D02*
X14984408Y-16772997D01*
X14984408Y-16772997D02*
X14993932Y-16753950D01*
X14993932Y-16753950D02*
X15012980Y-16744426D01*
X15012980Y-16744426D02*
X15041551Y-16744426D01*
X15041551Y-16744426D02*
X15060599Y-16753950D01*
X15136789Y-16953950D02*
X15146313Y-16944426D01*
X15146313Y-16944426D02*
X15165361Y-16915855D01*
X15165361Y-16915855D02*
X15174884Y-16896807D01*
X15174884Y-16896807D02*
X15184408Y-16868236D01*
X15184408Y-16868236D02*
X15193932Y-16820616D01*
X15193932Y-16820616D02*
X15193932Y-16782521D01*
X15193932Y-16782521D02*
X15184408Y-16734902D01*
X15184408Y-16734902D02*
X15174884Y-16706331D01*
X15174884Y-16706331D02*
X15165361Y-16687283D01*
X15165361Y-16687283D02*
X15146313Y-16658712D01*
X15146313Y-16658712D02*
X15136789Y-16649188D01*
D15*
X10116250Y-17105276D02*
X10171250Y-17050276D01*
X10116250Y-16995276D01*
X10061250Y-17050276D01*
X10116250Y-17105276D01*
D11*
X10536789Y-17141759D02*
X10422503Y-17141759D01*
X10479646Y-17141759D02*
X10479646Y-16941759D01*
X10479646Y-16941759D02*
X10460598Y-16970331D01*
X10460598Y-16970331D02*
X10441551Y-16989378D01*
X10441551Y-16989378D02*
X10422503Y-16998902D01*
X10622503Y-17122712D02*
X10632027Y-17132236D01*
X10632027Y-17132236D02*
X10622503Y-17141759D01*
X10622503Y-17141759D02*
X10612979Y-17132236D01*
X10612979Y-17132236D02*
X10622503Y-17122712D01*
X10622503Y-17122712D02*
X10622503Y-17141759D01*
X10822503Y-17141759D02*
X10708217Y-17141759D01*
X10765360Y-17141759D02*
X10765360Y-16941759D01*
X10765360Y-16941759D02*
X10746313Y-16970331D01*
X10746313Y-16970331D02*
X10727265Y-16989378D01*
X10727265Y-16989378D02*
X10708217Y-16998902D01*
X10946313Y-16941759D02*
X10965360Y-16941759D01*
X10965360Y-16941759D02*
X10984408Y-16951283D01*
X10984408Y-16951283D02*
X10993932Y-16960807D01*
X10993932Y-16960807D02*
X11003455Y-16979855D01*
X11003455Y-16979855D02*
X11012979Y-17017950D01*
X11012979Y-17017950D02*
X11012979Y-17065569D01*
X11012979Y-17065569D02*
X11003455Y-17103664D01*
X11003455Y-17103664D02*
X10993932Y-17122712D01*
X10993932Y-17122712D02*
X10984408Y-17132236D01*
X10984408Y-17132236D02*
X10965360Y-17141759D01*
X10965360Y-17141759D02*
X10946313Y-17141759D01*
X10946313Y-17141759D02*
X10927265Y-17132236D01*
X10927265Y-17132236D02*
X10917741Y-17122712D01*
X10917741Y-17122712D02*
X10908217Y-17103664D01*
X10908217Y-17103664D02*
X10898694Y-17065569D01*
X10898694Y-17065569D02*
X10898694Y-17017950D01*
X10898694Y-17017950D02*
X10908217Y-16979855D01*
X10908217Y-16979855D02*
X10917741Y-16960807D01*
X10917741Y-16960807D02*
X10927265Y-16951283D01*
X10927265Y-16951283D02*
X10946313Y-16941759D01*
X11136789Y-16941759D02*
X11155836Y-16941759D01*
X11155836Y-16941759D02*
X11174884Y-16951283D01*
X11174884Y-16951283D02*
X11184408Y-16960807D01*
X11184408Y-16960807D02*
X11193932Y-16979855D01*
X11193932Y-16979855D02*
X11203455Y-17017950D01*
X11203455Y-17017950D02*
X11203455Y-17065569D01*
X11203455Y-17065569D02*
X11193932Y-17103664D01*
X11193932Y-17103664D02*
X11184408Y-17122712D01*
X11184408Y-17122712D02*
X11174884Y-17132236D01*
X11174884Y-17132236D02*
X11155836Y-17141759D01*
X11155836Y-17141759D02*
X11136789Y-17141759D01*
X11136789Y-17141759D02*
X11117741Y-17132236D01*
X11117741Y-17132236D02*
X11108217Y-17122712D01*
X11108217Y-17122712D02*
X11098694Y-17103664D01*
X11098694Y-17103664D02*
X11089170Y-17065569D01*
X11089170Y-17065569D02*
X11089170Y-17017950D01*
X11089170Y-17017950D02*
X11098694Y-16979855D01*
X11098694Y-16979855D02*
X11108217Y-16960807D01*
X11108217Y-16960807D02*
X11117741Y-16951283D01*
X11117741Y-16951283D02*
X11136789Y-16941759D01*
X11289170Y-17141759D02*
X11289170Y-17008426D01*
X11289170Y-17027474D02*
X11298693Y-17017950D01*
X11298693Y-17017950D02*
X11317741Y-17008426D01*
X11317741Y-17008426D02*
X11346313Y-17008426D01*
X11346313Y-17008426D02*
X11365360Y-17017950D01*
X11365360Y-17017950D02*
X11374884Y-17036997D01*
X11374884Y-17036997D02*
X11374884Y-17141759D01*
X11374884Y-17036997D02*
X11384408Y-17017950D01*
X11384408Y-17017950D02*
X11403455Y-17008426D01*
X11403455Y-17008426D02*
X11432027Y-17008426D01*
X11432027Y-17008426D02*
X11451074Y-17017950D01*
X11451074Y-17017950D02*
X11460598Y-17036997D01*
X11460598Y-17036997D02*
X11460598Y-17141759D01*
X11555836Y-17141759D02*
X11555836Y-17008426D01*
X11555836Y-17027474D02*
X11565360Y-17017950D01*
X11565360Y-17017950D02*
X11584408Y-17008426D01*
X11584408Y-17008426D02*
X11612979Y-17008426D01*
X11612979Y-17008426D02*
X11632027Y-17017950D01*
X11632027Y-17017950D02*
X11641551Y-17036997D01*
X11641551Y-17036997D02*
X11641551Y-17141759D01*
X11641551Y-17036997D02*
X11651074Y-17017950D01*
X11651074Y-17017950D02*
X11670122Y-17008426D01*
X11670122Y-17008426D02*
X11698693Y-17008426D01*
X11698693Y-17008426D02*
X11717741Y-17017950D01*
X11717741Y-17017950D02*
X11727265Y-17036997D01*
X11727265Y-17036997D02*
X11727265Y-17141759D01*
X12117741Y-16932236D02*
X11946313Y-17189378D01*
X12374884Y-16941759D02*
X12393932Y-16941759D01*
X12393932Y-16941759D02*
X12412979Y-16951283D01*
X12412979Y-16951283D02*
X12422503Y-16960807D01*
X12422503Y-16960807D02*
X12432027Y-16979855D01*
X12432027Y-16979855D02*
X12441551Y-17017950D01*
X12441551Y-17017950D02*
X12441551Y-17065569D01*
X12441551Y-17065569D02*
X12432027Y-17103664D01*
X12432027Y-17103664D02*
X12422503Y-17122712D01*
X12422503Y-17122712D02*
X12412979Y-17132236D01*
X12412979Y-17132236D02*
X12393932Y-17141759D01*
X12393932Y-17141759D02*
X12374884Y-17141759D01*
X12374884Y-17141759D02*
X12355836Y-17132236D01*
X12355836Y-17132236D02*
X12346313Y-17122712D01*
X12346313Y-17122712D02*
X12336789Y-17103664D01*
X12336789Y-17103664D02*
X12327265Y-17065569D01*
X12327265Y-17065569D02*
X12327265Y-17017950D01*
X12327265Y-17017950D02*
X12336789Y-16979855D01*
X12336789Y-16979855D02*
X12346313Y-16960807D01*
X12346313Y-16960807D02*
X12355836Y-16951283D01*
X12355836Y-16951283D02*
X12374884Y-16941759D01*
X12527265Y-17122712D02*
X12536789Y-17132236D01*
X12536789Y-17132236D02*
X12527265Y-17141759D01*
X12527265Y-17141759D02*
X12517741Y-17132236D01*
X12517741Y-17132236D02*
X12527265Y-17122712D01*
X12527265Y-17122712D02*
X12527265Y-17141759D01*
X12660598Y-16941759D02*
X12679646Y-16941759D01*
X12679646Y-16941759D02*
X12698694Y-16951283D01*
X12698694Y-16951283D02*
X12708217Y-16960807D01*
X12708217Y-16960807D02*
X12717741Y-16979855D01*
X12717741Y-16979855D02*
X12727265Y-17017950D01*
X12727265Y-17017950D02*
X12727265Y-17065569D01*
X12727265Y-17065569D02*
X12717741Y-17103664D01*
X12717741Y-17103664D02*
X12708217Y-17122712D01*
X12708217Y-17122712D02*
X12698694Y-17132236D01*
X12698694Y-17132236D02*
X12679646Y-17141759D01*
X12679646Y-17141759D02*
X12660598Y-17141759D01*
X12660598Y-17141759D02*
X12641551Y-17132236D01*
X12641551Y-17132236D02*
X12632027Y-17122712D01*
X12632027Y-17122712D02*
X12622503Y-17103664D01*
X12622503Y-17103664D02*
X12612979Y-17065569D01*
X12612979Y-17065569D02*
X12612979Y-17017950D01*
X12612979Y-17017950D02*
X12622503Y-16979855D01*
X12622503Y-16979855D02*
X12632027Y-16960807D01*
X12632027Y-16960807D02*
X12641551Y-16951283D01*
X12641551Y-16951283D02*
X12660598Y-16941759D01*
X12898694Y-17008426D02*
X12898694Y-17141759D01*
X12851075Y-16932236D02*
X12803456Y-17075093D01*
X12803456Y-17075093D02*
X12927265Y-17075093D01*
X12984408Y-16941759D02*
X13108217Y-16941759D01*
X13108217Y-16941759D02*
X13041551Y-17017950D01*
X13041551Y-17017950D02*
X13070122Y-17017950D01*
X13070122Y-17017950D02*
X13089170Y-17027474D01*
X13089170Y-17027474D02*
X13098694Y-17036997D01*
X13098694Y-17036997D02*
X13108217Y-17056045D01*
X13108217Y-17056045D02*
X13108217Y-17103664D01*
X13108217Y-17103664D02*
X13098694Y-17122712D01*
X13098694Y-17122712D02*
X13089170Y-17132236D01*
X13089170Y-17132236D02*
X13070122Y-17141759D01*
X13070122Y-17141759D02*
X13012979Y-17141759D01*
X13012979Y-17141759D02*
X12993932Y-17132236D01*
X12993932Y-17132236D02*
X12984408Y-17122712D01*
X13174884Y-16941759D02*
X13298694Y-16941759D01*
X13298694Y-16941759D02*
X13232027Y-17017950D01*
X13232027Y-17017950D02*
X13260598Y-17017950D01*
X13260598Y-17017950D02*
X13279646Y-17027474D01*
X13279646Y-17027474D02*
X13289170Y-17036997D01*
X13289170Y-17036997D02*
X13298694Y-17056045D01*
X13298694Y-17056045D02*
X13298694Y-17103664D01*
X13298694Y-17103664D02*
X13289170Y-17122712D01*
X13289170Y-17122712D02*
X13279646Y-17132236D01*
X13279646Y-17132236D02*
X13260598Y-17141759D01*
X13260598Y-17141759D02*
X13203456Y-17141759D01*
X13203456Y-17141759D02*
X13184408Y-17132236D01*
X13184408Y-17132236D02*
X13174884Y-17122712D01*
X13374884Y-16941759D02*
X13374884Y-16979855D01*
X13451075Y-16941759D02*
X13451075Y-16979855D01*
X13746313Y-17217950D02*
X13736789Y-17208426D01*
X13736789Y-17208426D02*
X13717741Y-17179855D01*
X13717741Y-17179855D02*
X13708218Y-17160807D01*
X13708218Y-17160807D02*
X13698694Y-17132236D01*
X13698694Y-17132236D02*
X13689170Y-17084616D01*
X13689170Y-17084616D02*
X13689170Y-17046521D01*
X13689170Y-17046521D02*
X13698694Y-16998902D01*
X13698694Y-16998902D02*
X13708218Y-16970331D01*
X13708218Y-16970331D02*
X13717741Y-16951283D01*
X13717741Y-16951283D02*
X13736789Y-16922712D01*
X13736789Y-16922712D02*
X13746313Y-16913188D01*
X13927265Y-17141759D02*
X13812979Y-17141759D01*
X13870122Y-17141759D02*
X13870122Y-16941759D01*
X13870122Y-16941759D02*
X13851075Y-16970331D01*
X13851075Y-16970331D02*
X13832027Y-16989378D01*
X13832027Y-16989378D02*
X13812979Y-16998902D01*
X14041551Y-17027474D02*
X14022503Y-17017950D01*
X14022503Y-17017950D02*
X14012979Y-17008426D01*
X14012979Y-17008426D02*
X14003456Y-16989378D01*
X14003456Y-16989378D02*
X14003456Y-16979855D01*
X14003456Y-16979855D02*
X14012979Y-16960807D01*
X14012979Y-16960807D02*
X14022503Y-16951283D01*
X14022503Y-16951283D02*
X14041551Y-16941759D01*
X14041551Y-16941759D02*
X14079646Y-16941759D01*
X14079646Y-16941759D02*
X14098694Y-16951283D01*
X14098694Y-16951283D02*
X14108218Y-16960807D01*
X14108218Y-16960807D02*
X14117741Y-16979855D01*
X14117741Y-16979855D02*
X14117741Y-16989378D01*
X14117741Y-16989378D02*
X14108218Y-17008426D01*
X14108218Y-17008426D02*
X14098694Y-17017950D01*
X14098694Y-17017950D02*
X14079646Y-17027474D01*
X14079646Y-17027474D02*
X14041551Y-17027474D01*
X14041551Y-17027474D02*
X14022503Y-17036997D01*
X14022503Y-17036997D02*
X14012979Y-17046521D01*
X14012979Y-17046521D02*
X14003456Y-17065569D01*
X14003456Y-17065569D02*
X14003456Y-17103664D01*
X14003456Y-17103664D02*
X14012979Y-17122712D01*
X14012979Y-17122712D02*
X14022503Y-17132236D01*
X14022503Y-17132236D02*
X14041551Y-17141759D01*
X14041551Y-17141759D02*
X14079646Y-17141759D01*
X14079646Y-17141759D02*
X14098694Y-17132236D01*
X14098694Y-17132236D02*
X14108218Y-17122712D01*
X14108218Y-17122712D02*
X14117741Y-17103664D01*
X14117741Y-17103664D02*
X14117741Y-17065569D01*
X14117741Y-17065569D02*
X14108218Y-17046521D01*
X14108218Y-17046521D02*
X14098694Y-17036997D01*
X14098694Y-17036997D02*
X14079646Y-17027474D01*
X14355837Y-17141759D02*
X14355837Y-16941759D01*
X14441551Y-17141759D02*
X14441551Y-17036997D01*
X14441551Y-17036997D02*
X14432027Y-17017950D01*
X14432027Y-17017950D02*
X14412980Y-17008426D01*
X14412980Y-17008426D02*
X14384408Y-17008426D01*
X14384408Y-17008426D02*
X14365360Y-17017950D01*
X14365360Y-17017950D02*
X14355837Y-17027474D01*
X14565360Y-17141759D02*
X14546313Y-17132236D01*
X14546313Y-17132236D02*
X14536789Y-17122712D01*
X14536789Y-17122712D02*
X14527265Y-17103664D01*
X14527265Y-17103664D02*
X14527265Y-17046521D01*
X14527265Y-17046521D02*
X14536789Y-17027474D01*
X14536789Y-17027474D02*
X14546313Y-17017950D01*
X14546313Y-17017950D02*
X14565360Y-17008426D01*
X14565360Y-17008426D02*
X14593932Y-17008426D01*
X14593932Y-17008426D02*
X14612980Y-17017950D01*
X14612980Y-17017950D02*
X14622503Y-17027474D01*
X14622503Y-17027474D02*
X14632027Y-17046521D01*
X14632027Y-17046521D02*
X14632027Y-17103664D01*
X14632027Y-17103664D02*
X14622503Y-17122712D01*
X14622503Y-17122712D02*
X14612980Y-17132236D01*
X14612980Y-17132236D02*
X14593932Y-17141759D01*
X14593932Y-17141759D02*
X14565360Y-17141759D01*
X14746313Y-17141759D02*
X14727265Y-17132236D01*
X14727265Y-17132236D02*
X14717741Y-17113188D01*
X14717741Y-17113188D02*
X14717741Y-16941759D01*
X14898694Y-17132236D02*
X14879646Y-17141759D01*
X14879646Y-17141759D02*
X14841551Y-17141759D01*
X14841551Y-17141759D02*
X14822503Y-17132236D01*
X14822503Y-17132236D02*
X14812980Y-17113188D01*
X14812980Y-17113188D02*
X14812980Y-17036997D01*
X14812980Y-17036997D02*
X14822503Y-17017950D01*
X14822503Y-17017950D02*
X14841551Y-17008426D01*
X14841551Y-17008426D02*
X14879646Y-17008426D01*
X14879646Y-17008426D02*
X14898694Y-17017950D01*
X14898694Y-17017950D02*
X14908218Y-17036997D01*
X14908218Y-17036997D02*
X14908218Y-17056045D01*
X14908218Y-17056045D02*
X14812980Y-17075093D01*
X14984408Y-17132236D02*
X15003456Y-17141759D01*
X15003456Y-17141759D02*
X15041551Y-17141759D01*
X15041551Y-17141759D02*
X15060599Y-17132236D01*
X15060599Y-17132236D02*
X15070122Y-17113188D01*
X15070122Y-17113188D02*
X15070122Y-17103664D01*
X15070122Y-17103664D02*
X15060599Y-17084616D01*
X15060599Y-17084616D02*
X15041551Y-17075093D01*
X15041551Y-17075093D02*
X15012980Y-17075093D01*
X15012980Y-17075093D02*
X14993932Y-17065569D01*
X14993932Y-17065569D02*
X14984408Y-17046521D01*
X14984408Y-17046521D02*
X14984408Y-17036997D01*
X14984408Y-17036997D02*
X14993932Y-17017950D01*
X14993932Y-17017950D02*
X15012980Y-17008426D01*
X15012980Y-17008426D02*
X15041551Y-17008426D01*
X15041551Y-17008426D02*
X15060599Y-17017950D01*
X15136789Y-17217950D02*
X15146313Y-17208426D01*
X15146313Y-17208426D02*
X15165361Y-17179855D01*
X15165361Y-17179855D02*
X15174884Y-17160807D01*
X15174884Y-17160807D02*
X15184408Y-17132236D01*
X15184408Y-17132236D02*
X15193932Y-17084616D01*
X15193932Y-17084616D02*
X15193932Y-17046521D01*
X15193932Y-17046521D02*
X15184408Y-16998902D01*
X15184408Y-16998902D02*
X15174884Y-16970331D01*
X15174884Y-16970331D02*
X15165361Y-16951283D01*
X15165361Y-16951283D02*
X15146313Y-16922712D01*
X15146313Y-16922712D02*
X15136789Y-16913188D01*
D16*
X10051250Y-17254276D02*
X10171250Y-17374276D01*
X10171250Y-17254276D02*
X10051250Y-17374276D01*
X10171250Y-17314276D02*
G75*
G03*
X10171250Y-17314276I-60000J0D01*
G01*
D11*
X10536789Y-17405759D02*
X10422503Y-17405759D01*
X10479646Y-17405759D02*
X10479646Y-17205759D01*
X10479646Y-17205759D02*
X10460598Y-17234331D01*
X10460598Y-17234331D02*
X10441551Y-17253378D01*
X10441551Y-17253378D02*
X10422503Y-17262902D01*
X10622503Y-17386712D02*
X10632027Y-17396236D01*
X10632027Y-17396236D02*
X10622503Y-17405759D01*
X10622503Y-17405759D02*
X10612979Y-17396236D01*
X10612979Y-17396236D02*
X10622503Y-17386712D01*
X10622503Y-17386712D02*
X10622503Y-17405759D01*
X10708217Y-17224807D02*
X10717741Y-17215283D01*
X10717741Y-17215283D02*
X10736789Y-17205759D01*
X10736789Y-17205759D02*
X10784408Y-17205759D01*
X10784408Y-17205759D02*
X10803455Y-17215283D01*
X10803455Y-17215283D02*
X10812979Y-17224807D01*
X10812979Y-17224807D02*
X10822503Y-17243855D01*
X10822503Y-17243855D02*
X10822503Y-17262902D01*
X10822503Y-17262902D02*
X10812979Y-17291474D01*
X10812979Y-17291474D02*
X10698694Y-17405759D01*
X10698694Y-17405759D02*
X10822503Y-17405759D01*
X10946313Y-17205759D02*
X10965360Y-17205759D01*
X10965360Y-17205759D02*
X10984408Y-17215283D01*
X10984408Y-17215283D02*
X10993932Y-17224807D01*
X10993932Y-17224807D02*
X11003455Y-17243855D01*
X11003455Y-17243855D02*
X11012979Y-17281950D01*
X11012979Y-17281950D02*
X11012979Y-17329569D01*
X11012979Y-17329569D02*
X11003455Y-17367664D01*
X11003455Y-17367664D02*
X10993932Y-17386712D01*
X10993932Y-17386712D02*
X10984408Y-17396236D01*
X10984408Y-17396236D02*
X10965360Y-17405759D01*
X10965360Y-17405759D02*
X10946313Y-17405759D01*
X10946313Y-17405759D02*
X10927265Y-17396236D01*
X10927265Y-17396236D02*
X10917741Y-17386712D01*
X10917741Y-17386712D02*
X10908217Y-17367664D01*
X10908217Y-17367664D02*
X10898694Y-17329569D01*
X10898694Y-17329569D02*
X10898694Y-17281950D01*
X10898694Y-17281950D02*
X10908217Y-17243855D01*
X10908217Y-17243855D02*
X10917741Y-17224807D01*
X10917741Y-17224807D02*
X10927265Y-17215283D01*
X10927265Y-17215283D02*
X10946313Y-17205759D01*
X11136789Y-17205759D02*
X11155836Y-17205759D01*
X11155836Y-17205759D02*
X11174884Y-17215283D01*
X11174884Y-17215283D02*
X11184408Y-17224807D01*
X11184408Y-17224807D02*
X11193932Y-17243855D01*
X11193932Y-17243855D02*
X11203455Y-17281950D01*
X11203455Y-17281950D02*
X11203455Y-17329569D01*
X11203455Y-17329569D02*
X11193932Y-17367664D01*
X11193932Y-17367664D02*
X11184408Y-17386712D01*
X11184408Y-17386712D02*
X11174884Y-17396236D01*
X11174884Y-17396236D02*
X11155836Y-17405759D01*
X11155836Y-17405759D02*
X11136789Y-17405759D01*
X11136789Y-17405759D02*
X11117741Y-17396236D01*
X11117741Y-17396236D02*
X11108217Y-17386712D01*
X11108217Y-17386712D02*
X11098694Y-17367664D01*
X11098694Y-17367664D02*
X11089170Y-17329569D01*
X11089170Y-17329569D02*
X11089170Y-17281950D01*
X11089170Y-17281950D02*
X11098694Y-17243855D01*
X11098694Y-17243855D02*
X11108217Y-17224807D01*
X11108217Y-17224807D02*
X11117741Y-17215283D01*
X11117741Y-17215283D02*
X11136789Y-17205759D01*
X11289170Y-17405759D02*
X11289170Y-17272426D01*
X11289170Y-17291474D02*
X11298693Y-17281950D01*
X11298693Y-17281950D02*
X11317741Y-17272426D01*
X11317741Y-17272426D02*
X11346313Y-17272426D01*
X11346313Y-17272426D02*
X11365360Y-17281950D01*
X11365360Y-17281950D02*
X11374884Y-17300997D01*
X11374884Y-17300997D02*
X11374884Y-17405759D01*
X11374884Y-17300997D02*
X11384408Y-17281950D01*
X11384408Y-17281950D02*
X11403455Y-17272426D01*
X11403455Y-17272426D02*
X11432027Y-17272426D01*
X11432027Y-17272426D02*
X11451074Y-17281950D01*
X11451074Y-17281950D02*
X11460598Y-17300997D01*
X11460598Y-17300997D02*
X11460598Y-17405759D01*
X11555836Y-17405759D02*
X11555836Y-17272426D01*
X11555836Y-17291474D02*
X11565360Y-17281950D01*
X11565360Y-17281950D02*
X11584408Y-17272426D01*
X11584408Y-17272426D02*
X11612979Y-17272426D01*
X11612979Y-17272426D02*
X11632027Y-17281950D01*
X11632027Y-17281950D02*
X11641551Y-17300997D01*
X11641551Y-17300997D02*
X11641551Y-17405759D01*
X11641551Y-17300997D02*
X11651074Y-17281950D01*
X11651074Y-17281950D02*
X11670122Y-17272426D01*
X11670122Y-17272426D02*
X11698693Y-17272426D01*
X11698693Y-17272426D02*
X11717741Y-17281950D01*
X11717741Y-17281950D02*
X11727265Y-17300997D01*
X11727265Y-17300997D02*
X11727265Y-17405759D01*
X12117741Y-17196236D02*
X11946313Y-17453378D01*
X12374884Y-17205759D02*
X12393932Y-17205759D01*
X12393932Y-17205759D02*
X12412979Y-17215283D01*
X12412979Y-17215283D02*
X12422503Y-17224807D01*
X12422503Y-17224807D02*
X12432027Y-17243855D01*
X12432027Y-17243855D02*
X12441551Y-17281950D01*
X12441551Y-17281950D02*
X12441551Y-17329569D01*
X12441551Y-17329569D02*
X12432027Y-17367664D01*
X12432027Y-17367664D02*
X12422503Y-17386712D01*
X12422503Y-17386712D02*
X12412979Y-17396236D01*
X12412979Y-17396236D02*
X12393932Y-17405759D01*
X12393932Y-17405759D02*
X12374884Y-17405759D01*
X12374884Y-17405759D02*
X12355836Y-17396236D01*
X12355836Y-17396236D02*
X12346313Y-17386712D01*
X12346313Y-17386712D02*
X12336789Y-17367664D01*
X12336789Y-17367664D02*
X12327265Y-17329569D01*
X12327265Y-17329569D02*
X12327265Y-17281950D01*
X12327265Y-17281950D02*
X12336789Y-17243855D01*
X12336789Y-17243855D02*
X12346313Y-17224807D01*
X12346313Y-17224807D02*
X12355836Y-17215283D01*
X12355836Y-17215283D02*
X12374884Y-17205759D01*
X12527265Y-17386712D02*
X12536789Y-17396236D01*
X12536789Y-17396236D02*
X12527265Y-17405759D01*
X12527265Y-17405759D02*
X12517741Y-17396236D01*
X12517741Y-17396236D02*
X12527265Y-17386712D01*
X12527265Y-17386712D02*
X12527265Y-17405759D01*
X12660598Y-17205759D02*
X12679646Y-17205759D01*
X12679646Y-17205759D02*
X12698694Y-17215283D01*
X12698694Y-17215283D02*
X12708217Y-17224807D01*
X12708217Y-17224807D02*
X12717741Y-17243855D01*
X12717741Y-17243855D02*
X12727265Y-17281950D01*
X12727265Y-17281950D02*
X12727265Y-17329569D01*
X12727265Y-17329569D02*
X12717741Y-17367664D01*
X12717741Y-17367664D02*
X12708217Y-17386712D01*
X12708217Y-17386712D02*
X12698694Y-17396236D01*
X12698694Y-17396236D02*
X12679646Y-17405759D01*
X12679646Y-17405759D02*
X12660598Y-17405759D01*
X12660598Y-17405759D02*
X12641551Y-17396236D01*
X12641551Y-17396236D02*
X12632027Y-17386712D01*
X12632027Y-17386712D02*
X12622503Y-17367664D01*
X12622503Y-17367664D02*
X12612979Y-17329569D01*
X12612979Y-17329569D02*
X12612979Y-17281950D01*
X12612979Y-17281950D02*
X12622503Y-17243855D01*
X12622503Y-17243855D02*
X12632027Y-17224807D01*
X12632027Y-17224807D02*
X12641551Y-17215283D01*
X12641551Y-17215283D02*
X12660598Y-17205759D01*
X12898694Y-17272426D02*
X12898694Y-17405759D01*
X12851075Y-17196236D02*
X12803456Y-17339093D01*
X12803456Y-17339093D02*
X12927265Y-17339093D01*
X12984408Y-17205759D02*
X13117741Y-17205759D01*
X13117741Y-17205759D02*
X13032027Y-17405759D01*
X13184408Y-17224807D02*
X13193932Y-17215283D01*
X13193932Y-17215283D02*
X13212979Y-17205759D01*
X13212979Y-17205759D02*
X13260598Y-17205759D01*
X13260598Y-17205759D02*
X13279646Y-17215283D01*
X13279646Y-17215283D02*
X13289170Y-17224807D01*
X13289170Y-17224807D02*
X13298694Y-17243855D01*
X13298694Y-17243855D02*
X13298694Y-17262902D01*
X13298694Y-17262902D02*
X13289170Y-17291474D01*
X13289170Y-17291474D02*
X13174884Y-17405759D01*
X13174884Y-17405759D02*
X13298694Y-17405759D01*
X13374884Y-17205759D02*
X13374884Y-17243855D01*
X13451075Y-17205759D02*
X13451075Y-17243855D01*
X13746313Y-17481950D02*
X13736789Y-17472426D01*
X13736789Y-17472426D02*
X13717741Y-17443855D01*
X13717741Y-17443855D02*
X13708218Y-17424807D01*
X13708218Y-17424807D02*
X13698694Y-17396236D01*
X13698694Y-17396236D02*
X13689170Y-17348616D01*
X13689170Y-17348616D02*
X13689170Y-17310521D01*
X13689170Y-17310521D02*
X13698694Y-17262902D01*
X13698694Y-17262902D02*
X13708218Y-17234331D01*
X13708218Y-17234331D02*
X13717741Y-17215283D01*
X13717741Y-17215283D02*
X13736789Y-17186712D01*
X13736789Y-17186712D02*
X13746313Y-17177188D01*
X13927265Y-17405759D02*
X13812979Y-17405759D01*
X13870122Y-17405759D02*
X13870122Y-17205759D01*
X13870122Y-17205759D02*
X13851075Y-17234331D01*
X13851075Y-17234331D02*
X13832027Y-17253378D01*
X13832027Y-17253378D02*
X13812979Y-17262902D01*
X14003456Y-17224807D02*
X14012979Y-17215283D01*
X14012979Y-17215283D02*
X14032027Y-17205759D01*
X14032027Y-17205759D02*
X14079646Y-17205759D01*
X14079646Y-17205759D02*
X14098694Y-17215283D01*
X14098694Y-17215283D02*
X14108218Y-17224807D01*
X14108218Y-17224807D02*
X14117741Y-17243855D01*
X14117741Y-17243855D02*
X14117741Y-17262902D01*
X14117741Y-17262902D02*
X14108218Y-17291474D01*
X14108218Y-17291474D02*
X13993932Y-17405759D01*
X13993932Y-17405759D02*
X14117741Y-17405759D01*
X14355837Y-17405759D02*
X14355837Y-17205759D01*
X14441551Y-17405759D02*
X14441551Y-17300997D01*
X14441551Y-17300997D02*
X14432027Y-17281950D01*
X14432027Y-17281950D02*
X14412980Y-17272426D01*
X14412980Y-17272426D02*
X14384408Y-17272426D01*
X14384408Y-17272426D02*
X14365360Y-17281950D01*
X14365360Y-17281950D02*
X14355837Y-17291474D01*
X14565360Y-17405759D02*
X14546313Y-17396236D01*
X14546313Y-17396236D02*
X14536789Y-17386712D01*
X14536789Y-17386712D02*
X14527265Y-17367664D01*
X14527265Y-17367664D02*
X14527265Y-17310521D01*
X14527265Y-17310521D02*
X14536789Y-17291474D01*
X14536789Y-17291474D02*
X14546313Y-17281950D01*
X14546313Y-17281950D02*
X14565360Y-17272426D01*
X14565360Y-17272426D02*
X14593932Y-17272426D01*
X14593932Y-17272426D02*
X14612980Y-17281950D01*
X14612980Y-17281950D02*
X14622503Y-17291474D01*
X14622503Y-17291474D02*
X14632027Y-17310521D01*
X14632027Y-17310521D02*
X14632027Y-17367664D01*
X14632027Y-17367664D02*
X14622503Y-17386712D01*
X14622503Y-17386712D02*
X14612980Y-17396236D01*
X14612980Y-17396236D02*
X14593932Y-17405759D01*
X14593932Y-17405759D02*
X14565360Y-17405759D01*
X14746313Y-17405759D02*
X14727265Y-17396236D01*
X14727265Y-17396236D02*
X14717741Y-17377188D01*
X14717741Y-17377188D02*
X14717741Y-17205759D01*
X14898694Y-17396236D02*
X14879646Y-17405759D01*
X14879646Y-17405759D02*
X14841551Y-17405759D01*
X14841551Y-17405759D02*
X14822503Y-17396236D01*
X14822503Y-17396236D02*
X14812980Y-17377188D01*
X14812980Y-17377188D02*
X14812980Y-17300997D01*
X14812980Y-17300997D02*
X14822503Y-17281950D01*
X14822503Y-17281950D02*
X14841551Y-17272426D01*
X14841551Y-17272426D02*
X14879646Y-17272426D01*
X14879646Y-17272426D02*
X14898694Y-17281950D01*
X14898694Y-17281950D02*
X14908218Y-17300997D01*
X14908218Y-17300997D02*
X14908218Y-17320045D01*
X14908218Y-17320045D02*
X14812980Y-17339093D01*
X14984408Y-17396236D02*
X15003456Y-17405759D01*
X15003456Y-17405759D02*
X15041551Y-17405759D01*
X15041551Y-17405759D02*
X15060599Y-17396236D01*
X15060599Y-17396236D02*
X15070122Y-17377188D01*
X15070122Y-17377188D02*
X15070122Y-17367664D01*
X15070122Y-17367664D02*
X15060599Y-17348616D01*
X15060599Y-17348616D02*
X15041551Y-17339093D01*
X15041551Y-17339093D02*
X15012980Y-17339093D01*
X15012980Y-17339093D02*
X14993932Y-17329569D01*
X14993932Y-17329569D02*
X14984408Y-17310521D01*
X14984408Y-17310521D02*
X14984408Y-17300997D01*
X14984408Y-17300997D02*
X14993932Y-17281950D01*
X14993932Y-17281950D02*
X15012980Y-17272426D01*
X15012980Y-17272426D02*
X15041551Y-17272426D01*
X15041551Y-17272426D02*
X15060599Y-17281950D01*
X15136789Y-17481950D02*
X15146313Y-17472426D01*
X15146313Y-17472426D02*
X15165361Y-17443855D01*
X15165361Y-17443855D02*
X15174884Y-17424807D01*
X15174884Y-17424807D02*
X15184408Y-17396236D01*
X15184408Y-17396236D02*
X15193932Y-17348616D01*
X15193932Y-17348616D02*
X15193932Y-17310521D01*
X15193932Y-17310521D02*
X15184408Y-17262902D01*
X15184408Y-17262902D02*
X15174884Y-17234331D01*
X15174884Y-17234331D02*
X15165361Y-17215283D01*
X15165361Y-17215283D02*
X15146313Y-17186712D01*
X15146313Y-17186712D02*
X15136789Y-17177188D01*
D17*
X10031250Y-17508276D02*
X10171250Y-17648276D01*
X10171250Y-17508276D02*
X10031250Y-17648276D01*
X10101250Y-17508276D02*
X10101250Y-17648276D01*
X10031250Y-17578276D02*
X10171250Y-17578276D01*
D11*
X10536789Y-17669759D02*
X10422503Y-17669759D01*
X10479646Y-17669759D02*
X10479646Y-17469759D01*
X10479646Y-17469759D02*
X10460598Y-17498331D01*
X10460598Y-17498331D02*
X10441551Y-17517378D01*
X10441551Y-17517378D02*
X10422503Y-17526902D01*
X10622503Y-17650712D02*
X10632027Y-17660236D01*
X10632027Y-17660236D02*
X10622503Y-17669759D01*
X10622503Y-17669759D02*
X10612979Y-17660236D01*
X10612979Y-17660236D02*
X10622503Y-17650712D01*
X10622503Y-17650712D02*
X10622503Y-17669759D01*
X10803455Y-17536426D02*
X10803455Y-17669759D01*
X10755836Y-17460236D02*
X10708217Y-17603093D01*
X10708217Y-17603093D02*
X10832027Y-17603093D01*
X10946313Y-17469759D02*
X10965360Y-17469759D01*
X10965360Y-17469759D02*
X10984408Y-17479283D01*
X10984408Y-17479283D02*
X10993932Y-17488807D01*
X10993932Y-17488807D02*
X11003455Y-17507855D01*
X11003455Y-17507855D02*
X11012979Y-17545950D01*
X11012979Y-17545950D02*
X11012979Y-17593569D01*
X11012979Y-17593569D02*
X11003455Y-17631664D01*
X11003455Y-17631664D02*
X10993932Y-17650712D01*
X10993932Y-17650712D02*
X10984408Y-17660236D01*
X10984408Y-17660236D02*
X10965360Y-17669759D01*
X10965360Y-17669759D02*
X10946313Y-17669759D01*
X10946313Y-17669759D02*
X10927265Y-17660236D01*
X10927265Y-17660236D02*
X10917741Y-17650712D01*
X10917741Y-17650712D02*
X10908217Y-17631664D01*
X10908217Y-17631664D02*
X10898694Y-17593569D01*
X10898694Y-17593569D02*
X10898694Y-17545950D01*
X10898694Y-17545950D02*
X10908217Y-17507855D01*
X10908217Y-17507855D02*
X10917741Y-17488807D01*
X10917741Y-17488807D02*
X10927265Y-17479283D01*
X10927265Y-17479283D02*
X10946313Y-17469759D01*
X11136789Y-17469759D02*
X11155836Y-17469759D01*
X11155836Y-17469759D02*
X11174884Y-17479283D01*
X11174884Y-17479283D02*
X11184408Y-17488807D01*
X11184408Y-17488807D02*
X11193932Y-17507855D01*
X11193932Y-17507855D02*
X11203455Y-17545950D01*
X11203455Y-17545950D02*
X11203455Y-17593569D01*
X11203455Y-17593569D02*
X11193932Y-17631664D01*
X11193932Y-17631664D02*
X11184408Y-17650712D01*
X11184408Y-17650712D02*
X11174884Y-17660236D01*
X11174884Y-17660236D02*
X11155836Y-17669759D01*
X11155836Y-17669759D02*
X11136789Y-17669759D01*
X11136789Y-17669759D02*
X11117741Y-17660236D01*
X11117741Y-17660236D02*
X11108217Y-17650712D01*
X11108217Y-17650712D02*
X11098694Y-17631664D01*
X11098694Y-17631664D02*
X11089170Y-17593569D01*
X11089170Y-17593569D02*
X11089170Y-17545950D01*
X11089170Y-17545950D02*
X11098694Y-17507855D01*
X11098694Y-17507855D02*
X11108217Y-17488807D01*
X11108217Y-17488807D02*
X11117741Y-17479283D01*
X11117741Y-17479283D02*
X11136789Y-17469759D01*
X11289170Y-17669759D02*
X11289170Y-17536426D01*
X11289170Y-17555474D02*
X11298693Y-17545950D01*
X11298693Y-17545950D02*
X11317741Y-17536426D01*
X11317741Y-17536426D02*
X11346313Y-17536426D01*
X11346313Y-17536426D02*
X11365360Y-17545950D01*
X11365360Y-17545950D02*
X11374884Y-17564997D01*
X11374884Y-17564997D02*
X11374884Y-17669759D01*
X11374884Y-17564997D02*
X11384408Y-17545950D01*
X11384408Y-17545950D02*
X11403455Y-17536426D01*
X11403455Y-17536426D02*
X11432027Y-17536426D01*
X11432027Y-17536426D02*
X11451074Y-17545950D01*
X11451074Y-17545950D02*
X11460598Y-17564997D01*
X11460598Y-17564997D02*
X11460598Y-17669759D01*
X11555836Y-17669759D02*
X11555836Y-17536426D01*
X11555836Y-17555474D02*
X11565360Y-17545950D01*
X11565360Y-17545950D02*
X11584408Y-17536426D01*
X11584408Y-17536426D02*
X11612979Y-17536426D01*
X11612979Y-17536426D02*
X11632027Y-17545950D01*
X11632027Y-17545950D02*
X11641551Y-17564997D01*
X11641551Y-17564997D02*
X11641551Y-17669759D01*
X11641551Y-17564997D02*
X11651074Y-17545950D01*
X11651074Y-17545950D02*
X11670122Y-17536426D01*
X11670122Y-17536426D02*
X11698693Y-17536426D01*
X11698693Y-17536426D02*
X11717741Y-17545950D01*
X11717741Y-17545950D02*
X11727265Y-17564997D01*
X11727265Y-17564997D02*
X11727265Y-17669759D01*
X12117741Y-17460236D02*
X11946313Y-17717378D01*
X12374884Y-17469759D02*
X12393932Y-17469759D01*
X12393932Y-17469759D02*
X12412979Y-17479283D01*
X12412979Y-17479283D02*
X12422503Y-17488807D01*
X12422503Y-17488807D02*
X12432027Y-17507855D01*
X12432027Y-17507855D02*
X12441551Y-17545950D01*
X12441551Y-17545950D02*
X12441551Y-17593569D01*
X12441551Y-17593569D02*
X12432027Y-17631664D01*
X12432027Y-17631664D02*
X12422503Y-17650712D01*
X12422503Y-17650712D02*
X12412979Y-17660236D01*
X12412979Y-17660236D02*
X12393932Y-17669759D01*
X12393932Y-17669759D02*
X12374884Y-17669759D01*
X12374884Y-17669759D02*
X12355836Y-17660236D01*
X12355836Y-17660236D02*
X12346313Y-17650712D01*
X12346313Y-17650712D02*
X12336789Y-17631664D01*
X12336789Y-17631664D02*
X12327265Y-17593569D01*
X12327265Y-17593569D02*
X12327265Y-17545950D01*
X12327265Y-17545950D02*
X12336789Y-17507855D01*
X12336789Y-17507855D02*
X12346313Y-17488807D01*
X12346313Y-17488807D02*
X12355836Y-17479283D01*
X12355836Y-17479283D02*
X12374884Y-17469759D01*
X12527265Y-17650712D02*
X12536789Y-17660236D01*
X12536789Y-17660236D02*
X12527265Y-17669759D01*
X12527265Y-17669759D02*
X12517741Y-17660236D01*
X12517741Y-17660236D02*
X12527265Y-17650712D01*
X12527265Y-17650712D02*
X12527265Y-17669759D01*
X12660598Y-17469759D02*
X12679646Y-17469759D01*
X12679646Y-17469759D02*
X12698694Y-17479283D01*
X12698694Y-17479283D02*
X12708217Y-17488807D01*
X12708217Y-17488807D02*
X12717741Y-17507855D01*
X12717741Y-17507855D02*
X12727265Y-17545950D01*
X12727265Y-17545950D02*
X12727265Y-17593569D01*
X12727265Y-17593569D02*
X12717741Y-17631664D01*
X12717741Y-17631664D02*
X12708217Y-17650712D01*
X12708217Y-17650712D02*
X12698694Y-17660236D01*
X12698694Y-17660236D02*
X12679646Y-17669759D01*
X12679646Y-17669759D02*
X12660598Y-17669759D01*
X12660598Y-17669759D02*
X12641551Y-17660236D01*
X12641551Y-17660236D02*
X12632027Y-17650712D01*
X12632027Y-17650712D02*
X12622503Y-17631664D01*
X12622503Y-17631664D02*
X12612979Y-17593569D01*
X12612979Y-17593569D02*
X12612979Y-17545950D01*
X12612979Y-17545950D02*
X12622503Y-17507855D01*
X12622503Y-17507855D02*
X12632027Y-17488807D01*
X12632027Y-17488807D02*
X12641551Y-17479283D01*
X12641551Y-17479283D02*
X12660598Y-17469759D01*
X12908217Y-17469759D02*
X12812979Y-17469759D01*
X12812979Y-17469759D02*
X12803456Y-17564997D01*
X12803456Y-17564997D02*
X12812979Y-17555474D01*
X12812979Y-17555474D02*
X12832027Y-17545950D01*
X12832027Y-17545950D02*
X12879646Y-17545950D01*
X12879646Y-17545950D02*
X12898694Y-17555474D01*
X12898694Y-17555474D02*
X12908217Y-17564997D01*
X12908217Y-17564997D02*
X12917741Y-17584045D01*
X12917741Y-17584045D02*
X12917741Y-17631664D01*
X12917741Y-17631664D02*
X12908217Y-17650712D01*
X12908217Y-17650712D02*
X12898694Y-17660236D01*
X12898694Y-17660236D02*
X12879646Y-17669759D01*
X12879646Y-17669759D02*
X12832027Y-17669759D01*
X12832027Y-17669759D02*
X12812979Y-17660236D01*
X12812979Y-17660236D02*
X12803456Y-17650712D01*
X13098694Y-17469759D02*
X13003456Y-17469759D01*
X13003456Y-17469759D02*
X12993932Y-17564997D01*
X12993932Y-17564997D02*
X13003456Y-17555474D01*
X13003456Y-17555474D02*
X13022503Y-17545950D01*
X13022503Y-17545950D02*
X13070122Y-17545950D01*
X13070122Y-17545950D02*
X13089170Y-17555474D01*
X13089170Y-17555474D02*
X13098694Y-17564997D01*
X13098694Y-17564997D02*
X13108217Y-17584045D01*
X13108217Y-17584045D02*
X13108217Y-17631664D01*
X13108217Y-17631664D02*
X13098694Y-17650712D01*
X13098694Y-17650712D02*
X13089170Y-17660236D01*
X13089170Y-17660236D02*
X13070122Y-17669759D01*
X13070122Y-17669759D02*
X13022503Y-17669759D01*
X13022503Y-17669759D02*
X13003456Y-17660236D01*
X13003456Y-17660236D02*
X12993932Y-17650712D01*
X13298694Y-17669759D02*
X13184408Y-17669759D01*
X13241551Y-17669759D02*
X13241551Y-17469759D01*
X13241551Y-17469759D02*
X13222503Y-17498331D01*
X13222503Y-17498331D02*
X13203456Y-17517378D01*
X13203456Y-17517378D02*
X13184408Y-17526902D01*
X13374884Y-17469759D02*
X13374884Y-17507855D01*
X13451075Y-17469759D02*
X13451075Y-17507855D01*
X13746313Y-17745950D02*
X13736789Y-17736426D01*
X13736789Y-17736426D02*
X13717741Y-17707855D01*
X13717741Y-17707855D02*
X13708218Y-17688807D01*
X13708218Y-17688807D02*
X13698694Y-17660236D01*
X13698694Y-17660236D02*
X13689170Y-17612616D01*
X13689170Y-17612616D02*
X13689170Y-17574521D01*
X13689170Y-17574521D02*
X13698694Y-17526902D01*
X13698694Y-17526902D02*
X13708218Y-17498331D01*
X13708218Y-17498331D02*
X13717741Y-17479283D01*
X13717741Y-17479283D02*
X13736789Y-17450712D01*
X13736789Y-17450712D02*
X13746313Y-17441188D01*
X13908218Y-17469759D02*
X13870122Y-17469759D01*
X13870122Y-17469759D02*
X13851075Y-17479283D01*
X13851075Y-17479283D02*
X13841551Y-17488807D01*
X13841551Y-17488807D02*
X13822503Y-17517378D01*
X13822503Y-17517378D02*
X13812979Y-17555474D01*
X13812979Y-17555474D02*
X13812979Y-17631664D01*
X13812979Y-17631664D02*
X13822503Y-17650712D01*
X13822503Y-17650712D02*
X13832027Y-17660236D01*
X13832027Y-17660236D02*
X13851075Y-17669759D01*
X13851075Y-17669759D02*
X13889170Y-17669759D01*
X13889170Y-17669759D02*
X13908218Y-17660236D01*
X13908218Y-17660236D02*
X13917741Y-17650712D01*
X13917741Y-17650712D02*
X13927265Y-17631664D01*
X13927265Y-17631664D02*
X13927265Y-17584045D01*
X13927265Y-17584045D02*
X13917741Y-17564997D01*
X13917741Y-17564997D02*
X13908218Y-17555474D01*
X13908218Y-17555474D02*
X13889170Y-17545950D01*
X13889170Y-17545950D02*
X13851075Y-17545950D01*
X13851075Y-17545950D02*
X13832027Y-17555474D01*
X13832027Y-17555474D02*
X13822503Y-17564997D01*
X13822503Y-17564997D02*
X13812979Y-17584045D01*
X14165360Y-17669759D02*
X14165360Y-17469759D01*
X14251075Y-17669759D02*
X14251075Y-17564997D01*
X14251075Y-17564997D02*
X14241551Y-17545950D01*
X14241551Y-17545950D02*
X14222503Y-17536426D01*
X14222503Y-17536426D02*
X14193932Y-17536426D01*
X14193932Y-17536426D02*
X14174884Y-17545950D01*
X14174884Y-17545950D02*
X14165360Y-17555474D01*
X14374884Y-17669759D02*
X14355837Y-17660236D01*
X14355837Y-17660236D02*
X14346313Y-17650712D01*
X14346313Y-17650712D02*
X14336789Y-17631664D01*
X14336789Y-17631664D02*
X14336789Y-17574521D01*
X14336789Y-17574521D02*
X14346313Y-17555474D01*
X14346313Y-17555474D02*
X14355837Y-17545950D01*
X14355837Y-17545950D02*
X14374884Y-17536426D01*
X14374884Y-17536426D02*
X14403456Y-17536426D01*
X14403456Y-17536426D02*
X14422503Y-17545950D01*
X14422503Y-17545950D02*
X14432027Y-17555474D01*
X14432027Y-17555474D02*
X14441551Y-17574521D01*
X14441551Y-17574521D02*
X14441551Y-17631664D01*
X14441551Y-17631664D02*
X14432027Y-17650712D01*
X14432027Y-17650712D02*
X14422503Y-17660236D01*
X14422503Y-17660236D02*
X14403456Y-17669759D01*
X14403456Y-17669759D02*
X14374884Y-17669759D01*
X14555837Y-17669759D02*
X14536789Y-17660236D01*
X14536789Y-17660236D02*
X14527265Y-17641188D01*
X14527265Y-17641188D02*
X14527265Y-17469759D01*
X14708218Y-17660236D02*
X14689170Y-17669759D01*
X14689170Y-17669759D02*
X14651075Y-17669759D01*
X14651075Y-17669759D02*
X14632027Y-17660236D01*
X14632027Y-17660236D02*
X14622503Y-17641188D01*
X14622503Y-17641188D02*
X14622503Y-17564997D01*
X14622503Y-17564997D02*
X14632027Y-17545950D01*
X14632027Y-17545950D02*
X14651075Y-17536426D01*
X14651075Y-17536426D02*
X14689170Y-17536426D01*
X14689170Y-17536426D02*
X14708218Y-17545950D01*
X14708218Y-17545950D02*
X14717741Y-17564997D01*
X14717741Y-17564997D02*
X14717741Y-17584045D01*
X14717741Y-17584045D02*
X14622503Y-17603093D01*
X14793932Y-17660236D02*
X14812980Y-17669759D01*
X14812980Y-17669759D02*
X14851075Y-17669759D01*
X14851075Y-17669759D02*
X14870122Y-17660236D01*
X14870122Y-17660236D02*
X14879646Y-17641188D01*
X14879646Y-17641188D02*
X14879646Y-17631664D01*
X14879646Y-17631664D02*
X14870122Y-17612616D01*
X14870122Y-17612616D02*
X14851075Y-17603093D01*
X14851075Y-17603093D02*
X14822503Y-17603093D01*
X14822503Y-17603093D02*
X14803456Y-17593569D01*
X14803456Y-17593569D02*
X14793932Y-17574521D01*
X14793932Y-17574521D02*
X14793932Y-17564997D01*
X14793932Y-17564997D02*
X14803456Y-17545950D01*
X14803456Y-17545950D02*
X14822503Y-17536426D01*
X14822503Y-17536426D02*
X14851075Y-17536426D01*
X14851075Y-17536426D02*
X14870122Y-17545950D01*
X14946313Y-17745950D02*
X14955837Y-17736426D01*
X14955837Y-17736426D02*
X14974884Y-17707855D01*
X14974884Y-17707855D02*
X14984408Y-17688807D01*
X14984408Y-17688807D02*
X14993932Y-17660236D01*
X14993932Y-17660236D02*
X15003456Y-17612616D01*
X15003456Y-17612616D02*
X15003456Y-17574521D01*
X15003456Y-17574521D02*
X14993932Y-17526902D01*
X14993932Y-17526902D02*
X14984408Y-17498331D01*
X14984408Y-17498331D02*
X14974884Y-17479283D01*
X14974884Y-17479283D02*
X14955837Y-17450712D01*
X14955837Y-17450712D02*
X14946313Y-17441188D01*
D18*
X10021250Y-17767276D02*
X10171250Y-17917276D01*
X10171250Y-17767276D02*
X10021250Y-17917276D01*
X10149284Y-17895309D02*
X10149284Y-17789242D01*
X10043217Y-17789242D01*
X10043217Y-17895309D01*
X10149284Y-17895309D01*
D11*
X10536789Y-17933759D02*
X10422503Y-17933759D01*
X10479646Y-17933759D02*
X10479646Y-17733759D01*
X10479646Y-17733759D02*
X10460598Y-17762331D01*
X10460598Y-17762331D02*
X10441551Y-17781378D01*
X10441551Y-17781378D02*
X10422503Y-17790902D01*
X10622503Y-17914712D02*
X10632027Y-17924236D01*
X10632027Y-17924236D02*
X10622503Y-17933759D01*
X10622503Y-17933759D02*
X10612979Y-17924236D01*
X10612979Y-17924236D02*
X10622503Y-17914712D01*
X10622503Y-17914712D02*
X10622503Y-17933759D01*
X10812979Y-17733759D02*
X10717741Y-17733759D01*
X10717741Y-17733759D02*
X10708217Y-17828997D01*
X10708217Y-17828997D02*
X10717741Y-17819474D01*
X10717741Y-17819474D02*
X10736789Y-17809950D01*
X10736789Y-17809950D02*
X10784408Y-17809950D01*
X10784408Y-17809950D02*
X10803455Y-17819474D01*
X10803455Y-17819474D02*
X10812979Y-17828997D01*
X10812979Y-17828997D02*
X10822503Y-17848045D01*
X10822503Y-17848045D02*
X10822503Y-17895664D01*
X10822503Y-17895664D02*
X10812979Y-17914712D01*
X10812979Y-17914712D02*
X10803455Y-17924236D01*
X10803455Y-17924236D02*
X10784408Y-17933759D01*
X10784408Y-17933759D02*
X10736789Y-17933759D01*
X10736789Y-17933759D02*
X10717741Y-17924236D01*
X10717741Y-17924236D02*
X10708217Y-17914712D01*
X10946313Y-17733759D02*
X10965360Y-17733759D01*
X10965360Y-17733759D02*
X10984408Y-17743283D01*
X10984408Y-17743283D02*
X10993932Y-17752807D01*
X10993932Y-17752807D02*
X11003455Y-17771855D01*
X11003455Y-17771855D02*
X11012979Y-17809950D01*
X11012979Y-17809950D02*
X11012979Y-17857569D01*
X11012979Y-17857569D02*
X11003455Y-17895664D01*
X11003455Y-17895664D02*
X10993932Y-17914712D01*
X10993932Y-17914712D02*
X10984408Y-17924236D01*
X10984408Y-17924236D02*
X10965360Y-17933759D01*
X10965360Y-17933759D02*
X10946313Y-17933759D01*
X10946313Y-17933759D02*
X10927265Y-17924236D01*
X10927265Y-17924236D02*
X10917741Y-17914712D01*
X10917741Y-17914712D02*
X10908217Y-17895664D01*
X10908217Y-17895664D02*
X10898694Y-17857569D01*
X10898694Y-17857569D02*
X10898694Y-17809950D01*
X10898694Y-17809950D02*
X10908217Y-17771855D01*
X10908217Y-17771855D02*
X10917741Y-17752807D01*
X10917741Y-17752807D02*
X10927265Y-17743283D01*
X10927265Y-17743283D02*
X10946313Y-17733759D01*
X11136789Y-17733759D02*
X11155836Y-17733759D01*
X11155836Y-17733759D02*
X11174884Y-17743283D01*
X11174884Y-17743283D02*
X11184408Y-17752807D01*
X11184408Y-17752807D02*
X11193932Y-17771855D01*
X11193932Y-17771855D02*
X11203455Y-17809950D01*
X11203455Y-17809950D02*
X11203455Y-17857569D01*
X11203455Y-17857569D02*
X11193932Y-17895664D01*
X11193932Y-17895664D02*
X11184408Y-17914712D01*
X11184408Y-17914712D02*
X11174884Y-17924236D01*
X11174884Y-17924236D02*
X11155836Y-17933759D01*
X11155836Y-17933759D02*
X11136789Y-17933759D01*
X11136789Y-17933759D02*
X11117741Y-17924236D01*
X11117741Y-17924236D02*
X11108217Y-17914712D01*
X11108217Y-17914712D02*
X11098694Y-17895664D01*
X11098694Y-17895664D02*
X11089170Y-17857569D01*
X11089170Y-17857569D02*
X11089170Y-17809950D01*
X11089170Y-17809950D02*
X11098694Y-17771855D01*
X11098694Y-17771855D02*
X11108217Y-17752807D01*
X11108217Y-17752807D02*
X11117741Y-17743283D01*
X11117741Y-17743283D02*
X11136789Y-17733759D01*
X11289170Y-17933759D02*
X11289170Y-17800426D01*
X11289170Y-17819474D02*
X11298693Y-17809950D01*
X11298693Y-17809950D02*
X11317741Y-17800426D01*
X11317741Y-17800426D02*
X11346313Y-17800426D01*
X11346313Y-17800426D02*
X11365360Y-17809950D01*
X11365360Y-17809950D02*
X11374884Y-17828997D01*
X11374884Y-17828997D02*
X11374884Y-17933759D01*
X11374884Y-17828997D02*
X11384408Y-17809950D01*
X11384408Y-17809950D02*
X11403455Y-17800426D01*
X11403455Y-17800426D02*
X11432027Y-17800426D01*
X11432027Y-17800426D02*
X11451074Y-17809950D01*
X11451074Y-17809950D02*
X11460598Y-17828997D01*
X11460598Y-17828997D02*
X11460598Y-17933759D01*
X11555836Y-17933759D02*
X11555836Y-17800426D01*
X11555836Y-17819474D02*
X11565360Y-17809950D01*
X11565360Y-17809950D02*
X11584408Y-17800426D01*
X11584408Y-17800426D02*
X11612979Y-17800426D01*
X11612979Y-17800426D02*
X11632027Y-17809950D01*
X11632027Y-17809950D02*
X11641551Y-17828997D01*
X11641551Y-17828997D02*
X11641551Y-17933759D01*
X11641551Y-17828997D02*
X11651074Y-17809950D01*
X11651074Y-17809950D02*
X11670122Y-17800426D01*
X11670122Y-17800426D02*
X11698693Y-17800426D01*
X11698693Y-17800426D02*
X11717741Y-17809950D01*
X11717741Y-17809950D02*
X11727265Y-17828997D01*
X11727265Y-17828997D02*
X11727265Y-17933759D01*
X12117741Y-17724236D02*
X11946313Y-17981378D01*
X12374884Y-17733759D02*
X12393932Y-17733759D01*
X12393932Y-17733759D02*
X12412979Y-17743283D01*
X12412979Y-17743283D02*
X12422503Y-17752807D01*
X12422503Y-17752807D02*
X12432027Y-17771855D01*
X12432027Y-17771855D02*
X12441551Y-17809950D01*
X12441551Y-17809950D02*
X12441551Y-17857569D01*
X12441551Y-17857569D02*
X12432027Y-17895664D01*
X12432027Y-17895664D02*
X12422503Y-17914712D01*
X12422503Y-17914712D02*
X12412979Y-17924236D01*
X12412979Y-17924236D02*
X12393932Y-17933759D01*
X12393932Y-17933759D02*
X12374884Y-17933759D01*
X12374884Y-17933759D02*
X12355836Y-17924236D01*
X12355836Y-17924236D02*
X12346313Y-17914712D01*
X12346313Y-17914712D02*
X12336789Y-17895664D01*
X12336789Y-17895664D02*
X12327265Y-17857569D01*
X12327265Y-17857569D02*
X12327265Y-17809950D01*
X12327265Y-17809950D02*
X12336789Y-17771855D01*
X12336789Y-17771855D02*
X12346313Y-17752807D01*
X12346313Y-17752807D02*
X12355836Y-17743283D01*
X12355836Y-17743283D02*
X12374884Y-17733759D01*
X12527265Y-17914712D02*
X12536789Y-17924236D01*
X12536789Y-17924236D02*
X12527265Y-17933759D01*
X12527265Y-17933759D02*
X12517741Y-17924236D01*
X12517741Y-17924236D02*
X12527265Y-17914712D01*
X12527265Y-17914712D02*
X12527265Y-17933759D01*
X12660598Y-17733759D02*
X12679646Y-17733759D01*
X12679646Y-17733759D02*
X12698694Y-17743283D01*
X12698694Y-17743283D02*
X12708217Y-17752807D01*
X12708217Y-17752807D02*
X12717741Y-17771855D01*
X12717741Y-17771855D02*
X12727265Y-17809950D01*
X12727265Y-17809950D02*
X12727265Y-17857569D01*
X12727265Y-17857569D02*
X12717741Y-17895664D01*
X12717741Y-17895664D02*
X12708217Y-17914712D01*
X12708217Y-17914712D02*
X12698694Y-17924236D01*
X12698694Y-17924236D02*
X12679646Y-17933759D01*
X12679646Y-17933759D02*
X12660598Y-17933759D01*
X12660598Y-17933759D02*
X12641551Y-17924236D01*
X12641551Y-17924236D02*
X12632027Y-17914712D01*
X12632027Y-17914712D02*
X12622503Y-17895664D01*
X12622503Y-17895664D02*
X12612979Y-17857569D01*
X12612979Y-17857569D02*
X12612979Y-17809950D01*
X12612979Y-17809950D02*
X12622503Y-17771855D01*
X12622503Y-17771855D02*
X12632027Y-17752807D01*
X12632027Y-17752807D02*
X12641551Y-17743283D01*
X12641551Y-17743283D02*
X12660598Y-17733759D01*
X12908217Y-17733759D02*
X12812979Y-17733759D01*
X12812979Y-17733759D02*
X12803456Y-17828997D01*
X12803456Y-17828997D02*
X12812979Y-17819474D01*
X12812979Y-17819474D02*
X12832027Y-17809950D01*
X12832027Y-17809950D02*
X12879646Y-17809950D01*
X12879646Y-17809950D02*
X12898694Y-17819474D01*
X12898694Y-17819474D02*
X12908217Y-17828997D01*
X12908217Y-17828997D02*
X12917741Y-17848045D01*
X12917741Y-17848045D02*
X12917741Y-17895664D01*
X12917741Y-17895664D02*
X12908217Y-17914712D01*
X12908217Y-17914712D02*
X12898694Y-17924236D01*
X12898694Y-17924236D02*
X12879646Y-17933759D01*
X12879646Y-17933759D02*
X12832027Y-17933759D01*
X12832027Y-17933759D02*
X12812979Y-17924236D01*
X12812979Y-17924236D02*
X12803456Y-17914712D01*
X13012979Y-17933759D02*
X13051075Y-17933759D01*
X13051075Y-17933759D02*
X13070122Y-17924236D01*
X13070122Y-17924236D02*
X13079646Y-17914712D01*
X13079646Y-17914712D02*
X13098694Y-17886140D01*
X13098694Y-17886140D02*
X13108217Y-17848045D01*
X13108217Y-17848045D02*
X13108217Y-17771855D01*
X13108217Y-17771855D02*
X13098694Y-17752807D01*
X13098694Y-17752807D02*
X13089170Y-17743283D01*
X13089170Y-17743283D02*
X13070122Y-17733759D01*
X13070122Y-17733759D02*
X13032027Y-17733759D01*
X13032027Y-17733759D02*
X13012979Y-17743283D01*
X13012979Y-17743283D02*
X13003456Y-17752807D01*
X13003456Y-17752807D02*
X12993932Y-17771855D01*
X12993932Y-17771855D02*
X12993932Y-17819474D01*
X12993932Y-17819474D02*
X13003456Y-17838521D01*
X13003456Y-17838521D02*
X13012979Y-17848045D01*
X13012979Y-17848045D02*
X13032027Y-17857569D01*
X13032027Y-17857569D02*
X13070122Y-17857569D01*
X13070122Y-17857569D02*
X13089170Y-17848045D01*
X13089170Y-17848045D02*
X13098694Y-17838521D01*
X13098694Y-17838521D02*
X13108217Y-17819474D01*
X13298694Y-17933759D02*
X13184408Y-17933759D01*
X13241551Y-17933759D02*
X13241551Y-17733759D01*
X13241551Y-17733759D02*
X13222503Y-17762331D01*
X13222503Y-17762331D02*
X13203456Y-17781378D01*
X13203456Y-17781378D02*
X13184408Y-17790902D01*
X13374884Y-17733759D02*
X13374884Y-17771855D01*
X13451075Y-17733759D02*
X13451075Y-17771855D01*
X13746313Y-18009950D02*
X13736789Y-18000426D01*
X13736789Y-18000426D02*
X13717741Y-17971855D01*
X13717741Y-17971855D02*
X13708218Y-17952807D01*
X13708218Y-17952807D02*
X13698694Y-17924236D01*
X13698694Y-17924236D02*
X13689170Y-17876616D01*
X13689170Y-17876616D02*
X13689170Y-17838521D01*
X13689170Y-17838521D02*
X13698694Y-17790902D01*
X13698694Y-17790902D02*
X13708218Y-17762331D01*
X13708218Y-17762331D02*
X13717741Y-17743283D01*
X13717741Y-17743283D02*
X13736789Y-17714712D01*
X13736789Y-17714712D02*
X13746313Y-17705188D01*
X13908218Y-17733759D02*
X13870122Y-17733759D01*
X13870122Y-17733759D02*
X13851075Y-17743283D01*
X13851075Y-17743283D02*
X13841551Y-17752807D01*
X13841551Y-17752807D02*
X13822503Y-17781378D01*
X13822503Y-17781378D02*
X13812979Y-17819474D01*
X13812979Y-17819474D02*
X13812979Y-17895664D01*
X13812979Y-17895664D02*
X13822503Y-17914712D01*
X13822503Y-17914712D02*
X13832027Y-17924236D01*
X13832027Y-17924236D02*
X13851075Y-17933759D01*
X13851075Y-17933759D02*
X13889170Y-17933759D01*
X13889170Y-17933759D02*
X13908218Y-17924236D01*
X13908218Y-17924236D02*
X13917741Y-17914712D01*
X13917741Y-17914712D02*
X13927265Y-17895664D01*
X13927265Y-17895664D02*
X13927265Y-17848045D01*
X13927265Y-17848045D02*
X13917741Y-17828997D01*
X13917741Y-17828997D02*
X13908218Y-17819474D01*
X13908218Y-17819474D02*
X13889170Y-17809950D01*
X13889170Y-17809950D02*
X13851075Y-17809950D01*
X13851075Y-17809950D02*
X13832027Y-17819474D01*
X13832027Y-17819474D02*
X13822503Y-17828997D01*
X13822503Y-17828997D02*
X13812979Y-17848045D01*
X14165360Y-17933759D02*
X14165360Y-17733759D01*
X14251075Y-17933759D02*
X14251075Y-17828997D01*
X14251075Y-17828997D02*
X14241551Y-17809950D01*
X14241551Y-17809950D02*
X14222503Y-17800426D01*
X14222503Y-17800426D02*
X14193932Y-17800426D01*
X14193932Y-17800426D02*
X14174884Y-17809950D01*
X14174884Y-17809950D02*
X14165360Y-17819474D01*
X14374884Y-17933759D02*
X14355837Y-17924236D01*
X14355837Y-17924236D02*
X14346313Y-17914712D01*
X14346313Y-17914712D02*
X14336789Y-17895664D01*
X14336789Y-17895664D02*
X14336789Y-17838521D01*
X14336789Y-17838521D02*
X14346313Y-17819474D01*
X14346313Y-17819474D02*
X14355837Y-17809950D01*
X14355837Y-17809950D02*
X14374884Y-17800426D01*
X14374884Y-17800426D02*
X14403456Y-17800426D01*
X14403456Y-17800426D02*
X14422503Y-17809950D01*
X14422503Y-17809950D02*
X14432027Y-17819474D01*
X14432027Y-17819474D02*
X14441551Y-17838521D01*
X14441551Y-17838521D02*
X14441551Y-17895664D01*
X14441551Y-17895664D02*
X14432027Y-17914712D01*
X14432027Y-17914712D02*
X14422503Y-17924236D01*
X14422503Y-17924236D02*
X14403456Y-17933759D01*
X14403456Y-17933759D02*
X14374884Y-17933759D01*
X14555837Y-17933759D02*
X14536789Y-17924236D01*
X14536789Y-17924236D02*
X14527265Y-17905188D01*
X14527265Y-17905188D02*
X14527265Y-17733759D01*
X14708218Y-17924236D02*
X14689170Y-17933759D01*
X14689170Y-17933759D02*
X14651075Y-17933759D01*
X14651075Y-17933759D02*
X14632027Y-17924236D01*
X14632027Y-17924236D02*
X14622503Y-17905188D01*
X14622503Y-17905188D02*
X14622503Y-17828997D01*
X14622503Y-17828997D02*
X14632027Y-17809950D01*
X14632027Y-17809950D02*
X14651075Y-17800426D01*
X14651075Y-17800426D02*
X14689170Y-17800426D01*
X14689170Y-17800426D02*
X14708218Y-17809950D01*
X14708218Y-17809950D02*
X14717741Y-17828997D01*
X14717741Y-17828997D02*
X14717741Y-17848045D01*
X14717741Y-17848045D02*
X14622503Y-17867093D01*
X14793932Y-17924236D02*
X14812980Y-17933759D01*
X14812980Y-17933759D02*
X14851075Y-17933759D01*
X14851075Y-17933759D02*
X14870122Y-17924236D01*
X14870122Y-17924236D02*
X14879646Y-17905188D01*
X14879646Y-17905188D02*
X14879646Y-17895664D01*
X14879646Y-17895664D02*
X14870122Y-17876616D01*
X14870122Y-17876616D02*
X14851075Y-17867093D01*
X14851075Y-17867093D02*
X14822503Y-17867093D01*
X14822503Y-17867093D02*
X14803456Y-17857569D01*
X14803456Y-17857569D02*
X14793932Y-17838521D01*
X14793932Y-17838521D02*
X14793932Y-17828997D01*
X14793932Y-17828997D02*
X14803456Y-17809950D01*
X14803456Y-17809950D02*
X14822503Y-17800426D01*
X14822503Y-17800426D02*
X14851075Y-17800426D01*
X14851075Y-17800426D02*
X14870122Y-17809950D01*
X14946313Y-18009950D02*
X14955837Y-18000426D01*
X14955837Y-18000426D02*
X14974884Y-17971855D01*
X14974884Y-17971855D02*
X14984408Y-17952807D01*
X14984408Y-17952807D02*
X14993932Y-17924236D01*
X14993932Y-17924236D02*
X15003456Y-17876616D01*
X15003456Y-17876616D02*
X15003456Y-17838521D01*
X15003456Y-17838521D02*
X14993932Y-17790902D01*
X14993932Y-17790902D02*
X14984408Y-17762331D01*
X14984408Y-17762331D02*
X14974884Y-17743283D01*
X14974884Y-17743283D02*
X14955837Y-17714712D01*
X14955837Y-17714712D02*
X14946313Y-17705188D01*
X9971250Y-18012276D02*
X10171250Y-18212276D01*
X10171250Y-18012276D02*
X9971250Y-18212276D01*
X10071250Y-18212276D02*
X10171250Y-18112276D01*
X10071250Y-18012276D01*
X9971250Y-18112276D01*
X10071250Y-18212276D01*
X10422503Y-18022807D02*
X10432027Y-18013283D01*
X10432027Y-18013283D02*
X10451074Y-18003759D01*
X10451074Y-18003759D02*
X10498694Y-18003759D01*
X10498694Y-18003759D02*
X10517741Y-18013283D01*
X10517741Y-18013283D02*
X10527265Y-18022807D01*
X10527265Y-18022807D02*
X10536789Y-18041855D01*
X10536789Y-18041855D02*
X10536789Y-18060902D01*
X10536789Y-18060902D02*
X10527265Y-18089474D01*
X10527265Y-18089474D02*
X10412979Y-18203759D01*
X10412979Y-18203759D02*
X10536789Y-18203759D01*
X10622503Y-18184712D02*
X10632027Y-18194236D01*
X10632027Y-18194236D02*
X10622503Y-18203759D01*
X10622503Y-18203759D02*
X10612979Y-18194236D01*
X10612979Y-18194236D02*
X10622503Y-18184712D01*
X10622503Y-18184712D02*
X10622503Y-18203759D01*
X10698694Y-18003759D02*
X10832027Y-18003759D01*
X10832027Y-18003759D02*
X10746313Y-18203759D01*
X10946313Y-18003759D02*
X10965360Y-18003759D01*
X10965360Y-18003759D02*
X10984408Y-18013283D01*
X10984408Y-18013283D02*
X10993932Y-18022807D01*
X10993932Y-18022807D02*
X11003455Y-18041855D01*
X11003455Y-18041855D02*
X11012979Y-18079950D01*
X11012979Y-18079950D02*
X11012979Y-18127569D01*
X11012979Y-18127569D02*
X11003455Y-18165664D01*
X11003455Y-18165664D02*
X10993932Y-18184712D01*
X10993932Y-18184712D02*
X10984408Y-18194236D01*
X10984408Y-18194236D02*
X10965360Y-18203759D01*
X10965360Y-18203759D02*
X10946313Y-18203759D01*
X10946313Y-18203759D02*
X10927265Y-18194236D01*
X10927265Y-18194236D02*
X10917741Y-18184712D01*
X10917741Y-18184712D02*
X10908217Y-18165664D01*
X10908217Y-18165664D02*
X10898694Y-18127569D01*
X10898694Y-18127569D02*
X10898694Y-18079950D01*
X10898694Y-18079950D02*
X10908217Y-18041855D01*
X10908217Y-18041855D02*
X10917741Y-18022807D01*
X10917741Y-18022807D02*
X10927265Y-18013283D01*
X10927265Y-18013283D02*
X10946313Y-18003759D01*
X11136789Y-18003759D02*
X11155836Y-18003759D01*
X11155836Y-18003759D02*
X11174884Y-18013283D01*
X11174884Y-18013283D02*
X11184408Y-18022807D01*
X11184408Y-18022807D02*
X11193932Y-18041855D01*
X11193932Y-18041855D02*
X11203455Y-18079950D01*
X11203455Y-18079950D02*
X11203455Y-18127569D01*
X11203455Y-18127569D02*
X11193932Y-18165664D01*
X11193932Y-18165664D02*
X11184408Y-18184712D01*
X11184408Y-18184712D02*
X11174884Y-18194236D01*
X11174884Y-18194236D02*
X11155836Y-18203759D01*
X11155836Y-18203759D02*
X11136789Y-18203759D01*
X11136789Y-18203759D02*
X11117741Y-18194236D01*
X11117741Y-18194236D02*
X11108217Y-18184712D01*
X11108217Y-18184712D02*
X11098694Y-18165664D01*
X11098694Y-18165664D02*
X11089170Y-18127569D01*
X11089170Y-18127569D02*
X11089170Y-18079950D01*
X11089170Y-18079950D02*
X11098694Y-18041855D01*
X11098694Y-18041855D02*
X11108217Y-18022807D01*
X11108217Y-18022807D02*
X11117741Y-18013283D01*
X11117741Y-18013283D02*
X11136789Y-18003759D01*
X11289170Y-18203759D02*
X11289170Y-18070426D01*
X11289170Y-18089474D02*
X11298693Y-18079950D01*
X11298693Y-18079950D02*
X11317741Y-18070426D01*
X11317741Y-18070426D02*
X11346313Y-18070426D01*
X11346313Y-18070426D02*
X11365360Y-18079950D01*
X11365360Y-18079950D02*
X11374884Y-18098997D01*
X11374884Y-18098997D02*
X11374884Y-18203759D01*
X11374884Y-18098997D02*
X11384408Y-18079950D01*
X11384408Y-18079950D02*
X11403455Y-18070426D01*
X11403455Y-18070426D02*
X11432027Y-18070426D01*
X11432027Y-18070426D02*
X11451074Y-18079950D01*
X11451074Y-18079950D02*
X11460598Y-18098997D01*
X11460598Y-18098997D02*
X11460598Y-18203759D01*
X11555836Y-18203759D02*
X11555836Y-18070426D01*
X11555836Y-18089474D02*
X11565360Y-18079950D01*
X11565360Y-18079950D02*
X11584408Y-18070426D01*
X11584408Y-18070426D02*
X11612979Y-18070426D01*
X11612979Y-18070426D02*
X11632027Y-18079950D01*
X11632027Y-18079950D02*
X11641551Y-18098997D01*
X11641551Y-18098997D02*
X11641551Y-18203759D01*
X11641551Y-18098997D02*
X11651074Y-18079950D01*
X11651074Y-18079950D02*
X11670122Y-18070426D01*
X11670122Y-18070426D02*
X11698693Y-18070426D01*
X11698693Y-18070426D02*
X11717741Y-18079950D01*
X11717741Y-18079950D02*
X11727265Y-18098997D01*
X11727265Y-18098997D02*
X11727265Y-18203759D01*
X12117741Y-17994236D02*
X11946313Y-18251378D01*
X12374884Y-18003759D02*
X12393932Y-18003759D01*
X12393932Y-18003759D02*
X12412979Y-18013283D01*
X12412979Y-18013283D02*
X12422503Y-18022807D01*
X12422503Y-18022807D02*
X12432027Y-18041855D01*
X12432027Y-18041855D02*
X12441551Y-18079950D01*
X12441551Y-18079950D02*
X12441551Y-18127569D01*
X12441551Y-18127569D02*
X12432027Y-18165664D01*
X12432027Y-18165664D02*
X12422503Y-18184712D01*
X12422503Y-18184712D02*
X12412979Y-18194236D01*
X12412979Y-18194236D02*
X12393932Y-18203759D01*
X12393932Y-18203759D02*
X12374884Y-18203759D01*
X12374884Y-18203759D02*
X12355836Y-18194236D01*
X12355836Y-18194236D02*
X12346313Y-18184712D01*
X12346313Y-18184712D02*
X12336789Y-18165664D01*
X12336789Y-18165664D02*
X12327265Y-18127569D01*
X12327265Y-18127569D02*
X12327265Y-18079950D01*
X12327265Y-18079950D02*
X12336789Y-18041855D01*
X12336789Y-18041855D02*
X12346313Y-18022807D01*
X12346313Y-18022807D02*
X12355836Y-18013283D01*
X12355836Y-18013283D02*
X12374884Y-18003759D01*
X12527265Y-18184712D02*
X12536789Y-18194236D01*
X12536789Y-18194236D02*
X12527265Y-18203759D01*
X12527265Y-18203759D02*
X12517741Y-18194236D01*
X12517741Y-18194236D02*
X12527265Y-18184712D01*
X12527265Y-18184712D02*
X12527265Y-18203759D01*
X12727265Y-18203759D02*
X12612979Y-18203759D01*
X12670122Y-18203759D02*
X12670122Y-18003759D01*
X12670122Y-18003759D02*
X12651075Y-18032331D01*
X12651075Y-18032331D02*
X12632027Y-18051378D01*
X12632027Y-18051378D02*
X12612979Y-18060902D01*
X12851075Y-18003759D02*
X12870122Y-18003759D01*
X12870122Y-18003759D02*
X12889170Y-18013283D01*
X12889170Y-18013283D02*
X12898694Y-18022807D01*
X12898694Y-18022807D02*
X12908217Y-18041855D01*
X12908217Y-18041855D02*
X12917741Y-18079950D01*
X12917741Y-18079950D02*
X12917741Y-18127569D01*
X12917741Y-18127569D02*
X12908217Y-18165664D01*
X12908217Y-18165664D02*
X12898694Y-18184712D01*
X12898694Y-18184712D02*
X12889170Y-18194236D01*
X12889170Y-18194236D02*
X12870122Y-18203759D01*
X12870122Y-18203759D02*
X12851075Y-18203759D01*
X12851075Y-18203759D02*
X12832027Y-18194236D01*
X12832027Y-18194236D02*
X12822503Y-18184712D01*
X12822503Y-18184712D02*
X12812979Y-18165664D01*
X12812979Y-18165664D02*
X12803456Y-18127569D01*
X12803456Y-18127569D02*
X12803456Y-18079950D01*
X12803456Y-18079950D02*
X12812979Y-18041855D01*
X12812979Y-18041855D02*
X12822503Y-18022807D01*
X12822503Y-18022807D02*
X12832027Y-18013283D01*
X12832027Y-18013283D02*
X12851075Y-18003759D01*
X13089170Y-18003759D02*
X13051075Y-18003759D01*
X13051075Y-18003759D02*
X13032027Y-18013283D01*
X13032027Y-18013283D02*
X13022503Y-18022807D01*
X13022503Y-18022807D02*
X13003456Y-18051378D01*
X13003456Y-18051378D02*
X12993932Y-18089474D01*
X12993932Y-18089474D02*
X12993932Y-18165664D01*
X12993932Y-18165664D02*
X13003456Y-18184712D01*
X13003456Y-18184712D02*
X13012979Y-18194236D01*
X13012979Y-18194236D02*
X13032027Y-18203759D01*
X13032027Y-18203759D02*
X13070122Y-18203759D01*
X13070122Y-18203759D02*
X13089170Y-18194236D01*
X13089170Y-18194236D02*
X13098694Y-18184712D01*
X13098694Y-18184712D02*
X13108217Y-18165664D01*
X13108217Y-18165664D02*
X13108217Y-18118045D01*
X13108217Y-18118045D02*
X13098694Y-18098997D01*
X13098694Y-18098997D02*
X13089170Y-18089474D01*
X13089170Y-18089474D02*
X13070122Y-18079950D01*
X13070122Y-18079950D02*
X13032027Y-18079950D01*
X13032027Y-18079950D02*
X13012979Y-18089474D01*
X13012979Y-18089474D02*
X13003456Y-18098997D01*
X13003456Y-18098997D02*
X12993932Y-18118045D01*
X13174884Y-18003759D02*
X13298694Y-18003759D01*
X13298694Y-18003759D02*
X13232027Y-18079950D01*
X13232027Y-18079950D02*
X13260598Y-18079950D01*
X13260598Y-18079950D02*
X13279646Y-18089474D01*
X13279646Y-18089474D02*
X13289170Y-18098997D01*
X13289170Y-18098997D02*
X13298694Y-18118045D01*
X13298694Y-18118045D02*
X13298694Y-18165664D01*
X13298694Y-18165664D02*
X13289170Y-18184712D01*
X13289170Y-18184712D02*
X13279646Y-18194236D01*
X13279646Y-18194236D02*
X13260598Y-18203759D01*
X13260598Y-18203759D02*
X13203456Y-18203759D01*
X13203456Y-18203759D02*
X13184408Y-18194236D01*
X13184408Y-18194236D02*
X13174884Y-18184712D01*
X13374884Y-18003759D02*
X13374884Y-18041855D01*
X13451075Y-18003759D02*
X13451075Y-18041855D01*
X13746313Y-18279950D02*
X13736789Y-18270426D01*
X13736789Y-18270426D02*
X13717741Y-18241855D01*
X13717741Y-18241855D02*
X13708218Y-18222807D01*
X13708218Y-18222807D02*
X13698694Y-18194236D01*
X13698694Y-18194236D02*
X13689170Y-18146616D01*
X13689170Y-18146616D02*
X13689170Y-18108521D01*
X13689170Y-18108521D02*
X13698694Y-18060902D01*
X13698694Y-18060902D02*
X13708218Y-18032331D01*
X13708218Y-18032331D02*
X13717741Y-18013283D01*
X13717741Y-18013283D02*
X13736789Y-17984712D01*
X13736789Y-17984712D02*
X13746313Y-17975188D01*
X13908218Y-18070426D02*
X13908218Y-18203759D01*
X13860598Y-17994236D02*
X13812979Y-18137093D01*
X13812979Y-18137093D02*
X13936789Y-18137093D01*
X14165360Y-18203759D02*
X14165360Y-18003759D01*
X14251075Y-18203759D02*
X14251075Y-18098997D01*
X14251075Y-18098997D02*
X14241551Y-18079950D01*
X14241551Y-18079950D02*
X14222503Y-18070426D01*
X14222503Y-18070426D02*
X14193932Y-18070426D01*
X14193932Y-18070426D02*
X14174884Y-18079950D01*
X14174884Y-18079950D02*
X14165360Y-18089474D01*
X14374884Y-18203759D02*
X14355837Y-18194236D01*
X14355837Y-18194236D02*
X14346313Y-18184712D01*
X14346313Y-18184712D02*
X14336789Y-18165664D01*
X14336789Y-18165664D02*
X14336789Y-18108521D01*
X14336789Y-18108521D02*
X14346313Y-18089474D01*
X14346313Y-18089474D02*
X14355837Y-18079950D01*
X14355837Y-18079950D02*
X14374884Y-18070426D01*
X14374884Y-18070426D02*
X14403456Y-18070426D01*
X14403456Y-18070426D02*
X14422503Y-18079950D01*
X14422503Y-18079950D02*
X14432027Y-18089474D01*
X14432027Y-18089474D02*
X14441551Y-18108521D01*
X14441551Y-18108521D02*
X14441551Y-18165664D01*
X14441551Y-18165664D02*
X14432027Y-18184712D01*
X14432027Y-18184712D02*
X14422503Y-18194236D01*
X14422503Y-18194236D02*
X14403456Y-18203759D01*
X14403456Y-18203759D02*
X14374884Y-18203759D01*
X14555837Y-18203759D02*
X14536789Y-18194236D01*
X14536789Y-18194236D02*
X14527265Y-18175188D01*
X14527265Y-18175188D02*
X14527265Y-18003759D01*
X14708218Y-18194236D02*
X14689170Y-18203759D01*
X14689170Y-18203759D02*
X14651075Y-18203759D01*
X14651075Y-18203759D02*
X14632027Y-18194236D01*
X14632027Y-18194236D02*
X14622503Y-18175188D01*
X14622503Y-18175188D02*
X14622503Y-18098997D01*
X14622503Y-18098997D02*
X14632027Y-18079950D01*
X14632027Y-18079950D02*
X14651075Y-18070426D01*
X14651075Y-18070426D02*
X14689170Y-18070426D01*
X14689170Y-18070426D02*
X14708218Y-18079950D01*
X14708218Y-18079950D02*
X14717741Y-18098997D01*
X14717741Y-18098997D02*
X14717741Y-18118045D01*
X14717741Y-18118045D02*
X14622503Y-18137093D01*
X14793932Y-18194236D02*
X14812980Y-18203759D01*
X14812980Y-18203759D02*
X14851075Y-18203759D01*
X14851075Y-18203759D02*
X14870122Y-18194236D01*
X14870122Y-18194236D02*
X14879646Y-18175188D01*
X14879646Y-18175188D02*
X14879646Y-18165664D01*
X14879646Y-18165664D02*
X14870122Y-18146616D01*
X14870122Y-18146616D02*
X14851075Y-18137093D01*
X14851075Y-18137093D02*
X14822503Y-18137093D01*
X14822503Y-18137093D02*
X14803456Y-18127569D01*
X14803456Y-18127569D02*
X14793932Y-18108521D01*
X14793932Y-18108521D02*
X14793932Y-18098997D01*
X14793932Y-18098997D02*
X14803456Y-18079950D01*
X14803456Y-18079950D02*
X14822503Y-18070426D01*
X14822503Y-18070426D02*
X14851075Y-18070426D01*
X14851075Y-18070426D02*
X14870122Y-18079950D01*
X14946313Y-18279950D02*
X14955837Y-18270426D01*
X14955837Y-18270426D02*
X14974884Y-18241855D01*
X14974884Y-18241855D02*
X14984408Y-18222807D01*
X14984408Y-18222807D02*
X14993932Y-18194236D01*
X14993932Y-18194236D02*
X15003456Y-18146616D01*
X15003456Y-18146616D02*
X15003456Y-18108521D01*
X15003456Y-18108521D02*
X14993932Y-18060902D01*
X14993932Y-18060902D02*
X14984408Y-18032331D01*
X14984408Y-18032331D02*
X14974884Y-18013283D01*
X14974884Y-18013283D02*
X14955837Y-17984712D01*
X14955837Y-17984712D02*
X14946313Y-17975188D01*
M02*
