G04 #@! TF.GenerationSoftware,KiCad,Pcbnew,7.0.7*
G04 #@! TF.CreationDate,2024-06-09T16:00:22+02:00*
G04 #@! TF.ProjectId,Audio Amplifier,41756469-6f20-4416-9d70-6c6966696572,rev?*
G04 #@! TF.SameCoordinates,Original*
G04 #@! TF.FileFunction,Copper,L1,Top*
G04 #@! TF.FilePolarity,Positive*
%FSLAX46Y46*%
G04 Gerber Fmt 4.6, Leading zero omitted, Abs format (unit mm)*
G04 Created by KiCad (PCBNEW 7.0.7) date 2024-06-09 16:00:22*
%MOMM*%
%LPD*%
G01*
G04 APERTURE LIST*
G04 #@! TA.AperFunction,ComponentPad*
%ADD10C,1.600000*%
G04 #@! TD*
G04 #@! TA.AperFunction,ComponentPad*
%ADD11O,1.600000X1.600000*%
G04 #@! TD*
G04 #@! TA.AperFunction,ComponentPad*
%ADD12C,2.850000*%
G04 #@! TD*
G04 #@! TA.AperFunction,ComponentPad*
%ADD13O,1.905000X2.000000*%
G04 #@! TD*
G04 #@! TA.AperFunction,ComponentPad*
%ADD14R,1.905000X2.000000*%
G04 #@! TD*
G04 #@! TA.AperFunction,ComponentPad*
%ADD15O,1.700000X1.700000*%
G04 #@! TD*
G04 #@! TA.AperFunction,ComponentPad*
%ADD16R,1.700000X1.700000*%
G04 #@! TD*
G04 #@! TA.AperFunction,ComponentPad*
%ADD17O,2.400000X2.400000*%
G04 #@! TD*
G04 #@! TA.AperFunction,ComponentPad*
%ADD18C,2.400000*%
G04 #@! TD*
G04 #@! TA.AperFunction,ComponentPad*
%ADD19R,1.600000X1.600000*%
G04 #@! TD*
G04 #@! TA.AperFunction,ComponentPad*
%ADD20O,1.050000X1.500000*%
G04 #@! TD*
G04 #@! TA.AperFunction,ComponentPad*
%ADD21R,1.050000X1.500000*%
G04 #@! TD*
G04 #@! TA.AperFunction,ComponentPad*
%ADD22R,2.400000X2.400000*%
G04 #@! TD*
G04 #@! TA.AperFunction,ComponentPad*
%ADD23C,1.650000*%
G04 #@! TD*
G04 #@! TA.AperFunction,ComponentPad*
%ADD24C,4.050000*%
G04 #@! TD*
G04 #@! TA.AperFunction,ComponentPad*
%ADD25C,2.100000*%
G04 #@! TD*
G04 #@! TA.AperFunction,ViaPad*
%ADD26C,0.800000*%
G04 #@! TD*
G04 #@! TA.AperFunction,Conductor*
%ADD27C,0.250000*%
G04 #@! TD*
G04 #@! TA.AperFunction,Conductor*
%ADD28C,1.000000*%
G04 #@! TD*
G04 APERTURE END LIST*
D10*
X152019000Y-97790000D03*
D11*
X152019000Y-107950000D03*
D10*
X113284000Y-97790000D03*
D11*
X113284000Y-107950000D03*
D12*
X134780000Y-140920000D03*
X144780000Y-140920000D03*
X139780000Y-145920000D03*
D13*
X120812500Y-81590255D03*
X123352500Y-81590255D03*
D14*
X125892500Y-81590255D03*
D11*
X125892500Y-129515255D03*
D10*
X115732500Y-129515255D03*
D15*
X157480000Y-55245000D03*
X154940000Y-55245000D03*
X152400000Y-55245000D03*
D16*
X149860000Y-55245000D03*
D12*
X144780000Y-65920000D03*
X134780000Y-65920000D03*
X139780000Y-60920000D03*
D11*
X148470000Y-111720000D03*
D10*
X148470000Y-121880000D03*
D11*
X166250000Y-102830000D03*
D10*
X156090000Y-102830000D03*
D11*
X130972500Y-111745255D03*
D10*
X130972500Y-121905255D03*
D13*
X125892500Y-91100255D03*
X123352500Y-91100255D03*
D14*
X120812500Y-91100255D03*
D17*
X165100000Y-76200000D03*
D18*
X177800000Y-76200000D03*
D16*
X151210000Y-151130000D03*
D15*
X153750000Y-151130000D03*
X156290000Y-151130000D03*
X158830000Y-151130000D03*
D11*
X130972500Y-125705255D03*
D10*
X130972500Y-135865255D03*
D17*
X125892500Y-76185255D03*
D18*
X138592500Y-76185255D03*
D10*
X124542500Y-106655255D03*
X119542500Y-106655255D03*
X170060000Y-135850000D03*
D11*
X170060000Y-125690000D03*
X164980000Y-129500000D03*
D10*
X154820000Y-129500000D03*
D11*
X157360000Y-111720000D03*
X159900000Y-111720000D03*
X162440000Y-111720000D03*
X164980000Y-111720000D03*
X164980000Y-119340000D03*
X162440000Y-119340000D03*
X159900000Y-119340000D03*
D19*
X157360000Y-119340000D03*
D11*
X109382500Y-125705255D03*
D10*
X109382500Y-135865255D03*
D19*
X120650000Y-141510000D03*
D10*
X120650000Y-143510000D03*
D11*
X170060000Y-111730000D03*
D10*
X170060000Y-121890000D03*
D11*
X117002500Y-99035255D03*
D10*
X127162500Y-99035255D03*
D11*
X156090000Y-99020000D03*
D10*
X166250000Y-99020000D03*
D11*
X118272500Y-111735255D03*
X120812500Y-111735255D03*
X123352500Y-111735255D03*
X125892500Y-111735255D03*
X125892500Y-119355255D03*
X123352500Y-119355255D03*
X120812500Y-119355255D03*
D19*
X118272500Y-119355255D03*
D10*
X166210000Y-124420000D03*
X161210000Y-124420000D03*
D20*
X137322500Y-96505255D03*
X136052500Y-96505255D03*
D21*
X134782500Y-96505255D03*
D18*
X162560000Y-62052755D03*
D22*
X162560000Y-69552755D03*
D10*
X127122500Y-124435255D03*
X122122500Y-124435255D03*
X153550000Y-118030000D03*
X153550000Y-113030000D03*
D18*
X123352500Y-62038010D03*
D22*
X123352500Y-69538010D03*
D23*
X175180000Y-106600000D03*
X172680000Y-104100000D03*
X177680000Y-104100000D03*
D10*
X119542500Y-124435255D03*
X114542500Y-124435255D03*
D11*
X147200000Y-107920000D03*
D10*
X147200000Y-97760000D03*
D17*
X147320000Y-76200000D03*
D18*
X160020000Y-76200000D03*
D10*
X114462500Y-118045255D03*
X114462500Y-113045255D03*
D24*
X136052500Y-86345255D03*
X110652500Y-86345255D03*
D10*
X158630000Y-124420000D03*
X153630000Y-124420000D03*
X160020000Y-142970000D03*
D19*
X160020000Y-140970000D03*
D20*
X176530000Y-96520000D03*
X175260000Y-96520000D03*
D21*
X173990000Y-96520000D03*
D23*
X136012500Y-106645255D03*
X133512500Y-104145255D03*
X138512500Y-104145255D03*
D11*
X127162500Y-102845255D03*
D10*
X117002500Y-102845255D03*
D13*
X165100000Y-91115000D03*
X162560000Y-91115000D03*
D14*
X160020000Y-91115000D03*
D16*
X104140000Y-148590000D03*
D15*
X104140000Y-151130000D03*
D17*
X108112500Y-76185255D03*
D18*
X120812500Y-76185255D03*
D13*
X160020000Y-81605000D03*
X162560000Y-81605000D03*
D14*
X165100000Y-81605000D03*
D11*
X125892500Y-134595255D03*
D10*
X115732500Y-134595255D03*
D11*
X164980000Y-134580000D03*
D10*
X154820000Y-134580000D03*
X110490000Y-142240000D03*
D19*
X106990000Y-142240000D03*
D11*
X108112500Y-107935255D03*
D10*
X108112500Y-97775255D03*
D24*
X175260000Y-86360000D03*
X149860000Y-86360000D03*
D10*
X163630000Y-106640000D03*
X158630000Y-106640000D03*
D11*
X148470000Y-125690000D03*
D10*
X148470000Y-135850000D03*
D25*
X176470000Y-146670000D03*
X172720000Y-146670000D03*
X168970000Y-146670000D03*
X176470000Y-141670000D03*
X172720000Y-141670000D03*
X168970000Y-141670000D03*
D11*
X109382500Y-111735255D03*
D10*
X109382500Y-121895255D03*
D26*
X136052500Y-99045255D03*
X133512500Y-101585255D03*
X133350000Y-95250000D03*
X108112500Y-92695255D03*
X168910000Y-92710000D03*
X166370000Y-127000000D03*
X168910000Y-87630000D03*
X172680000Y-101540000D03*
X175260000Y-99060000D03*
X166370000Y-93980000D03*
X147320000Y-92710000D03*
D27*
X125892500Y-129515255D02*
X125892500Y-128255255D01*
X124622500Y-126985255D02*
X123352500Y-126985255D01*
X123352500Y-126985255D02*
X122122500Y-125755255D01*
X122122500Y-123135255D02*
X123352500Y-121905255D01*
X122122500Y-125755255D02*
X122122500Y-124435255D01*
X123352500Y-121905255D02*
X123352500Y-119355255D01*
X122122500Y-124435255D02*
X122122500Y-123135255D01*
X125892500Y-128255255D02*
X124622500Y-126985255D01*
X125892500Y-134595255D02*
X125892500Y-133335255D01*
X125892500Y-133335255D02*
X124622500Y-132065255D01*
X114542500Y-125795255D02*
X115732500Y-126985255D01*
X115732500Y-130795255D02*
X115732500Y-129515255D01*
X114542500Y-124435255D02*
X114542500Y-125795255D01*
X117002500Y-132065255D02*
X115732500Y-130795255D01*
X124622500Y-132065255D02*
X117002500Y-132065255D01*
X115732500Y-126985255D02*
X115732500Y-129515255D01*
X120812500Y-119355255D02*
X118272500Y-119355255D01*
X120812500Y-119355255D02*
X122072500Y-118095255D01*
X119542500Y-123175255D02*
X118272500Y-121905255D01*
X118272500Y-121905255D02*
X118272500Y-119355255D01*
X130972500Y-125705255D02*
X130972500Y-121905255D01*
X129702500Y-121905255D02*
X130972500Y-121905255D01*
X122072500Y-118095255D02*
X127162500Y-118095255D01*
X127162500Y-118095255D02*
X128432500Y-119365255D01*
X128432500Y-119365255D02*
X128432500Y-120635255D01*
X128432500Y-120635255D02*
X129702500Y-121905255D01*
X119542500Y-124435255D02*
X119542500Y-123175255D01*
D28*
X109382500Y-111735255D02*
X109382500Y-110475255D01*
X104140000Y-111887755D02*
X104140000Y-142240000D01*
X109382500Y-110475255D02*
X108112500Y-109205255D01*
X123352500Y-93965255D02*
X123352500Y-91100255D01*
X122082500Y-95235255D02*
X123352500Y-93965255D01*
X115772500Y-111735255D02*
X114462500Y-113045255D01*
X123352500Y-95235255D02*
X125892500Y-95235255D01*
X166250000Y-96400000D02*
X166250000Y-99020000D01*
X148470000Y-111720000D02*
X152240000Y-111720000D01*
X162560000Y-93980000D02*
X162560000Y-91115000D01*
X113152500Y-111735255D02*
X114462500Y-113045255D01*
X143510000Y-96520000D02*
X143510000Y-106680000D01*
X122067755Y-95250000D02*
X122082500Y-95235255D01*
X118272500Y-111735255D02*
X115772500Y-111735255D01*
X104140000Y-142240000D02*
X106990000Y-142240000D01*
X104140000Y-142240000D02*
X104140000Y-148590000D01*
X104140000Y-111887755D02*
X104140000Y-96520000D01*
X148470000Y-111720000D02*
X148470000Y-110460000D01*
X128284745Y-95235255D02*
X130810000Y-92710000D01*
X142240000Y-95250000D02*
X161290000Y-95250000D01*
X105410000Y-95250000D02*
X122067755Y-95250000D01*
X165100000Y-95250000D02*
X166250000Y-96400000D01*
X148470000Y-110460000D02*
X147200000Y-109190000D01*
X161290000Y-95250000D02*
X165100000Y-95250000D01*
X109382500Y-111735255D02*
X104292500Y-111735255D01*
X154860000Y-111720000D02*
X153550000Y-113030000D01*
X125892500Y-95235255D02*
X128284745Y-95235255D01*
X144750000Y-107920000D02*
X147200000Y-107920000D01*
X108112500Y-109205255D02*
X108112500Y-107935255D01*
X143510000Y-106680000D02*
X144750000Y-107920000D01*
X147200000Y-109190000D02*
X147200000Y-107920000D01*
X122082500Y-95235255D02*
X123352500Y-95235255D01*
X104140000Y-96520000D02*
X105410000Y-95250000D01*
X142240000Y-95250000D02*
X143510000Y-96520000D01*
X140970000Y-95250000D02*
X142240000Y-95250000D01*
X125892500Y-95235255D02*
X127162500Y-96505255D01*
X161290000Y-95250000D02*
X162560000Y-93980000D01*
X157360000Y-111720000D02*
X154860000Y-111720000D01*
X127162500Y-96505255D02*
X127162500Y-99035255D01*
X109382500Y-111735255D02*
X113152500Y-111735255D01*
X130810000Y-92710000D02*
X138430000Y-92710000D01*
X104292500Y-111735255D02*
X104140000Y-111887755D01*
X138430000Y-92710000D02*
X140970000Y-95250000D01*
X152240000Y-111720000D02*
X153550000Y-113030000D01*
D27*
X119380000Y-137160000D02*
X117002500Y-137160000D01*
X109382500Y-125705255D02*
X110642500Y-125705255D01*
X111922500Y-126985255D02*
X111922500Y-133335255D01*
X113202500Y-134595255D02*
X115732500Y-134595255D01*
X110642500Y-125705255D02*
X111922500Y-126985255D01*
X117002500Y-137160000D02*
X115732500Y-135890000D01*
X115732500Y-134595255D02*
X115732500Y-135890000D01*
X111922500Y-133335255D02*
X113192500Y-134605255D01*
X109382500Y-125705255D02*
X109382500Y-121895255D01*
X120650000Y-138430000D02*
X119380000Y-137160000D01*
X120650000Y-141510000D02*
X120650000Y-138430000D01*
X113192500Y-134605255D02*
X113202500Y-134595255D01*
X124622500Y-109205255D02*
X125892500Y-110475255D01*
X118262500Y-106655255D02*
X117002500Y-105395255D01*
X125892500Y-110475255D02*
X125892500Y-111735255D01*
X119542500Y-106655255D02*
X119542500Y-107935255D01*
X117002500Y-102845255D02*
X117002500Y-99035255D01*
X119542500Y-107935255D02*
X120812500Y-109205255D01*
X119542500Y-106655255D02*
X118262500Y-106655255D01*
X120812500Y-109205255D02*
X124622500Y-109205255D01*
X117002500Y-105395255D02*
X117002500Y-102845255D01*
X136052500Y-113015255D02*
X134782500Y-114285255D01*
X136012500Y-111705255D02*
X136052500Y-111745255D01*
X136012500Y-106645255D02*
X136012500Y-111705255D01*
X134782500Y-114285255D02*
X122082500Y-114285255D01*
X122082500Y-114285255D02*
X120812500Y-113015255D01*
X136052500Y-111745255D02*
X136052500Y-113015255D01*
X136012500Y-106645255D02*
X136012500Y-102815255D01*
X134782500Y-96505255D02*
X134782500Y-101585255D01*
X120812500Y-111735255D02*
X120812500Y-110475255D01*
X120812500Y-113015255D02*
X120812500Y-111735255D01*
X136012500Y-102815255D02*
X134782500Y-101585255D01*
X118262500Y-107925255D02*
X113192500Y-107925255D01*
X120812500Y-110475255D02*
X118262500Y-107925255D01*
X133512500Y-101585255D02*
X133512500Y-104145255D01*
X136052500Y-96505255D02*
X136052500Y-99045255D01*
X137322500Y-99045255D02*
X137322500Y-96505255D01*
X136262755Y-95250000D02*
X136277500Y-95235255D01*
X138512500Y-100235255D02*
X137322500Y-99045255D01*
X137322500Y-96280255D02*
X137322500Y-96505255D01*
X109707500Y-91100255D02*
X108112500Y-92695255D01*
X133350000Y-95250000D02*
X136262755Y-95250000D01*
X136277500Y-95235255D02*
X137322500Y-96280255D01*
X120812500Y-91100255D02*
X109707500Y-91100255D01*
X138512500Y-104145255D02*
X138512500Y-100235255D01*
D28*
X108112500Y-76185255D02*
X110652500Y-76185255D01*
X110652500Y-76185255D02*
X116057500Y-81590255D01*
X116057500Y-81590255D02*
X120812500Y-81590255D01*
X125892500Y-91100255D02*
X125892500Y-88885255D01*
X125892500Y-88885255D02*
X138592500Y-76185255D01*
D27*
X129702500Y-111745255D02*
X128432500Y-113015255D01*
X124632500Y-113015255D02*
X123352500Y-111735255D01*
X128432500Y-113015255D02*
X124632500Y-113015255D01*
X130972500Y-111745255D02*
X129702500Y-111745255D01*
D28*
X123352500Y-76185255D02*
X120812500Y-76185255D01*
X125892500Y-76185255D02*
X123352500Y-76185255D01*
X123352500Y-69538010D02*
X123352500Y-76185255D01*
X137200000Y-63500000D02*
X134780000Y-65920000D01*
X147320000Y-63500000D02*
X137200000Y-63500000D01*
X137200000Y-63500000D02*
X124814490Y-63500000D01*
X149870000Y-60950000D02*
X147320000Y-63500000D01*
X149870000Y-55880000D02*
X149870000Y-60950000D01*
X124814490Y-63500000D02*
X123352500Y-62038010D01*
D27*
X142240000Y-140970000D02*
X139700000Y-143510000D01*
X151210000Y-142320000D02*
X149860000Y-140970000D01*
X149860000Y-140970000D02*
X144780000Y-140970000D01*
X139700000Y-143510000D02*
X120650000Y-143510000D01*
X151210000Y-151130000D02*
X151210000Y-142320000D01*
X144780000Y-140970000D02*
X142240000Y-140970000D01*
X148470000Y-125690000D02*
X149730000Y-125690000D01*
X160020000Y-140970000D02*
X160020000Y-138430000D01*
X154820000Y-135770000D02*
X154820000Y-134580000D01*
X158750000Y-137160000D02*
X156210000Y-137160000D01*
X148470000Y-125690000D02*
X148470000Y-121880000D01*
X156210000Y-137160000D02*
X154820000Y-135770000D01*
X152290000Y-134580000D02*
X154820000Y-134580000D01*
X149730000Y-125690000D02*
X151010000Y-126970000D01*
X151010000Y-126970000D02*
X151010000Y-133320000D01*
X151010000Y-133320000D02*
X152280000Y-134590000D01*
X160020000Y-138430000D02*
X158750000Y-137160000D01*
X152280000Y-134590000D02*
X152290000Y-134580000D01*
X137320000Y-138430000D02*
X134780000Y-140970000D01*
X154940000Y-138430000D02*
X137320000Y-138430000D01*
X159480000Y-142970000D02*
X160020000Y-142970000D01*
X156290000Y-139780000D02*
X154940000Y-138430000D01*
X156290000Y-151130000D02*
X156290000Y-139780000D01*
X156290000Y-139780000D02*
X159480000Y-142970000D01*
X161210000Y-123120000D02*
X162440000Y-121890000D01*
X164980000Y-129500000D02*
X164980000Y-128240000D01*
X161210000Y-124420000D02*
X161210000Y-123120000D01*
X161210000Y-125740000D02*
X161210000Y-124420000D01*
X162440000Y-126970000D02*
X161210000Y-125740000D01*
X163710000Y-126970000D02*
X162440000Y-126970000D01*
X162440000Y-121890000D02*
X162440000Y-119340000D01*
X164980000Y-128240000D02*
X163710000Y-126970000D01*
X167520000Y-120620000D02*
X168790000Y-121890000D01*
X158630000Y-124420000D02*
X158630000Y-123160000D01*
X167520000Y-119350000D02*
X167520000Y-120620000D01*
X159900000Y-119340000D02*
X161160000Y-118080000D01*
X158630000Y-123160000D02*
X157360000Y-121890000D01*
X157360000Y-121890000D02*
X157360000Y-119340000D01*
X166250000Y-118080000D02*
X167520000Y-119350000D01*
X159900000Y-119340000D02*
X157360000Y-119340000D01*
X170060000Y-125690000D02*
X170060000Y-121890000D01*
X161160000Y-118080000D02*
X166250000Y-118080000D01*
X168790000Y-121890000D02*
X170060000Y-121890000D01*
X158630000Y-107920000D02*
X159900000Y-109190000D01*
X158630000Y-106640000D02*
X158630000Y-107920000D01*
X157350000Y-106640000D02*
X156090000Y-105380000D01*
X158630000Y-106640000D02*
X157350000Y-106640000D01*
X156090000Y-105380000D02*
X156090000Y-102830000D01*
X159900000Y-109190000D02*
X163710000Y-109190000D01*
X156090000Y-102830000D02*
X156090000Y-99020000D01*
X164980000Y-110460000D02*
X164980000Y-111720000D01*
X163710000Y-109190000D02*
X164980000Y-110460000D01*
X166370000Y-144070000D02*
X166370000Y-128270000D01*
X168910000Y-88900000D02*
X168910000Y-87630000D01*
X168970000Y-146670000D02*
X166370000Y-144070000D01*
D28*
X162560000Y-69552755D02*
X162560000Y-76200000D01*
X165100000Y-76200000D02*
X162560000Y-76200000D01*
X162560000Y-76200000D02*
X160020000Y-76200000D01*
D27*
X168910000Y-92710000D02*
X168910000Y-88900000D01*
X166370000Y-128270000D02*
X166370000Y-127000000D01*
D28*
X154950000Y-60950000D02*
X154950000Y-55880000D01*
X154940000Y-60960000D02*
X154950000Y-60950000D01*
X162560000Y-62052755D02*
X156032755Y-62052755D01*
X144780000Y-65920000D02*
X149980000Y-65920000D01*
X156032755Y-62052755D02*
X154940000Y-60960000D01*
X149980000Y-65920000D02*
X154940000Y-60960000D01*
D27*
X175180000Y-106600000D02*
X175180000Y-102770000D01*
X175180000Y-106600000D02*
X175180000Y-112950000D01*
X175180000Y-102770000D02*
X173950000Y-101540000D01*
X153570000Y-107920000D02*
X153560000Y-107910000D01*
X157360000Y-107920000D02*
X153570000Y-107920000D01*
X153560000Y-107910000D02*
X152280000Y-107910000D01*
X159900000Y-112910000D02*
X159900000Y-111720000D01*
X175180000Y-112950000D02*
X175260000Y-113030000D01*
X161290000Y-114300000D02*
X159900000Y-112910000D01*
X173950000Y-96460000D02*
X173950000Y-101540000D01*
X159900000Y-110460000D02*
X157360000Y-107920000D01*
X175260000Y-113030000D02*
X173990000Y-114300000D01*
X159900000Y-111720000D02*
X159900000Y-110460000D01*
X173990000Y-114300000D02*
X161290000Y-114300000D01*
X173990000Y-96520000D02*
X173990000Y-101600000D01*
X175220000Y-96460000D02*
X175220000Y-99000000D01*
X175260000Y-96520000D02*
X175260000Y-99060000D01*
X172680000Y-101540000D02*
X172680000Y-104100000D01*
X176490000Y-99000000D02*
X176490000Y-96460000D01*
X176530000Y-96520000D02*
X176530000Y-96295000D01*
X177680000Y-100190000D02*
X176490000Y-99000000D01*
X176530000Y-99060000D02*
X176530000Y-96520000D01*
X175485000Y-95250000D02*
X167640000Y-95250000D01*
X177720000Y-100250000D02*
X176530000Y-99060000D01*
X167640000Y-95250000D02*
X166370000Y-93980000D01*
X160020000Y-91115000D02*
X148915000Y-91115000D01*
X148915000Y-91115000D02*
X147320000Y-92710000D01*
X176530000Y-96295000D02*
X175485000Y-95250000D01*
X177680000Y-104100000D02*
X177680000Y-100190000D01*
X176490000Y-96235000D02*
X176490000Y-96460000D01*
D28*
X165100000Y-91115000D02*
X165100000Y-88900000D01*
X165100000Y-88900000D02*
X177800000Y-76200000D01*
X147320000Y-76200000D02*
X149860000Y-76200000D01*
X155265000Y-81605000D02*
X160020000Y-81605000D01*
X149860000Y-76200000D02*
X155265000Y-81605000D01*
D27*
X168790000Y-111730000D02*
X167520000Y-113000000D01*
X170060000Y-111730000D02*
X168790000Y-111730000D01*
X167520000Y-113000000D02*
X163720000Y-113000000D01*
X163720000Y-113000000D02*
X162440000Y-111720000D01*
X154820000Y-130780000D02*
X154820000Y-129500000D01*
X153630000Y-125780000D02*
X154820000Y-126970000D01*
X153630000Y-124420000D02*
X153630000Y-125780000D01*
X156090000Y-132050000D02*
X154820000Y-130780000D01*
X163710000Y-132050000D02*
X156090000Y-132050000D01*
X164980000Y-134580000D02*
X164980000Y-133320000D01*
X154820000Y-126970000D02*
X154820000Y-129500000D01*
X164980000Y-133320000D02*
X163710000Y-132050000D01*
M02*
