G04 #@! TF.GenerationSoftware,KiCad,Pcbnew,7.0.7*
G04 #@! TF.CreationDate,2024-06-09T16:00:22+02:00*
G04 #@! TF.ProjectId,Audio Amplifier,41756469-6f20-4416-9d70-6c6966696572,rev?*
G04 #@! TF.SameCoordinates,Original*
G04 #@! TF.FileFunction,Legend,Top*
G04 #@! TF.FilePolarity,Positive*
%FSLAX46Y46*%
G04 Gerber Fmt 4.6, Leading zero omitted, Abs format (unit mm)*
G04 Created by KiCad (PCBNEW 7.0.7) date 2024-06-09 16:00:22*
%MOMM*%
%LPD*%
G01*
G04 APERTURE LIST*
%ADD10C,0.500000*%
%ADD11C,0.150000*%
%ADD12C,0.250000*%
%ADD13C,0.400000*%
%ADD14C,0.254000*%
%ADD15C,0.120000*%
%ADD16C,0.200000*%
%ADD17C,0.100000*%
%ADD18C,1.600000*%
%ADD19O,1.600000X1.600000*%
%ADD20C,1.200000*%
%ADD21C,2.850000*%
%ADD22O,1.905000X2.000000*%
%ADD23R,1.905000X2.000000*%
%ADD24O,1.700000X1.700000*%
%ADD25R,1.700000X1.700000*%
%ADD26O,2.400000X2.400000*%
%ADD27C,2.400000*%
%ADD28R,1.600000X1.600000*%
%ADD29O,1.050000X1.500000*%
%ADD30R,1.050000X1.500000*%
%ADD31R,2.400000X2.400000*%
%ADD32C,1.650000*%
%ADD33C,4.050000*%
%ADD34C,2.100000*%
G04 APERTURE END LIST*
D10*
X127222500Y-115545255D02*
X121722500Y-115545255D01*
X119722500Y-115545255D02*
X116942500Y-115545255D01*
X142875000Y-109855000D02*
X137375000Y-109855000D01*
X135375000Y-109855000D02*
X129875000Y-109855000D01*
X142875000Y-109855000D02*
X148375000Y-109855000D01*
X150375000Y-109855000D02*
X154622500Y-109855000D01*
X168275000Y-109855000D02*
X173775000Y-109855000D01*
X175775000Y-109855000D02*
X181275000Y-109855000D01*
X183275000Y-109855000D02*
X183896000Y-109855000D01*
X156030000Y-115530000D02*
X161530000Y-115530000D01*
X163530000Y-115530000D02*
X166310000Y-115530000D01*
X168275000Y-109855000D02*
X166475420Y-115052260D01*
X114935000Y-109855000D02*
X109435000Y-109855000D01*
X107435000Y-109855000D02*
X101935000Y-109855000D01*
X114935000Y-109855000D02*
X116764842Y-115041683D01*
X154622500Y-109855000D02*
X155946484Y-115193264D01*
X142875000Y-53340000D02*
X142875000Y-153670000D01*
X129381250Y-109855000D02*
X127430354Y-114997373D01*
D11*
X158086588Y-148015438D02*
X157991350Y-147967819D01*
X157991350Y-147967819D02*
X157848493Y-147967819D01*
X157848493Y-147967819D02*
X157705636Y-148015438D01*
X157705636Y-148015438D02*
X157610398Y-148110676D01*
X157610398Y-148110676D02*
X157562779Y-148205914D01*
X157562779Y-148205914D02*
X157515160Y-148396390D01*
X157515160Y-148396390D02*
X157515160Y-148539247D01*
X157515160Y-148539247D02*
X157562779Y-148729723D01*
X157562779Y-148729723D02*
X157610398Y-148824961D01*
X157610398Y-148824961D02*
X157705636Y-148920200D01*
X157705636Y-148920200D02*
X157848493Y-148967819D01*
X157848493Y-148967819D02*
X157943731Y-148967819D01*
X157943731Y-148967819D02*
X158086588Y-148920200D01*
X158086588Y-148920200D02*
X158134207Y-148872580D01*
X158134207Y-148872580D02*
X158134207Y-148539247D01*
X158134207Y-148539247D02*
X157943731Y-148539247D01*
X158562779Y-148967819D02*
X158562779Y-147967819D01*
X158562779Y-147967819D02*
X159134207Y-148967819D01*
X159134207Y-148967819D02*
X159134207Y-147967819D01*
X159610398Y-148967819D02*
X159610398Y-147967819D01*
X159610398Y-147967819D02*
X159848493Y-147967819D01*
X159848493Y-147967819D02*
X159991350Y-148015438D01*
X159991350Y-148015438D02*
X160086588Y-148110676D01*
X160086588Y-148110676D02*
X160134207Y-148205914D01*
X160134207Y-148205914D02*
X160181826Y-148396390D01*
X160181826Y-148396390D02*
X160181826Y-148539247D01*
X160181826Y-148539247D02*
X160134207Y-148729723D01*
X160134207Y-148729723D02*
X160086588Y-148824961D01*
X160086588Y-148824961D02*
X159991350Y-148920200D01*
X159991350Y-148920200D02*
X159848493Y-148967819D01*
X159848493Y-148967819D02*
X159610398Y-148967819D01*
X156610207Y-148967819D02*
X156276874Y-148491628D01*
X156038779Y-148967819D02*
X156038779Y-147967819D01*
X156038779Y-147967819D02*
X156419731Y-147967819D01*
X156419731Y-147967819D02*
X156514969Y-148015438D01*
X156514969Y-148015438D02*
X156562588Y-148063057D01*
X156562588Y-148063057D02*
X156610207Y-148158295D01*
X156610207Y-148158295D02*
X156610207Y-148301152D01*
X156610207Y-148301152D02*
X156562588Y-148396390D01*
X156562588Y-148396390D02*
X156514969Y-148444009D01*
X156514969Y-148444009D02*
X156419731Y-148491628D01*
X156419731Y-148491628D02*
X156038779Y-148491628D01*
D12*
X102354571Y-128820288D02*
X102295047Y-128760764D01*
X102295047Y-128760764D02*
X102235523Y-128641717D01*
X102235523Y-128641717D02*
X102235523Y-128344098D01*
X102235523Y-128344098D02*
X102295047Y-128225050D01*
X102295047Y-128225050D02*
X102354571Y-128165526D01*
X102354571Y-128165526D02*
X102473619Y-128106003D01*
X102473619Y-128106003D02*
X102592666Y-128106003D01*
X102592666Y-128106003D02*
X102771238Y-128165526D01*
X102771238Y-128165526D02*
X103485523Y-128879812D01*
X103485523Y-128879812D02*
X103485523Y-128106003D01*
X102652190Y-127570288D02*
X103485523Y-127570288D01*
X102771238Y-127570288D02*
X102711714Y-127510765D01*
X102711714Y-127510765D02*
X102652190Y-127391717D01*
X102652190Y-127391717D02*
X102652190Y-127213146D01*
X102652190Y-127213146D02*
X102711714Y-127094098D01*
X102711714Y-127094098D02*
X102830761Y-127034574D01*
X102830761Y-127034574D02*
X103485523Y-127034574D01*
X103485523Y-125903622D02*
X102235523Y-125903622D01*
X103426000Y-125903622D02*
X103485523Y-126022670D01*
X103485523Y-126022670D02*
X103485523Y-126260765D01*
X103485523Y-126260765D02*
X103426000Y-126379813D01*
X103426000Y-126379813D02*
X103366476Y-126439336D01*
X103366476Y-126439336D02*
X103247428Y-126498860D01*
X103247428Y-126498860D02*
X102890285Y-126498860D01*
X102890285Y-126498860D02*
X102771238Y-126439336D01*
X102771238Y-126439336D02*
X102711714Y-126379813D01*
X102711714Y-126379813D02*
X102652190Y-126260765D01*
X102652190Y-126260765D02*
X102652190Y-126022670D01*
X102652190Y-126022670D02*
X102711714Y-125903622D01*
X102235523Y-124117908D02*
X102235523Y-123879813D01*
X102235523Y-123879813D02*
X102295047Y-123760765D01*
X102295047Y-123760765D02*
X102414095Y-123641718D01*
X102414095Y-123641718D02*
X102652190Y-123582194D01*
X102652190Y-123582194D02*
X103068857Y-123582194D01*
X103068857Y-123582194D02*
X103306952Y-123641718D01*
X103306952Y-123641718D02*
X103426000Y-123760765D01*
X103426000Y-123760765D02*
X103485523Y-123879813D01*
X103485523Y-123879813D02*
X103485523Y-124117908D01*
X103485523Y-124117908D02*
X103426000Y-124236956D01*
X103426000Y-124236956D02*
X103306952Y-124356003D01*
X103306952Y-124356003D02*
X103068857Y-124415527D01*
X103068857Y-124415527D02*
X102652190Y-124415527D01*
X102652190Y-124415527D02*
X102414095Y-124356003D01*
X102414095Y-124356003D02*
X102295047Y-124236956D01*
X102295047Y-124236956D02*
X102235523Y-124117908D01*
X103485523Y-123046479D02*
X102652190Y-123046479D01*
X102890285Y-123046479D02*
X102771238Y-122986956D01*
X102771238Y-122986956D02*
X102711714Y-122927432D01*
X102711714Y-122927432D02*
X102652190Y-122808384D01*
X102652190Y-122808384D02*
X102652190Y-122689337D01*
X103485523Y-121736955D02*
X102235523Y-121736955D01*
X103426000Y-121736955D02*
X103485523Y-121856003D01*
X103485523Y-121856003D02*
X103485523Y-122094098D01*
X103485523Y-122094098D02*
X103426000Y-122213146D01*
X103426000Y-122213146D02*
X103366476Y-122272669D01*
X103366476Y-122272669D02*
X103247428Y-122332193D01*
X103247428Y-122332193D02*
X102890285Y-122332193D01*
X102890285Y-122332193D02*
X102771238Y-122272669D01*
X102771238Y-122272669D02*
X102711714Y-122213146D01*
X102711714Y-122213146D02*
X102652190Y-122094098D01*
X102652190Y-122094098D02*
X102652190Y-121856003D01*
X102652190Y-121856003D02*
X102711714Y-121736955D01*
X103426000Y-120665527D02*
X103485523Y-120784575D01*
X103485523Y-120784575D02*
X103485523Y-121022670D01*
X103485523Y-121022670D02*
X103426000Y-121141717D01*
X103426000Y-121141717D02*
X103306952Y-121201241D01*
X103306952Y-121201241D02*
X102830761Y-121201241D01*
X102830761Y-121201241D02*
X102711714Y-121141717D01*
X102711714Y-121141717D02*
X102652190Y-121022670D01*
X102652190Y-121022670D02*
X102652190Y-120784575D01*
X102652190Y-120784575D02*
X102711714Y-120665527D01*
X102711714Y-120665527D02*
X102830761Y-120606003D01*
X102830761Y-120606003D02*
X102949809Y-120606003D01*
X102949809Y-120606003D02*
X103068857Y-121201241D01*
X103485523Y-120070288D02*
X102652190Y-120070288D01*
X102890285Y-120070288D02*
X102771238Y-120010765D01*
X102771238Y-120010765D02*
X102711714Y-119951241D01*
X102711714Y-119951241D02*
X102652190Y-119832193D01*
X102652190Y-119832193D02*
X102652190Y-119713146D01*
X105438500Y-131677431D02*
X105498023Y-131498860D01*
X105498023Y-131498860D02*
X105498023Y-131201241D01*
X105498023Y-131201241D02*
X105438500Y-131082193D01*
X105438500Y-131082193D02*
X105378976Y-131022669D01*
X105378976Y-131022669D02*
X105259928Y-130963146D01*
X105259928Y-130963146D02*
X105140880Y-130963146D01*
X105140880Y-130963146D02*
X105021833Y-131022669D01*
X105021833Y-131022669D02*
X104962309Y-131082193D01*
X104962309Y-131082193D02*
X104902785Y-131201241D01*
X104902785Y-131201241D02*
X104843261Y-131439336D01*
X104843261Y-131439336D02*
X104783738Y-131558384D01*
X104783738Y-131558384D02*
X104724214Y-131617907D01*
X104724214Y-131617907D02*
X104605166Y-131677431D01*
X104605166Y-131677431D02*
X104486119Y-131677431D01*
X104486119Y-131677431D02*
X104367071Y-131617907D01*
X104367071Y-131617907D02*
X104307547Y-131558384D01*
X104307547Y-131558384D02*
X104248023Y-131439336D01*
X104248023Y-131439336D02*
X104248023Y-131141717D01*
X104248023Y-131141717D02*
X104307547Y-130963146D01*
X105498023Y-129891717D02*
X104843261Y-129891717D01*
X104843261Y-129891717D02*
X104724214Y-129951241D01*
X104724214Y-129951241D02*
X104664690Y-130070289D01*
X104664690Y-130070289D02*
X104664690Y-130308384D01*
X104664690Y-130308384D02*
X104724214Y-130427431D01*
X105438500Y-129891717D02*
X105498023Y-130010765D01*
X105498023Y-130010765D02*
X105498023Y-130308384D01*
X105498023Y-130308384D02*
X105438500Y-130427431D01*
X105438500Y-130427431D02*
X105319452Y-130486955D01*
X105319452Y-130486955D02*
X105200404Y-130486955D01*
X105200404Y-130486955D02*
X105081357Y-130427431D01*
X105081357Y-130427431D02*
X105021833Y-130308384D01*
X105021833Y-130308384D02*
X105021833Y-130010765D01*
X105021833Y-130010765D02*
X104962309Y-129891717D01*
X105498023Y-129117908D02*
X105438500Y-129236956D01*
X105438500Y-129236956D02*
X105319452Y-129296479D01*
X105319452Y-129296479D02*
X104248023Y-129296479D01*
X105498023Y-128463146D02*
X105438500Y-128582194D01*
X105438500Y-128582194D02*
X105319452Y-128641717D01*
X105319452Y-128641717D02*
X104248023Y-128641717D01*
X105438500Y-127510765D02*
X105498023Y-127629813D01*
X105498023Y-127629813D02*
X105498023Y-127867908D01*
X105498023Y-127867908D02*
X105438500Y-127986955D01*
X105438500Y-127986955D02*
X105319452Y-128046479D01*
X105319452Y-128046479D02*
X104843261Y-128046479D01*
X104843261Y-128046479D02*
X104724214Y-127986955D01*
X104724214Y-127986955D02*
X104664690Y-127867908D01*
X104664690Y-127867908D02*
X104664690Y-127629813D01*
X104664690Y-127629813D02*
X104724214Y-127510765D01*
X104724214Y-127510765D02*
X104843261Y-127451241D01*
X104843261Y-127451241D02*
X104962309Y-127451241D01*
X104962309Y-127451241D02*
X105081357Y-128046479D01*
X104664690Y-126915526D02*
X105498023Y-126915526D01*
X104783738Y-126915526D02*
X104724214Y-126856003D01*
X104724214Y-126856003D02*
X104664690Y-126736955D01*
X104664690Y-126736955D02*
X104664690Y-126558384D01*
X104664690Y-126558384D02*
X104724214Y-126439336D01*
X104724214Y-126439336D02*
X104843261Y-126379812D01*
X104843261Y-126379812D02*
X105498023Y-126379812D01*
X105021833Y-125784574D02*
X105021833Y-124832194D01*
X105498023Y-124236955D02*
X104248023Y-124236955D01*
X105498023Y-123522670D02*
X104783738Y-124058384D01*
X104248023Y-123522670D02*
X104962309Y-124236955D01*
X105438500Y-122510765D02*
X105498023Y-122629813D01*
X105498023Y-122629813D02*
X105498023Y-122867908D01*
X105498023Y-122867908D02*
X105438500Y-122986955D01*
X105438500Y-122986955D02*
X105319452Y-123046479D01*
X105319452Y-123046479D02*
X104843261Y-123046479D01*
X104843261Y-123046479D02*
X104724214Y-122986955D01*
X104724214Y-122986955D02*
X104664690Y-122867908D01*
X104664690Y-122867908D02*
X104664690Y-122629813D01*
X104664690Y-122629813D02*
X104724214Y-122510765D01*
X104724214Y-122510765D02*
X104843261Y-122451241D01*
X104843261Y-122451241D02*
X104962309Y-122451241D01*
X104962309Y-122451241D02*
X105081357Y-123046479D01*
X104664690Y-122034574D02*
X105498023Y-121736955D01*
X104664690Y-121439336D02*
X105498023Y-121736955D01*
X105498023Y-121736955D02*
X105795642Y-121856003D01*
X105795642Y-121856003D02*
X105855166Y-121915526D01*
X105855166Y-121915526D02*
X105914690Y-122034574D01*
X104843261Y-119594098D02*
X104843261Y-120010764D01*
X105498023Y-120010764D02*
X104248023Y-120010764D01*
X104248023Y-120010764D02*
X104248023Y-119415526D01*
X105498023Y-118939335D02*
X104664690Y-118939335D01*
X104248023Y-118939335D02*
X104307547Y-118998859D01*
X104307547Y-118998859D02*
X104367071Y-118939335D01*
X104367071Y-118939335D02*
X104307547Y-118879812D01*
X104307547Y-118879812D02*
X104248023Y-118939335D01*
X104248023Y-118939335D02*
X104367071Y-118939335D01*
X105498023Y-118165526D02*
X105438500Y-118284574D01*
X105438500Y-118284574D02*
X105319452Y-118344097D01*
X105319452Y-118344097D02*
X104248023Y-118344097D01*
X104664690Y-117867907D02*
X104664690Y-117391716D01*
X104248023Y-117689335D02*
X105319452Y-117689335D01*
X105319452Y-117689335D02*
X105438500Y-117629812D01*
X105438500Y-117629812D02*
X105498023Y-117510764D01*
X105498023Y-117510764D02*
X105498023Y-117391716D01*
X105438500Y-116498859D02*
X105498023Y-116617907D01*
X105498023Y-116617907D02*
X105498023Y-116856002D01*
X105498023Y-116856002D02*
X105438500Y-116975049D01*
X105438500Y-116975049D02*
X105319452Y-117034573D01*
X105319452Y-117034573D02*
X104843261Y-117034573D01*
X104843261Y-117034573D02*
X104724214Y-116975049D01*
X104724214Y-116975049D02*
X104664690Y-116856002D01*
X104664690Y-116856002D02*
X104664690Y-116617907D01*
X104664690Y-116617907D02*
X104724214Y-116498859D01*
X104724214Y-116498859D02*
X104843261Y-116439335D01*
X104843261Y-116439335D02*
X104962309Y-116439335D01*
X104962309Y-116439335D02*
X105081357Y-117034573D01*
X105498023Y-115903620D02*
X104664690Y-115903620D01*
X104902785Y-115903620D02*
X104783738Y-115844097D01*
X104783738Y-115844097D02*
X104724214Y-115784573D01*
X104724214Y-115784573D02*
X104664690Y-115665525D01*
X104664690Y-115665525D02*
X104664690Y-115546478D01*
D11*
X151736588Y-57337438D02*
X151641350Y-57289819D01*
X151641350Y-57289819D02*
X151498493Y-57289819D01*
X151498493Y-57289819D02*
X151355636Y-57337438D01*
X151355636Y-57337438D02*
X151260398Y-57432676D01*
X151260398Y-57432676D02*
X151212779Y-57527914D01*
X151212779Y-57527914D02*
X151165160Y-57718390D01*
X151165160Y-57718390D02*
X151165160Y-57861247D01*
X151165160Y-57861247D02*
X151212779Y-58051723D01*
X151212779Y-58051723D02*
X151260398Y-58146961D01*
X151260398Y-58146961D02*
X151355636Y-58242200D01*
X151355636Y-58242200D02*
X151498493Y-58289819D01*
X151498493Y-58289819D02*
X151593731Y-58289819D01*
X151593731Y-58289819D02*
X151736588Y-58242200D01*
X151736588Y-58242200D02*
X151784207Y-58194580D01*
X151784207Y-58194580D02*
X151784207Y-57861247D01*
X151784207Y-57861247D02*
X151593731Y-57861247D01*
X152212779Y-58289819D02*
X152212779Y-57289819D01*
X152212779Y-57289819D02*
X152784207Y-58289819D01*
X152784207Y-58289819D02*
X152784207Y-57289819D01*
X153260398Y-58289819D02*
X153260398Y-57289819D01*
X153260398Y-57289819D02*
X153498493Y-57289819D01*
X153498493Y-57289819D02*
X153641350Y-57337438D01*
X153641350Y-57337438D02*
X153736588Y-57432676D01*
X153736588Y-57432676D02*
X153784207Y-57527914D01*
X153784207Y-57527914D02*
X153831826Y-57718390D01*
X153831826Y-57718390D02*
X153831826Y-57861247D01*
X153831826Y-57861247D02*
X153784207Y-58051723D01*
X153784207Y-58051723D02*
X153736588Y-58146961D01*
X153736588Y-58146961D02*
X153641350Y-58242200D01*
X153641350Y-58242200D02*
X153498493Y-58289819D01*
X153498493Y-58289819D02*
X153260398Y-58289819D01*
X151434969Y-148967819D02*
X150958779Y-148967819D01*
X150958779Y-148967819D02*
X150958779Y-147967819D01*
X155340207Y-58289819D02*
X155006874Y-57813628D01*
X154768779Y-58289819D02*
X154768779Y-57289819D01*
X154768779Y-57289819D02*
X155149731Y-57289819D01*
X155149731Y-57289819D02*
X155244969Y-57337438D01*
X155244969Y-57337438D02*
X155292588Y-57385057D01*
X155292588Y-57385057D02*
X155340207Y-57480295D01*
X155340207Y-57480295D02*
X155340207Y-57623152D01*
X155340207Y-57623152D02*
X155292588Y-57718390D01*
X155292588Y-57718390D02*
X155244969Y-57766009D01*
X155244969Y-57766009D02*
X155149731Y-57813628D01*
X155149731Y-57813628D02*
X154768779Y-57813628D01*
D13*
X170792204Y-56249438D02*
X170125537Y-55297057D01*
X169649347Y-56249438D02*
X169649347Y-54249438D01*
X169649347Y-54249438D02*
X170411252Y-54249438D01*
X170411252Y-54249438D02*
X170601728Y-54344676D01*
X170601728Y-54344676D02*
X170696966Y-54439914D01*
X170696966Y-54439914D02*
X170792204Y-54630390D01*
X170792204Y-54630390D02*
X170792204Y-54916104D01*
X170792204Y-54916104D02*
X170696966Y-55106580D01*
X170696966Y-55106580D02*
X170601728Y-55201819D01*
X170601728Y-55201819D02*
X170411252Y-55297057D01*
X170411252Y-55297057D02*
X169649347Y-55297057D01*
X171649347Y-56249438D02*
X171649347Y-54249438D01*
X173649347Y-54344676D02*
X173458871Y-54249438D01*
X173458871Y-54249438D02*
X173173157Y-54249438D01*
X173173157Y-54249438D02*
X172887442Y-54344676D01*
X172887442Y-54344676D02*
X172696966Y-54535152D01*
X172696966Y-54535152D02*
X172601728Y-54725628D01*
X172601728Y-54725628D02*
X172506490Y-55106580D01*
X172506490Y-55106580D02*
X172506490Y-55392295D01*
X172506490Y-55392295D02*
X172601728Y-55773247D01*
X172601728Y-55773247D02*
X172696966Y-55963723D01*
X172696966Y-55963723D02*
X172887442Y-56154200D01*
X172887442Y-56154200D02*
X173173157Y-56249438D01*
X173173157Y-56249438D02*
X173363633Y-56249438D01*
X173363633Y-56249438D02*
X173649347Y-56154200D01*
X173649347Y-56154200D02*
X173744585Y-56058961D01*
X173744585Y-56058961D02*
X173744585Y-55392295D01*
X173744585Y-55392295D02*
X173363633Y-55392295D01*
X174601728Y-56249438D02*
X174601728Y-54249438D01*
X174601728Y-55201819D02*
X175744585Y-55201819D01*
X175744585Y-56249438D02*
X175744585Y-54249438D01*
X176411252Y-54249438D02*
X177554109Y-54249438D01*
X176982680Y-56249438D02*
X176982680Y-54249438D01*
X180887443Y-56058961D02*
X180792205Y-56154200D01*
X180792205Y-56154200D02*
X180506491Y-56249438D01*
X180506491Y-56249438D02*
X180316015Y-56249438D01*
X180316015Y-56249438D02*
X180030300Y-56154200D01*
X180030300Y-56154200D02*
X179839824Y-55963723D01*
X179839824Y-55963723D02*
X179744586Y-55773247D01*
X179744586Y-55773247D02*
X179649348Y-55392295D01*
X179649348Y-55392295D02*
X179649348Y-55106580D01*
X179649348Y-55106580D02*
X179744586Y-54725628D01*
X179744586Y-54725628D02*
X179839824Y-54535152D01*
X179839824Y-54535152D02*
X180030300Y-54344676D01*
X180030300Y-54344676D02*
X180316015Y-54249438D01*
X180316015Y-54249438D02*
X180506491Y-54249438D01*
X180506491Y-54249438D02*
X180792205Y-54344676D01*
X180792205Y-54344676D02*
X180887443Y-54439914D01*
X181744586Y-56249438D02*
X181744586Y-54249438D01*
X181744586Y-55201819D02*
X182887443Y-55201819D01*
X182887443Y-56249438D02*
X182887443Y-54249438D01*
D11*
X150164969Y-58289819D02*
X149688779Y-58289819D01*
X149688779Y-58289819D02*
X149688779Y-57289819D01*
X156816588Y-57337438D02*
X156721350Y-57289819D01*
X156721350Y-57289819D02*
X156578493Y-57289819D01*
X156578493Y-57289819D02*
X156435636Y-57337438D01*
X156435636Y-57337438D02*
X156340398Y-57432676D01*
X156340398Y-57432676D02*
X156292779Y-57527914D01*
X156292779Y-57527914D02*
X156245160Y-57718390D01*
X156245160Y-57718390D02*
X156245160Y-57861247D01*
X156245160Y-57861247D02*
X156292779Y-58051723D01*
X156292779Y-58051723D02*
X156340398Y-58146961D01*
X156340398Y-58146961D02*
X156435636Y-58242200D01*
X156435636Y-58242200D02*
X156578493Y-58289819D01*
X156578493Y-58289819D02*
X156673731Y-58289819D01*
X156673731Y-58289819D02*
X156816588Y-58242200D01*
X156816588Y-58242200D02*
X156864207Y-58194580D01*
X156864207Y-58194580D02*
X156864207Y-57861247D01*
X156864207Y-57861247D02*
X156673731Y-57861247D01*
X157292779Y-58289819D02*
X157292779Y-57289819D01*
X157292779Y-57289819D02*
X157864207Y-58289819D01*
X157864207Y-58289819D02*
X157864207Y-57289819D01*
X158340398Y-58289819D02*
X158340398Y-57289819D01*
X158340398Y-57289819D02*
X158578493Y-57289819D01*
X158578493Y-57289819D02*
X158721350Y-57337438D01*
X158721350Y-57337438D02*
X158816588Y-57432676D01*
X158816588Y-57432676D02*
X158864207Y-57527914D01*
X158864207Y-57527914D02*
X158911826Y-57718390D01*
X158911826Y-57718390D02*
X158911826Y-57861247D01*
X158911826Y-57861247D02*
X158864207Y-58051723D01*
X158864207Y-58051723D02*
X158816588Y-58146961D01*
X158816588Y-58146961D02*
X158721350Y-58242200D01*
X158721350Y-58242200D02*
X158578493Y-58289819D01*
X158578493Y-58289819D02*
X158340398Y-58289819D01*
D12*
X182283976Y-79710092D02*
X183533976Y-79710092D01*
X183533976Y-79710092D02*
X183533976Y-80186282D01*
X183533976Y-80186282D02*
X183474452Y-80305330D01*
X183474452Y-80305330D02*
X183414928Y-80364853D01*
X183414928Y-80364853D02*
X183295880Y-80424377D01*
X183295880Y-80424377D02*
X183117309Y-80424377D01*
X183117309Y-80424377D02*
X182998261Y-80364853D01*
X182998261Y-80364853D02*
X182938738Y-80305330D01*
X182938738Y-80305330D02*
X182879214Y-80186282D01*
X182879214Y-80186282D02*
X182879214Y-79710092D01*
X182283976Y-81138663D02*
X182343500Y-81019615D01*
X182343500Y-81019615D02*
X182403023Y-80960092D01*
X182403023Y-80960092D02*
X182522071Y-80900568D01*
X182522071Y-80900568D02*
X182879214Y-80900568D01*
X182879214Y-80900568D02*
X182998261Y-80960092D01*
X182998261Y-80960092D02*
X183057785Y-81019615D01*
X183057785Y-81019615D02*
X183117309Y-81138663D01*
X183117309Y-81138663D02*
X183117309Y-81317234D01*
X183117309Y-81317234D02*
X183057785Y-81436282D01*
X183057785Y-81436282D02*
X182998261Y-81495806D01*
X182998261Y-81495806D02*
X182879214Y-81555330D01*
X182879214Y-81555330D02*
X182522071Y-81555330D01*
X182522071Y-81555330D02*
X182403023Y-81495806D01*
X182403023Y-81495806D02*
X182343500Y-81436282D01*
X182343500Y-81436282D02*
X182283976Y-81317234D01*
X182283976Y-81317234D02*
X182283976Y-81138663D01*
X183117309Y-81971996D02*
X182283976Y-82210091D01*
X182283976Y-82210091D02*
X182879214Y-82448186D01*
X182879214Y-82448186D02*
X182283976Y-82686282D01*
X182283976Y-82686282D02*
X183117309Y-82924377D01*
X182343500Y-83876758D02*
X182283976Y-83757710D01*
X182283976Y-83757710D02*
X182283976Y-83519615D01*
X182283976Y-83519615D02*
X182343500Y-83400568D01*
X182343500Y-83400568D02*
X182462547Y-83341044D01*
X182462547Y-83341044D02*
X182938738Y-83341044D01*
X182938738Y-83341044D02*
X183057785Y-83400568D01*
X183057785Y-83400568D02*
X183117309Y-83519615D01*
X183117309Y-83519615D02*
X183117309Y-83757710D01*
X183117309Y-83757710D02*
X183057785Y-83876758D01*
X183057785Y-83876758D02*
X182938738Y-83936282D01*
X182938738Y-83936282D02*
X182819690Y-83936282D01*
X182819690Y-83936282D02*
X182700642Y-83341044D01*
X182283976Y-84471997D02*
X183117309Y-84471997D01*
X182879214Y-84471997D02*
X182998261Y-84531520D01*
X182998261Y-84531520D02*
X183057785Y-84591044D01*
X183057785Y-84591044D02*
X183117309Y-84710092D01*
X183117309Y-84710092D02*
X183117309Y-84829139D01*
X182641119Y-86138664D02*
X182641119Y-86733902D01*
X182283976Y-86019616D02*
X183533976Y-86436283D01*
X183533976Y-86436283D02*
X182283976Y-86852949D01*
X182283976Y-87269617D02*
X183117309Y-87269617D01*
X182998261Y-87269617D02*
X183057785Y-87329140D01*
X183057785Y-87329140D02*
X183117309Y-87448188D01*
X183117309Y-87448188D02*
X183117309Y-87626759D01*
X183117309Y-87626759D02*
X183057785Y-87745807D01*
X183057785Y-87745807D02*
X182938738Y-87805331D01*
X182938738Y-87805331D02*
X182283976Y-87805331D01*
X182938738Y-87805331D02*
X183057785Y-87864855D01*
X183057785Y-87864855D02*
X183117309Y-87983902D01*
X183117309Y-87983902D02*
X183117309Y-88162474D01*
X183117309Y-88162474D02*
X183057785Y-88281521D01*
X183057785Y-88281521D02*
X182938738Y-88341045D01*
X182938738Y-88341045D02*
X182283976Y-88341045D01*
X183117309Y-88936284D02*
X181867309Y-88936284D01*
X183057785Y-88936284D02*
X183117309Y-89055331D01*
X183117309Y-89055331D02*
X183117309Y-89293426D01*
X183117309Y-89293426D02*
X183057785Y-89412474D01*
X183057785Y-89412474D02*
X182998261Y-89471998D01*
X182998261Y-89471998D02*
X182879214Y-89531522D01*
X182879214Y-89531522D02*
X182522071Y-89531522D01*
X182522071Y-89531522D02*
X182403023Y-89471998D01*
X182403023Y-89471998D02*
X182343500Y-89412474D01*
X182343500Y-89412474D02*
X182283976Y-89293426D01*
X182283976Y-89293426D02*
X182283976Y-89055331D01*
X182283976Y-89055331D02*
X182343500Y-88936284D01*
X182283976Y-90245807D02*
X182343500Y-90126759D01*
X182343500Y-90126759D02*
X182462547Y-90067236D01*
X182462547Y-90067236D02*
X183533976Y-90067236D01*
X182283976Y-90721998D02*
X183117309Y-90721998D01*
X183533976Y-90721998D02*
X183474452Y-90662474D01*
X183474452Y-90662474D02*
X183414928Y-90721998D01*
X183414928Y-90721998D02*
X183474452Y-90781521D01*
X183474452Y-90781521D02*
X183533976Y-90721998D01*
X183533976Y-90721998D02*
X183414928Y-90721998D01*
X183117309Y-91138664D02*
X183117309Y-91614855D01*
X182283976Y-91317236D02*
X183355404Y-91317236D01*
X183355404Y-91317236D02*
X183474452Y-91376759D01*
X183474452Y-91376759D02*
X183533976Y-91495807D01*
X183533976Y-91495807D02*
X183533976Y-91614855D01*
X182283976Y-92031522D02*
X183117309Y-92031522D01*
X183533976Y-92031522D02*
X183474452Y-91971998D01*
X183474452Y-91971998D02*
X183414928Y-92031522D01*
X183414928Y-92031522D02*
X183474452Y-92091045D01*
X183474452Y-92091045D02*
X183533976Y-92031522D01*
X183533976Y-92031522D02*
X183414928Y-92031522D01*
X182343500Y-93102950D02*
X182283976Y-92983902D01*
X182283976Y-92983902D02*
X182283976Y-92745807D01*
X182283976Y-92745807D02*
X182343500Y-92626760D01*
X182343500Y-92626760D02*
X182462547Y-92567236D01*
X182462547Y-92567236D02*
X182938738Y-92567236D01*
X182938738Y-92567236D02*
X183057785Y-92626760D01*
X183057785Y-92626760D02*
X183117309Y-92745807D01*
X183117309Y-92745807D02*
X183117309Y-92983902D01*
X183117309Y-92983902D02*
X183057785Y-93102950D01*
X183057785Y-93102950D02*
X182938738Y-93162474D01*
X182938738Y-93162474D02*
X182819690Y-93162474D01*
X182819690Y-93162474D02*
X182700642Y-92567236D01*
X182283976Y-93698189D02*
X183117309Y-93698189D01*
X182879214Y-93698189D02*
X182998261Y-93757712D01*
X182998261Y-93757712D02*
X183057785Y-93817236D01*
X183057785Y-93817236D02*
X183117309Y-93936284D01*
X183117309Y-93936284D02*
X183117309Y-94055331D01*
D13*
X103926728Y-56249438D02*
X102974347Y-56249438D01*
X102974347Y-56249438D02*
X102974347Y-54249438D01*
X104593395Y-55201819D02*
X105260062Y-55201819D01*
X105545776Y-56249438D02*
X104593395Y-56249438D01*
X104593395Y-56249438D02*
X104593395Y-54249438D01*
X104593395Y-54249438D02*
X105545776Y-54249438D01*
X107069586Y-55201819D02*
X106402919Y-55201819D01*
X106402919Y-56249438D02*
X106402919Y-54249438D01*
X106402919Y-54249438D02*
X107355300Y-54249438D01*
X107831491Y-54249438D02*
X108974348Y-54249438D01*
X108402919Y-56249438D02*
X108402919Y-54249438D01*
X112307682Y-56058961D02*
X112212444Y-56154200D01*
X112212444Y-56154200D02*
X111926730Y-56249438D01*
X111926730Y-56249438D02*
X111736254Y-56249438D01*
X111736254Y-56249438D02*
X111450539Y-56154200D01*
X111450539Y-56154200D02*
X111260063Y-55963723D01*
X111260063Y-55963723D02*
X111164825Y-55773247D01*
X111164825Y-55773247D02*
X111069587Y-55392295D01*
X111069587Y-55392295D02*
X111069587Y-55106580D01*
X111069587Y-55106580D02*
X111164825Y-54725628D01*
X111164825Y-54725628D02*
X111260063Y-54535152D01*
X111260063Y-54535152D02*
X111450539Y-54344676D01*
X111450539Y-54344676D02*
X111736254Y-54249438D01*
X111736254Y-54249438D02*
X111926730Y-54249438D01*
X111926730Y-54249438D02*
X112212444Y-54344676D01*
X112212444Y-54344676D02*
X112307682Y-54439914D01*
X113164825Y-56249438D02*
X113164825Y-54249438D01*
X113164825Y-55201819D02*
X114307682Y-55201819D01*
X114307682Y-56249438D02*
X114307682Y-54249438D01*
D11*
X153006588Y-148015438D02*
X152911350Y-147967819D01*
X152911350Y-147967819D02*
X152768493Y-147967819D01*
X152768493Y-147967819D02*
X152625636Y-148015438D01*
X152625636Y-148015438D02*
X152530398Y-148110676D01*
X152530398Y-148110676D02*
X152482779Y-148205914D01*
X152482779Y-148205914D02*
X152435160Y-148396390D01*
X152435160Y-148396390D02*
X152435160Y-148539247D01*
X152435160Y-148539247D02*
X152482779Y-148729723D01*
X152482779Y-148729723D02*
X152530398Y-148824961D01*
X152530398Y-148824961D02*
X152625636Y-148920200D01*
X152625636Y-148920200D02*
X152768493Y-148967819D01*
X152768493Y-148967819D02*
X152863731Y-148967819D01*
X152863731Y-148967819D02*
X153006588Y-148920200D01*
X153006588Y-148920200D02*
X153054207Y-148872580D01*
X153054207Y-148872580D02*
X153054207Y-148539247D01*
X153054207Y-148539247D02*
X152863731Y-148539247D01*
X153482779Y-148967819D02*
X153482779Y-147967819D01*
X153482779Y-147967819D02*
X154054207Y-148967819D01*
X154054207Y-148967819D02*
X154054207Y-147967819D01*
X154530398Y-148967819D02*
X154530398Y-147967819D01*
X154530398Y-147967819D02*
X154768493Y-147967819D01*
X154768493Y-147967819D02*
X154911350Y-148015438D01*
X154911350Y-148015438D02*
X155006588Y-148110676D01*
X155006588Y-148110676D02*
X155054207Y-148205914D01*
X155054207Y-148205914D02*
X155101826Y-148396390D01*
X155101826Y-148396390D02*
X155101826Y-148539247D01*
X155101826Y-148539247D02*
X155054207Y-148729723D01*
X155054207Y-148729723D02*
X155006588Y-148824961D01*
X155006588Y-148824961D02*
X154911350Y-148920200D01*
X154911350Y-148920200D02*
X154768493Y-148967819D01*
X154768493Y-148967819D02*
X154530398Y-148967819D01*
D12*
X183649428Y-118829711D02*
X183708952Y-118889235D01*
X183708952Y-118889235D02*
X183768476Y-119008282D01*
X183768476Y-119008282D02*
X183768476Y-119305901D01*
X183768476Y-119305901D02*
X183708952Y-119424949D01*
X183708952Y-119424949D02*
X183649428Y-119484473D01*
X183649428Y-119484473D02*
X183530380Y-119543996D01*
X183530380Y-119543996D02*
X183411333Y-119543996D01*
X183411333Y-119543996D02*
X183232761Y-119484473D01*
X183232761Y-119484473D02*
X182518476Y-118770187D01*
X182518476Y-118770187D02*
X182518476Y-119543996D01*
X183351809Y-120079711D02*
X182518476Y-120079711D01*
X183232761Y-120079711D02*
X183292285Y-120139234D01*
X183292285Y-120139234D02*
X183351809Y-120258282D01*
X183351809Y-120258282D02*
X183351809Y-120436853D01*
X183351809Y-120436853D02*
X183292285Y-120555901D01*
X183292285Y-120555901D02*
X183173238Y-120615425D01*
X183173238Y-120615425D02*
X182518476Y-120615425D01*
X182518476Y-121746377D02*
X183768476Y-121746377D01*
X182578000Y-121746377D02*
X182518476Y-121627329D01*
X182518476Y-121627329D02*
X182518476Y-121389234D01*
X182518476Y-121389234D02*
X182578000Y-121270186D01*
X182578000Y-121270186D02*
X182637523Y-121210663D01*
X182637523Y-121210663D02*
X182756571Y-121151139D01*
X182756571Y-121151139D02*
X183113714Y-121151139D01*
X183113714Y-121151139D02*
X183232761Y-121210663D01*
X183232761Y-121210663D02*
X183292285Y-121270186D01*
X183292285Y-121270186D02*
X183351809Y-121389234D01*
X183351809Y-121389234D02*
X183351809Y-121627329D01*
X183351809Y-121627329D02*
X183292285Y-121746377D01*
X183768476Y-123532091D02*
X183768476Y-123770186D01*
X183768476Y-123770186D02*
X183708952Y-123889234D01*
X183708952Y-123889234D02*
X183589904Y-124008281D01*
X183589904Y-124008281D02*
X183351809Y-124067805D01*
X183351809Y-124067805D02*
X182935142Y-124067805D01*
X182935142Y-124067805D02*
X182697047Y-124008281D01*
X182697047Y-124008281D02*
X182578000Y-123889234D01*
X182578000Y-123889234D02*
X182518476Y-123770186D01*
X182518476Y-123770186D02*
X182518476Y-123532091D01*
X182518476Y-123532091D02*
X182578000Y-123413043D01*
X182578000Y-123413043D02*
X182697047Y-123293996D01*
X182697047Y-123293996D02*
X182935142Y-123234472D01*
X182935142Y-123234472D02*
X183351809Y-123234472D01*
X183351809Y-123234472D02*
X183589904Y-123293996D01*
X183589904Y-123293996D02*
X183708952Y-123413043D01*
X183708952Y-123413043D02*
X183768476Y-123532091D01*
X182518476Y-124603520D02*
X183351809Y-124603520D01*
X183113714Y-124603520D02*
X183232761Y-124663043D01*
X183232761Y-124663043D02*
X183292285Y-124722567D01*
X183292285Y-124722567D02*
X183351809Y-124841615D01*
X183351809Y-124841615D02*
X183351809Y-124960662D01*
X182518476Y-125913044D02*
X183768476Y-125913044D01*
X182578000Y-125913044D02*
X182518476Y-125793996D01*
X182518476Y-125793996D02*
X182518476Y-125555901D01*
X182518476Y-125555901D02*
X182578000Y-125436853D01*
X182578000Y-125436853D02*
X182637523Y-125377330D01*
X182637523Y-125377330D02*
X182756571Y-125317806D01*
X182756571Y-125317806D02*
X183113714Y-125317806D01*
X183113714Y-125317806D02*
X183232761Y-125377330D01*
X183232761Y-125377330D02*
X183292285Y-125436853D01*
X183292285Y-125436853D02*
X183351809Y-125555901D01*
X183351809Y-125555901D02*
X183351809Y-125793996D01*
X183351809Y-125793996D02*
X183292285Y-125913044D01*
X182578000Y-126984472D02*
X182518476Y-126865424D01*
X182518476Y-126865424D02*
X182518476Y-126627329D01*
X182518476Y-126627329D02*
X182578000Y-126508282D01*
X182578000Y-126508282D02*
X182697047Y-126448758D01*
X182697047Y-126448758D02*
X183173238Y-126448758D01*
X183173238Y-126448758D02*
X183292285Y-126508282D01*
X183292285Y-126508282D02*
X183351809Y-126627329D01*
X183351809Y-126627329D02*
X183351809Y-126865424D01*
X183351809Y-126865424D02*
X183292285Y-126984472D01*
X183292285Y-126984472D02*
X183173238Y-127043996D01*
X183173238Y-127043996D02*
X183054190Y-127043996D01*
X183054190Y-127043996D02*
X182935142Y-126448758D01*
X182518476Y-127579711D02*
X183351809Y-127579711D01*
X183113714Y-127579711D02*
X183232761Y-127639234D01*
X183232761Y-127639234D02*
X183292285Y-127698758D01*
X183292285Y-127698758D02*
X183351809Y-127817806D01*
X183351809Y-127817806D02*
X183351809Y-127936853D01*
X180565500Y-115972568D02*
X180505976Y-116151139D01*
X180505976Y-116151139D02*
X180505976Y-116448758D01*
X180505976Y-116448758D02*
X180565500Y-116567806D01*
X180565500Y-116567806D02*
X180625023Y-116627330D01*
X180625023Y-116627330D02*
X180744071Y-116686853D01*
X180744071Y-116686853D02*
X180863119Y-116686853D01*
X180863119Y-116686853D02*
X180982166Y-116627330D01*
X180982166Y-116627330D02*
X181041690Y-116567806D01*
X181041690Y-116567806D02*
X181101214Y-116448758D01*
X181101214Y-116448758D02*
X181160738Y-116210663D01*
X181160738Y-116210663D02*
X181220261Y-116091615D01*
X181220261Y-116091615D02*
X181279785Y-116032092D01*
X181279785Y-116032092D02*
X181398833Y-115972568D01*
X181398833Y-115972568D02*
X181517880Y-115972568D01*
X181517880Y-115972568D02*
X181636928Y-116032092D01*
X181636928Y-116032092D02*
X181696452Y-116091615D01*
X181696452Y-116091615D02*
X181755976Y-116210663D01*
X181755976Y-116210663D02*
X181755976Y-116508282D01*
X181755976Y-116508282D02*
X181696452Y-116686853D01*
X180505976Y-117758282D02*
X181160738Y-117758282D01*
X181160738Y-117758282D02*
X181279785Y-117698758D01*
X181279785Y-117698758D02*
X181339309Y-117579710D01*
X181339309Y-117579710D02*
X181339309Y-117341615D01*
X181339309Y-117341615D02*
X181279785Y-117222568D01*
X180565500Y-117758282D02*
X180505976Y-117639234D01*
X180505976Y-117639234D02*
X180505976Y-117341615D01*
X180505976Y-117341615D02*
X180565500Y-117222568D01*
X180565500Y-117222568D02*
X180684547Y-117163044D01*
X180684547Y-117163044D02*
X180803595Y-117163044D01*
X180803595Y-117163044D02*
X180922642Y-117222568D01*
X180922642Y-117222568D02*
X180982166Y-117341615D01*
X180982166Y-117341615D02*
X180982166Y-117639234D01*
X180982166Y-117639234D02*
X181041690Y-117758282D01*
X180505976Y-118532091D02*
X180565500Y-118413043D01*
X180565500Y-118413043D02*
X180684547Y-118353520D01*
X180684547Y-118353520D02*
X181755976Y-118353520D01*
X180505976Y-119186853D02*
X180565500Y-119067805D01*
X180565500Y-119067805D02*
X180684547Y-119008282D01*
X180684547Y-119008282D02*
X181755976Y-119008282D01*
X180565500Y-120139234D02*
X180505976Y-120020186D01*
X180505976Y-120020186D02*
X180505976Y-119782091D01*
X180505976Y-119782091D02*
X180565500Y-119663044D01*
X180565500Y-119663044D02*
X180684547Y-119603520D01*
X180684547Y-119603520D02*
X181160738Y-119603520D01*
X181160738Y-119603520D02*
X181279785Y-119663044D01*
X181279785Y-119663044D02*
X181339309Y-119782091D01*
X181339309Y-119782091D02*
X181339309Y-120020186D01*
X181339309Y-120020186D02*
X181279785Y-120139234D01*
X181279785Y-120139234D02*
X181160738Y-120198758D01*
X181160738Y-120198758D02*
X181041690Y-120198758D01*
X181041690Y-120198758D02*
X180922642Y-119603520D01*
X181339309Y-120734473D02*
X180505976Y-120734473D01*
X181220261Y-120734473D02*
X181279785Y-120793996D01*
X181279785Y-120793996D02*
X181339309Y-120913044D01*
X181339309Y-120913044D02*
X181339309Y-121091615D01*
X181339309Y-121091615D02*
X181279785Y-121210663D01*
X181279785Y-121210663D02*
X181160738Y-121270187D01*
X181160738Y-121270187D02*
X180505976Y-121270187D01*
X180982166Y-121865425D02*
X180982166Y-122817806D01*
X180505976Y-123413044D02*
X181755976Y-123413044D01*
X180505976Y-124127329D02*
X181220261Y-123591615D01*
X181755976Y-124127329D02*
X181041690Y-123413044D01*
X180565500Y-125139234D02*
X180505976Y-125020186D01*
X180505976Y-125020186D02*
X180505976Y-124782091D01*
X180505976Y-124782091D02*
X180565500Y-124663044D01*
X180565500Y-124663044D02*
X180684547Y-124603520D01*
X180684547Y-124603520D02*
X181160738Y-124603520D01*
X181160738Y-124603520D02*
X181279785Y-124663044D01*
X181279785Y-124663044D02*
X181339309Y-124782091D01*
X181339309Y-124782091D02*
X181339309Y-125020186D01*
X181339309Y-125020186D02*
X181279785Y-125139234D01*
X181279785Y-125139234D02*
X181160738Y-125198758D01*
X181160738Y-125198758D02*
X181041690Y-125198758D01*
X181041690Y-125198758D02*
X180922642Y-124603520D01*
X181339309Y-125615425D02*
X180505976Y-125913044D01*
X181339309Y-126210663D02*
X180505976Y-125913044D01*
X180505976Y-125913044D02*
X180208357Y-125793996D01*
X180208357Y-125793996D02*
X180148833Y-125734473D01*
X180148833Y-125734473D02*
X180089309Y-125615425D01*
X181160738Y-128055901D02*
X181160738Y-127639235D01*
X180505976Y-127639235D02*
X181755976Y-127639235D01*
X181755976Y-127639235D02*
X181755976Y-128234473D01*
X180505976Y-128710664D02*
X181339309Y-128710664D01*
X181755976Y-128710664D02*
X181696452Y-128651140D01*
X181696452Y-128651140D02*
X181636928Y-128710664D01*
X181636928Y-128710664D02*
X181696452Y-128770187D01*
X181696452Y-128770187D02*
X181755976Y-128710664D01*
X181755976Y-128710664D02*
X181636928Y-128710664D01*
X180505976Y-129484473D02*
X180565500Y-129365425D01*
X180565500Y-129365425D02*
X180684547Y-129305902D01*
X180684547Y-129305902D02*
X181755976Y-129305902D01*
X181339309Y-129782092D02*
X181339309Y-130258283D01*
X181755976Y-129960664D02*
X180684547Y-129960664D01*
X180684547Y-129960664D02*
X180565500Y-130020187D01*
X180565500Y-130020187D02*
X180505976Y-130139235D01*
X180505976Y-130139235D02*
X180505976Y-130258283D01*
X180565500Y-131151140D02*
X180505976Y-131032092D01*
X180505976Y-131032092D02*
X180505976Y-130793997D01*
X180505976Y-130793997D02*
X180565500Y-130674950D01*
X180565500Y-130674950D02*
X180684547Y-130615426D01*
X180684547Y-130615426D02*
X181160738Y-130615426D01*
X181160738Y-130615426D02*
X181279785Y-130674950D01*
X181279785Y-130674950D02*
X181339309Y-130793997D01*
X181339309Y-130793997D02*
X181339309Y-131032092D01*
X181339309Y-131032092D02*
X181279785Y-131151140D01*
X181279785Y-131151140D02*
X181160738Y-131210664D01*
X181160738Y-131210664D02*
X181041690Y-131210664D01*
X181041690Y-131210664D02*
X180922642Y-130615426D01*
X180505976Y-131746379D02*
X181339309Y-131746379D01*
X181101214Y-131746379D02*
X181220261Y-131805902D01*
X181220261Y-131805902D02*
X181279785Y-131865426D01*
X181279785Y-131865426D02*
X181339309Y-131984474D01*
X181339309Y-131984474D02*
X181339309Y-132103521D01*
X103466023Y-93263907D02*
X102216023Y-93263907D01*
X102216023Y-93263907D02*
X102216023Y-92787717D01*
X102216023Y-92787717D02*
X102275547Y-92668669D01*
X102275547Y-92668669D02*
X102335071Y-92609146D01*
X102335071Y-92609146D02*
X102454119Y-92549622D01*
X102454119Y-92549622D02*
X102632690Y-92549622D01*
X102632690Y-92549622D02*
X102751738Y-92609146D01*
X102751738Y-92609146D02*
X102811261Y-92668669D01*
X102811261Y-92668669D02*
X102870785Y-92787717D01*
X102870785Y-92787717D02*
X102870785Y-93263907D01*
X103466023Y-91835336D02*
X103406500Y-91954384D01*
X103406500Y-91954384D02*
X103346976Y-92013907D01*
X103346976Y-92013907D02*
X103227928Y-92073431D01*
X103227928Y-92073431D02*
X102870785Y-92073431D01*
X102870785Y-92073431D02*
X102751738Y-92013907D01*
X102751738Y-92013907D02*
X102692214Y-91954384D01*
X102692214Y-91954384D02*
X102632690Y-91835336D01*
X102632690Y-91835336D02*
X102632690Y-91656765D01*
X102632690Y-91656765D02*
X102692214Y-91537717D01*
X102692214Y-91537717D02*
X102751738Y-91478193D01*
X102751738Y-91478193D02*
X102870785Y-91418669D01*
X102870785Y-91418669D02*
X103227928Y-91418669D01*
X103227928Y-91418669D02*
X103346976Y-91478193D01*
X103346976Y-91478193D02*
X103406500Y-91537717D01*
X103406500Y-91537717D02*
X103466023Y-91656765D01*
X103466023Y-91656765D02*
X103466023Y-91835336D01*
X102632690Y-91002003D02*
X103466023Y-90763908D01*
X103466023Y-90763908D02*
X102870785Y-90525813D01*
X102870785Y-90525813D02*
X103466023Y-90287717D01*
X103466023Y-90287717D02*
X102632690Y-90049622D01*
X103406500Y-89097241D02*
X103466023Y-89216289D01*
X103466023Y-89216289D02*
X103466023Y-89454384D01*
X103466023Y-89454384D02*
X103406500Y-89573431D01*
X103406500Y-89573431D02*
X103287452Y-89632955D01*
X103287452Y-89632955D02*
X102811261Y-89632955D01*
X102811261Y-89632955D02*
X102692214Y-89573431D01*
X102692214Y-89573431D02*
X102632690Y-89454384D01*
X102632690Y-89454384D02*
X102632690Y-89216289D01*
X102632690Y-89216289D02*
X102692214Y-89097241D01*
X102692214Y-89097241D02*
X102811261Y-89037717D01*
X102811261Y-89037717D02*
X102930309Y-89037717D01*
X102930309Y-89037717D02*
X103049357Y-89632955D01*
X103466023Y-88502002D02*
X102632690Y-88502002D01*
X102870785Y-88502002D02*
X102751738Y-88442479D01*
X102751738Y-88442479D02*
X102692214Y-88382955D01*
X102692214Y-88382955D02*
X102632690Y-88263907D01*
X102632690Y-88263907D02*
X102632690Y-88144860D01*
X103108880Y-86835335D02*
X103108880Y-86240097D01*
X103466023Y-86954383D02*
X102216023Y-86537716D01*
X102216023Y-86537716D02*
X103466023Y-86121050D01*
X103466023Y-85704382D02*
X102632690Y-85704382D01*
X102751738Y-85704382D02*
X102692214Y-85644859D01*
X102692214Y-85644859D02*
X102632690Y-85525811D01*
X102632690Y-85525811D02*
X102632690Y-85347240D01*
X102632690Y-85347240D02*
X102692214Y-85228192D01*
X102692214Y-85228192D02*
X102811261Y-85168668D01*
X102811261Y-85168668D02*
X103466023Y-85168668D01*
X102811261Y-85168668D02*
X102692214Y-85109144D01*
X102692214Y-85109144D02*
X102632690Y-84990097D01*
X102632690Y-84990097D02*
X102632690Y-84811525D01*
X102632690Y-84811525D02*
X102692214Y-84692478D01*
X102692214Y-84692478D02*
X102811261Y-84632954D01*
X102811261Y-84632954D02*
X103466023Y-84632954D01*
X102632690Y-84037715D02*
X103882690Y-84037715D01*
X102692214Y-84037715D02*
X102632690Y-83918668D01*
X102632690Y-83918668D02*
X102632690Y-83680573D01*
X102632690Y-83680573D02*
X102692214Y-83561525D01*
X102692214Y-83561525D02*
X102751738Y-83502001D01*
X102751738Y-83502001D02*
X102870785Y-83442477D01*
X102870785Y-83442477D02*
X103227928Y-83442477D01*
X103227928Y-83442477D02*
X103346976Y-83502001D01*
X103346976Y-83502001D02*
X103406500Y-83561525D01*
X103406500Y-83561525D02*
X103466023Y-83680573D01*
X103466023Y-83680573D02*
X103466023Y-83918668D01*
X103466023Y-83918668D02*
X103406500Y-84037715D01*
X103466023Y-82728192D02*
X103406500Y-82847240D01*
X103406500Y-82847240D02*
X103287452Y-82906763D01*
X103287452Y-82906763D02*
X102216023Y-82906763D01*
X103466023Y-82252001D02*
X102632690Y-82252001D01*
X102216023Y-82252001D02*
X102275547Y-82311525D01*
X102275547Y-82311525D02*
X102335071Y-82252001D01*
X102335071Y-82252001D02*
X102275547Y-82192478D01*
X102275547Y-82192478D02*
X102216023Y-82252001D01*
X102216023Y-82252001D02*
X102335071Y-82252001D01*
X102632690Y-81835335D02*
X102632690Y-81359144D01*
X103466023Y-81656763D02*
X102394595Y-81656763D01*
X102394595Y-81656763D02*
X102275547Y-81597240D01*
X102275547Y-81597240D02*
X102216023Y-81478192D01*
X102216023Y-81478192D02*
X102216023Y-81359144D01*
X103466023Y-80942477D02*
X102632690Y-80942477D01*
X102216023Y-80942477D02*
X102275547Y-81002001D01*
X102275547Y-81002001D02*
X102335071Y-80942477D01*
X102335071Y-80942477D02*
X102275547Y-80882954D01*
X102275547Y-80882954D02*
X102216023Y-80942477D01*
X102216023Y-80942477D02*
X102335071Y-80942477D01*
X103406500Y-79871049D02*
X103466023Y-79990097D01*
X103466023Y-79990097D02*
X103466023Y-80228192D01*
X103466023Y-80228192D02*
X103406500Y-80347239D01*
X103406500Y-80347239D02*
X103287452Y-80406763D01*
X103287452Y-80406763D02*
X102811261Y-80406763D01*
X102811261Y-80406763D02*
X102692214Y-80347239D01*
X102692214Y-80347239D02*
X102632690Y-80228192D01*
X102632690Y-80228192D02*
X102632690Y-79990097D01*
X102632690Y-79990097D02*
X102692214Y-79871049D01*
X102692214Y-79871049D02*
X102811261Y-79811525D01*
X102811261Y-79811525D02*
X102930309Y-79811525D01*
X102930309Y-79811525D02*
X103049357Y-80406763D01*
X103466023Y-79275810D02*
X102632690Y-79275810D01*
X102870785Y-79275810D02*
X102751738Y-79216287D01*
X102751738Y-79216287D02*
X102692214Y-79156763D01*
X102692214Y-79156763D02*
X102632690Y-79037715D01*
X102632690Y-79037715D02*
X102632690Y-78918668D01*
D11*
X150314819Y-103512857D02*
X149838628Y-103846190D01*
X150314819Y-104084285D02*
X149314819Y-104084285D01*
X149314819Y-104084285D02*
X149314819Y-103703333D01*
X149314819Y-103703333D02*
X149362438Y-103608095D01*
X149362438Y-103608095D02*
X149410057Y-103560476D01*
X149410057Y-103560476D02*
X149505295Y-103512857D01*
X149505295Y-103512857D02*
X149648152Y-103512857D01*
X149648152Y-103512857D02*
X149743390Y-103560476D01*
X149743390Y-103560476D02*
X149791009Y-103608095D01*
X149791009Y-103608095D02*
X149838628Y-103703333D01*
X149838628Y-103703333D02*
X149838628Y-104084285D01*
X149410057Y-103131904D02*
X149362438Y-103084285D01*
X149362438Y-103084285D02*
X149314819Y-102989047D01*
X149314819Y-102989047D02*
X149314819Y-102750952D01*
X149314819Y-102750952D02*
X149362438Y-102655714D01*
X149362438Y-102655714D02*
X149410057Y-102608095D01*
X149410057Y-102608095D02*
X149505295Y-102560476D01*
X149505295Y-102560476D02*
X149600533Y-102560476D01*
X149600533Y-102560476D02*
X149743390Y-102608095D01*
X149743390Y-102608095D02*
X150314819Y-103179523D01*
X150314819Y-103179523D02*
X150314819Y-102560476D01*
X149314819Y-102227142D02*
X149314819Y-101608095D01*
X149314819Y-101608095D02*
X149695771Y-101941428D01*
X149695771Y-101941428D02*
X149695771Y-101798571D01*
X149695771Y-101798571D02*
X149743390Y-101703333D01*
X149743390Y-101703333D02*
X149791009Y-101655714D01*
X149791009Y-101655714D02*
X149886247Y-101608095D01*
X149886247Y-101608095D02*
X150124342Y-101608095D01*
X150124342Y-101608095D02*
X150219580Y-101655714D01*
X150219580Y-101655714D02*
X150267200Y-101703333D01*
X150267200Y-101703333D02*
X150314819Y-101798571D01*
X150314819Y-101798571D02*
X150314819Y-102084285D01*
X150314819Y-102084285D02*
X150267200Y-102179523D01*
X150267200Y-102179523D02*
X150219580Y-102227142D01*
X111579819Y-103512857D02*
X111103628Y-103846190D01*
X111579819Y-104084285D02*
X110579819Y-104084285D01*
X110579819Y-104084285D02*
X110579819Y-103703333D01*
X110579819Y-103703333D02*
X110627438Y-103608095D01*
X110627438Y-103608095D02*
X110675057Y-103560476D01*
X110675057Y-103560476D02*
X110770295Y-103512857D01*
X110770295Y-103512857D02*
X110913152Y-103512857D01*
X110913152Y-103512857D02*
X111008390Y-103560476D01*
X111008390Y-103560476D02*
X111056009Y-103608095D01*
X111056009Y-103608095D02*
X111103628Y-103703333D01*
X111103628Y-103703333D02*
X111103628Y-104084285D01*
X111579819Y-102560476D02*
X111579819Y-103131904D01*
X111579819Y-102846190D02*
X110579819Y-102846190D01*
X110579819Y-102846190D02*
X110722676Y-102941428D01*
X110722676Y-102941428D02*
X110817914Y-103036666D01*
X110817914Y-103036666D02*
X110865533Y-103131904D01*
X111579819Y-101608095D02*
X111579819Y-102179523D01*
X111579819Y-101893809D02*
X110579819Y-101893809D01*
X110579819Y-101893809D02*
X110722676Y-101989047D01*
X110722676Y-101989047D02*
X110817914Y-102084285D01*
X110817914Y-102084285D02*
X110865533Y-102179523D01*
D14*
X139356667Y-136464318D02*
X139356667Y-137371461D01*
X139356667Y-137371461D02*
X139296190Y-137552889D01*
X139296190Y-137552889D02*
X139175238Y-137673842D01*
X139175238Y-137673842D02*
X138993809Y-137734318D01*
X138993809Y-137734318D02*
X138872857Y-137734318D01*
X139900952Y-136585270D02*
X139961428Y-136524794D01*
X139961428Y-136524794D02*
X140082381Y-136464318D01*
X140082381Y-136464318D02*
X140384762Y-136464318D01*
X140384762Y-136464318D02*
X140505714Y-136524794D01*
X140505714Y-136524794D02*
X140566190Y-136585270D01*
X140566190Y-136585270D02*
X140626667Y-136706222D01*
X140626667Y-136706222D02*
X140626667Y-136827175D01*
X140626667Y-136827175D02*
X140566190Y-137008603D01*
X140566190Y-137008603D02*
X139840476Y-137734318D01*
X139840476Y-137734318D02*
X140626667Y-137734318D01*
D11*
X123257261Y-79600312D02*
X123162023Y-79552693D01*
X123162023Y-79552693D02*
X123066785Y-79457455D01*
X123066785Y-79457455D02*
X122923928Y-79314597D01*
X122923928Y-79314597D02*
X122828690Y-79266978D01*
X122828690Y-79266978D02*
X122733452Y-79266978D01*
X122781071Y-79505074D02*
X122685833Y-79457455D01*
X122685833Y-79457455D02*
X122590595Y-79362216D01*
X122590595Y-79362216D02*
X122542976Y-79171740D01*
X122542976Y-79171740D02*
X122542976Y-78838407D01*
X122542976Y-78838407D02*
X122590595Y-78647931D01*
X122590595Y-78647931D02*
X122685833Y-78552693D01*
X122685833Y-78552693D02*
X122781071Y-78505074D01*
X122781071Y-78505074D02*
X122971547Y-78505074D01*
X122971547Y-78505074D02*
X123066785Y-78552693D01*
X123066785Y-78552693D02*
X123162023Y-78647931D01*
X123162023Y-78647931D02*
X123209642Y-78838407D01*
X123209642Y-78838407D02*
X123209642Y-79171740D01*
X123209642Y-79171740D02*
X123162023Y-79362216D01*
X123162023Y-79362216D02*
X123066785Y-79457455D01*
X123066785Y-79457455D02*
X122971547Y-79505074D01*
X122971547Y-79505074D02*
X122781071Y-79505074D01*
X123542976Y-78505074D02*
X124162023Y-78505074D01*
X124162023Y-78505074D02*
X123828690Y-78886026D01*
X123828690Y-78886026D02*
X123971547Y-78886026D01*
X123971547Y-78886026D02*
X124066785Y-78933645D01*
X124066785Y-78933645D02*
X124114404Y-78981264D01*
X124114404Y-78981264D02*
X124162023Y-79076502D01*
X124162023Y-79076502D02*
X124162023Y-79314597D01*
X124162023Y-79314597D02*
X124114404Y-79409835D01*
X124114404Y-79409835D02*
X124066785Y-79457455D01*
X124066785Y-79457455D02*
X123971547Y-79505074D01*
X123971547Y-79505074D02*
X123685833Y-79505074D01*
X123685833Y-79505074D02*
X123590595Y-79457455D01*
X123590595Y-79457455D02*
X123542976Y-79409835D01*
X120645833Y-127600074D02*
X120312500Y-127123883D01*
X120074405Y-127600074D02*
X120074405Y-126600074D01*
X120074405Y-126600074D02*
X120455357Y-126600074D01*
X120455357Y-126600074D02*
X120550595Y-126647693D01*
X120550595Y-126647693D02*
X120598214Y-126695312D01*
X120598214Y-126695312D02*
X120645833Y-126790550D01*
X120645833Y-126790550D02*
X120645833Y-126933407D01*
X120645833Y-126933407D02*
X120598214Y-127028645D01*
X120598214Y-127028645D02*
X120550595Y-127076264D01*
X120550595Y-127076264D02*
X120455357Y-127123883D01*
X120455357Y-127123883D02*
X120074405Y-127123883D01*
X121217262Y-127028645D02*
X121122024Y-126981026D01*
X121122024Y-126981026D02*
X121074405Y-126933407D01*
X121074405Y-126933407D02*
X121026786Y-126838169D01*
X121026786Y-126838169D02*
X121026786Y-126790550D01*
X121026786Y-126790550D02*
X121074405Y-126695312D01*
X121074405Y-126695312D02*
X121122024Y-126647693D01*
X121122024Y-126647693D02*
X121217262Y-126600074D01*
X121217262Y-126600074D02*
X121407738Y-126600074D01*
X121407738Y-126600074D02*
X121502976Y-126647693D01*
X121502976Y-126647693D02*
X121550595Y-126695312D01*
X121550595Y-126695312D02*
X121598214Y-126790550D01*
X121598214Y-126790550D02*
X121598214Y-126838169D01*
X121598214Y-126838169D02*
X121550595Y-126933407D01*
X121550595Y-126933407D02*
X121502976Y-126981026D01*
X121502976Y-126981026D02*
X121407738Y-127028645D01*
X121407738Y-127028645D02*
X121217262Y-127028645D01*
X121217262Y-127028645D02*
X121122024Y-127076264D01*
X121122024Y-127076264D02*
X121074405Y-127123883D01*
X121074405Y-127123883D02*
X121026786Y-127219121D01*
X121026786Y-127219121D02*
X121026786Y-127409597D01*
X121026786Y-127409597D02*
X121074405Y-127504835D01*
X121074405Y-127504835D02*
X121122024Y-127552455D01*
X121122024Y-127552455D02*
X121217262Y-127600074D01*
X121217262Y-127600074D02*
X121407738Y-127600074D01*
X121407738Y-127600074D02*
X121502976Y-127552455D01*
X121502976Y-127552455D02*
X121550595Y-127504835D01*
X121550595Y-127504835D02*
X121598214Y-127409597D01*
X121598214Y-127409597D02*
X121598214Y-127219121D01*
X121598214Y-127219121D02*
X121550595Y-127123883D01*
X121550595Y-127123883D02*
X121502976Y-127076264D01*
X121502976Y-127076264D02*
X121407738Y-127028645D01*
X146984819Y-55578333D02*
X147699104Y-55578333D01*
X147699104Y-55578333D02*
X147841961Y-55625952D01*
X147841961Y-55625952D02*
X147937200Y-55721190D01*
X147937200Y-55721190D02*
X147984819Y-55864047D01*
X147984819Y-55864047D02*
X147984819Y-55959285D01*
X146984819Y-55197380D02*
X146984819Y-54578333D01*
X146984819Y-54578333D02*
X147365771Y-54911666D01*
X147365771Y-54911666D02*
X147365771Y-54768809D01*
X147365771Y-54768809D02*
X147413390Y-54673571D01*
X147413390Y-54673571D02*
X147461009Y-54625952D01*
X147461009Y-54625952D02*
X147556247Y-54578333D01*
X147556247Y-54578333D02*
X147794342Y-54578333D01*
X147794342Y-54578333D02*
X147889580Y-54625952D01*
X147889580Y-54625952D02*
X147937200Y-54673571D01*
X147937200Y-54673571D02*
X147984819Y-54768809D01*
X147984819Y-54768809D02*
X147984819Y-55054523D01*
X147984819Y-55054523D02*
X147937200Y-55149761D01*
X147937200Y-55149761D02*
X147889580Y-55197380D01*
D14*
X139530667Y-69154318D02*
X139530667Y-70061461D01*
X139530667Y-70061461D02*
X139470190Y-70242889D01*
X139470190Y-70242889D02*
X139349238Y-70363842D01*
X139349238Y-70363842D02*
X139167809Y-70424318D01*
X139167809Y-70424318D02*
X139046857Y-70424318D01*
X140800667Y-70424318D02*
X140074952Y-70424318D01*
X140437809Y-70424318D02*
X140437809Y-69154318D01*
X140437809Y-69154318D02*
X140316857Y-69335746D01*
X140316857Y-69335746D02*
X140195905Y-69456699D01*
X140195905Y-69456699D02*
X140074952Y-69517175D01*
D11*
X146384819Y-117442857D02*
X145908628Y-117776190D01*
X146384819Y-118014285D02*
X145384819Y-118014285D01*
X145384819Y-118014285D02*
X145384819Y-117633333D01*
X145384819Y-117633333D02*
X145432438Y-117538095D01*
X145432438Y-117538095D02*
X145480057Y-117490476D01*
X145480057Y-117490476D02*
X145575295Y-117442857D01*
X145575295Y-117442857D02*
X145718152Y-117442857D01*
X145718152Y-117442857D02*
X145813390Y-117490476D01*
X145813390Y-117490476D02*
X145861009Y-117538095D01*
X145861009Y-117538095D02*
X145908628Y-117633333D01*
X145908628Y-117633333D02*
X145908628Y-118014285D01*
X146384819Y-116490476D02*
X146384819Y-117061904D01*
X146384819Y-116776190D02*
X145384819Y-116776190D01*
X145384819Y-116776190D02*
X145527676Y-116871428D01*
X145527676Y-116871428D02*
X145622914Y-116966666D01*
X145622914Y-116966666D02*
X145670533Y-117061904D01*
X145813390Y-115919047D02*
X145765771Y-116014285D01*
X145765771Y-116014285D02*
X145718152Y-116061904D01*
X145718152Y-116061904D02*
X145622914Y-116109523D01*
X145622914Y-116109523D02*
X145575295Y-116109523D01*
X145575295Y-116109523D02*
X145480057Y-116061904D01*
X145480057Y-116061904D02*
X145432438Y-116014285D01*
X145432438Y-116014285D02*
X145384819Y-115919047D01*
X145384819Y-115919047D02*
X145384819Y-115728571D01*
X145384819Y-115728571D02*
X145432438Y-115633333D01*
X145432438Y-115633333D02*
X145480057Y-115585714D01*
X145480057Y-115585714D02*
X145575295Y-115538095D01*
X145575295Y-115538095D02*
X145622914Y-115538095D01*
X145622914Y-115538095D02*
X145718152Y-115585714D01*
X145718152Y-115585714D02*
X145765771Y-115633333D01*
X145765771Y-115633333D02*
X145813390Y-115728571D01*
X145813390Y-115728571D02*
X145813390Y-115919047D01*
X145813390Y-115919047D02*
X145861009Y-116014285D01*
X145861009Y-116014285D02*
X145908628Y-116061904D01*
X145908628Y-116061904D02*
X146003866Y-116109523D01*
X146003866Y-116109523D02*
X146194342Y-116109523D01*
X146194342Y-116109523D02*
X146289580Y-116061904D01*
X146289580Y-116061904D02*
X146337200Y-116014285D01*
X146337200Y-116014285D02*
X146384819Y-115919047D01*
X146384819Y-115919047D02*
X146384819Y-115728571D01*
X146384819Y-115728571D02*
X146337200Y-115633333D01*
X146337200Y-115633333D02*
X146289580Y-115585714D01*
X146289580Y-115585714D02*
X146194342Y-115538095D01*
X146194342Y-115538095D02*
X146003866Y-115538095D01*
X146003866Y-115538095D02*
X145908628Y-115585714D01*
X145908628Y-115585714D02*
X145861009Y-115633333D01*
X145861009Y-115633333D02*
X145813390Y-115728571D01*
X168107142Y-103284819D02*
X167773809Y-102808628D01*
X167535714Y-103284819D02*
X167535714Y-102284819D01*
X167535714Y-102284819D02*
X167916666Y-102284819D01*
X167916666Y-102284819D02*
X168011904Y-102332438D01*
X168011904Y-102332438D02*
X168059523Y-102380057D01*
X168059523Y-102380057D02*
X168107142Y-102475295D01*
X168107142Y-102475295D02*
X168107142Y-102618152D01*
X168107142Y-102618152D02*
X168059523Y-102713390D01*
X168059523Y-102713390D02*
X168011904Y-102761009D01*
X168011904Y-102761009D02*
X167916666Y-102808628D01*
X167916666Y-102808628D02*
X167535714Y-102808628D01*
X169059523Y-103284819D02*
X168488095Y-103284819D01*
X168773809Y-103284819D02*
X168773809Y-102284819D01*
X168773809Y-102284819D02*
X168678571Y-102427676D01*
X168678571Y-102427676D02*
X168583333Y-102522914D01*
X168583333Y-102522914D02*
X168488095Y-102570533D01*
X169916666Y-102284819D02*
X169726190Y-102284819D01*
X169726190Y-102284819D02*
X169630952Y-102332438D01*
X169630952Y-102332438D02*
X169583333Y-102380057D01*
X169583333Y-102380057D02*
X169488095Y-102522914D01*
X169488095Y-102522914D02*
X169440476Y-102713390D01*
X169440476Y-102713390D02*
X169440476Y-103094342D01*
X169440476Y-103094342D02*
X169488095Y-103189580D01*
X169488095Y-103189580D02*
X169535714Y-103237200D01*
X169535714Y-103237200D02*
X169630952Y-103284819D01*
X169630952Y-103284819D02*
X169821428Y-103284819D01*
X169821428Y-103284819D02*
X169916666Y-103237200D01*
X169916666Y-103237200D02*
X169964285Y-103189580D01*
X169964285Y-103189580D02*
X170011904Y-103094342D01*
X170011904Y-103094342D02*
X170011904Y-102856247D01*
X170011904Y-102856247D02*
X169964285Y-102761009D01*
X169964285Y-102761009D02*
X169916666Y-102713390D01*
X169916666Y-102713390D02*
X169821428Y-102665771D01*
X169821428Y-102665771D02*
X169630952Y-102665771D01*
X169630952Y-102665771D02*
X169535714Y-102713390D01*
X169535714Y-102713390D02*
X169488095Y-102761009D01*
X169488095Y-102761009D02*
X169440476Y-102856247D01*
X133967319Y-116991921D02*
X133491128Y-117325254D01*
X133967319Y-117563349D02*
X132967319Y-117563349D01*
X132967319Y-117563349D02*
X132967319Y-117182397D01*
X132967319Y-117182397D02*
X133014938Y-117087159D01*
X133014938Y-117087159D02*
X133062557Y-117039540D01*
X133062557Y-117039540D02*
X133157795Y-116991921D01*
X133157795Y-116991921D02*
X133300652Y-116991921D01*
X133300652Y-116991921D02*
X133395890Y-117039540D01*
X133395890Y-117039540D02*
X133443509Y-117087159D01*
X133443509Y-117087159D02*
X133491128Y-117182397D01*
X133491128Y-117182397D02*
X133491128Y-117563349D01*
X133967319Y-116515730D02*
X133967319Y-116325254D01*
X133967319Y-116325254D02*
X133919700Y-116230016D01*
X133919700Y-116230016D02*
X133872080Y-116182397D01*
X133872080Y-116182397D02*
X133729223Y-116087159D01*
X133729223Y-116087159D02*
X133538747Y-116039540D01*
X133538747Y-116039540D02*
X133157795Y-116039540D01*
X133157795Y-116039540D02*
X133062557Y-116087159D01*
X133062557Y-116087159D02*
X133014938Y-116134778D01*
X133014938Y-116134778D02*
X132967319Y-116230016D01*
X132967319Y-116230016D02*
X132967319Y-116420492D01*
X132967319Y-116420492D02*
X133014938Y-116515730D01*
X133014938Y-116515730D02*
X133062557Y-116563349D01*
X133062557Y-116563349D02*
X133157795Y-116610968D01*
X133157795Y-116610968D02*
X133395890Y-116610968D01*
X133395890Y-116610968D02*
X133491128Y-116563349D01*
X133491128Y-116563349D02*
X133538747Y-116515730D01*
X133538747Y-116515730D02*
X133586366Y-116420492D01*
X133586366Y-116420492D02*
X133586366Y-116230016D01*
X133586366Y-116230016D02*
X133538747Y-116134778D01*
X133538747Y-116134778D02*
X133491128Y-116087159D01*
X133491128Y-116087159D02*
X133395890Y-116039540D01*
X123257261Y-94190312D02*
X123162023Y-94142693D01*
X123162023Y-94142693D02*
X123066785Y-94047455D01*
X123066785Y-94047455D02*
X122923928Y-93904597D01*
X122923928Y-93904597D02*
X122828690Y-93856978D01*
X122828690Y-93856978D02*
X122733452Y-93856978D01*
X122781071Y-94095074D02*
X122685833Y-94047455D01*
X122685833Y-94047455D02*
X122590595Y-93952216D01*
X122590595Y-93952216D02*
X122542976Y-93761740D01*
X122542976Y-93761740D02*
X122542976Y-93428407D01*
X122542976Y-93428407D02*
X122590595Y-93237931D01*
X122590595Y-93237931D02*
X122685833Y-93142693D01*
X122685833Y-93142693D02*
X122781071Y-93095074D01*
X122781071Y-93095074D02*
X122971547Y-93095074D01*
X122971547Y-93095074D02*
X123066785Y-93142693D01*
X123066785Y-93142693D02*
X123162023Y-93237931D01*
X123162023Y-93237931D02*
X123209642Y-93428407D01*
X123209642Y-93428407D02*
X123209642Y-93761740D01*
X123209642Y-93761740D02*
X123162023Y-93952216D01*
X123162023Y-93952216D02*
X123066785Y-94047455D01*
X123066785Y-94047455D02*
X122971547Y-94095074D01*
X122971547Y-94095074D02*
X122781071Y-94095074D01*
X124162023Y-94095074D02*
X123590595Y-94095074D01*
X123876309Y-94095074D02*
X123876309Y-93095074D01*
X123876309Y-93095074D02*
X123781071Y-93237931D01*
X123781071Y-93237931D02*
X123685833Y-93333169D01*
X123685833Y-93333169D02*
X123590595Y-93380788D01*
X170807142Y-74114819D02*
X170473809Y-73638628D01*
X170235714Y-74114819D02*
X170235714Y-73114819D01*
X170235714Y-73114819D02*
X170616666Y-73114819D01*
X170616666Y-73114819D02*
X170711904Y-73162438D01*
X170711904Y-73162438D02*
X170759523Y-73210057D01*
X170759523Y-73210057D02*
X170807142Y-73305295D01*
X170807142Y-73305295D02*
X170807142Y-73448152D01*
X170807142Y-73448152D02*
X170759523Y-73543390D01*
X170759523Y-73543390D02*
X170711904Y-73591009D01*
X170711904Y-73591009D02*
X170616666Y-73638628D01*
X170616666Y-73638628D02*
X170235714Y-73638628D01*
X171759523Y-74114819D02*
X171188095Y-74114819D01*
X171473809Y-74114819D02*
X171473809Y-73114819D01*
X171473809Y-73114819D02*
X171378571Y-73257676D01*
X171378571Y-73257676D02*
X171283333Y-73352914D01*
X171283333Y-73352914D02*
X171188095Y-73400533D01*
X172616666Y-73448152D02*
X172616666Y-74114819D01*
X172378571Y-73067200D02*
X172140476Y-73781485D01*
X172140476Y-73781485D02*
X172759523Y-73781485D01*
X148334819Y-151463333D02*
X149049104Y-151463333D01*
X149049104Y-151463333D02*
X149191961Y-151510952D01*
X149191961Y-151510952D02*
X149287200Y-151606190D01*
X149287200Y-151606190D02*
X149334819Y-151749047D01*
X149334819Y-151749047D02*
X149334819Y-151844285D01*
X148668152Y-150558571D02*
X149334819Y-150558571D01*
X148287200Y-150796666D02*
X149001485Y-151034761D01*
X149001485Y-151034761D02*
X149001485Y-150415714D01*
X133967319Y-131428112D02*
X133491128Y-131761445D01*
X133967319Y-131999540D02*
X132967319Y-131999540D01*
X132967319Y-131999540D02*
X132967319Y-131618588D01*
X132967319Y-131618588D02*
X133014938Y-131523350D01*
X133014938Y-131523350D02*
X133062557Y-131475731D01*
X133062557Y-131475731D02*
X133157795Y-131428112D01*
X133157795Y-131428112D02*
X133300652Y-131428112D01*
X133300652Y-131428112D02*
X133395890Y-131475731D01*
X133395890Y-131475731D02*
X133443509Y-131523350D01*
X133443509Y-131523350D02*
X133491128Y-131618588D01*
X133491128Y-131618588D02*
X133491128Y-131999540D01*
X133967319Y-130475731D02*
X133967319Y-131047159D01*
X133967319Y-130761445D02*
X132967319Y-130761445D01*
X132967319Y-130761445D02*
X133110176Y-130856683D01*
X133110176Y-130856683D02*
X133205414Y-130951921D01*
X133205414Y-130951921D02*
X133253033Y-131047159D01*
X133062557Y-130094778D02*
X133014938Y-130047159D01*
X133014938Y-130047159D02*
X132967319Y-129951921D01*
X132967319Y-129951921D02*
X132967319Y-129713826D01*
X132967319Y-129713826D02*
X133014938Y-129618588D01*
X133014938Y-129618588D02*
X133062557Y-129570969D01*
X133062557Y-129570969D02*
X133157795Y-129523350D01*
X133157795Y-129523350D02*
X133253033Y-129523350D01*
X133253033Y-129523350D02*
X133395890Y-129570969D01*
X133395890Y-129570969D02*
X133967319Y-130142397D01*
X133967319Y-130142397D02*
X133967319Y-129523350D01*
X132075833Y-74100074D02*
X131742500Y-73623883D01*
X131504405Y-74100074D02*
X131504405Y-73100074D01*
X131504405Y-73100074D02*
X131885357Y-73100074D01*
X131885357Y-73100074D02*
X131980595Y-73147693D01*
X131980595Y-73147693D02*
X132028214Y-73195312D01*
X132028214Y-73195312D02*
X132075833Y-73290550D01*
X132075833Y-73290550D02*
X132075833Y-73433407D01*
X132075833Y-73433407D02*
X132028214Y-73528645D01*
X132028214Y-73528645D02*
X131980595Y-73576264D01*
X131980595Y-73576264D02*
X131885357Y-73623883D01*
X131885357Y-73623883D02*
X131504405Y-73623883D01*
X132456786Y-73195312D02*
X132504405Y-73147693D01*
X132504405Y-73147693D02*
X132599643Y-73100074D01*
X132599643Y-73100074D02*
X132837738Y-73100074D01*
X132837738Y-73100074D02*
X132932976Y-73147693D01*
X132932976Y-73147693D02*
X132980595Y-73195312D01*
X132980595Y-73195312D02*
X133028214Y-73290550D01*
X133028214Y-73290550D02*
X133028214Y-73385788D01*
X133028214Y-73385788D02*
X132980595Y-73528645D01*
X132980595Y-73528645D02*
X132409167Y-74100074D01*
X132409167Y-74100074D02*
X133028214Y-74100074D01*
X126955833Y-107014835D02*
X126908214Y-107062455D01*
X126908214Y-107062455D02*
X126765357Y-107110074D01*
X126765357Y-107110074D02*
X126670119Y-107110074D01*
X126670119Y-107110074D02*
X126527262Y-107062455D01*
X126527262Y-107062455D02*
X126432024Y-106967216D01*
X126432024Y-106967216D02*
X126384405Y-106871978D01*
X126384405Y-106871978D02*
X126336786Y-106681502D01*
X126336786Y-106681502D02*
X126336786Y-106538645D01*
X126336786Y-106538645D02*
X126384405Y-106348169D01*
X126384405Y-106348169D02*
X126432024Y-106252931D01*
X126432024Y-106252931D02*
X126527262Y-106157693D01*
X126527262Y-106157693D02*
X126670119Y-106110074D01*
X126670119Y-106110074D02*
X126765357Y-106110074D01*
X126765357Y-106110074D02*
X126908214Y-106157693D01*
X126908214Y-106157693D02*
X126955833Y-106205312D01*
X127860595Y-106110074D02*
X127384405Y-106110074D01*
X127384405Y-106110074D02*
X127336786Y-106586264D01*
X127336786Y-106586264D02*
X127384405Y-106538645D01*
X127384405Y-106538645D02*
X127479643Y-106491026D01*
X127479643Y-106491026D02*
X127717738Y-106491026D01*
X127717738Y-106491026D02*
X127812976Y-106538645D01*
X127812976Y-106538645D02*
X127860595Y-106586264D01*
X127860595Y-106586264D02*
X127908214Y-106681502D01*
X127908214Y-106681502D02*
X127908214Y-106919597D01*
X127908214Y-106919597D02*
X127860595Y-107014835D01*
X127860595Y-107014835D02*
X127812976Y-107062455D01*
X127812976Y-107062455D02*
X127717738Y-107110074D01*
X127717738Y-107110074D02*
X127479643Y-107110074D01*
X127479643Y-107110074D02*
X127384405Y-107062455D01*
X127384405Y-107062455D02*
X127336786Y-107014835D01*
X173054819Y-131412857D02*
X172578628Y-131746190D01*
X173054819Y-131984285D02*
X172054819Y-131984285D01*
X172054819Y-131984285D02*
X172054819Y-131603333D01*
X172054819Y-131603333D02*
X172102438Y-131508095D01*
X172102438Y-131508095D02*
X172150057Y-131460476D01*
X172150057Y-131460476D02*
X172245295Y-131412857D01*
X172245295Y-131412857D02*
X172388152Y-131412857D01*
X172388152Y-131412857D02*
X172483390Y-131460476D01*
X172483390Y-131460476D02*
X172531009Y-131508095D01*
X172531009Y-131508095D02*
X172578628Y-131603333D01*
X172578628Y-131603333D02*
X172578628Y-131984285D01*
X172150057Y-131031904D02*
X172102438Y-130984285D01*
X172102438Y-130984285D02*
X172054819Y-130889047D01*
X172054819Y-130889047D02*
X172054819Y-130650952D01*
X172054819Y-130650952D02*
X172102438Y-130555714D01*
X172102438Y-130555714D02*
X172150057Y-130508095D01*
X172150057Y-130508095D02*
X172245295Y-130460476D01*
X172245295Y-130460476D02*
X172340533Y-130460476D01*
X172340533Y-130460476D02*
X172483390Y-130508095D01*
X172483390Y-130508095D02*
X173054819Y-131079523D01*
X173054819Y-131079523D02*
X173054819Y-130460476D01*
X172388152Y-129603333D02*
X173054819Y-129603333D01*
X172007200Y-129841428D02*
X172721485Y-130079523D01*
X172721485Y-130079523D02*
X172721485Y-129460476D01*
X159257142Y-127584819D02*
X158923809Y-127108628D01*
X158685714Y-127584819D02*
X158685714Y-126584819D01*
X158685714Y-126584819D02*
X159066666Y-126584819D01*
X159066666Y-126584819D02*
X159161904Y-126632438D01*
X159161904Y-126632438D02*
X159209523Y-126680057D01*
X159209523Y-126680057D02*
X159257142Y-126775295D01*
X159257142Y-126775295D02*
X159257142Y-126918152D01*
X159257142Y-126918152D02*
X159209523Y-127013390D01*
X159209523Y-127013390D02*
X159161904Y-127061009D01*
X159161904Y-127061009D02*
X159066666Y-127108628D01*
X159066666Y-127108628D02*
X158685714Y-127108628D01*
X159638095Y-126680057D02*
X159685714Y-126632438D01*
X159685714Y-126632438D02*
X159780952Y-126584819D01*
X159780952Y-126584819D02*
X160019047Y-126584819D01*
X160019047Y-126584819D02*
X160114285Y-126632438D01*
X160114285Y-126632438D02*
X160161904Y-126680057D01*
X160161904Y-126680057D02*
X160209523Y-126775295D01*
X160209523Y-126775295D02*
X160209523Y-126870533D01*
X160209523Y-126870533D02*
X160161904Y-127013390D01*
X160161904Y-127013390D02*
X159590476Y-127584819D01*
X159590476Y-127584819D02*
X160209523Y-127584819D01*
X160828571Y-126584819D02*
X160923809Y-126584819D01*
X160923809Y-126584819D02*
X161019047Y-126632438D01*
X161019047Y-126632438D02*
X161066666Y-126680057D01*
X161066666Y-126680057D02*
X161114285Y-126775295D01*
X161114285Y-126775295D02*
X161161904Y-126965771D01*
X161161904Y-126965771D02*
X161161904Y-127203866D01*
X161161904Y-127203866D02*
X161114285Y-127394342D01*
X161114285Y-127394342D02*
X161066666Y-127489580D01*
X161066666Y-127489580D02*
X161019047Y-127537200D01*
X161019047Y-127537200D02*
X160923809Y-127584819D01*
X160923809Y-127584819D02*
X160828571Y-127584819D01*
X160828571Y-127584819D02*
X160733333Y-127537200D01*
X160733333Y-127537200D02*
X160685714Y-127489580D01*
X160685714Y-127489580D02*
X160638095Y-127394342D01*
X160638095Y-127394342D02*
X160590476Y-127203866D01*
X160590476Y-127203866D02*
X160590476Y-126965771D01*
X160590476Y-126965771D02*
X160638095Y-126775295D01*
X160638095Y-126775295D02*
X160685714Y-126680057D01*
X160685714Y-126680057D02*
X160733333Y-126632438D01*
X160733333Y-126632438D02*
X160828571Y-126584819D01*
X166974819Y-116291904D02*
X167784342Y-116291904D01*
X167784342Y-116291904D02*
X167879580Y-116244285D01*
X167879580Y-116244285D02*
X167927200Y-116196666D01*
X167927200Y-116196666D02*
X167974819Y-116101428D01*
X167974819Y-116101428D02*
X167974819Y-115910952D01*
X167974819Y-115910952D02*
X167927200Y-115815714D01*
X167927200Y-115815714D02*
X167879580Y-115768095D01*
X167879580Y-115768095D02*
X167784342Y-115720476D01*
X167784342Y-115720476D02*
X166974819Y-115720476D01*
X167070057Y-115291904D02*
X167022438Y-115244285D01*
X167022438Y-115244285D02*
X166974819Y-115149047D01*
X166974819Y-115149047D02*
X166974819Y-114910952D01*
X166974819Y-114910952D02*
X167022438Y-114815714D01*
X167022438Y-114815714D02*
X167070057Y-114768095D01*
X167070057Y-114768095D02*
X167165295Y-114720476D01*
X167165295Y-114720476D02*
X167260533Y-114720476D01*
X167260533Y-114720476D02*
X167403390Y-114768095D01*
X167403390Y-114768095D02*
X167974819Y-115339523D01*
X167974819Y-115339523D02*
X167974819Y-114720476D01*
X107297319Y-131428112D02*
X106821128Y-131761445D01*
X107297319Y-131999540D02*
X106297319Y-131999540D01*
X106297319Y-131999540D02*
X106297319Y-131618588D01*
X106297319Y-131618588D02*
X106344938Y-131523350D01*
X106344938Y-131523350D02*
X106392557Y-131475731D01*
X106392557Y-131475731D02*
X106487795Y-131428112D01*
X106487795Y-131428112D02*
X106630652Y-131428112D01*
X106630652Y-131428112D02*
X106725890Y-131475731D01*
X106725890Y-131475731D02*
X106773509Y-131523350D01*
X106773509Y-131523350D02*
X106821128Y-131618588D01*
X106821128Y-131618588D02*
X106821128Y-131999540D01*
X107297319Y-130475731D02*
X107297319Y-131047159D01*
X107297319Y-130761445D02*
X106297319Y-130761445D01*
X106297319Y-130761445D02*
X106440176Y-130856683D01*
X106440176Y-130856683D02*
X106535414Y-130951921D01*
X106535414Y-130951921D02*
X106583033Y-131047159D01*
X106297319Y-129856683D02*
X106297319Y-129761445D01*
X106297319Y-129761445D02*
X106344938Y-129666207D01*
X106344938Y-129666207D02*
X106392557Y-129618588D01*
X106392557Y-129618588D02*
X106487795Y-129570969D01*
X106487795Y-129570969D02*
X106678271Y-129523350D01*
X106678271Y-129523350D02*
X106916366Y-129523350D01*
X106916366Y-129523350D02*
X107106842Y-129570969D01*
X107106842Y-129570969D02*
X107202080Y-129618588D01*
X107202080Y-129618588D02*
X107249700Y-129666207D01*
X107249700Y-129666207D02*
X107297319Y-129761445D01*
X107297319Y-129761445D02*
X107297319Y-129856683D01*
X107297319Y-129856683D02*
X107249700Y-129951921D01*
X107249700Y-129951921D02*
X107202080Y-129999540D01*
X107202080Y-129999540D02*
X107106842Y-130047159D01*
X107106842Y-130047159D02*
X106916366Y-130094778D01*
X106916366Y-130094778D02*
X106678271Y-130094778D01*
X106678271Y-130094778D02*
X106487795Y-130047159D01*
X106487795Y-130047159D02*
X106392557Y-129999540D01*
X106392557Y-129999540D02*
X106344938Y-129951921D01*
X106344938Y-129951921D02*
X106297319Y-129856683D01*
X124759580Y-142676666D02*
X124807200Y-142724285D01*
X124807200Y-142724285D02*
X124854819Y-142867142D01*
X124854819Y-142867142D02*
X124854819Y-142962380D01*
X124854819Y-142962380D02*
X124807200Y-143105237D01*
X124807200Y-143105237D02*
X124711961Y-143200475D01*
X124711961Y-143200475D02*
X124616723Y-143248094D01*
X124616723Y-143248094D02*
X124426247Y-143295713D01*
X124426247Y-143295713D02*
X124283390Y-143295713D01*
X124283390Y-143295713D02*
X124092914Y-143248094D01*
X124092914Y-143248094D02*
X123997676Y-143200475D01*
X123997676Y-143200475D02*
X123902438Y-143105237D01*
X123902438Y-143105237D02*
X123854819Y-142962380D01*
X123854819Y-142962380D02*
X123854819Y-142867142D01*
X123854819Y-142867142D02*
X123902438Y-142724285D01*
X123902438Y-142724285D02*
X123950057Y-142676666D01*
X123854819Y-141819523D02*
X123854819Y-142009999D01*
X123854819Y-142009999D02*
X123902438Y-142105237D01*
X123902438Y-142105237D02*
X123950057Y-142152856D01*
X123950057Y-142152856D02*
X124092914Y-142248094D01*
X124092914Y-142248094D02*
X124283390Y-142295713D01*
X124283390Y-142295713D02*
X124664342Y-142295713D01*
X124664342Y-142295713D02*
X124759580Y-142248094D01*
X124759580Y-142248094D02*
X124807200Y-142200475D01*
X124807200Y-142200475D02*
X124854819Y-142105237D01*
X124854819Y-142105237D02*
X124854819Y-141914761D01*
X124854819Y-141914761D02*
X124807200Y-141819523D01*
X124807200Y-141819523D02*
X124759580Y-141771904D01*
X124759580Y-141771904D02*
X124664342Y-141724285D01*
X124664342Y-141724285D02*
X124426247Y-141724285D01*
X124426247Y-141724285D02*
X124331009Y-141771904D01*
X124331009Y-141771904D02*
X124283390Y-141819523D01*
X124283390Y-141819523D02*
X124235771Y-141914761D01*
X124235771Y-141914761D02*
X124235771Y-142105237D01*
X124235771Y-142105237D02*
X124283390Y-142200475D01*
X124283390Y-142200475D02*
X124331009Y-142248094D01*
X124331009Y-142248094D02*
X124426247Y-142295713D01*
X173054819Y-117452857D02*
X172578628Y-117786190D01*
X173054819Y-118024285D02*
X172054819Y-118024285D01*
X172054819Y-118024285D02*
X172054819Y-117643333D01*
X172054819Y-117643333D02*
X172102438Y-117548095D01*
X172102438Y-117548095D02*
X172150057Y-117500476D01*
X172150057Y-117500476D02*
X172245295Y-117452857D01*
X172245295Y-117452857D02*
X172388152Y-117452857D01*
X172388152Y-117452857D02*
X172483390Y-117500476D01*
X172483390Y-117500476D02*
X172531009Y-117548095D01*
X172531009Y-117548095D02*
X172578628Y-117643333D01*
X172578628Y-117643333D02*
X172578628Y-118024285D01*
X172150057Y-117071904D02*
X172102438Y-117024285D01*
X172102438Y-117024285D02*
X172054819Y-116929047D01*
X172054819Y-116929047D02*
X172054819Y-116690952D01*
X172054819Y-116690952D02*
X172102438Y-116595714D01*
X172102438Y-116595714D02*
X172150057Y-116548095D01*
X172150057Y-116548095D02*
X172245295Y-116500476D01*
X172245295Y-116500476D02*
X172340533Y-116500476D01*
X172340533Y-116500476D02*
X172483390Y-116548095D01*
X172483390Y-116548095D02*
X173054819Y-117119523D01*
X173054819Y-117119523D02*
X173054819Y-116500476D01*
X173054819Y-115548095D02*
X173054819Y-116119523D01*
X173054819Y-115833809D02*
X172054819Y-115833809D01*
X172054819Y-115833809D02*
X172197676Y-115929047D01*
X172197676Y-115929047D02*
X172292914Y-116024285D01*
X172292914Y-116024285D02*
X172340533Y-116119523D01*
X129495833Y-99490074D02*
X129162500Y-99013883D01*
X128924405Y-99490074D02*
X128924405Y-98490074D01*
X128924405Y-98490074D02*
X129305357Y-98490074D01*
X129305357Y-98490074D02*
X129400595Y-98537693D01*
X129400595Y-98537693D02*
X129448214Y-98585312D01*
X129448214Y-98585312D02*
X129495833Y-98680550D01*
X129495833Y-98680550D02*
X129495833Y-98823407D01*
X129495833Y-98823407D02*
X129448214Y-98918645D01*
X129448214Y-98918645D02*
X129400595Y-98966264D01*
X129400595Y-98966264D02*
X129305357Y-99013883D01*
X129305357Y-99013883D02*
X128924405Y-99013883D01*
X129829167Y-98490074D02*
X130448214Y-98490074D01*
X130448214Y-98490074D02*
X130114881Y-98871026D01*
X130114881Y-98871026D02*
X130257738Y-98871026D01*
X130257738Y-98871026D02*
X130352976Y-98918645D01*
X130352976Y-98918645D02*
X130400595Y-98966264D01*
X130400595Y-98966264D02*
X130448214Y-99061502D01*
X130448214Y-99061502D02*
X130448214Y-99299597D01*
X130448214Y-99299597D02*
X130400595Y-99394835D01*
X130400595Y-99394835D02*
X130352976Y-99442455D01*
X130352976Y-99442455D02*
X130257738Y-99490074D01*
X130257738Y-99490074D02*
X129972024Y-99490074D01*
X129972024Y-99490074D02*
X129876786Y-99442455D01*
X129876786Y-99442455D02*
X129829167Y-99394835D01*
X168107142Y-99337574D02*
X167773809Y-98861383D01*
X167535714Y-99337574D02*
X167535714Y-98337574D01*
X167535714Y-98337574D02*
X167916666Y-98337574D01*
X167916666Y-98337574D02*
X168011904Y-98385193D01*
X168011904Y-98385193D02*
X168059523Y-98432812D01*
X168059523Y-98432812D02*
X168107142Y-98528050D01*
X168107142Y-98528050D02*
X168107142Y-98670907D01*
X168107142Y-98670907D02*
X168059523Y-98766145D01*
X168059523Y-98766145D02*
X168011904Y-98813764D01*
X168011904Y-98813764D02*
X167916666Y-98861383D01*
X167916666Y-98861383D02*
X167535714Y-98861383D01*
X169059523Y-99337574D02*
X168488095Y-99337574D01*
X168773809Y-99337574D02*
X168773809Y-98337574D01*
X168773809Y-98337574D02*
X168678571Y-98480431D01*
X168678571Y-98480431D02*
X168583333Y-98575669D01*
X168583333Y-98575669D02*
X168488095Y-98623288D01*
X169964285Y-98337574D02*
X169488095Y-98337574D01*
X169488095Y-98337574D02*
X169440476Y-98813764D01*
X169440476Y-98813764D02*
X169488095Y-98766145D01*
X169488095Y-98766145D02*
X169583333Y-98718526D01*
X169583333Y-98718526D02*
X169821428Y-98718526D01*
X169821428Y-98718526D02*
X169916666Y-98766145D01*
X169916666Y-98766145D02*
X169964285Y-98813764D01*
X169964285Y-98813764D02*
X170011904Y-98909002D01*
X170011904Y-98909002D02*
X170011904Y-99147097D01*
X170011904Y-99147097D02*
X169964285Y-99242335D01*
X169964285Y-99242335D02*
X169916666Y-99289955D01*
X169916666Y-99289955D02*
X169821428Y-99337574D01*
X169821428Y-99337574D02*
X169583333Y-99337574D01*
X169583333Y-99337574D02*
X169488095Y-99289955D01*
X169488095Y-99289955D02*
X169440476Y-99242335D01*
X127887319Y-116307159D02*
X128696842Y-116307159D01*
X128696842Y-116307159D02*
X128792080Y-116259540D01*
X128792080Y-116259540D02*
X128839700Y-116211921D01*
X128839700Y-116211921D02*
X128887319Y-116116683D01*
X128887319Y-116116683D02*
X128887319Y-115926207D01*
X128887319Y-115926207D02*
X128839700Y-115830969D01*
X128839700Y-115830969D02*
X128792080Y-115783350D01*
X128792080Y-115783350D02*
X128696842Y-115735731D01*
X128696842Y-115735731D02*
X127887319Y-115735731D01*
X128887319Y-114735731D02*
X128887319Y-115307159D01*
X128887319Y-115021445D02*
X127887319Y-115021445D01*
X127887319Y-115021445D02*
X128030176Y-115116683D01*
X128030176Y-115116683D02*
X128125414Y-115211921D01*
X128125414Y-115211921D02*
X128173033Y-115307159D01*
X163067142Y-122279580D02*
X163019523Y-122327200D01*
X163019523Y-122327200D02*
X162876666Y-122374819D01*
X162876666Y-122374819D02*
X162781428Y-122374819D01*
X162781428Y-122374819D02*
X162638571Y-122327200D01*
X162638571Y-122327200D02*
X162543333Y-122231961D01*
X162543333Y-122231961D02*
X162495714Y-122136723D01*
X162495714Y-122136723D02*
X162448095Y-121946247D01*
X162448095Y-121946247D02*
X162448095Y-121803390D01*
X162448095Y-121803390D02*
X162495714Y-121612914D01*
X162495714Y-121612914D02*
X162543333Y-121517676D01*
X162543333Y-121517676D02*
X162638571Y-121422438D01*
X162638571Y-121422438D02*
X162781428Y-121374819D01*
X162781428Y-121374819D02*
X162876666Y-121374819D01*
X162876666Y-121374819D02*
X163019523Y-121422438D01*
X163019523Y-121422438D02*
X163067142Y-121470057D01*
X164019523Y-122374819D02*
X163448095Y-122374819D01*
X163733809Y-122374819D02*
X163733809Y-121374819D01*
X163733809Y-121374819D02*
X163638571Y-121517676D01*
X163638571Y-121517676D02*
X163543333Y-121612914D01*
X163543333Y-121612914D02*
X163448095Y-121660533D01*
X164352857Y-121374819D02*
X164971904Y-121374819D01*
X164971904Y-121374819D02*
X164638571Y-121755771D01*
X164638571Y-121755771D02*
X164781428Y-121755771D01*
X164781428Y-121755771D02*
X164876666Y-121803390D01*
X164876666Y-121803390D02*
X164924285Y-121851009D01*
X164924285Y-121851009D02*
X164971904Y-121946247D01*
X164971904Y-121946247D02*
X164971904Y-122184342D01*
X164971904Y-122184342D02*
X164924285Y-122279580D01*
X164924285Y-122279580D02*
X164876666Y-122327200D01*
X164876666Y-122327200D02*
X164781428Y-122374819D01*
X164781428Y-122374819D02*
X164495714Y-122374819D01*
X164495714Y-122374819D02*
X164400476Y-122327200D01*
X164400476Y-122327200D02*
X164352857Y-122279580D01*
X132147261Y-97055312D02*
X132052023Y-97007693D01*
X132052023Y-97007693D02*
X131956785Y-96912455D01*
X131956785Y-96912455D02*
X131813928Y-96769597D01*
X131813928Y-96769597D02*
X131718690Y-96721978D01*
X131718690Y-96721978D02*
X131623452Y-96721978D01*
X131671071Y-96960074D02*
X131575833Y-96912455D01*
X131575833Y-96912455D02*
X131480595Y-96817216D01*
X131480595Y-96817216D02*
X131432976Y-96626740D01*
X131432976Y-96626740D02*
X131432976Y-96293407D01*
X131432976Y-96293407D02*
X131480595Y-96102931D01*
X131480595Y-96102931D02*
X131575833Y-96007693D01*
X131575833Y-96007693D02*
X131671071Y-95960074D01*
X131671071Y-95960074D02*
X131861547Y-95960074D01*
X131861547Y-95960074D02*
X131956785Y-96007693D01*
X131956785Y-96007693D02*
X132052023Y-96102931D01*
X132052023Y-96102931D02*
X132099642Y-96293407D01*
X132099642Y-96293407D02*
X132099642Y-96626740D01*
X132099642Y-96626740D02*
X132052023Y-96817216D01*
X132052023Y-96817216D02*
X131956785Y-96912455D01*
X131956785Y-96912455D02*
X131861547Y-96960074D01*
X131861547Y-96960074D02*
X131671071Y-96960074D01*
X132480595Y-96055312D02*
X132528214Y-96007693D01*
X132528214Y-96007693D02*
X132623452Y-95960074D01*
X132623452Y-95960074D02*
X132861547Y-95960074D01*
X132861547Y-95960074D02*
X132956785Y-96007693D01*
X132956785Y-96007693D02*
X133004404Y-96055312D01*
X133004404Y-96055312D02*
X133052023Y-96150550D01*
X133052023Y-96150550D02*
X133052023Y-96245788D01*
X133052023Y-96245788D02*
X133004404Y-96388645D01*
X133004404Y-96388645D02*
X132432976Y-96960074D01*
X132432976Y-96960074D02*
X133052023Y-96960074D01*
X153669580Y-65969421D02*
X153717200Y-66017040D01*
X153717200Y-66017040D02*
X153764819Y-66159897D01*
X153764819Y-66159897D02*
X153764819Y-66255135D01*
X153764819Y-66255135D02*
X153717200Y-66397992D01*
X153717200Y-66397992D02*
X153621961Y-66493230D01*
X153621961Y-66493230D02*
X153526723Y-66540849D01*
X153526723Y-66540849D02*
X153336247Y-66588468D01*
X153336247Y-66588468D02*
X153193390Y-66588468D01*
X153193390Y-66588468D02*
X153002914Y-66540849D01*
X153002914Y-66540849D02*
X152907676Y-66493230D01*
X152907676Y-66493230D02*
X152812438Y-66397992D01*
X152812438Y-66397992D02*
X152764819Y-66255135D01*
X152764819Y-66255135D02*
X152764819Y-66159897D01*
X152764819Y-66159897D02*
X152812438Y-66017040D01*
X152812438Y-66017040D02*
X152860057Y-65969421D01*
X153764819Y-65493230D02*
X153764819Y-65302754D01*
X153764819Y-65302754D02*
X153717200Y-65207516D01*
X153717200Y-65207516D02*
X153669580Y-65159897D01*
X153669580Y-65159897D02*
X153526723Y-65064659D01*
X153526723Y-65064659D02*
X153336247Y-65017040D01*
X153336247Y-65017040D02*
X152955295Y-65017040D01*
X152955295Y-65017040D02*
X152860057Y-65064659D01*
X152860057Y-65064659D02*
X152812438Y-65112278D01*
X152812438Y-65112278D02*
X152764819Y-65207516D01*
X152764819Y-65207516D02*
X152764819Y-65397992D01*
X152764819Y-65397992D02*
X152812438Y-65493230D01*
X152812438Y-65493230D02*
X152860057Y-65540849D01*
X152860057Y-65540849D02*
X152955295Y-65588468D01*
X152955295Y-65588468D02*
X153193390Y-65588468D01*
X153193390Y-65588468D02*
X153288628Y-65540849D01*
X153288628Y-65540849D02*
X153336247Y-65493230D01*
X153336247Y-65493230D02*
X153383866Y-65397992D01*
X153383866Y-65397992D02*
X153383866Y-65207516D01*
X153383866Y-65207516D02*
X153336247Y-65112278D01*
X153336247Y-65112278D02*
X153288628Y-65064659D01*
X153288628Y-65064659D02*
X153193390Y-65017040D01*
X124455833Y-122294835D02*
X124408214Y-122342455D01*
X124408214Y-122342455D02*
X124265357Y-122390074D01*
X124265357Y-122390074D02*
X124170119Y-122390074D01*
X124170119Y-122390074D02*
X124027262Y-122342455D01*
X124027262Y-122342455D02*
X123932024Y-122247216D01*
X123932024Y-122247216D02*
X123884405Y-122151978D01*
X123884405Y-122151978D02*
X123836786Y-121961502D01*
X123836786Y-121961502D02*
X123836786Y-121818645D01*
X123836786Y-121818645D02*
X123884405Y-121628169D01*
X123884405Y-121628169D02*
X123932024Y-121532931D01*
X123932024Y-121532931D02*
X124027262Y-121437693D01*
X124027262Y-121437693D02*
X124170119Y-121390074D01*
X124170119Y-121390074D02*
X124265357Y-121390074D01*
X124265357Y-121390074D02*
X124408214Y-121437693D01*
X124408214Y-121437693D02*
X124455833Y-121485312D01*
X125027262Y-121818645D02*
X124932024Y-121771026D01*
X124932024Y-121771026D02*
X124884405Y-121723407D01*
X124884405Y-121723407D02*
X124836786Y-121628169D01*
X124836786Y-121628169D02*
X124836786Y-121580550D01*
X124836786Y-121580550D02*
X124884405Y-121485312D01*
X124884405Y-121485312D02*
X124932024Y-121437693D01*
X124932024Y-121437693D02*
X125027262Y-121390074D01*
X125027262Y-121390074D02*
X125217738Y-121390074D01*
X125217738Y-121390074D02*
X125312976Y-121437693D01*
X125312976Y-121437693D02*
X125360595Y-121485312D01*
X125360595Y-121485312D02*
X125408214Y-121580550D01*
X125408214Y-121580550D02*
X125408214Y-121628169D01*
X125408214Y-121628169D02*
X125360595Y-121723407D01*
X125360595Y-121723407D02*
X125312976Y-121771026D01*
X125312976Y-121771026D02*
X125217738Y-121818645D01*
X125217738Y-121818645D02*
X125027262Y-121818645D01*
X125027262Y-121818645D02*
X124932024Y-121866264D01*
X124932024Y-121866264D02*
X124884405Y-121913883D01*
X124884405Y-121913883D02*
X124836786Y-122009121D01*
X124836786Y-122009121D02*
X124836786Y-122199597D01*
X124836786Y-122199597D02*
X124884405Y-122294835D01*
X124884405Y-122294835D02*
X124932024Y-122342455D01*
X124932024Y-122342455D02*
X125027262Y-122390074D01*
X125027262Y-122390074D02*
X125217738Y-122390074D01*
X125217738Y-122390074D02*
X125312976Y-122342455D01*
X125312976Y-122342455D02*
X125360595Y-122294835D01*
X125360595Y-122294835D02*
X125408214Y-122199597D01*
X125408214Y-122199597D02*
X125408214Y-122009121D01*
X125408214Y-122009121D02*
X125360595Y-121913883D01*
X125360595Y-121913883D02*
X125312976Y-121866264D01*
X125312976Y-121866264D02*
X125217738Y-121818645D01*
X151369580Y-115696666D02*
X151417200Y-115744285D01*
X151417200Y-115744285D02*
X151464819Y-115887142D01*
X151464819Y-115887142D02*
X151464819Y-115982380D01*
X151464819Y-115982380D02*
X151417200Y-116125237D01*
X151417200Y-116125237D02*
X151321961Y-116220475D01*
X151321961Y-116220475D02*
X151226723Y-116268094D01*
X151226723Y-116268094D02*
X151036247Y-116315713D01*
X151036247Y-116315713D02*
X150893390Y-116315713D01*
X150893390Y-116315713D02*
X150702914Y-116268094D01*
X150702914Y-116268094D02*
X150607676Y-116220475D01*
X150607676Y-116220475D02*
X150512438Y-116125237D01*
X150512438Y-116125237D02*
X150464819Y-115982380D01*
X150464819Y-115982380D02*
X150464819Y-115887142D01*
X150464819Y-115887142D02*
X150512438Y-115744285D01*
X150512438Y-115744285D02*
X150560057Y-115696666D01*
X150464819Y-115363332D02*
X150464819Y-114696666D01*
X150464819Y-114696666D02*
X151464819Y-115125237D01*
X114462080Y-65954676D02*
X114509700Y-66002295D01*
X114509700Y-66002295D02*
X114557319Y-66145152D01*
X114557319Y-66145152D02*
X114557319Y-66240390D01*
X114557319Y-66240390D02*
X114509700Y-66383247D01*
X114509700Y-66383247D02*
X114414461Y-66478485D01*
X114414461Y-66478485D02*
X114319223Y-66526104D01*
X114319223Y-66526104D02*
X114128747Y-66573723D01*
X114128747Y-66573723D02*
X113985890Y-66573723D01*
X113985890Y-66573723D02*
X113795414Y-66526104D01*
X113795414Y-66526104D02*
X113700176Y-66478485D01*
X113700176Y-66478485D02*
X113604938Y-66383247D01*
X113604938Y-66383247D02*
X113557319Y-66240390D01*
X113557319Y-66240390D02*
X113557319Y-66145152D01*
X113557319Y-66145152D02*
X113604938Y-66002295D01*
X113604938Y-66002295D02*
X113652557Y-65954676D01*
X113557319Y-65621342D02*
X113557319Y-65002295D01*
X113557319Y-65002295D02*
X113938271Y-65335628D01*
X113938271Y-65335628D02*
X113938271Y-65192771D01*
X113938271Y-65192771D02*
X113985890Y-65097533D01*
X113985890Y-65097533D02*
X114033509Y-65049914D01*
X114033509Y-65049914D02*
X114128747Y-65002295D01*
X114128747Y-65002295D02*
X114366842Y-65002295D01*
X114366842Y-65002295D02*
X114462080Y-65049914D01*
X114462080Y-65049914D02*
X114509700Y-65097533D01*
X114509700Y-65097533D02*
X114557319Y-65192771D01*
X114557319Y-65192771D02*
X114557319Y-65478485D01*
X114557319Y-65478485D02*
X114509700Y-65573723D01*
X114509700Y-65573723D02*
X114462080Y-65621342D01*
D14*
X173596905Y-99634318D02*
X174020238Y-100904318D01*
X174020238Y-100904318D02*
X174443572Y-99634318D01*
X175592619Y-100904318D02*
X175169285Y-100299556D01*
X174866904Y-100904318D02*
X174866904Y-99634318D01*
X174866904Y-99634318D02*
X175350714Y-99634318D01*
X175350714Y-99634318D02*
X175471666Y-99694794D01*
X175471666Y-99694794D02*
X175532143Y-99755270D01*
X175532143Y-99755270D02*
X175592619Y-99876222D01*
X175592619Y-99876222D02*
X175592619Y-100057651D01*
X175592619Y-100057651D02*
X175532143Y-100178603D01*
X175532143Y-100178603D02*
X175471666Y-100239080D01*
X175471666Y-100239080D02*
X175350714Y-100299556D01*
X175350714Y-100299556D02*
X174866904Y-100299556D01*
X176076428Y-99755270D02*
X176136904Y-99694794D01*
X176136904Y-99694794D02*
X176257857Y-99634318D01*
X176257857Y-99634318D02*
X176560238Y-99634318D01*
X176560238Y-99634318D02*
X176681190Y-99694794D01*
X176681190Y-99694794D02*
X176741666Y-99755270D01*
X176741666Y-99755270D02*
X176802143Y-99876222D01*
X176802143Y-99876222D02*
X176802143Y-99997175D01*
X176802143Y-99997175D02*
X176741666Y-100178603D01*
X176741666Y-100178603D02*
X176015952Y-100904318D01*
X176015952Y-100904318D02*
X176802143Y-100904318D01*
D11*
X116875833Y-122294835D02*
X116828214Y-122342455D01*
X116828214Y-122342455D02*
X116685357Y-122390074D01*
X116685357Y-122390074D02*
X116590119Y-122390074D01*
X116590119Y-122390074D02*
X116447262Y-122342455D01*
X116447262Y-122342455D02*
X116352024Y-122247216D01*
X116352024Y-122247216D02*
X116304405Y-122151978D01*
X116304405Y-122151978D02*
X116256786Y-121961502D01*
X116256786Y-121961502D02*
X116256786Y-121818645D01*
X116256786Y-121818645D02*
X116304405Y-121628169D01*
X116304405Y-121628169D02*
X116352024Y-121532931D01*
X116352024Y-121532931D02*
X116447262Y-121437693D01*
X116447262Y-121437693D02*
X116590119Y-121390074D01*
X116590119Y-121390074D02*
X116685357Y-121390074D01*
X116685357Y-121390074D02*
X116828214Y-121437693D01*
X116828214Y-121437693D02*
X116875833Y-121485312D01*
X117732976Y-121723407D02*
X117732976Y-122390074D01*
X117494881Y-121342455D02*
X117256786Y-122056740D01*
X117256786Y-122056740D02*
X117875833Y-122056740D01*
X145234819Y-103482857D02*
X144758628Y-103816190D01*
X145234819Y-104054285D02*
X144234819Y-104054285D01*
X144234819Y-104054285D02*
X144234819Y-103673333D01*
X144234819Y-103673333D02*
X144282438Y-103578095D01*
X144282438Y-103578095D02*
X144330057Y-103530476D01*
X144330057Y-103530476D02*
X144425295Y-103482857D01*
X144425295Y-103482857D02*
X144568152Y-103482857D01*
X144568152Y-103482857D02*
X144663390Y-103530476D01*
X144663390Y-103530476D02*
X144711009Y-103578095D01*
X144711009Y-103578095D02*
X144758628Y-103673333D01*
X144758628Y-103673333D02*
X144758628Y-104054285D01*
X145234819Y-102530476D02*
X145234819Y-103101904D01*
X145234819Y-102816190D02*
X144234819Y-102816190D01*
X144234819Y-102816190D02*
X144377676Y-102911428D01*
X144377676Y-102911428D02*
X144472914Y-103006666D01*
X144472914Y-103006666D02*
X144520533Y-103101904D01*
X144234819Y-102197142D02*
X144234819Y-101578095D01*
X144234819Y-101578095D02*
X144615771Y-101911428D01*
X144615771Y-101911428D02*
X144615771Y-101768571D01*
X144615771Y-101768571D02*
X144663390Y-101673333D01*
X144663390Y-101673333D02*
X144711009Y-101625714D01*
X144711009Y-101625714D02*
X144806247Y-101578095D01*
X144806247Y-101578095D02*
X145044342Y-101578095D01*
X145044342Y-101578095D02*
X145139580Y-101625714D01*
X145139580Y-101625714D02*
X145187200Y-101673333D01*
X145187200Y-101673333D02*
X145234819Y-101768571D01*
X145234819Y-101768571D02*
X145234819Y-102054285D01*
X145234819Y-102054285D02*
X145187200Y-102149523D01*
X145187200Y-102149523D02*
X145139580Y-102197142D01*
X153027142Y-74114819D02*
X152693809Y-73638628D01*
X152455714Y-74114819D02*
X152455714Y-73114819D01*
X152455714Y-73114819D02*
X152836666Y-73114819D01*
X152836666Y-73114819D02*
X152931904Y-73162438D01*
X152931904Y-73162438D02*
X152979523Y-73210057D01*
X152979523Y-73210057D02*
X153027142Y-73305295D01*
X153027142Y-73305295D02*
X153027142Y-73448152D01*
X153027142Y-73448152D02*
X152979523Y-73543390D01*
X152979523Y-73543390D02*
X152931904Y-73591009D01*
X152931904Y-73591009D02*
X152836666Y-73638628D01*
X152836666Y-73638628D02*
X152455714Y-73638628D01*
X153979523Y-74114819D02*
X153408095Y-74114819D01*
X153693809Y-74114819D02*
X153693809Y-73114819D01*
X153693809Y-73114819D02*
X153598571Y-73257676D01*
X153598571Y-73257676D02*
X153503333Y-73352914D01*
X153503333Y-73352914D02*
X153408095Y-73400533D01*
X154312857Y-73114819D02*
X154979523Y-73114819D01*
X154979523Y-73114819D02*
X154550952Y-74114819D01*
X112282080Y-115711921D02*
X112329700Y-115759540D01*
X112329700Y-115759540D02*
X112377319Y-115902397D01*
X112377319Y-115902397D02*
X112377319Y-115997635D01*
X112377319Y-115997635D02*
X112329700Y-116140492D01*
X112329700Y-116140492D02*
X112234461Y-116235730D01*
X112234461Y-116235730D02*
X112139223Y-116283349D01*
X112139223Y-116283349D02*
X111948747Y-116330968D01*
X111948747Y-116330968D02*
X111805890Y-116330968D01*
X111805890Y-116330968D02*
X111615414Y-116283349D01*
X111615414Y-116283349D02*
X111520176Y-116235730D01*
X111520176Y-116235730D02*
X111424938Y-116140492D01*
X111424938Y-116140492D02*
X111377319Y-115997635D01*
X111377319Y-115997635D02*
X111377319Y-115902397D01*
X111377319Y-115902397D02*
X111424938Y-115759540D01*
X111424938Y-115759540D02*
X111472557Y-115711921D01*
X112377319Y-114759540D02*
X112377319Y-115330968D01*
X112377319Y-115045254D02*
X111377319Y-115045254D01*
X111377319Y-115045254D02*
X111520176Y-115140492D01*
X111520176Y-115140492D02*
X111615414Y-115235730D01*
X111615414Y-115235730D02*
X111663033Y-115330968D01*
D14*
X105349318Y-87896095D02*
X104079318Y-87896095D01*
X104079318Y-87896095D02*
X104986461Y-87472761D01*
X104986461Y-87472761D02*
X104079318Y-87049428D01*
X104079318Y-87049428D02*
X105349318Y-87049428D01*
X105349318Y-86444666D02*
X104079318Y-86444666D01*
X104079318Y-86444666D02*
X104079318Y-85960856D01*
X104079318Y-85960856D02*
X104139794Y-85839904D01*
X104139794Y-85839904D02*
X104200270Y-85779427D01*
X104200270Y-85779427D02*
X104321222Y-85718951D01*
X104321222Y-85718951D02*
X104502651Y-85718951D01*
X104502651Y-85718951D02*
X104623603Y-85779427D01*
X104623603Y-85779427D02*
X104684080Y-85839904D01*
X104684080Y-85839904D02*
X104744556Y-85960856D01*
X104744556Y-85960856D02*
X104744556Y-86444666D01*
X105349318Y-84509427D02*
X105349318Y-85235142D01*
X105349318Y-84872285D02*
X104079318Y-84872285D01*
X104079318Y-84872285D02*
X104260746Y-84993237D01*
X104260746Y-84993237D02*
X104381699Y-85114189D01*
X104381699Y-85114189D02*
X104442175Y-85235142D01*
D11*
X155487142Y-122279580D02*
X155439523Y-122327200D01*
X155439523Y-122327200D02*
X155296666Y-122374819D01*
X155296666Y-122374819D02*
X155201428Y-122374819D01*
X155201428Y-122374819D02*
X155058571Y-122327200D01*
X155058571Y-122327200D02*
X154963333Y-122231961D01*
X154963333Y-122231961D02*
X154915714Y-122136723D01*
X154915714Y-122136723D02*
X154868095Y-121946247D01*
X154868095Y-121946247D02*
X154868095Y-121803390D01*
X154868095Y-121803390D02*
X154915714Y-121612914D01*
X154915714Y-121612914D02*
X154963333Y-121517676D01*
X154963333Y-121517676D02*
X155058571Y-121422438D01*
X155058571Y-121422438D02*
X155201428Y-121374819D01*
X155201428Y-121374819D02*
X155296666Y-121374819D01*
X155296666Y-121374819D02*
X155439523Y-121422438D01*
X155439523Y-121422438D02*
X155487142Y-121470057D01*
X156439523Y-122374819D02*
X155868095Y-122374819D01*
X156153809Y-122374819D02*
X156153809Y-121374819D01*
X156153809Y-121374819D02*
X156058571Y-121517676D01*
X156058571Y-121517676D02*
X155963333Y-121612914D01*
X155963333Y-121612914D02*
X155868095Y-121660533D01*
X157058571Y-121374819D02*
X157153809Y-121374819D01*
X157153809Y-121374819D02*
X157249047Y-121422438D01*
X157249047Y-121422438D02*
X157296666Y-121470057D01*
X157296666Y-121470057D02*
X157344285Y-121565295D01*
X157344285Y-121565295D02*
X157391904Y-121755771D01*
X157391904Y-121755771D02*
X157391904Y-121993866D01*
X157391904Y-121993866D02*
X157344285Y-122184342D01*
X157344285Y-122184342D02*
X157296666Y-122279580D01*
X157296666Y-122279580D02*
X157249047Y-122327200D01*
X157249047Y-122327200D02*
X157153809Y-122374819D01*
X157153809Y-122374819D02*
X157058571Y-122374819D01*
X157058571Y-122374819D02*
X156963333Y-122327200D01*
X156963333Y-122327200D02*
X156915714Y-122279580D01*
X156915714Y-122279580D02*
X156868095Y-122184342D01*
X156868095Y-122184342D02*
X156820476Y-121993866D01*
X156820476Y-121993866D02*
X156820476Y-121755771D01*
X156820476Y-121755771D02*
X156868095Y-121565295D01*
X156868095Y-121565295D02*
X156915714Y-121470057D01*
X156915714Y-121470057D02*
X156963333Y-121422438D01*
X156963333Y-121422438D02*
X157058571Y-121374819D01*
X164129580Y-142612857D02*
X164177200Y-142660476D01*
X164177200Y-142660476D02*
X164224819Y-142803333D01*
X164224819Y-142803333D02*
X164224819Y-142898571D01*
X164224819Y-142898571D02*
X164177200Y-143041428D01*
X164177200Y-143041428D02*
X164081961Y-143136666D01*
X164081961Y-143136666D02*
X163986723Y-143184285D01*
X163986723Y-143184285D02*
X163796247Y-143231904D01*
X163796247Y-143231904D02*
X163653390Y-143231904D01*
X163653390Y-143231904D02*
X163462914Y-143184285D01*
X163462914Y-143184285D02*
X163367676Y-143136666D01*
X163367676Y-143136666D02*
X163272438Y-143041428D01*
X163272438Y-143041428D02*
X163224819Y-142898571D01*
X163224819Y-142898571D02*
X163224819Y-142803333D01*
X163224819Y-142803333D02*
X163272438Y-142660476D01*
X163272438Y-142660476D02*
X163320057Y-142612857D01*
X164224819Y-141660476D02*
X164224819Y-142231904D01*
X164224819Y-141946190D02*
X163224819Y-141946190D01*
X163224819Y-141946190D02*
X163367676Y-142041428D01*
X163367676Y-142041428D02*
X163462914Y-142136666D01*
X163462914Y-142136666D02*
X163510533Y-142231904D01*
X163320057Y-141279523D02*
X163272438Y-141231904D01*
X163272438Y-141231904D02*
X163224819Y-141136666D01*
X163224819Y-141136666D02*
X163224819Y-140898571D01*
X163224819Y-140898571D02*
X163272438Y-140803333D01*
X163272438Y-140803333D02*
X163320057Y-140755714D01*
X163320057Y-140755714D02*
X163415295Y-140708095D01*
X163415295Y-140708095D02*
X163510533Y-140708095D01*
X163510533Y-140708095D02*
X163653390Y-140755714D01*
X163653390Y-140755714D02*
X164224819Y-141327142D01*
X164224819Y-141327142D02*
X164224819Y-140708095D01*
X171354761Y-97070057D02*
X171259523Y-97022438D01*
X171259523Y-97022438D02*
X171164285Y-96927200D01*
X171164285Y-96927200D02*
X171021428Y-96784342D01*
X171021428Y-96784342D02*
X170926190Y-96736723D01*
X170926190Y-96736723D02*
X170830952Y-96736723D01*
X170878571Y-96974819D02*
X170783333Y-96927200D01*
X170783333Y-96927200D02*
X170688095Y-96831961D01*
X170688095Y-96831961D02*
X170640476Y-96641485D01*
X170640476Y-96641485D02*
X170640476Y-96308152D01*
X170640476Y-96308152D02*
X170688095Y-96117676D01*
X170688095Y-96117676D02*
X170783333Y-96022438D01*
X170783333Y-96022438D02*
X170878571Y-95974819D01*
X170878571Y-95974819D02*
X171069047Y-95974819D01*
X171069047Y-95974819D02*
X171164285Y-96022438D01*
X171164285Y-96022438D02*
X171259523Y-96117676D01*
X171259523Y-96117676D02*
X171307142Y-96308152D01*
X171307142Y-96308152D02*
X171307142Y-96641485D01*
X171307142Y-96641485D02*
X171259523Y-96831961D01*
X171259523Y-96831961D02*
X171164285Y-96927200D01*
X171164285Y-96927200D02*
X171069047Y-96974819D01*
X171069047Y-96974819D02*
X170878571Y-96974819D01*
X172211904Y-95974819D02*
X171735714Y-95974819D01*
X171735714Y-95974819D02*
X171688095Y-96451009D01*
X171688095Y-96451009D02*
X171735714Y-96403390D01*
X171735714Y-96403390D02*
X171830952Y-96355771D01*
X171830952Y-96355771D02*
X172069047Y-96355771D01*
X172069047Y-96355771D02*
X172164285Y-96403390D01*
X172164285Y-96403390D02*
X172211904Y-96451009D01*
X172211904Y-96451009D02*
X172259523Y-96546247D01*
X172259523Y-96546247D02*
X172259523Y-96784342D01*
X172259523Y-96784342D02*
X172211904Y-96879580D01*
X172211904Y-96879580D02*
X172164285Y-96927200D01*
X172164285Y-96927200D02*
X172069047Y-96974819D01*
X172069047Y-96974819D02*
X171830952Y-96974819D01*
X171830952Y-96974819D02*
X171735714Y-96927200D01*
X171735714Y-96927200D02*
X171688095Y-96879580D01*
D14*
X134226905Y-99634318D02*
X134650238Y-100904318D01*
X134650238Y-100904318D02*
X135073572Y-99634318D01*
X136222619Y-100904318D02*
X135799285Y-100299556D01*
X135496904Y-100904318D02*
X135496904Y-99634318D01*
X135496904Y-99634318D02*
X135980714Y-99634318D01*
X135980714Y-99634318D02*
X136101666Y-99694794D01*
X136101666Y-99694794D02*
X136162143Y-99755270D01*
X136162143Y-99755270D02*
X136222619Y-99876222D01*
X136222619Y-99876222D02*
X136222619Y-100057651D01*
X136222619Y-100057651D02*
X136162143Y-100178603D01*
X136162143Y-100178603D02*
X136101666Y-100239080D01*
X136101666Y-100239080D02*
X135980714Y-100299556D01*
X135980714Y-100299556D02*
X135496904Y-100299556D01*
X137432143Y-100904318D02*
X136706428Y-100904318D01*
X137069285Y-100904318D02*
X137069285Y-99634318D01*
X137069285Y-99634318D02*
X136948333Y-99815746D01*
X136948333Y-99815746D02*
X136827381Y-99936699D01*
X136827381Y-99936699D02*
X136706428Y-99997175D01*
D11*
X129495833Y-103300074D02*
X129162500Y-102823883D01*
X128924405Y-103300074D02*
X128924405Y-102300074D01*
X128924405Y-102300074D02*
X129305357Y-102300074D01*
X129305357Y-102300074D02*
X129400595Y-102347693D01*
X129400595Y-102347693D02*
X129448214Y-102395312D01*
X129448214Y-102395312D02*
X129495833Y-102490550D01*
X129495833Y-102490550D02*
X129495833Y-102633407D01*
X129495833Y-102633407D02*
X129448214Y-102728645D01*
X129448214Y-102728645D02*
X129400595Y-102776264D01*
X129400595Y-102776264D02*
X129305357Y-102823883D01*
X129305357Y-102823883D02*
X128924405Y-102823883D01*
X130352976Y-102633407D02*
X130352976Y-103300074D01*
X130114881Y-102252455D02*
X129876786Y-102966740D01*
X129876786Y-102966740D02*
X130495833Y-102966740D01*
X162464761Y-94205057D02*
X162369523Y-94157438D01*
X162369523Y-94157438D02*
X162274285Y-94062200D01*
X162274285Y-94062200D02*
X162131428Y-93919342D01*
X162131428Y-93919342D02*
X162036190Y-93871723D01*
X162036190Y-93871723D02*
X161940952Y-93871723D01*
X161988571Y-94109819D02*
X161893333Y-94062200D01*
X161893333Y-94062200D02*
X161798095Y-93966961D01*
X161798095Y-93966961D02*
X161750476Y-93776485D01*
X161750476Y-93776485D02*
X161750476Y-93443152D01*
X161750476Y-93443152D02*
X161798095Y-93252676D01*
X161798095Y-93252676D02*
X161893333Y-93157438D01*
X161893333Y-93157438D02*
X161988571Y-93109819D01*
X161988571Y-93109819D02*
X162179047Y-93109819D01*
X162179047Y-93109819D02*
X162274285Y-93157438D01*
X162274285Y-93157438D02*
X162369523Y-93252676D01*
X162369523Y-93252676D02*
X162417142Y-93443152D01*
X162417142Y-93443152D02*
X162417142Y-93776485D01*
X162417142Y-93776485D02*
X162369523Y-93966961D01*
X162369523Y-93966961D02*
X162274285Y-94062200D01*
X162274285Y-94062200D02*
X162179047Y-94109819D01*
X162179047Y-94109819D02*
X161988571Y-94109819D01*
X163274285Y-93443152D02*
X163274285Y-94109819D01*
X163036190Y-93062200D02*
X162798095Y-93776485D01*
X162798095Y-93776485D02*
X163417142Y-93776485D01*
X103806666Y-145714819D02*
X103806666Y-146429104D01*
X103806666Y-146429104D02*
X103759047Y-146571961D01*
X103759047Y-146571961D02*
X103663809Y-146667200D01*
X103663809Y-146667200D02*
X103520952Y-146714819D01*
X103520952Y-146714819D02*
X103425714Y-146714819D01*
X104759047Y-145714819D02*
X104282857Y-145714819D01*
X104282857Y-145714819D02*
X104235238Y-146191009D01*
X104235238Y-146191009D02*
X104282857Y-146143390D01*
X104282857Y-146143390D02*
X104378095Y-146095771D01*
X104378095Y-146095771D02*
X104616190Y-146095771D01*
X104616190Y-146095771D02*
X104711428Y-146143390D01*
X104711428Y-146143390D02*
X104759047Y-146191009D01*
X104759047Y-146191009D02*
X104806666Y-146286247D01*
X104806666Y-146286247D02*
X104806666Y-146524342D01*
X104806666Y-146524342D02*
X104759047Y-146619580D01*
X104759047Y-146619580D02*
X104711428Y-146667200D01*
X104711428Y-146667200D02*
X104616190Y-146714819D01*
X104616190Y-146714819D02*
X104378095Y-146714819D01*
X104378095Y-146714819D02*
X104282857Y-146667200D01*
X104282857Y-146667200D02*
X104235238Y-146619580D01*
X114295833Y-74100074D02*
X113962500Y-73623883D01*
X113724405Y-74100074D02*
X113724405Y-73100074D01*
X113724405Y-73100074D02*
X114105357Y-73100074D01*
X114105357Y-73100074D02*
X114200595Y-73147693D01*
X114200595Y-73147693D02*
X114248214Y-73195312D01*
X114248214Y-73195312D02*
X114295833Y-73290550D01*
X114295833Y-73290550D02*
X114295833Y-73433407D01*
X114295833Y-73433407D02*
X114248214Y-73528645D01*
X114248214Y-73528645D02*
X114200595Y-73576264D01*
X114200595Y-73576264D02*
X114105357Y-73623883D01*
X114105357Y-73623883D02*
X113724405Y-73623883D01*
X115200595Y-73100074D02*
X114724405Y-73100074D01*
X114724405Y-73100074D02*
X114676786Y-73576264D01*
X114676786Y-73576264D02*
X114724405Y-73528645D01*
X114724405Y-73528645D02*
X114819643Y-73481026D01*
X114819643Y-73481026D02*
X115057738Y-73481026D01*
X115057738Y-73481026D02*
X115152976Y-73528645D01*
X115152976Y-73528645D02*
X115200595Y-73576264D01*
X115200595Y-73576264D02*
X115248214Y-73671502D01*
X115248214Y-73671502D02*
X115248214Y-73909597D01*
X115248214Y-73909597D02*
X115200595Y-74004835D01*
X115200595Y-74004835D02*
X115152976Y-74052455D01*
X115152976Y-74052455D02*
X115057738Y-74100074D01*
X115057738Y-74100074D02*
X114819643Y-74100074D01*
X114819643Y-74100074D02*
X114724405Y-74052455D01*
X114724405Y-74052455D02*
X114676786Y-74004835D01*
X162464761Y-79615057D02*
X162369523Y-79567438D01*
X162369523Y-79567438D02*
X162274285Y-79472200D01*
X162274285Y-79472200D02*
X162131428Y-79329342D01*
X162131428Y-79329342D02*
X162036190Y-79281723D01*
X162036190Y-79281723D02*
X161940952Y-79281723D01*
X161988571Y-79519819D02*
X161893333Y-79472200D01*
X161893333Y-79472200D02*
X161798095Y-79376961D01*
X161798095Y-79376961D02*
X161750476Y-79186485D01*
X161750476Y-79186485D02*
X161750476Y-78853152D01*
X161750476Y-78853152D02*
X161798095Y-78662676D01*
X161798095Y-78662676D02*
X161893333Y-78567438D01*
X161893333Y-78567438D02*
X161988571Y-78519819D01*
X161988571Y-78519819D02*
X162179047Y-78519819D01*
X162179047Y-78519819D02*
X162274285Y-78567438D01*
X162274285Y-78567438D02*
X162369523Y-78662676D01*
X162369523Y-78662676D02*
X162417142Y-78853152D01*
X162417142Y-78853152D02*
X162417142Y-79186485D01*
X162417142Y-79186485D02*
X162369523Y-79376961D01*
X162369523Y-79376961D02*
X162274285Y-79472200D01*
X162274285Y-79472200D02*
X162179047Y-79519819D01*
X162179047Y-79519819D02*
X161988571Y-79519819D01*
X163274285Y-78519819D02*
X163083809Y-78519819D01*
X163083809Y-78519819D02*
X162988571Y-78567438D01*
X162988571Y-78567438D02*
X162940952Y-78615057D01*
X162940952Y-78615057D02*
X162845714Y-78757914D01*
X162845714Y-78757914D02*
X162798095Y-78948390D01*
X162798095Y-78948390D02*
X162798095Y-79329342D01*
X162798095Y-79329342D02*
X162845714Y-79424580D01*
X162845714Y-79424580D02*
X162893333Y-79472200D01*
X162893333Y-79472200D02*
X162988571Y-79519819D01*
X162988571Y-79519819D02*
X163179047Y-79519819D01*
X163179047Y-79519819D02*
X163274285Y-79472200D01*
X163274285Y-79472200D02*
X163321904Y-79424580D01*
X163321904Y-79424580D02*
X163369523Y-79329342D01*
X163369523Y-79329342D02*
X163369523Y-79091247D01*
X163369523Y-79091247D02*
X163321904Y-78996009D01*
X163321904Y-78996009D02*
X163274285Y-78948390D01*
X163274285Y-78948390D02*
X163179047Y-78900771D01*
X163179047Y-78900771D02*
X162988571Y-78900771D01*
X162988571Y-78900771D02*
X162893333Y-78948390D01*
X162893333Y-78948390D02*
X162845714Y-78996009D01*
X162845714Y-78996009D02*
X162798095Y-79091247D01*
X120645833Y-132680074D02*
X120312500Y-132203883D01*
X120074405Y-132680074D02*
X120074405Y-131680074D01*
X120074405Y-131680074D02*
X120455357Y-131680074D01*
X120455357Y-131680074D02*
X120550595Y-131727693D01*
X120550595Y-131727693D02*
X120598214Y-131775312D01*
X120598214Y-131775312D02*
X120645833Y-131870550D01*
X120645833Y-131870550D02*
X120645833Y-132013407D01*
X120645833Y-132013407D02*
X120598214Y-132108645D01*
X120598214Y-132108645D02*
X120550595Y-132156264D01*
X120550595Y-132156264D02*
X120455357Y-132203883D01*
X120455357Y-132203883D02*
X120074405Y-132203883D01*
X120979167Y-131680074D02*
X121645833Y-131680074D01*
X121645833Y-131680074D02*
X121217262Y-132680074D01*
X159257142Y-132664819D02*
X158923809Y-132188628D01*
X158685714Y-132664819D02*
X158685714Y-131664819D01*
X158685714Y-131664819D02*
X159066666Y-131664819D01*
X159066666Y-131664819D02*
X159161904Y-131712438D01*
X159161904Y-131712438D02*
X159209523Y-131760057D01*
X159209523Y-131760057D02*
X159257142Y-131855295D01*
X159257142Y-131855295D02*
X159257142Y-131998152D01*
X159257142Y-131998152D02*
X159209523Y-132093390D01*
X159209523Y-132093390D02*
X159161904Y-132141009D01*
X159161904Y-132141009D02*
X159066666Y-132188628D01*
X159066666Y-132188628D02*
X158685714Y-132188628D01*
X160209523Y-132664819D02*
X159638095Y-132664819D01*
X159923809Y-132664819D02*
X159923809Y-131664819D01*
X159923809Y-131664819D02*
X159828571Y-131807676D01*
X159828571Y-131807676D02*
X159733333Y-131902914D01*
X159733333Y-131902914D02*
X159638095Y-131950533D01*
X160685714Y-132664819D02*
X160876190Y-132664819D01*
X160876190Y-132664819D02*
X160971428Y-132617200D01*
X160971428Y-132617200D02*
X161019047Y-132569580D01*
X161019047Y-132569580D02*
X161114285Y-132426723D01*
X161114285Y-132426723D02*
X161161904Y-132236247D01*
X161161904Y-132236247D02*
X161161904Y-131855295D01*
X161161904Y-131855295D02*
X161114285Y-131760057D01*
X161114285Y-131760057D02*
X161066666Y-131712438D01*
X161066666Y-131712438D02*
X160971428Y-131664819D01*
X160971428Y-131664819D02*
X160780952Y-131664819D01*
X160780952Y-131664819D02*
X160685714Y-131712438D01*
X160685714Y-131712438D02*
X160638095Y-131760057D01*
X160638095Y-131760057D02*
X160590476Y-131855295D01*
X160590476Y-131855295D02*
X160590476Y-132093390D01*
X160590476Y-132093390D02*
X160638095Y-132188628D01*
X160638095Y-132188628D02*
X160685714Y-132236247D01*
X160685714Y-132236247D02*
X160780952Y-132283866D01*
X160780952Y-132283866D02*
X160971428Y-132283866D01*
X160971428Y-132283866D02*
X161066666Y-132236247D01*
X161066666Y-132236247D02*
X161114285Y-132188628D01*
X161114285Y-132188628D02*
X161161904Y-132093390D01*
X108573333Y-147679580D02*
X108525714Y-147727200D01*
X108525714Y-147727200D02*
X108382857Y-147774819D01*
X108382857Y-147774819D02*
X108287619Y-147774819D01*
X108287619Y-147774819D02*
X108144762Y-147727200D01*
X108144762Y-147727200D02*
X108049524Y-147631961D01*
X108049524Y-147631961D02*
X108001905Y-147536723D01*
X108001905Y-147536723D02*
X107954286Y-147346247D01*
X107954286Y-147346247D02*
X107954286Y-147203390D01*
X107954286Y-147203390D02*
X108001905Y-147012914D01*
X108001905Y-147012914D02*
X108049524Y-146917676D01*
X108049524Y-146917676D02*
X108144762Y-146822438D01*
X108144762Y-146822438D02*
X108287619Y-146774819D01*
X108287619Y-146774819D02*
X108382857Y-146774819D01*
X108382857Y-146774819D02*
X108525714Y-146822438D01*
X108525714Y-146822438D02*
X108573333Y-146870057D01*
X108954286Y-146870057D02*
X109001905Y-146822438D01*
X109001905Y-146822438D02*
X109097143Y-146774819D01*
X109097143Y-146774819D02*
X109335238Y-146774819D01*
X109335238Y-146774819D02*
X109430476Y-146822438D01*
X109430476Y-146822438D02*
X109478095Y-146870057D01*
X109478095Y-146870057D02*
X109525714Y-146965295D01*
X109525714Y-146965295D02*
X109525714Y-147060533D01*
X109525714Y-147060533D02*
X109478095Y-147203390D01*
X109478095Y-147203390D02*
X108906667Y-147774819D01*
X108906667Y-147774819D02*
X109525714Y-147774819D01*
X106027319Y-103021921D02*
X105551128Y-103355254D01*
X106027319Y-103593349D02*
X105027319Y-103593349D01*
X105027319Y-103593349D02*
X105027319Y-103212397D01*
X105027319Y-103212397D02*
X105074938Y-103117159D01*
X105074938Y-103117159D02*
X105122557Y-103069540D01*
X105122557Y-103069540D02*
X105217795Y-103021921D01*
X105217795Y-103021921D02*
X105360652Y-103021921D01*
X105360652Y-103021921D02*
X105455890Y-103069540D01*
X105455890Y-103069540D02*
X105503509Y-103117159D01*
X105503509Y-103117159D02*
X105551128Y-103212397D01*
X105551128Y-103212397D02*
X105551128Y-103593349D01*
X106027319Y-102069540D02*
X106027319Y-102640968D01*
X106027319Y-102355254D02*
X105027319Y-102355254D01*
X105027319Y-102355254D02*
X105170176Y-102450492D01*
X105170176Y-102450492D02*
X105265414Y-102545730D01*
X105265414Y-102545730D02*
X105313033Y-102640968D01*
D14*
X144719318Y-87896095D02*
X143449318Y-87896095D01*
X143449318Y-87896095D02*
X144356461Y-87472761D01*
X144356461Y-87472761D02*
X143449318Y-87049428D01*
X143449318Y-87049428D02*
X144719318Y-87049428D01*
X144719318Y-86444666D02*
X143449318Y-86444666D01*
X143449318Y-86444666D02*
X143449318Y-85960856D01*
X143449318Y-85960856D02*
X143509794Y-85839904D01*
X143509794Y-85839904D02*
X143570270Y-85779427D01*
X143570270Y-85779427D02*
X143691222Y-85718951D01*
X143691222Y-85718951D02*
X143872651Y-85718951D01*
X143872651Y-85718951D02*
X143993603Y-85779427D01*
X143993603Y-85779427D02*
X144054080Y-85839904D01*
X144054080Y-85839904D02*
X144114556Y-85960856D01*
X144114556Y-85960856D02*
X144114556Y-86444666D01*
X143570270Y-85235142D02*
X143509794Y-85174666D01*
X143509794Y-85174666D02*
X143449318Y-85053713D01*
X143449318Y-85053713D02*
X143449318Y-84751332D01*
X143449318Y-84751332D02*
X143509794Y-84630380D01*
X143509794Y-84630380D02*
X143570270Y-84569904D01*
X143570270Y-84569904D02*
X143691222Y-84509427D01*
X143691222Y-84509427D02*
X143812175Y-84509427D01*
X143812175Y-84509427D02*
X143993603Y-84569904D01*
X143993603Y-84569904D02*
X144719318Y-85295618D01*
X144719318Y-85295618D02*
X144719318Y-84509427D01*
D11*
X165567142Y-106999580D02*
X165519523Y-107047200D01*
X165519523Y-107047200D02*
X165376666Y-107094819D01*
X165376666Y-107094819D02*
X165281428Y-107094819D01*
X165281428Y-107094819D02*
X165138571Y-107047200D01*
X165138571Y-107047200D02*
X165043333Y-106951961D01*
X165043333Y-106951961D02*
X164995714Y-106856723D01*
X164995714Y-106856723D02*
X164948095Y-106666247D01*
X164948095Y-106666247D02*
X164948095Y-106523390D01*
X164948095Y-106523390D02*
X164995714Y-106332914D01*
X164995714Y-106332914D02*
X165043333Y-106237676D01*
X165043333Y-106237676D02*
X165138571Y-106142438D01*
X165138571Y-106142438D02*
X165281428Y-106094819D01*
X165281428Y-106094819D02*
X165376666Y-106094819D01*
X165376666Y-106094819D02*
X165519523Y-106142438D01*
X165519523Y-106142438D02*
X165567142Y-106190057D01*
X166519523Y-107094819D02*
X165948095Y-107094819D01*
X166233809Y-107094819D02*
X166233809Y-106094819D01*
X166233809Y-106094819D02*
X166138571Y-106237676D01*
X166138571Y-106237676D02*
X166043333Y-106332914D01*
X166043333Y-106332914D02*
X165948095Y-106380533D01*
X167471904Y-107094819D02*
X166900476Y-107094819D01*
X167186190Y-107094819D02*
X167186190Y-106094819D01*
X167186190Y-106094819D02*
X167090952Y-106237676D01*
X167090952Y-106237676D02*
X166995714Y-106332914D01*
X166995714Y-106332914D02*
X166900476Y-106380533D01*
X146384819Y-131412857D02*
X145908628Y-131746190D01*
X146384819Y-131984285D02*
X145384819Y-131984285D01*
X145384819Y-131984285D02*
X145384819Y-131603333D01*
X145384819Y-131603333D02*
X145432438Y-131508095D01*
X145432438Y-131508095D02*
X145480057Y-131460476D01*
X145480057Y-131460476D02*
X145575295Y-131412857D01*
X145575295Y-131412857D02*
X145718152Y-131412857D01*
X145718152Y-131412857D02*
X145813390Y-131460476D01*
X145813390Y-131460476D02*
X145861009Y-131508095D01*
X145861009Y-131508095D02*
X145908628Y-131603333D01*
X145908628Y-131603333D02*
X145908628Y-131984285D01*
X145480057Y-131031904D02*
X145432438Y-130984285D01*
X145432438Y-130984285D02*
X145384819Y-130889047D01*
X145384819Y-130889047D02*
X145384819Y-130650952D01*
X145384819Y-130650952D02*
X145432438Y-130555714D01*
X145432438Y-130555714D02*
X145480057Y-130508095D01*
X145480057Y-130508095D02*
X145575295Y-130460476D01*
X145575295Y-130460476D02*
X145670533Y-130460476D01*
X145670533Y-130460476D02*
X145813390Y-130508095D01*
X145813390Y-130508095D02*
X146384819Y-131079523D01*
X146384819Y-131079523D02*
X146384819Y-130460476D01*
X145480057Y-130079523D02*
X145432438Y-130031904D01*
X145432438Y-130031904D02*
X145384819Y-129936666D01*
X145384819Y-129936666D02*
X145384819Y-129698571D01*
X145384819Y-129698571D02*
X145432438Y-129603333D01*
X145432438Y-129603333D02*
X145480057Y-129555714D01*
X145480057Y-129555714D02*
X145575295Y-129508095D01*
X145575295Y-129508095D02*
X145670533Y-129508095D01*
X145670533Y-129508095D02*
X145813390Y-129555714D01*
X145813390Y-129555714D02*
X146384819Y-130127142D01*
X146384819Y-130127142D02*
X146384819Y-129508095D01*
D14*
X171964048Y-139004318D02*
X171540714Y-138399556D01*
X171238333Y-139004318D02*
X171238333Y-137734318D01*
X171238333Y-137734318D02*
X171722143Y-137734318D01*
X171722143Y-137734318D02*
X171843095Y-137794794D01*
X171843095Y-137794794D02*
X171903572Y-137855270D01*
X171903572Y-137855270D02*
X171964048Y-137976222D01*
X171964048Y-137976222D02*
X171964048Y-138157651D01*
X171964048Y-138157651D02*
X171903572Y-138278603D01*
X171903572Y-138278603D02*
X171843095Y-138339080D01*
X171843095Y-138339080D02*
X171722143Y-138399556D01*
X171722143Y-138399556D02*
X171238333Y-138399556D01*
X172326905Y-137734318D02*
X172750238Y-139004318D01*
X172750238Y-139004318D02*
X173173572Y-137734318D01*
X174262143Y-139004318D02*
X173536428Y-139004318D01*
X173899285Y-139004318D02*
X173899285Y-137734318D01*
X173899285Y-137734318D02*
X173778333Y-137915746D01*
X173778333Y-137915746D02*
X173657381Y-138036699D01*
X173657381Y-138036699D02*
X173536428Y-138097175D01*
D11*
X107297319Y-116981921D02*
X106821128Y-117315254D01*
X107297319Y-117553349D02*
X106297319Y-117553349D01*
X106297319Y-117553349D02*
X106297319Y-117172397D01*
X106297319Y-117172397D02*
X106344938Y-117077159D01*
X106344938Y-117077159D02*
X106392557Y-117029540D01*
X106392557Y-117029540D02*
X106487795Y-116981921D01*
X106487795Y-116981921D02*
X106630652Y-116981921D01*
X106630652Y-116981921D02*
X106725890Y-117029540D01*
X106725890Y-117029540D02*
X106773509Y-117077159D01*
X106773509Y-117077159D02*
X106821128Y-117172397D01*
X106821128Y-117172397D02*
X106821128Y-117553349D01*
X106297319Y-116124778D02*
X106297319Y-116315254D01*
X106297319Y-116315254D02*
X106344938Y-116410492D01*
X106344938Y-116410492D02*
X106392557Y-116458111D01*
X106392557Y-116458111D02*
X106535414Y-116553349D01*
X106535414Y-116553349D02*
X106725890Y-116600968D01*
X106725890Y-116600968D02*
X107106842Y-116600968D01*
X107106842Y-116600968D02*
X107202080Y-116553349D01*
X107202080Y-116553349D02*
X107249700Y-116505730D01*
X107249700Y-116505730D02*
X107297319Y-116410492D01*
X107297319Y-116410492D02*
X107297319Y-116220016D01*
X107297319Y-116220016D02*
X107249700Y-116124778D01*
X107249700Y-116124778D02*
X107202080Y-116077159D01*
X107202080Y-116077159D02*
X107106842Y-116029540D01*
X107106842Y-116029540D02*
X106868747Y-116029540D01*
X106868747Y-116029540D02*
X106773509Y-116077159D01*
X106773509Y-116077159D02*
X106725890Y-116124778D01*
X106725890Y-116124778D02*
X106678271Y-116220016D01*
X106678271Y-116220016D02*
X106678271Y-116410492D01*
X106678271Y-116410492D02*
X106725890Y-116505730D01*
X106725890Y-116505730D02*
X106773509Y-116553349D01*
X106773509Y-116553349D02*
X106868747Y-116600968D01*
D15*
X152019000Y-106910000D02*
X152019000Y-106140000D01*
X152019000Y-98830000D02*
X152019000Y-99600000D01*
X153389000Y-99600000D02*
X150649000Y-99600000D01*
X150649000Y-106140000D02*
X153389000Y-106140000D01*
X150649000Y-99600000D02*
X150649000Y-106140000D01*
X153389000Y-106140000D02*
X153389000Y-99600000D01*
X113284000Y-106910000D02*
X113284000Y-106140000D01*
X113284000Y-98830000D02*
X113284000Y-99600000D01*
X114654000Y-99600000D02*
X111914000Y-99600000D01*
X111914000Y-106140000D02*
X114654000Y-106140000D01*
X111914000Y-99600000D02*
X111914000Y-106140000D01*
X114654000Y-106140000D02*
X114654000Y-99600000D01*
D16*
X139780000Y-156220000D02*
G75*
G03*
X139780000Y-156020000I0J100000D01*
G01*
X139780000Y-156020000D02*
G75*
G03*
X139780000Y-156220000I0J-100000D01*
G01*
X139780000Y-156220000D02*
G75*
G03*
X139780000Y-156020000I0J100000D01*
G01*
X139780000Y-156220000D02*
X139780000Y-156220000D01*
X139780000Y-156020000D02*
X139780000Y-156020000D01*
X139780000Y-156220000D02*
X139780000Y-156220000D01*
D17*
X133780000Y-138420000D02*
X145780000Y-138420000D01*
X133780000Y-138420000D02*
X133780000Y-138420000D01*
X145780000Y-138420000D02*
X133780000Y-138420000D01*
X145780000Y-138420000D02*
X145780000Y-138420000D01*
X145780000Y-152420000D02*
X133780000Y-152420000D01*
X145780000Y-152420000D02*
X145780000Y-152420000D01*
X133780000Y-152420000D02*
X145780000Y-152420000D01*
X133780000Y-152420000D02*
X133780000Y-152420000D01*
X133780000Y-138420000D02*
X133780000Y-138420000D01*
X133780000Y-139170000D02*
X133780000Y-138420000D01*
X133780000Y-139170000D02*
X133780000Y-139170000D01*
X133780000Y-138420000D02*
X133780000Y-139170000D01*
X145780000Y-139170000D02*
X145780000Y-139170000D01*
X145780000Y-138420000D02*
X145780000Y-139170000D01*
X145780000Y-138420000D02*
X145780000Y-138420000D01*
X145780000Y-139170000D02*
X145780000Y-138420000D01*
X145780000Y-152420000D02*
X145780000Y-152420000D01*
X145780000Y-142670000D02*
X145780000Y-152420000D01*
X145780000Y-142670000D02*
X145780000Y-142670000D01*
X145780000Y-152420000D02*
X145780000Y-142670000D01*
X133780000Y-142670000D02*
X133780000Y-142670000D01*
X133780000Y-152420000D02*
X133780000Y-142670000D01*
X133780000Y-152420000D02*
X133780000Y-152420000D01*
X133780000Y-142670000D02*
X133780000Y-152420000D01*
D15*
X118232500Y-84860255D02*
X118232500Y-80219255D01*
X121501500Y-84860255D02*
X121501500Y-83350255D01*
X125202500Y-84860255D02*
X125202500Y-83350255D01*
X128472500Y-80219255D02*
X118232500Y-80219255D01*
X128472500Y-83350255D02*
X118232500Y-83350255D01*
X128472500Y-84860255D02*
X118232500Y-84860255D01*
X128472500Y-84860255D02*
X128472500Y-80219255D01*
X124852500Y-129515255D02*
X124082500Y-129515255D01*
X124082500Y-130885255D02*
X124082500Y-128145255D01*
X124082500Y-128145255D02*
X117542500Y-128145255D01*
X117542500Y-130885255D02*
X124082500Y-130885255D01*
X117542500Y-128145255D02*
X117542500Y-130885255D01*
X116772500Y-129515255D02*
X117542500Y-129515255D01*
X151130000Y-53915000D02*
X158810000Y-53915000D01*
X158810000Y-56575000D02*
X158810000Y-53915000D01*
X151130000Y-56575000D02*
X151130000Y-53915000D01*
X151130000Y-56575000D02*
X158810000Y-56575000D01*
X149860000Y-56575000D02*
X148530000Y-56575000D01*
X148530000Y-56575000D02*
X148530000Y-55245000D01*
D16*
X139780000Y-50620000D02*
G75*
G03*
X139780000Y-50820000I0J-100000D01*
G01*
X139780000Y-50620000D02*
G75*
G03*
X139780000Y-50820000I0J-100000D01*
G01*
X139780000Y-50820000D02*
G75*
G03*
X139780000Y-50620000I0J100000D01*
G01*
D17*
X133780000Y-68420000D02*
X133780000Y-68420000D01*
X133780000Y-68420000D02*
X133780000Y-68420000D01*
X133780000Y-68420000D02*
X145780000Y-68420000D01*
X133780000Y-68420000D02*
X133780000Y-67670000D01*
X145780000Y-68420000D02*
X133780000Y-68420000D01*
X145780000Y-68420000D02*
X145780000Y-68420000D01*
X145780000Y-68420000D02*
X145780000Y-68420000D01*
X145780000Y-68420000D02*
X145780000Y-67670000D01*
X133780000Y-67670000D02*
X133780000Y-68420000D01*
X133780000Y-67670000D02*
X133780000Y-67670000D01*
X145780000Y-67670000D02*
X145780000Y-68420000D01*
X145780000Y-67670000D02*
X145780000Y-67670000D01*
X133780000Y-64170000D02*
X133780000Y-64170000D01*
X133780000Y-64170000D02*
X133780000Y-54420000D01*
X145780000Y-64170000D02*
X145780000Y-64170000D01*
X145780000Y-64170000D02*
X145780000Y-54420000D01*
X133780000Y-54420000D02*
X133780000Y-64170000D01*
X133780000Y-54420000D02*
X133780000Y-54420000D01*
X133780000Y-54420000D02*
X133780000Y-54420000D01*
X133780000Y-54420000D02*
X145780000Y-54420000D01*
X145780000Y-54420000D02*
X145780000Y-64170000D01*
X145780000Y-54420000D02*
X133780000Y-54420000D01*
X145780000Y-54420000D02*
X145780000Y-54420000D01*
X145780000Y-54420000D02*
X145780000Y-54420000D01*
D16*
X139780000Y-50820000D02*
X139780000Y-50820000D01*
X139780000Y-50620000D02*
X139780000Y-50620000D01*
X139780000Y-50620000D02*
X139780000Y-50620000D01*
D15*
X148470000Y-112760000D02*
X148470000Y-113530000D01*
X149840000Y-113530000D02*
X147100000Y-113530000D01*
X147100000Y-113530000D02*
X147100000Y-120070000D01*
X149840000Y-120070000D02*
X149840000Y-113530000D01*
X147100000Y-120070000D02*
X149840000Y-120070000D01*
X148470000Y-120840000D02*
X148470000Y-120070000D01*
X165210000Y-102830000D02*
X164440000Y-102830000D01*
X164440000Y-104200000D02*
X164440000Y-101460000D01*
X164440000Y-101460000D02*
X157900000Y-101460000D01*
X157900000Y-104200000D02*
X164440000Y-104200000D01*
X157900000Y-101460000D02*
X157900000Y-104200000D01*
X157130000Y-102830000D02*
X157900000Y-102830000D01*
X130972500Y-112785255D02*
X130972500Y-113555255D01*
X132342500Y-113555255D02*
X129602500Y-113555255D01*
X129602500Y-113555255D02*
X129602500Y-120095255D01*
X132342500Y-120095255D02*
X132342500Y-113555255D01*
X129602500Y-120095255D02*
X132342500Y-120095255D01*
X130972500Y-120865255D02*
X130972500Y-120095255D01*
X128472500Y-87830255D02*
X128472500Y-92471255D01*
X125203500Y-87830255D02*
X125203500Y-89340255D01*
X121502500Y-87830255D02*
X121502500Y-89340255D01*
X118232500Y-92471255D02*
X128472500Y-92471255D01*
X118232500Y-89340255D02*
X128472500Y-89340255D01*
X118232500Y-87830255D02*
X128472500Y-87830255D01*
X118232500Y-87830255D02*
X118232500Y-92471255D01*
X166380000Y-74280000D02*
X166380000Y-74760000D01*
X166380000Y-78120000D02*
X166380000Y-77640000D01*
X176520000Y-74280000D02*
X166380000Y-74280000D01*
X176520000Y-74760000D02*
X176520000Y-74280000D01*
X176520000Y-77640000D02*
X176520000Y-78120000D01*
X176520000Y-78120000D02*
X166380000Y-78120000D01*
X149880000Y-152460000D02*
X149880000Y-151130000D01*
X151210000Y-152460000D02*
X149880000Y-152460000D01*
X152480000Y-152460000D02*
X160160000Y-152460000D01*
X152480000Y-152460000D02*
X152480000Y-149800000D01*
X160160000Y-152460000D02*
X160160000Y-149800000D01*
X152480000Y-149800000D02*
X160160000Y-149800000D01*
X130972500Y-126745255D02*
X130972500Y-127515255D01*
X132342500Y-127515255D02*
X129602500Y-127515255D01*
X129602500Y-127515255D02*
X129602500Y-134055255D01*
X132342500Y-134055255D02*
X132342500Y-127515255D01*
X129602500Y-134055255D02*
X132342500Y-134055255D01*
X130972500Y-134825255D02*
X130972500Y-134055255D01*
X127172500Y-74265255D02*
X127172500Y-74745255D01*
X127172500Y-78105255D02*
X127172500Y-77625255D01*
X137312500Y-74265255D02*
X127172500Y-74265255D01*
X137312500Y-74745255D02*
X137312500Y-74265255D01*
X137312500Y-77625255D02*
X137312500Y-78105255D01*
X137312500Y-78105255D02*
X127172500Y-78105255D01*
X124512500Y-107710255D02*
X124512500Y-108025255D01*
X124512500Y-105285255D02*
X124512500Y-105600255D01*
X119572500Y-108025255D02*
X124512500Y-108025255D01*
X119572500Y-107710255D02*
X119572500Y-108025255D01*
X119572500Y-105285255D02*
X124512500Y-105285255D01*
X119572500Y-105285255D02*
X119572500Y-105600255D01*
X170060000Y-134810000D02*
X170060000Y-134040000D01*
X168690000Y-134040000D02*
X171430000Y-134040000D01*
X171430000Y-134040000D02*
X171430000Y-127500000D01*
X168690000Y-127500000D02*
X168690000Y-134040000D01*
X171430000Y-127500000D02*
X168690000Y-127500000D01*
X170060000Y-126730000D02*
X170060000Y-127500000D01*
X163940000Y-129500000D02*
X163170000Y-129500000D01*
X163170000Y-130870000D02*
X163170000Y-128130000D01*
X163170000Y-128130000D02*
X156630000Y-128130000D01*
X156630000Y-130870000D02*
X163170000Y-130870000D01*
X156630000Y-128130000D02*
X156630000Y-130870000D01*
X155860000Y-129500000D02*
X156630000Y-129500000D01*
X156030000Y-116530000D02*
G75*
G03*
X156030000Y-114530000I0J1000000D01*
G01*
X166310000Y-112880000D02*
X156030000Y-112880000D01*
X156030000Y-112880000D02*
X156030000Y-114530000D01*
X156030000Y-116530000D02*
X156030000Y-118180000D01*
X166310000Y-118180000D02*
X166310000Y-112880000D01*
X156030000Y-118180000D02*
X166310000Y-118180000D01*
X109382500Y-126745255D02*
X109382500Y-127515255D01*
X110752500Y-127515255D02*
X108012500Y-127515255D01*
X108012500Y-127515255D02*
X108012500Y-134055255D01*
X110752500Y-134055255D02*
X110752500Y-127515255D01*
X108012500Y-134055255D02*
X110752500Y-134055255D01*
X109382500Y-134825255D02*
X109382500Y-134055255D01*
X122125000Y-139705225D02*
X122125000Y-140205225D01*
X122375000Y-139955225D02*
X121875000Y-139955225D01*
X123230000Y-142510000D02*
X121690000Y-142510000D01*
X119610000Y-142510000D02*
X118070000Y-142510000D01*
X123230000Y-142550000D02*
X121690000Y-142550000D01*
X119610000Y-142550000D02*
X118070000Y-142550000D01*
X123229000Y-142590000D02*
X121690000Y-142590000D01*
X119610000Y-142590000D02*
X118071000Y-142590000D01*
X123228000Y-142630000D02*
X121690000Y-142630000D01*
X119610000Y-142630000D02*
X118072000Y-142630000D01*
X123226000Y-142670000D02*
X121690000Y-142670000D01*
X119610000Y-142670000D02*
X118074000Y-142670000D01*
X123223000Y-142710000D02*
X121690000Y-142710000D01*
X119610000Y-142710000D02*
X118077000Y-142710000D01*
X123219000Y-142750000D02*
X121690000Y-142750000D01*
X119610000Y-142750000D02*
X118081000Y-142750000D01*
X123215000Y-142790000D02*
X121690000Y-142790000D01*
X119610000Y-142790000D02*
X118085000Y-142790000D01*
X123211000Y-142830000D02*
X121690000Y-142830000D01*
X119610000Y-142830000D02*
X118089000Y-142830000D01*
X123206000Y-142870000D02*
X121690000Y-142870000D01*
X119610000Y-142870000D02*
X118094000Y-142870000D01*
X123200000Y-142910000D02*
X121690000Y-142910000D01*
X119610000Y-142910000D02*
X118100000Y-142910000D01*
X123193000Y-142950000D02*
X121690000Y-142950000D01*
X119610000Y-142950000D02*
X118107000Y-142950000D01*
X123186000Y-142990000D02*
X121690000Y-142990000D01*
X119610000Y-142990000D02*
X118114000Y-142990000D01*
X123178000Y-143030000D02*
X121690000Y-143030000D01*
X119610000Y-143030000D02*
X118122000Y-143030000D01*
X123170000Y-143070000D02*
X121690000Y-143070000D01*
X119610000Y-143070000D02*
X118130000Y-143070000D01*
X123161000Y-143110000D02*
X121690000Y-143110000D01*
X119610000Y-143110000D02*
X118139000Y-143110000D01*
X123151000Y-143150000D02*
X121690000Y-143150000D01*
X119610000Y-143150000D02*
X118149000Y-143150000D01*
X123141000Y-143190000D02*
X121690000Y-143190000D01*
X119610000Y-143190000D02*
X118159000Y-143190000D01*
X123130000Y-143231000D02*
X121690000Y-143231000D01*
X119610000Y-143231000D02*
X118170000Y-143231000D01*
X123118000Y-143271000D02*
X121690000Y-143271000D01*
X119610000Y-143271000D02*
X118182000Y-143271000D01*
X123105000Y-143311000D02*
X121690000Y-143311000D01*
X119610000Y-143311000D02*
X118195000Y-143311000D01*
X123092000Y-143351000D02*
X121690000Y-143351000D01*
X119610000Y-143351000D02*
X118208000Y-143351000D01*
X123078000Y-143391000D02*
X121690000Y-143391000D01*
X119610000Y-143391000D02*
X118222000Y-143391000D01*
X123064000Y-143431000D02*
X121690000Y-143431000D01*
X119610000Y-143431000D02*
X118236000Y-143431000D01*
X123048000Y-143471000D02*
X121690000Y-143471000D01*
X119610000Y-143471000D02*
X118252000Y-143471000D01*
X123032000Y-143511000D02*
X121690000Y-143511000D01*
X119610000Y-143511000D02*
X118268000Y-143511000D01*
X123015000Y-143551000D02*
X121690000Y-143551000D01*
X119610000Y-143551000D02*
X118285000Y-143551000D01*
X122998000Y-143591000D02*
X121690000Y-143591000D01*
X119610000Y-143591000D02*
X118302000Y-143591000D01*
X122979000Y-143631000D02*
X121690000Y-143631000D01*
X119610000Y-143631000D02*
X118321000Y-143631000D01*
X122960000Y-143671000D02*
X121690000Y-143671000D01*
X119610000Y-143671000D02*
X118340000Y-143671000D01*
X122940000Y-143711000D02*
X121690000Y-143711000D01*
X119610000Y-143711000D02*
X118360000Y-143711000D01*
X122918000Y-143751000D02*
X121690000Y-143751000D01*
X119610000Y-143751000D02*
X118382000Y-143751000D01*
X122897000Y-143791000D02*
X121690000Y-143791000D01*
X119610000Y-143791000D02*
X118403000Y-143791000D01*
X122874000Y-143831000D02*
X121690000Y-143831000D01*
X119610000Y-143831000D02*
X118426000Y-143831000D01*
X122850000Y-143871000D02*
X121690000Y-143871000D01*
X119610000Y-143871000D02*
X118450000Y-143871000D01*
X122825000Y-143911000D02*
X121690000Y-143911000D01*
X119610000Y-143911000D02*
X118475000Y-143911000D01*
X122799000Y-143951000D02*
X121690000Y-143951000D01*
X119610000Y-143951000D02*
X118501000Y-143951000D01*
X122772000Y-143991000D02*
X121690000Y-143991000D01*
X119610000Y-143991000D02*
X118528000Y-143991000D01*
X122745000Y-144031000D02*
X121690000Y-144031000D01*
X119610000Y-144031000D02*
X118555000Y-144031000D01*
X122715000Y-144071000D02*
X121690000Y-144071000D01*
X119610000Y-144071000D02*
X118585000Y-144071000D01*
X122685000Y-144111000D02*
X121690000Y-144111000D01*
X119610000Y-144111000D02*
X118615000Y-144111000D01*
X122654000Y-144151000D02*
X121690000Y-144151000D01*
X119610000Y-144151000D02*
X118646000Y-144151000D01*
X122621000Y-144191000D02*
X121690000Y-144191000D01*
X119610000Y-144191000D02*
X118679000Y-144191000D01*
X122587000Y-144231000D02*
X121690000Y-144231000D01*
X119610000Y-144231000D02*
X118713000Y-144231000D01*
X122551000Y-144271000D02*
X121690000Y-144271000D01*
X119610000Y-144271000D02*
X118749000Y-144271000D01*
X122514000Y-144311000D02*
X121690000Y-144311000D01*
X119610000Y-144311000D02*
X118786000Y-144311000D01*
X122476000Y-144351000D02*
X121690000Y-144351000D01*
X119610000Y-144351000D02*
X118824000Y-144351000D01*
X122435000Y-144391000D02*
X121690000Y-144391000D01*
X119610000Y-144391000D02*
X118865000Y-144391000D01*
X122393000Y-144431000D02*
X121690000Y-144431000D01*
X119610000Y-144431000D02*
X118907000Y-144431000D01*
X122349000Y-144471000D02*
X121690000Y-144471000D01*
X119610000Y-144471000D02*
X118951000Y-144471000D01*
X122303000Y-144511000D02*
X121690000Y-144511000D01*
X119610000Y-144511000D02*
X118997000Y-144511000D01*
X122255000Y-144551000D02*
X119045000Y-144551000D01*
X122204000Y-144591000D02*
X119096000Y-144591000D01*
X122150000Y-144631000D02*
X119150000Y-144631000D01*
X122093000Y-144671000D02*
X119207000Y-144671000D01*
X122033000Y-144711000D02*
X119267000Y-144711000D01*
X121969000Y-144751000D02*
X119331000Y-144751000D01*
X121901000Y-144791000D02*
X119399000Y-144791000D01*
X121828000Y-144831000D02*
X119472000Y-144831000D01*
X121748000Y-144871000D02*
X119552000Y-144871000D01*
X121661000Y-144911000D02*
X119639000Y-144911000D01*
X121565000Y-144951000D02*
X119735000Y-144951000D01*
X121455000Y-144991000D02*
X119845000Y-144991000D01*
X121327000Y-145031000D02*
X119973000Y-145031000D01*
X121168000Y-145071000D02*
X120132000Y-145071000D01*
X120934000Y-145111000D02*
X120366000Y-145111000D01*
X123270000Y-142510000D02*
G75*
G03*
X123270000Y-142510000I-2620000J0D01*
G01*
X170060000Y-112770000D02*
X170060000Y-113540000D01*
X171430000Y-113540000D02*
X168690000Y-113540000D01*
X168690000Y-113540000D02*
X168690000Y-120080000D01*
X171430000Y-120080000D02*
X171430000Y-113540000D01*
X168690000Y-120080000D02*
X171430000Y-120080000D01*
X170060000Y-120850000D02*
X170060000Y-120080000D01*
X118042500Y-99035255D02*
X118812500Y-99035255D01*
X118812500Y-97665255D02*
X118812500Y-100405255D01*
X118812500Y-100405255D02*
X125352500Y-100405255D01*
X125352500Y-97665255D02*
X118812500Y-97665255D01*
X125352500Y-100405255D02*
X125352500Y-97665255D01*
X126122500Y-99035255D02*
X125352500Y-99035255D01*
X157130000Y-99020000D02*
X157900000Y-99020000D01*
X157900000Y-97650000D02*
X157900000Y-100390000D01*
X157900000Y-100390000D02*
X164440000Y-100390000D01*
X164440000Y-97650000D02*
X157900000Y-97650000D01*
X164440000Y-100390000D02*
X164440000Y-97650000D01*
X165210000Y-99020000D02*
X164440000Y-99020000D01*
X116942500Y-116545255D02*
G75*
G03*
X116942500Y-114545255I0J1000000D01*
G01*
X127222500Y-112895255D02*
X116942500Y-112895255D01*
X116942500Y-112895255D02*
X116942500Y-114545255D01*
X116942500Y-116545255D02*
X116942500Y-118195255D01*
X127222500Y-118195255D02*
X127222500Y-112895255D01*
X116942500Y-118195255D02*
X127222500Y-118195255D01*
X166180000Y-125475000D02*
X166180000Y-125790000D01*
X166180000Y-123050000D02*
X166180000Y-123365000D01*
X161240000Y-125790000D02*
X166180000Y-125790000D01*
X161240000Y-125475000D02*
X161240000Y-125790000D01*
X161240000Y-123050000D02*
X166180000Y-123050000D01*
X161240000Y-123050000D02*
X161240000Y-123365000D01*
X137890978Y-98343733D02*
G75*
G03*
X136052500Y-93905255I-1838478J1838478D01*
G01*
X136052500Y-93905255D02*
G75*
G03*
X134214022Y-98343733I0J-2600000D01*
G01*
X134252500Y-98355255D02*
X137852500Y-98355255D01*
X170680000Y-65802755D02*
G75*
G03*
X170680000Y-65802755I-8120000J0D01*
G01*
X161795000Y-57721755D02*
X163325000Y-57721755D01*
X161462000Y-57761755D02*
X163658000Y-57761755D01*
X161209000Y-57801755D02*
X163911000Y-57801755D01*
X160996000Y-57841755D02*
X164124000Y-57841755D01*
X160808000Y-57881755D02*
X164312000Y-57881755D01*
X160640000Y-57921755D02*
X164480000Y-57921755D01*
X160486000Y-57961755D02*
X164634000Y-57961755D01*
X160342000Y-58001755D02*
X164778000Y-58001755D01*
X160209000Y-58041755D02*
X164911000Y-58041755D01*
X160082000Y-58081755D02*
X165038000Y-58081755D01*
X159963000Y-58121755D02*
X165157000Y-58121755D01*
X159849000Y-58161755D02*
X165271000Y-58161755D01*
X159740000Y-58201755D02*
X165380000Y-58201755D01*
X159636000Y-58241755D02*
X165484000Y-58241755D01*
X159536000Y-58281755D02*
X165584000Y-58281755D01*
X159440000Y-58321755D02*
X165680000Y-58321755D01*
X159347000Y-58361755D02*
X165773000Y-58361755D01*
X159257000Y-58401755D02*
X165863000Y-58401755D01*
X159170000Y-58441755D02*
X165950000Y-58441755D01*
X159085000Y-58481755D02*
X166035000Y-58481755D01*
X159003000Y-58521755D02*
X166117000Y-58521755D01*
X158923000Y-58561755D02*
X166197000Y-58561755D01*
X158845000Y-58601755D02*
X166275000Y-58601755D01*
X158770000Y-58641755D02*
X166350000Y-58641755D01*
X158696000Y-58681755D02*
X166424000Y-58681755D01*
X158624000Y-58721755D02*
X166496000Y-58721755D01*
X158553000Y-58761755D02*
X166567000Y-58761755D01*
X158484000Y-58801755D02*
X166636000Y-58801755D01*
X158417000Y-58841755D02*
X166703000Y-58841755D01*
X158351000Y-58881755D02*
X166769000Y-58881755D01*
X158287000Y-58921755D02*
X166833000Y-58921755D01*
X158224000Y-58961755D02*
X166896000Y-58961755D01*
X158162000Y-59001755D02*
X166958000Y-59001755D01*
X158101000Y-59041755D02*
X167019000Y-59041755D01*
X158041000Y-59081755D02*
X167079000Y-59081755D01*
X157983000Y-59121755D02*
X167137000Y-59121755D01*
X157926000Y-59161755D02*
X167194000Y-59161755D01*
X157869000Y-59201755D02*
X167251000Y-59201755D01*
X157814000Y-59241755D02*
X167306000Y-59241755D01*
X157760000Y-59281755D02*
X167360000Y-59281755D01*
X157706000Y-59321755D02*
X167414000Y-59321755D01*
X157654000Y-59361755D02*
X167466000Y-59361755D01*
X157602000Y-59401755D02*
X167518000Y-59401755D01*
X157551000Y-59441755D02*
X167569000Y-59441755D01*
X157501000Y-59481755D02*
X167619000Y-59481755D01*
X157452000Y-59521755D02*
X167668000Y-59521755D01*
X157404000Y-59561755D02*
X167716000Y-59561755D01*
X157356000Y-59601755D02*
X167764000Y-59601755D01*
X157309000Y-59641755D02*
X167811000Y-59641755D01*
X157263000Y-59681755D02*
X167857000Y-59681755D01*
X157217000Y-59721755D02*
X167903000Y-59721755D01*
X157172000Y-59761755D02*
X167948000Y-59761755D01*
X157128000Y-59801755D02*
X167992000Y-59801755D01*
X157085000Y-59841755D02*
X168035000Y-59841755D01*
X157042000Y-59881755D02*
X168078000Y-59881755D01*
X157000000Y-59921755D02*
X168120000Y-59921755D01*
X156958000Y-59961755D02*
X168162000Y-59961755D01*
X156917000Y-60001755D02*
X168203000Y-60001755D01*
X156876000Y-60041755D02*
X168244000Y-60041755D01*
X156836000Y-60081755D02*
X168284000Y-60081755D01*
X156797000Y-60121755D02*
X168323000Y-60121755D01*
X156758000Y-60161755D02*
X168362000Y-60161755D01*
X156720000Y-60201755D02*
X168400000Y-60201755D01*
X156682000Y-60241755D02*
X168438000Y-60241755D01*
X156644000Y-60281755D02*
X168476000Y-60281755D01*
X156608000Y-60321755D02*
X168512000Y-60321755D01*
X156571000Y-60361755D02*
X168549000Y-60361755D01*
X156535000Y-60401755D02*
X168585000Y-60401755D01*
X156500000Y-60441755D02*
X168620000Y-60441755D01*
X156465000Y-60481755D02*
X168655000Y-60481755D01*
X156431000Y-60521755D02*
X168689000Y-60521755D01*
X156397000Y-60561755D02*
X168723000Y-60561755D01*
X156363000Y-60601755D02*
X168757000Y-60601755D01*
X164000000Y-60641755D02*
X168790000Y-60641755D01*
X156330000Y-60641755D02*
X161120000Y-60641755D01*
X164000000Y-60681755D02*
X168823000Y-60681755D01*
X156297000Y-60681755D02*
X161120000Y-60681755D01*
X164000000Y-60721755D02*
X168855000Y-60721755D01*
X156265000Y-60721755D02*
X161120000Y-60721755D01*
X164000000Y-60761755D02*
X168887000Y-60761755D01*
X156233000Y-60761755D02*
X161120000Y-60761755D01*
X164000000Y-60801755D02*
X168918000Y-60801755D01*
X156202000Y-60801755D02*
X161120000Y-60801755D01*
X164000000Y-60841755D02*
X168950000Y-60841755D01*
X156170000Y-60841755D02*
X161120000Y-60841755D01*
X164000000Y-60881755D02*
X168980000Y-60881755D01*
X156140000Y-60881755D02*
X161120000Y-60881755D01*
X164000000Y-60921755D02*
X169010000Y-60921755D01*
X156110000Y-60921755D02*
X161120000Y-60921755D01*
X164000000Y-60961755D02*
X169040000Y-60961755D01*
X156080000Y-60961755D02*
X161120000Y-60961755D01*
X164000000Y-61001755D02*
X169070000Y-61001755D01*
X156050000Y-61001755D02*
X161120000Y-61001755D01*
X164000000Y-61041755D02*
X169099000Y-61041755D01*
X156021000Y-61041755D02*
X161120000Y-61041755D01*
X164000000Y-61081755D02*
X169128000Y-61081755D01*
X155992000Y-61081755D02*
X161120000Y-61081755D01*
X164000000Y-61121755D02*
X169156000Y-61121755D01*
X155964000Y-61121755D02*
X161120000Y-61121755D01*
X164000000Y-61161755D02*
X169184000Y-61161755D01*
X155936000Y-61161755D02*
X161120000Y-61161755D01*
X164000000Y-61201755D02*
X169212000Y-61201755D01*
X155908000Y-61201755D02*
X161120000Y-61201755D01*
X164000000Y-61241755D02*
X169239000Y-61241755D01*
X155881000Y-61241755D02*
X161120000Y-61241755D01*
X164000000Y-61281755D02*
X169266000Y-61281755D01*
X155854000Y-61281755D02*
X161120000Y-61281755D01*
X164000000Y-61321755D02*
X169293000Y-61321755D01*
X155827000Y-61321755D02*
X161120000Y-61321755D01*
X164000000Y-61361755D02*
X169319000Y-61361755D01*
X155801000Y-61361755D02*
X161120000Y-61361755D01*
X164000000Y-61401755D02*
X169345000Y-61401755D01*
X155775000Y-61401755D02*
X161120000Y-61401755D01*
X164000000Y-61441755D02*
X169371000Y-61441755D01*
X155749000Y-61441755D02*
X161120000Y-61441755D01*
X164000000Y-61481755D02*
X169396000Y-61481755D01*
X155724000Y-61481755D02*
X161120000Y-61481755D01*
X164000000Y-61521755D02*
X169421000Y-61521755D01*
X155699000Y-61521755D02*
X161120000Y-61521755D01*
X164000000Y-61561755D02*
X169446000Y-61561755D01*
X155674000Y-61561755D02*
X161120000Y-61561755D01*
X164000000Y-61601755D02*
X169470000Y-61601755D01*
X155650000Y-61601755D02*
X161120000Y-61601755D01*
X164000000Y-61641755D02*
X169494000Y-61641755D01*
X155626000Y-61641755D02*
X161120000Y-61641755D01*
X164000000Y-61681755D02*
X169518000Y-61681755D01*
X155602000Y-61681755D02*
X161120000Y-61681755D01*
X164000000Y-61721755D02*
X169541000Y-61721755D01*
X155579000Y-61721755D02*
X161120000Y-61721755D01*
X164000000Y-61761755D02*
X169564000Y-61761755D01*
X155556000Y-61761755D02*
X161120000Y-61761755D01*
X164000000Y-61801755D02*
X169587000Y-61801755D01*
X155533000Y-61801755D02*
X161120000Y-61801755D01*
X164000000Y-61841755D02*
X169609000Y-61841755D01*
X155511000Y-61841755D02*
X161120000Y-61841755D01*
X164000000Y-61881755D02*
X169632000Y-61881755D01*
X155488000Y-61881755D02*
X161120000Y-61881755D01*
X164000000Y-61921755D02*
X169654000Y-61921755D01*
X155466000Y-61921755D02*
X161120000Y-61921755D01*
X164000000Y-61961755D02*
X169675000Y-61961755D01*
X155445000Y-61961755D02*
X161120000Y-61961755D01*
X164000000Y-62001755D02*
X169696000Y-62001755D01*
X155424000Y-62001755D02*
X161120000Y-62001755D01*
X164000000Y-62041755D02*
X169717000Y-62041755D01*
X155403000Y-62041755D02*
X161120000Y-62041755D01*
X164000000Y-62081755D02*
X169738000Y-62081755D01*
X155382000Y-62081755D02*
X161120000Y-62081755D01*
X164000000Y-62121755D02*
X169759000Y-62121755D01*
X155361000Y-62121755D02*
X161120000Y-62121755D01*
X164000000Y-62161755D02*
X169779000Y-62161755D01*
X155341000Y-62161755D02*
X161120000Y-62161755D01*
X164000000Y-62201755D02*
X169799000Y-62201755D01*
X155321000Y-62201755D02*
X161120000Y-62201755D01*
X164000000Y-62241755D02*
X169818000Y-62241755D01*
X155302000Y-62241755D02*
X161120000Y-62241755D01*
X164000000Y-62281755D02*
X169838000Y-62281755D01*
X155282000Y-62281755D02*
X161120000Y-62281755D01*
X164000000Y-62321755D02*
X169857000Y-62321755D01*
X155263000Y-62321755D02*
X161120000Y-62321755D01*
X164000000Y-62361755D02*
X169876000Y-62361755D01*
X155244000Y-62361755D02*
X161120000Y-62361755D01*
X164000000Y-62401755D02*
X169894000Y-62401755D01*
X155226000Y-62401755D02*
X161120000Y-62401755D01*
X164000000Y-62441755D02*
X169913000Y-62441755D01*
X155207000Y-62441755D02*
X161120000Y-62441755D01*
X164000000Y-62481755D02*
X169931000Y-62481755D01*
X155189000Y-62481755D02*
X161120000Y-62481755D01*
X164000000Y-62521755D02*
X169949000Y-62521755D01*
X155171000Y-62521755D02*
X161120000Y-62521755D01*
X164000000Y-62561755D02*
X169966000Y-62561755D01*
X155154000Y-62561755D02*
X161120000Y-62561755D01*
X164000000Y-62601755D02*
X169983000Y-62601755D01*
X155137000Y-62601755D02*
X161120000Y-62601755D01*
X164000000Y-62641755D02*
X170000000Y-62641755D01*
X155120000Y-62641755D02*
X161120000Y-62641755D01*
X164000000Y-62681755D02*
X170017000Y-62681755D01*
X155103000Y-62681755D02*
X161120000Y-62681755D01*
X164000000Y-62721755D02*
X170034000Y-62721755D01*
X155086000Y-62721755D02*
X161120000Y-62721755D01*
X164000000Y-62761755D02*
X170050000Y-62761755D01*
X155070000Y-62761755D02*
X161120000Y-62761755D01*
X164000000Y-62801755D02*
X170066000Y-62801755D01*
X155054000Y-62801755D02*
X161120000Y-62801755D01*
X164000000Y-62841755D02*
X170082000Y-62841755D01*
X155038000Y-62841755D02*
X161120000Y-62841755D01*
X164000000Y-62881755D02*
X170097000Y-62881755D01*
X155023000Y-62881755D02*
X161120000Y-62881755D01*
X164000000Y-62921755D02*
X170113000Y-62921755D01*
X155007000Y-62921755D02*
X161120000Y-62921755D01*
X164000000Y-62961755D02*
X170128000Y-62961755D01*
X154992000Y-62961755D02*
X161120000Y-62961755D01*
X164000000Y-63001755D02*
X170142000Y-63001755D01*
X154978000Y-63001755D02*
X161120000Y-63001755D01*
X164000000Y-63041755D02*
X170157000Y-63041755D01*
X154963000Y-63041755D02*
X161120000Y-63041755D01*
X164000000Y-63081755D02*
X170171000Y-63081755D01*
X154949000Y-63081755D02*
X161120000Y-63081755D01*
X164000000Y-63121755D02*
X170185000Y-63121755D01*
X154935000Y-63121755D02*
X161120000Y-63121755D01*
X164000000Y-63161755D02*
X170199000Y-63161755D01*
X154921000Y-63161755D02*
X161120000Y-63161755D01*
X164000000Y-63201755D02*
X170213000Y-63201755D01*
X154907000Y-63201755D02*
X161120000Y-63201755D01*
X164000000Y-63241755D02*
X170226000Y-63241755D01*
X154894000Y-63241755D02*
X161120000Y-63241755D01*
X164000000Y-63281755D02*
X170240000Y-63281755D01*
X154880000Y-63281755D02*
X161120000Y-63281755D01*
X164000000Y-63321755D02*
X170253000Y-63321755D01*
X154867000Y-63321755D02*
X161120000Y-63321755D01*
X164000000Y-63361755D02*
X170265000Y-63361755D01*
X154855000Y-63361755D02*
X161120000Y-63361755D01*
X164000000Y-63401755D02*
X170278000Y-63401755D01*
X154842000Y-63401755D02*
X161120000Y-63401755D01*
X164000000Y-63441755D02*
X170290000Y-63441755D01*
X154830000Y-63441755D02*
X161120000Y-63441755D01*
X164000000Y-63481755D02*
X170302000Y-63481755D01*
X154818000Y-63481755D02*
X161120000Y-63481755D01*
X154806000Y-63521755D02*
X170314000Y-63521755D01*
X154795000Y-63561755D02*
X170325000Y-63561755D01*
X154783000Y-63601755D02*
X170337000Y-63601755D01*
X154772000Y-63641755D02*
X170348000Y-63641755D01*
X154761000Y-63681755D02*
X170359000Y-63681755D01*
X154750000Y-63721755D02*
X170370000Y-63721755D01*
X154740000Y-63761755D02*
X170380000Y-63761755D01*
X154730000Y-63801755D02*
X170390000Y-63801755D01*
X154720000Y-63841755D02*
X170400000Y-63841755D01*
X154710000Y-63881755D02*
X170410000Y-63881755D01*
X154700000Y-63921755D02*
X170420000Y-63921755D01*
X154691000Y-63961755D02*
X170429000Y-63961755D01*
X154682000Y-64001755D02*
X170438000Y-64001755D01*
X154673000Y-64041755D02*
X170447000Y-64041755D01*
X154664000Y-64081755D02*
X170456000Y-64081755D01*
X154655000Y-64121755D02*
X170465000Y-64121755D01*
X154647000Y-64161755D02*
X170473000Y-64161755D01*
X154639000Y-64201755D02*
X170481000Y-64201755D01*
X154631000Y-64241755D02*
X170489000Y-64241755D01*
X154623000Y-64281755D02*
X170497000Y-64281755D01*
X154616000Y-64321755D02*
X170504000Y-64321755D01*
X154608000Y-64361755D02*
X170512000Y-64361755D01*
X154601000Y-64401755D02*
X170519000Y-64401755D01*
X154594000Y-64441755D02*
X170526000Y-64441755D01*
X154588000Y-64481755D02*
X170532000Y-64481755D01*
X154581000Y-64521755D02*
X170539000Y-64521755D01*
X154575000Y-64561755D02*
X170545000Y-64561755D01*
X154569000Y-64601755D02*
X170551000Y-64601755D01*
X154563000Y-64641755D02*
X170557000Y-64641755D01*
X154557000Y-64681755D02*
X170563000Y-64681755D01*
X154552000Y-64721755D02*
X170568000Y-64721755D01*
X154546000Y-64761755D02*
X170574000Y-64761755D01*
X154541000Y-64801755D02*
X170579000Y-64801755D01*
X154536000Y-64841755D02*
X170584000Y-64841755D01*
X154532000Y-64881755D02*
X170588000Y-64881755D01*
X154527000Y-64921755D02*
X170593000Y-64921755D01*
X154523000Y-64961755D02*
X170597000Y-64961755D01*
X154519000Y-65001755D02*
X170601000Y-65001755D01*
X154515000Y-65041755D02*
X170605000Y-65041755D01*
X154511000Y-65081755D02*
X170609000Y-65081755D01*
X154508000Y-65122755D02*
X170612000Y-65122755D01*
X154505000Y-65162755D02*
X170615000Y-65162755D01*
X154502000Y-65202755D02*
X170618000Y-65202755D01*
X154499000Y-65242755D02*
X170621000Y-65242755D01*
X154496000Y-65282755D02*
X170624000Y-65282755D01*
X154494000Y-65322755D02*
X170626000Y-65322755D01*
X154491000Y-65362755D02*
X170629000Y-65362755D01*
X154489000Y-65402755D02*
X170631000Y-65402755D01*
X154487000Y-65442755D02*
X170633000Y-65442755D01*
X154486000Y-65482755D02*
X170634000Y-65482755D01*
X154484000Y-65522755D02*
X170636000Y-65522755D01*
X154483000Y-65562755D02*
X170637000Y-65562755D01*
X154482000Y-65602755D02*
X170638000Y-65602755D01*
X154481000Y-65642755D02*
X170639000Y-65642755D01*
X154480000Y-65682755D02*
X170640000Y-65682755D01*
X154480000Y-65722755D02*
X170640000Y-65722755D01*
X154480000Y-65762755D02*
X170640000Y-65762755D01*
X154479000Y-65802755D02*
X170641000Y-65802755D01*
X157205000Y-73692246D02*
X158805000Y-73692246D01*
X158005000Y-74492246D02*
X158005000Y-72892246D01*
X127092500Y-125490255D02*
X127092500Y-125805255D01*
X127092500Y-123065255D02*
X127092500Y-123380255D01*
X122152500Y-125805255D02*
X127092500Y-125805255D01*
X122152500Y-125490255D02*
X122152500Y-125805255D01*
X122152500Y-123065255D02*
X127092500Y-123065255D01*
X122152500Y-123065255D02*
X122152500Y-123380255D01*
X152495000Y-118000000D02*
X152180000Y-118000000D01*
X154920000Y-118000000D02*
X154605000Y-118000000D01*
X152180000Y-113060000D02*
X152180000Y-118000000D01*
X152495000Y-113060000D02*
X152180000Y-113060000D01*
X154920000Y-113060000D02*
X154920000Y-118000000D01*
X154920000Y-113060000D02*
X154605000Y-113060000D01*
X131472500Y-65788010D02*
G75*
G03*
X131472500Y-65788010I-8120000J0D01*
G01*
X122587500Y-57707010D02*
X124117500Y-57707010D01*
X122254500Y-57747010D02*
X124450500Y-57747010D01*
X122001500Y-57787010D02*
X124703500Y-57787010D01*
X121788500Y-57827010D02*
X124916500Y-57827010D01*
X121600500Y-57867010D02*
X125104500Y-57867010D01*
X121432500Y-57907010D02*
X125272500Y-57907010D01*
X121278500Y-57947010D02*
X125426500Y-57947010D01*
X121134500Y-57987010D02*
X125570500Y-57987010D01*
X121001500Y-58027010D02*
X125703500Y-58027010D01*
X120874500Y-58067010D02*
X125830500Y-58067010D01*
X120755500Y-58107010D02*
X125949500Y-58107010D01*
X120641500Y-58147010D02*
X126063500Y-58147010D01*
X120532500Y-58187010D02*
X126172500Y-58187010D01*
X120428500Y-58227010D02*
X126276500Y-58227010D01*
X120328500Y-58267010D02*
X126376500Y-58267010D01*
X120232500Y-58307010D02*
X126472500Y-58307010D01*
X120139500Y-58347010D02*
X126565500Y-58347010D01*
X120049500Y-58387010D02*
X126655500Y-58387010D01*
X119962500Y-58427010D02*
X126742500Y-58427010D01*
X119877500Y-58467010D02*
X126827500Y-58467010D01*
X119795500Y-58507010D02*
X126909500Y-58507010D01*
X119715500Y-58547010D02*
X126989500Y-58547010D01*
X119637500Y-58587010D02*
X127067500Y-58587010D01*
X119562500Y-58627010D02*
X127142500Y-58627010D01*
X119488500Y-58667010D02*
X127216500Y-58667010D01*
X119416500Y-58707010D02*
X127288500Y-58707010D01*
X119345500Y-58747010D02*
X127359500Y-58747010D01*
X119276500Y-58787010D02*
X127428500Y-58787010D01*
X119209500Y-58827010D02*
X127495500Y-58827010D01*
X119143500Y-58867010D02*
X127561500Y-58867010D01*
X119079500Y-58907010D02*
X127625500Y-58907010D01*
X119016500Y-58947010D02*
X127688500Y-58947010D01*
X118954500Y-58987010D02*
X127750500Y-58987010D01*
X118893500Y-59027010D02*
X127811500Y-59027010D01*
X118833500Y-59067010D02*
X127871500Y-59067010D01*
X118775500Y-59107010D02*
X127929500Y-59107010D01*
X118718500Y-59147010D02*
X127986500Y-59147010D01*
X118661500Y-59187010D02*
X128043500Y-59187010D01*
X118606500Y-59227010D02*
X128098500Y-59227010D01*
X118552500Y-59267010D02*
X128152500Y-59267010D01*
X118498500Y-59307010D02*
X128206500Y-59307010D01*
X118446500Y-59347010D02*
X128258500Y-59347010D01*
X118394500Y-59387010D02*
X128310500Y-59387010D01*
X118343500Y-59427010D02*
X128361500Y-59427010D01*
X118293500Y-59467010D02*
X128411500Y-59467010D01*
X118244500Y-59507010D02*
X128460500Y-59507010D01*
X118196500Y-59547010D02*
X128508500Y-59547010D01*
X118148500Y-59587010D02*
X128556500Y-59587010D01*
X118101500Y-59627010D02*
X128603500Y-59627010D01*
X118055500Y-59667010D02*
X128649500Y-59667010D01*
X118009500Y-59707010D02*
X128695500Y-59707010D01*
X117964500Y-59747010D02*
X128740500Y-59747010D01*
X117920500Y-59787010D02*
X128784500Y-59787010D01*
X117877500Y-59827010D02*
X128827500Y-59827010D01*
X117834500Y-59867010D02*
X128870500Y-59867010D01*
X117792500Y-59907010D02*
X128912500Y-59907010D01*
X117750500Y-59947010D02*
X128954500Y-59947010D01*
X117709500Y-59987010D02*
X128995500Y-59987010D01*
X117668500Y-60027010D02*
X129036500Y-60027010D01*
X117628500Y-60067010D02*
X129076500Y-60067010D01*
X117589500Y-60107010D02*
X129115500Y-60107010D01*
X117550500Y-60147010D02*
X129154500Y-60147010D01*
X117512500Y-60187010D02*
X129192500Y-60187010D01*
X117474500Y-60227010D02*
X129230500Y-60227010D01*
X117436500Y-60267010D02*
X129268500Y-60267010D01*
X117400500Y-60307010D02*
X129304500Y-60307010D01*
X117363500Y-60347010D02*
X129341500Y-60347010D01*
X117327500Y-60387010D02*
X129377500Y-60387010D01*
X117292500Y-60427010D02*
X129412500Y-60427010D01*
X117257500Y-60467010D02*
X129447500Y-60467010D01*
X117223500Y-60507010D02*
X129481500Y-60507010D01*
X117189500Y-60547010D02*
X129515500Y-60547010D01*
X117155500Y-60587010D02*
X129549500Y-60587010D01*
X124792500Y-60627010D02*
X129582500Y-60627010D01*
X117122500Y-60627010D02*
X121912500Y-60627010D01*
X124792500Y-60667010D02*
X129615500Y-60667010D01*
X117089500Y-60667010D02*
X121912500Y-60667010D01*
X124792500Y-60707010D02*
X129647500Y-60707010D01*
X117057500Y-60707010D02*
X121912500Y-60707010D01*
X124792500Y-60747010D02*
X129679500Y-60747010D01*
X117025500Y-60747010D02*
X121912500Y-60747010D01*
X124792500Y-60787010D02*
X129710500Y-60787010D01*
X116994500Y-60787010D02*
X121912500Y-60787010D01*
X124792500Y-60827010D02*
X129742500Y-60827010D01*
X116962500Y-60827010D02*
X121912500Y-60827010D01*
X124792500Y-60867010D02*
X129772500Y-60867010D01*
X116932500Y-60867010D02*
X121912500Y-60867010D01*
X124792500Y-60907010D02*
X129802500Y-60907010D01*
X116902500Y-60907010D02*
X121912500Y-60907010D01*
X124792500Y-60947010D02*
X129832500Y-60947010D01*
X116872500Y-60947010D02*
X121912500Y-60947010D01*
X124792500Y-60987010D02*
X129862500Y-60987010D01*
X116842500Y-60987010D02*
X121912500Y-60987010D01*
X124792500Y-61027010D02*
X129891500Y-61027010D01*
X116813500Y-61027010D02*
X121912500Y-61027010D01*
X124792500Y-61067010D02*
X129920500Y-61067010D01*
X116784500Y-61067010D02*
X121912500Y-61067010D01*
X124792500Y-61107010D02*
X129948500Y-61107010D01*
X116756500Y-61107010D02*
X121912500Y-61107010D01*
X124792500Y-61147010D02*
X129976500Y-61147010D01*
X116728500Y-61147010D02*
X121912500Y-61147010D01*
X124792500Y-61187010D02*
X130004500Y-61187010D01*
X116700500Y-61187010D02*
X121912500Y-61187010D01*
X124792500Y-61227010D02*
X130031500Y-61227010D01*
X116673500Y-61227010D02*
X121912500Y-61227010D01*
X124792500Y-61267010D02*
X130058500Y-61267010D01*
X116646500Y-61267010D02*
X121912500Y-61267010D01*
X124792500Y-61307010D02*
X130085500Y-61307010D01*
X116619500Y-61307010D02*
X121912500Y-61307010D01*
X124792500Y-61347010D02*
X130111500Y-61347010D01*
X116593500Y-61347010D02*
X121912500Y-61347010D01*
X124792500Y-61387010D02*
X130137500Y-61387010D01*
X116567500Y-61387010D02*
X121912500Y-61387010D01*
X124792500Y-61427010D02*
X130163500Y-61427010D01*
X116541500Y-61427010D02*
X121912500Y-61427010D01*
X124792500Y-61467010D02*
X130188500Y-61467010D01*
X116516500Y-61467010D02*
X121912500Y-61467010D01*
X124792500Y-61507010D02*
X130213500Y-61507010D01*
X116491500Y-61507010D02*
X121912500Y-61507010D01*
X124792500Y-61547010D02*
X130238500Y-61547010D01*
X116466500Y-61547010D02*
X121912500Y-61547010D01*
X124792500Y-61587010D02*
X130262500Y-61587010D01*
X116442500Y-61587010D02*
X121912500Y-61587010D01*
X124792500Y-61627010D02*
X130286500Y-61627010D01*
X116418500Y-61627010D02*
X121912500Y-61627010D01*
X124792500Y-61667010D02*
X130310500Y-61667010D01*
X116394500Y-61667010D02*
X121912500Y-61667010D01*
X124792500Y-61707010D02*
X130333500Y-61707010D01*
X116371500Y-61707010D02*
X121912500Y-61707010D01*
X124792500Y-61747010D02*
X130356500Y-61747010D01*
X116348500Y-61747010D02*
X121912500Y-61747010D01*
X124792500Y-61787010D02*
X130379500Y-61787010D01*
X116325500Y-61787010D02*
X121912500Y-61787010D01*
X124792500Y-61827010D02*
X130401500Y-61827010D01*
X116303500Y-61827010D02*
X121912500Y-61827010D01*
X124792500Y-61867010D02*
X130424500Y-61867010D01*
X116280500Y-61867010D02*
X121912500Y-61867010D01*
X124792500Y-61907010D02*
X130446500Y-61907010D01*
X116258500Y-61907010D02*
X121912500Y-61907010D01*
X124792500Y-61947010D02*
X130467500Y-61947010D01*
X116237500Y-61947010D02*
X121912500Y-61947010D01*
X124792500Y-61987010D02*
X130488500Y-61987010D01*
X116216500Y-61987010D02*
X121912500Y-61987010D01*
X124792500Y-62027010D02*
X130509500Y-62027010D01*
X116195500Y-62027010D02*
X121912500Y-62027010D01*
X124792500Y-62067010D02*
X130530500Y-62067010D01*
X116174500Y-62067010D02*
X121912500Y-62067010D01*
X124792500Y-62107010D02*
X130551500Y-62107010D01*
X116153500Y-62107010D02*
X121912500Y-62107010D01*
X124792500Y-62147010D02*
X130571500Y-62147010D01*
X116133500Y-62147010D02*
X121912500Y-62147010D01*
X124792500Y-62187010D02*
X130591500Y-62187010D01*
X116113500Y-62187010D02*
X121912500Y-62187010D01*
X124792500Y-62227010D02*
X130610500Y-62227010D01*
X116094500Y-62227010D02*
X121912500Y-62227010D01*
X124792500Y-62267010D02*
X130630500Y-62267010D01*
X116074500Y-62267010D02*
X121912500Y-62267010D01*
X124792500Y-62307010D02*
X130649500Y-62307010D01*
X116055500Y-62307010D02*
X121912500Y-62307010D01*
X124792500Y-62347010D02*
X130668500Y-62347010D01*
X116036500Y-62347010D02*
X121912500Y-62347010D01*
X124792500Y-62387010D02*
X130686500Y-62387010D01*
X116018500Y-62387010D02*
X121912500Y-62387010D01*
X124792500Y-62427010D02*
X130705500Y-62427010D01*
X115999500Y-62427010D02*
X121912500Y-62427010D01*
X124792500Y-62467010D02*
X130723500Y-62467010D01*
X115981500Y-62467010D02*
X121912500Y-62467010D01*
X124792500Y-62507010D02*
X130741500Y-62507010D01*
X115963500Y-62507010D02*
X121912500Y-62507010D01*
X124792500Y-62547010D02*
X130758500Y-62547010D01*
X115946500Y-62547010D02*
X121912500Y-62547010D01*
X124792500Y-62587010D02*
X130775500Y-62587010D01*
X115929500Y-62587010D02*
X121912500Y-62587010D01*
X124792500Y-62627010D02*
X130792500Y-62627010D01*
X115912500Y-62627010D02*
X121912500Y-62627010D01*
X124792500Y-62667010D02*
X130809500Y-62667010D01*
X115895500Y-62667010D02*
X121912500Y-62667010D01*
X124792500Y-62707010D02*
X130826500Y-62707010D01*
X115878500Y-62707010D02*
X121912500Y-62707010D01*
X124792500Y-62747010D02*
X130842500Y-62747010D01*
X115862500Y-62747010D02*
X121912500Y-62747010D01*
X124792500Y-62787010D02*
X130858500Y-62787010D01*
X115846500Y-62787010D02*
X121912500Y-62787010D01*
X124792500Y-62827010D02*
X130874500Y-62827010D01*
X115830500Y-62827010D02*
X121912500Y-62827010D01*
X124792500Y-62867010D02*
X130889500Y-62867010D01*
X115815500Y-62867010D02*
X121912500Y-62867010D01*
X124792500Y-62907010D02*
X130905500Y-62907010D01*
X115799500Y-62907010D02*
X121912500Y-62907010D01*
X124792500Y-62947010D02*
X130920500Y-62947010D01*
X115784500Y-62947010D02*
X121912500Y-62947010D01*
X124792500Y-62987010D02*
X130934500Y-62987010D01*
X115770500Y-62987010D02*
X121912500Y-62987010D01*
X124792500Y-63027010D02*
X130949500Y-63027010D01*
X115755500Y-63027010D02*
X121912500Y-63027010D01*
X124792500Y-63067010D02*
X130963500Y-63067010D01*
X115741500Y-63067010D02*
X121912500Y-63067010D01*
X124792500Y-63107010D02*
X130977500Y-63107010D01*
X115727500Y-63107010D02*
X121912500Y-63107010D01*
X124792500Y-63147010D02*
X130991500Y-63147010D01*
X115713500Y-63147010D02*
X121912500Y-63147010D01*
X124792500Y-63187010D02*
X131005500Y-63187010D01*
X115699500Y-63187010D02*
X121912500Y-63187010D01*
X124792500Y-63227010D02*
X131018500Y-63227010D01*
X115686500Y-63227010D02*
X121912500Y-63227010D01*
X124792500Y-63267010D02*
X131032500Y-63267010D01*
X115672500Y-63267010D02*
X121912500Y-63267010D01*
X124792500Y-63307010D02*
X131045500Y-63307010D01*
X115659500Y-63307010D02*
X121912500Y-63307010D01*
X124792500Y-63347010D02*
X131057500Y-63347010D01*
X115647500Y-63347010D02*
X121912500Y-63347010D01*
X124792500Y-63387010D02*
X131070500Y-63387010D01*
X115634500Y-63387010D02*
X121912500Y-63387010D01*
X124792500Y-63427010D02*
X131082500Y-63427010D01*
X115622500Y-63427010D02*
X121912500Y-63427010D01*
X124792500Y-63467010D02*
X131094500Y-63467010D01*
X115610500Y-63467010D02*
X121912500Y-63467010D01*
X115598500Y-63507010D02*
X131106500Y-63507010D01*
X115587500Y-63547010D02*
X131117500Y-63547010D01*
X115575500Y-63587010D02*
X131129500Y-63587010D01*
X115564500Y-63627010D02*
X131140500Y-63627010D01*
X115553500Y-63667010D02*
X131151500Y-63667010D01*
X115542500Y-63707010D02*
X131162500Y-63707010D01*
X115532500Y-63747010D02*
X131172500Y-63747010D01*
X115522500Y-63787010D02*
X131182500Y-63787010D01*
X115512500Y-63827010D02*
X131192500Y-63827010D01*
X115502500Y-63867010D02*
X131202500Y-63867010D01*
X115492500Y-63907010D02*
X131212500Y-63907010D01*
X115483500Y-63947010D02*
X131221500Y-63947010D01*
X115474500Y-63987010D02*
X131230500Y-63987010D01*
X115465500Y-64027010D02*
X131239500Y-64027010D01*
X115456500Y-64067010D02*
X131248500Y-64067010D01*
X115447500Y-64107010D02*
X131257500Y-64107010D01*
X115439500Y-64147010D02*
X131265500Y-64147010D01*
X115431500Y-64187010D02*
X131273500Y-64187010D01*
X115423500Y-64227010D02*
X131281500Y-64227010D01*
X115415500Y-64267010D02*
X131289500Y-64267010D01*
X115408500Y-64307010D02*
X131296500Y-64307010D01*
X115400500Y-64347010D02*
X131304500Y-64347010D01*
X115393500Y-64387010D02*
X131311500Y-64387010D01*
X115386500Y-64427010D02*
X131318500Y-64427010D01*
X115380500Y-64467010D02*
X131324500Y-64467010D01*
X115373500Y-64507010D02*
X131331500Y-64507010D01*
X115367500Y-64547010D02*
X131337500Y-64547010D01*
X115361500Y-64587010D02*
X131343500Y-64587010D01*
X115355500Y-64627010D02*
X131349500Y-64627010D01*
X115349500Y-64667010D02*
X131355500Y-64667010D01*
X115344500Y-64707010D02*
X131360500Y-64707010D01*
X115338500Y-64747010D02*
X131366500Y-64747010D01*
X115333500Y-64787010D02*
X131371500Y-64787010D01*
X115328500Y-64827010D02*
X131376500Y-64827010D01*
X115324500Y-64867010D02*
X131380500Y-64867010D01*
X115319500Y-64907010D02*
X131385500Y-64907010D01*
X115315500Y-64947010D02*
X131389500Y-64947010D01*
X115311500Y-64987010D02*
X131393500Y-64987010D01*
X115307500Y-65027010D02*
X131397500Y-65027010D01*
X115303500Y-65067010D02*
X131401500Y-65067010D01*
X115300500Y-65108010D02*
X131404500Y-65108010D01*
X115297500Y-65148010D02*
X131407500Y-65148010D01*
X115294500Y-65188010D02*
X131410500Y-65188010D01*
X115291500Y-65228010D02*
X131413500Y-65228010D01*
X115288500Y-65268010D02*
X131416500Y-65268010D01*
X115286500Y-65308010D02*
X131418500Y-65308010D01*
X115283500Y-65348010D02*
X131421500Y-65348010D01*
X115281500Y-65388010D02*
X131423500Y-65388010D01*
X115279500Y-65428010D02*
X131425500Y-65428010D01*
X115278500Y-65468010D02*
X131426500Y-65468010D01*
X115276500Y-65508010D02*
X131428500Y-65508010D01*
X115275500Y-65548010D02*
X131429500Y-65548010D01*
X115274500Y-65588010D02*
X131430500Y-65588010D01*
X115273500Y-65628010D02*
X131431500Y-65628010D01*
X115272500Y-65668010D02*
X131432500Y-65668010D01*
X115272500Y-65708010D02*
X131432500Y-65708010D01*
X115272500Y-65748010D02*
X131432500Y-65748010D01*
X115271500Y-65788010D02*
X131433500Y-65788010D01*
X117997500Y-73677501D02*
X119597500Y-73677501D01*
X118797500Y-74477501D02*
X118797500Y-72877501D01*
D16*
X179780000Y-104100000D02*
G75*
G03*
X179580000Y-104100000I-100000J0D01*
G01*
X179580000Y-104100000D02*
G75*
G03*
X179780000Y-104100000I100000J0D01*
G01*
D17*
X171775000Y-101300000D02*
X171775000Y-102550000D01*
X171775000Y-109350000D02*
X171775000Y-105750000D01*
X178580000Y-101300000D02*
X171775000Y-101300000D01*
X178580000Y-102550000D02*
X178580000Y-101300000D01*
X178580000Y-105750000D02*
X178585000Y-109400000D01*
X178585000Y-109400000D02*
X171775000Y-109350000D01*
D16*
X179580000Y-104100000D02*
X179580000Y-104100000D01*
X179780000Y-104100000D02*
X179780000Y-104100000D01*
D15*
X119512500Y-125490255D02*
X119512500Y-125805255D01*
X119512500Y-123065255D02*
X119512500Y-123380255D01*
X114572500Y-125805255D02*
X119512500Y-125805255D01*
X114572500Y-125490255D02*
X114572500Y-125805255D01*
X114572500Y-123065255D02*
X119512500Y-123065255D01*
X114572500Y-123065255D02*
X114572500Y-123380255D01*
X147200000Y-106880000D02*
X147200000Y-106110000D01*
X145830000Y-106110000D02*
X148570000Y-106110000D01*
X148570000Y-106110000D02*
X148570000Y-99570000D01*
X145830000Y-99570000D02*
X145830000Y-106110000D01*
X148570000Y-99570000D02*
X145830000Y-99570000D01*
X147200000Y-98800000D02*
X147200000Y-99570000D01*
X148600000Y-74280000D02*
X148600000Y-74760000D01*
X148600000Y-78120000D02*
X148600000Y-77640000D01*
X158740000Y-74280000D02*
X148600000Y-74280000D01*
X158740000Y-74760000D02*
X158740000Y-74280000D01*
X158740000Y-77640000D02*
X158740000Y-78120000D01*
X158740000Y-78120000D02*
X148600000Y-78120000D01*
X113407500Y-118015255D02*
X113092500Y-118015255D01*
X115832500Y-118015255D02*
X115517500Y-118015255D01*
X113092500Y-113075255D02*
X113092500Y-118015255D01*
X113407500Y-113075255D02*
X113092500Y-113075255D01*
X115832500Y-113075255D02*
X115832500Y-118015255D01*
X115832500Y-113075255D02*
X115517500Y-113075255D01*
D17*
X105852500Y-92695255D02*
X105852500Y-79995255D01*
X140852500Y-92695255D02*
X105852500Y-92695255D01*
X105852500Y-79995255D02*
X140852500Y-79995255D01*
X140852500Y-79995255D02*
X140852500Y-92695255D01*
D15*
X158600000Y-125475000D02*
X158600000Y-125790000D01*
X158600000Y-123050000D02*
X158600000Y-123365000D01*
X153660000Y-125790000D02*
X158600000Y-125790000D01*
X153660000Y-125475000D02*
X153660000Y-125790000D01*
X153660000Y-123050000D02*
X158600000Y-123050000D01*
X153660000Y-123050000D02*
X153660000Y-123365000D01*
X162640000Y-141970000D02*
G75*
G03*
X162640000Y-141970000I-2620000J0D01*
G01*
X160304000Y-144571000D02*
X159736000Y-144571000D01*
X160538000Y-144531000D02*
X159502000Y-144531000D01*
X160697000Y-144491000D02*
X159343000Y-144491000D01*
X160825000Y-144451000D02*
X159215000Y-144451000D01*
X160935000Y-144411000D02*
X159105000Y-144411000D01*
X161031000Y-144371000D02*
X159009000Y-144371000D01*
X161118000Y-144331000D02*
X158922000Y-144331000D01*
X161198000Y-144291000D02*
X158842000Y-144291000D01*
X161271000Y-144251000D02*
X158769000Y-144251000D01*
X161339000Y-144211000D02*
X158701000Y-144211000D01*
X161403000Y-144171000D02*
X158637000Y-144171000D01*
X161463000Y-144131000D02*
X158577000Y-144131000D01*
X161520000Y-144091000D02*
X158520000Y-144091000D01*
X161574000Y-144051000D02*
X158466000Y-144051000D01*
X161625000Y-144011000D02*
X158415000Y-144011000D01*
X158980000Y-143971000D02*
X158367000Y-143971000D01*
X161673000Y-143971000D02*
X161060000Y-143971000D01*
X158980000Y-143931000D02*
X158321000Y-143931000D01*
X161719000Y-143931000D02*
X161060000Y-143931000D01*
X158980000Y-143891000D02*
X158277000Y-143891000D01*
X161763000Y-143891000D02*
X161060000Y-143891000D01*
X158980000Y-143851000D02*
X158235000Y-143851000D01*
X161805000Y-143851000D02*
X161060000Y-143851000D01*
X158980000Y-143811000D02*
X158194000Y-143811000D01*
X161846000Y-143811000D02*
X161060000Y-143811000D01*
X158980000Y-143771000D02*
X158156000Y-143771000D01*
X161884000Y-143771000D02*
X161060000Y-143771000D01*
X158980000Y-143731000D02*
X158119000Y-143731000D01*
X161921000Y-143731000D02*
X161060000Y-143731000D01*
X158980000Y-143691000D02*
X158083000Y-143691000D01*
X161957000Y-143691000D02*
X161060000Y-143691000D01*
X158980000Y-143651000D02*
X158049000Y-143651000D01*
X161991000Y-143651000D02*
X161060000Y-143651000D01*
X158980000Y-143611000D02*
X158016000Y-143611000D01*
X162024000Y-143611000D02*
X161060000Y-143611000D01*
X158980000Y-143571000D02*
X157985000Y-143571000D01*
X162055000Y-143571000D02*
X161060000Y-143571000D01*
X158980000Y-143531000D02*
X157955000Y-143531000D01*
X162085000Y-143531000D02*
X161060000Y-143531000D01*
X158980000Y-143491000D02*
X157925000Y-143491000D01*
X162115000Y-143491000D02*
X161060000Y-143491000D01*
X158980000Y-143451000D02*
X157898000Y-143451000D01*
X162142000Y-143451000D02*
X161060000Y-143451000D01*
X158980000Y-143411000D02*
X157871000Y-143411000D01*
X162169000Y-143411000D02*
X161060000Y-143411000D01*
X158980000Y-143371000D02*
X157845000Y-143371000D01*
X162195000Y-143371000D02*
X161060000Y-143371000D01*
X158980000Y-143331000D02*
X157820000Y-143331000D01*
X162220000Y-143331000D02*
X161060000Y-143331000D01*
X158980000Y-143291000D02*
X157796000Y-143291000D01*
X162244000Y-143291000D02*
X161060000Y-143291000D01*
X158980000Y-143251000D02*
X157773000Y-143251000D01*
X162267000Y-143251000D02*
X161060000Y-143251000D01*
X158980000Y-143211000D02*
X157752000Y-143211000D01*
X162288000Y-143211000D02*
X161060000Y-143211000D01*
X158980000Y-143171000D02*
X157730000Y-143171000D01*
X162310000Y-143171000D02*
X161060000Y-143171000D01*
X158980000Y-143131000D02*
X157710000Y-143131000D01*
X162330000Y-143131000D02*
X161060000Y-143131000D01*
X158980000Y-143091000D02*
X157691000Y-143091000D01*
X162349000Y-143091000D02*
X161060000Y-143091000D01*
X158980000Y-143051000D02*
X157672000Y-143051000D01*
X162368000Y-143051000D02*
X161060000Y-143051000D01*
X158980000Y-143011000D02*
X157655000Y-143011000D01*
X162385000Y-143011000D02*
X161060000Y-143011000D01*
X158980000Y-142971000D02*
X157638000Y-142971000D01*
X162402000Y-142971000D02*
X161060000Y-142971000D01*
X158980000Y-142931000D02*
X157622000Y-142931000D01*
X162418000Y-142931000D02*
X161060000Y-142931000D01*
X158980000Y-142891000D02*
X157606000Y-142891000D01*
X162434000Y-142891000D02*
X161060000Y-142891000D01*
X158980000Y-142851000D02*
X157592000Y-142851000D01*
X162448000Y-142851000D02*
X161060000Y-142851000D01*
X158980000Y-142811000D02*
X157578000Y-142811000D01*
X162462000Y-142811000D02*
X161060000Y-142811000D01*
X158980000Y-142771000D02*
X157565000Y-142771000D01*
X162475000Y-142771000D02*
X161060000Y-142771000D01*
X158980000Y-142731000D02*
X157552000Y-142731000D01*
X162488000Y-142731000D02*
X161060000Y-142731000D01*
X158980000Y-142691000D02*
X157540000Y-142691000D01*
X162500000Y-142691000D02*
X161060000Y-142691000D01*
X158980000Y-142650000D02*
X157529000Y-142650000D01*
X162511000Y-142650000D02*
X161060000Y-142650000D01*
X158980000Y-142610000D02*
X157519000Y-142610000D01*
X162521000Y-142610000D02*
X161060000Y-142610000D01*
X158980000Y-142570000D02*
X157509000Y-142570000D01*
X162531000Y-142570000D02*
X161060000Y-142570000D01*
X158980000Y-142530000D02*
X157500000Y-142530000D01*
X162540000Y-142530000D02*
X161060000Y-142530000D01*
X158980000Y-142490000D02*
X157492000Y-142490000D01*
X162548000Y-142490000D02*
X161060000Y-142490000D01*
X158980000Y-142450000D02*
X157484000Y-142450000D01*
X162556000Y-142450000D02*
X161060000Y-142450000D01*
X158980000Y-142410000D02*
X157477000Y-142410000D01*
X162563000Y-142410000D02*
X161060000Y-142410000D01*
X158980000Y-142370000D02*
X157470000Y-142370000D01*
X162570000Y-142370000D02*
X161060000Y-142370000D01*
X158980000Y-142330000D02*
X157464000Y-142330000D01*
X162576000Y-142330000D02*
X161060000Y-142330000D01*
X158980000Y-142290000D02*
X157459000Y-142290000D01*
X162581000Y-142290000D02*
X161060000Y-142290000D01*
X158980000Y-142250000D02*
X157455000Y-142250000D01*
X162585000Y-142250000D02*
X161060000Y-142250000D01*
X158980000Y-142210000D02*
X157451000Y-142210000D01*
X162589000Y-142210000D02*
X161060000Y-142210000D01*
X158980000Y-142170000D02*
X157447000Y-142170000D01*
X162593000Y-142170000D02*
X161060000Y-142170000D01*
X158980000Y-142130000D02*
X157444000Y-142130000D01*
X162596000Y-142130000D02*
X161060000Y-142130000D01*
X158980000Y-142090000D02*
X157442000Y-142090000D01*
X162598000Y-142090000D02*
X161060000Y-142090000D01*
X158980000Y-142050000D02*
X157441000Y-142050000D01*
X162599000Y-142050000D02*
X161060000Y-142050000D01*
X158980000Y-142010000D02*
X157440000Y-142010000D01*
X162600000Y-142010000D02*
X161060000Y-142010000D01*
X158980000Y-141970000D02*
X157440000Y-141970000D01*
X162600000Y-141970000D02*
X161060000Y-141970000D01*
X161745000Y-139415225D02*
X161245000Y-139415225D01*
X161495000Y-139165225D02*
X161495000Y-139665225D01*
X177098478Y-98358478D02*
G75*
G03*
X175260000Y-93920000I-1838478J1838478D01*
G01*
X175260000Y-93920000D02*
G75*
G03*
X173421522Y-98358478I0J-2600000D01*
G01*
X173460000Y-98370000D02*
X177060000Y-98370000D01*
D16*
X140612500Y-104145255D02*
G75*
G03*
X140412500Y-104145255I-100000J0D01*
G01*
X140412500Y-104145255D02*
G75*
G03*
X140612500Y-104145255I100000J0D01*
G01*
D17*
X132607500Y-101345255D02*
X132607500Y-102595255D01*
X132607500Y-109395255D02*
X132607500Y-105795255D01*
X139412500Y-101345255D02*
X132607500Y-101345255D01*
X139412500Y-102595255D02*
X139412500Y-101345255D01*
X139412500Y-105795255D02*
X139417500Y-109445255D01*
X139417500Y-109445255D02*
X132607500Y-109395255D01*
D16*
X140412500Y-104145255D02*
X140412500Y-104145255D01*
X140612500Y-104145255D02*
X140612500Y-104145255D01*
D15*
X126122500Y-102845255D02*
X125352500Y-102845255D01*
X125352500Y-104215255D02*
X125352500Y-101475255D01*
X125352500Y-101475255D02*
X118812500Y-101475255D01*
X118812500Y-104215255D02*
X125352500Y-104215255D01*
X118812500Y-101475255D02*
X118812500Y-104215255D01*
X118042500Y-102845255D02*
X118812500Y-102845255D01*
X167680000Y-87845000D02*
X167680000Y-92486000D01*
X164411000Y-87845000D02*
X164411000Y-89355000D01*
X160710000Y-87845000D02*
X160710000Y-89355000D01*
X157440000Y-92486000D02*
X167680000Y-92486000D01*
X157440000Y-89355000D02*
X167680000Y-89355000D01*
X157440000Y-87845000D02*
X167680000Y-87845000D01*
X157440000Y-87845000D02*
X157440000Y-92486000D01*
X102810000Y-147260000D02*
X104140000Y-147260000D01*
X102810000Y-148590000D02*
X102810000Y-147260000D01*
X102810000Y-149860000D02*
X102810000Y-152460000D01*
X102810000Y-149860000D02*
X105470000Y-149860000D01*
X102810000Y-152460000D02*
X105470000Y-152460000D01*
X105470000Y-149860000D02*
X105470000Y-152460000D01*
X109392500Y-74265255D02*
X109392500Y-74745255D01*
X109392500Y-78105255D02*
X109392500Y-77625255D01*
X119532500Y-74265255D02*
X109392500Y-74265255D01*
X119532500Y-74745255D02*
X119532500Y-74265255D01*
X119532500Y-77625255D02*
X119532500Y-78105255D01*
X119532500Y-78105255D02*
X109392500Y-78105255D01*
X157440000Y-84875000D02*
X157440000Y-80234000D01*
X160709000Y-84875000D02*
X160709000Y-83365000D01*
X164410000Y-84875000D02*
X164410000Y-83365000D01*
X167680000Y-80234000D02*
X157440000Y-80234000D01*
X167680000Y-83365000D02*
X157440000Y-83365000D01*
X167680000Y-84875000D02*
X157440000Y-84875000D01*
X167680000Y-84875000D02*
X167680000Y-80234000D01*
X124852500Y-134595255D02*
X124082500Y-134595255D01*
X124082500Y-135965255D02*
X124082500Y-133225255D01*
X124082500Y-133225255D02*
X117542500Y-133225255D01*
X117542500Y-135965255D02*
X124082500Y-135965255D01*
X117542500Y-133225255D02*
X117542500Y-135965255D01*
X116772500Y-134595255D02*
X117542500Y-134595255D01*
X163940000Y-134580000D02*
X163170000Y-134580000D01*
X163170000Y-135950000D02*
X163170000Y-133210000D01*
X163170000Y-133210000D02*
X156630000Y-133210000D01*
X156630000Y-135950000D02*
X163170000Y-135950000D01*
X156630000Y-133210000D02*
X156630000Y-135950000D01*
X155860000Y-134580000D02*
X156630000Y-134580000D01*
X112860000Y-142240000D02*
G75*
G03*
X112860000Y-142240000I-4120000J0D01*
G01*
X112821000Y-141707000D02*
X112821000Y-142773000D01*
X112781000Y-141472000D02*
X112781000Y-143008000D01*
X112741000Y-141292000D02*
X112741000Y-143188000D01*
X112701000Y-141142000D02*
X112701000Y-143338000D01*
X112661000Y-141011000D02*
X112661000Y-143469000D01*
X112621000Y-140894000D02*
X112621000Y-143586000D01*
X112581000Y-140787000D02*
X112581000Y-143693000D01*
X112541000Y-140688000D02*
X112541000Y-143792000D01*
X112501000Y-140595000D02*
X112501000Y-143885000D01*
X112461000Y-140509000D02*
X112461000Y-143971000D01*
X112421000Y-140427000D02*
X112421000Y-144053000D01*
X112381000Y-140350000D02*
X112381000Y-144130000D01*
X112341000Y-140276000D02*
X112341000Y-144204000D01*
X112301000Y-140206000D02*
X112301000Y-144274000D01*
X112261000Y-140138000D02*
X112261000Y-144342000D01*
X112221000Y-140074000D02*
X112221000Y-144406000D01*
X112181000Y-140012000D02*
X112181000Y-144468000D01*
X112141000Y-139953000D02*
X112141000Y-144527000D01*
X112101000Y-139895000D02*
X112101000Y-144585000D01*
X112061000Y-139840000D02*
X112061000Y-144640000D01*
X112021000Y-139786000D02*
X112021000Y-144694000D01*
X111981000Y-139735000D02*
X111981000Y-144745000D01*
X111941000Y-139684000D02*
X111941000Y-144796000D01*
X111901000Y-139636000D02*
X111901000Y-144844000D01*
X111861000Y-139589000D02*
X111861000Y-144891000D01*
X111821000Y-139543000D02*
X111821000Y-144937000D01*
X111781000Y-139499000D02*
X111781000Y-144981000D01*
X111741000Y-139456000D02*
X111741000Y-145024000D01*
X111701000Y-139414000D02*
X111701000Y-145066000D01*
X111661000Y-139373000D02*
X111661000Y-145107000D01*
X111621000Y-139333000D02*
X111621000Y-145147000D01*
X111581000Y-139295000D02*
X111581000Y-145185000D01*
X111541000Y-139257000D02*
X111541000Y-145223000D01*
X111501000Y-143280000D02*
X111501000Y-145259000D01*
X111501000Y-139221000D02*
X111501000Y-141200000D01*
X111461000Y-143280000D02*
X111461000Y-145295000D01*
X111461000Y-139185000D02*
X111461000Y-141200000D01*
X111421000Y-143280000D02*
X111421000Y-145330000D01*
X111421000Y-139150000D02*
X111421000Y-141200000D01*
X111381000Y-143280000D02*
X111381000Y-145364000D01*
X111381000Y-139116000D02*
X111381000Y-141200000D01*
X111341000Y-143280000D02*
X111341000Y-145396000D01*
X111341000Y-139084000D02*
X111341000Y-141200000D01*
X111301000Y-143280000D02*
X111301000Y-145429000D01*
X111301000Y-139051000D02*
X111301000Y-141200000D01*
X111261000Y-143280000D02*
X111261000Y-145460000D01*
X111261000Y-139020000D02*
X111261000Y-141200000D01*
X111221000Y-143280000D02*
X111221000Y-145490000D01*
X111221000Y-138990000D02*
X111221000Y-141200000D01*
X111181000Y-143280000D02*
X111181000Y-145520000D01*
X111181000Y-138960000D02*
X111181000Y-141200000D01*
X111141000Y-143280000D02*
X111141000Y-145549000D01*
X111141000Y-138931000D02*
X111141000Y-141200000D01*
X111101000Y-143280000D02*
X111101000Y-145578000D01*
X111101000Y-138902000D02*
X111101000Y-141200000D01*
X111061000Y-143280000D02*
X111061000Y-145605000D01*
X111061000Y-138875000D02*
X111061000Y-141200000D01*
X111021000Y-143280000D02*
X111021000Y-145632000D01*
X111021000Y-138848000D02*
X111021000Y-141200000D01*
X110981000Y-143280000D02*
X110981000Y-145658000D01*
X110981000Y-138822000D02*
X110981000Y-141200000D01*
X110941000Y-143280000D02*
X110941000Y-145684000D01*
X110941000Y-138796000D02*
X110941000Y-141200000D01*
X110901000Y-143280000D02*
X110901000Y-145709000D01*
X110901000Y-138771000D02*
X110901000Y-141200000D01*
X110861000Y-143280000D02*
X110861000Y-145733000D01*
X110861000Y-138747000D02*
X110861000Y-141200000D01*
X110821000Y-143280000D02*
X110821000Y-145757000D01*
X110821000Y-138723000D02*
X110821000Y-141200000D01*
X110781000Y-143280000D02*
X110781000Y-145780000D01*
X110781000Y-138700000D02*
X110781000Y-141200000D01*
X110741000Y-143280000D02*
X110741000Y-145802000D01*
X110741000Y-138678000D02*
X110741000Y-141200000D01*
X110701000Y-143280000D02*
X110701000Y-145824000D01*
X110701000Y-138656000D02*
X110701000Y-141200000D01*
X110661000Y-143280000D02*
X110661000Y-145846000D01*
X110661000Y-138634000D02*
X110661000Y-141200000D01*
X110621000Y-143280000D02*
X110621000Y-145867000D01*
X110621000Y-138613000D02*
X110621000Y-141200000D01*
X110581000Y-143280000D02*
X110581000Y-145887000D01*
X110581000Y-138593000D02*
X110581000Y-141200000D01*
X110541000Y-143280000D02*
X110541000Y-145906000D01*
X110541000Y-138574000D02*
X110541000Y-141200000D01*
X110501000Y-143280000D02*
X110501000Y-145926000D01*
X110501000Y-138554000D02*
X110501000Y-141200000D01*
X110461000Y-143280000D02*
X110461000Y-145944000D01*
X110461000Y-138536000D02*
X110461000Y-141200000D01*
X110421000Y-143280000D02*
X110421000Y-145962000D01*
X110421000Y-138518000D02*
X110421000Y-141200000D01*
X110381000Y-143280000D02*
X110381000Y-145980000D01*
X110381000Y-138500000D02*
X110381000Y-141200000D01*
X110341000Y-143280000D02*
X110341000Y-145997000D01*
X110341000Y-138483000D02*
X110341000Y-141200000D01*
X110301000Y-143280000D02*
X110301000Y-146014000D01*
X110301000Y-138466000D02*
X110301000Y-141200000D01*
X110261000Y-143280000D02*
X110261000Y-146030000D01*
X110261000Y-138450000D02*
X110261000Y-141200000D01*
X110221000Y-143280000D02*
X110221000Y-146045000D01*
X110221000Y-138435000D02*
X110221000Y-141200000D01*
X110181000Y-143280000D02*
X110181000Y-146061000D01*
X110181000Y-138419000D02*
X110181000Y-141200000D01*
X110141000Y-143280000D02*
X110141000Y-146075000D01*
X110141000Y-138405000D02*
X110141000Y-141200000D01*
X110101000Y-143280000D02*
X110101000Y-146090000D01*
X110101000Y-138390000D02*
X110101000Y-141200000D01*
X110061000Y-143280000D02*
X110061000Y-146103000D01*
X110061000Y-138377000D02*
X110061000Y-141200000D01*
X110021000Y-143280000D02*
X110021000Y-146117000D01*
X110021000Y-138363000D02*
X110021000Y-141200000D01*
X109981000Y-143280000D02*
X109981000Y-146129000D01*
X109981000Y-138351000D02*
X109981000Y-141200000D01*
X109941000Y-143280000D02*
X109941000Y-146142000D01*
X109941000Y-138338000D02*
X109941000Y-141200000D01*
X109901000Y-143280000D02*
X109901000Y-146154000D01*
X109901000Y-138326000D02*
X109901000Y-141200000D01*
X109861000Y-143280000D02*
X109861000Y-146165000D01*
X109861000Y-138315000D02*
X109861000Y-141200000D01*
X109821000Y-143280000D02*
X109821000Y-146176000D01*
X109821000Y-138304000D02*
X109821000Y-141200000D01*
X109781000Y-143280000D02*
X109781000Y-146187000D01*
X109781000Y-138293000D02*
X109781000Y-141200000D01*
X109741000Y-143280000D02*
X109741000Y-146197000D01*
X109741000Y-138283000D02*
X109741000Y-141200000D01*
X109701000Y-143280000D02*
X109701000Y-146207000D01*
X109701000Y-138273000D02*
X109701000Y-141200000D01*
X109661000Y-143280000D02*
X109661000Y-146216000D01*
X109661000Y-138264000D02*
X109661000Y-141200000D01*
X109621000Y-143280000D02*
X109621000Y-146225000D01*
X109621000Y-138255000D02*
X109621000Y-141200000D01*
X109581000Y-143280000D02*
X109581000Y-146234000D01*
X109581000Y-138246000D02*
X109581000Y-141200000D01*
X109541000Y-143280000D02*
X109541000Y-146242000D01*
X109541000Y-138238000D02*
X109541000Y-141200000D01*
X109501000Y-143280000D02*
X109501000Y-146250000D01*
X109501000Y-138230000D02*
X109501000Y-141200000D01*
X109461000Y-143280000D02*
X109461000Y-146257000D01*
X109461000Y-138223000D02*
X109461000Y-141200000D01*
X109420000Y-138216000D02*
X109420000Y-146264000D01*
X109380000Y-138210000D02*
X109380000Y-146270000D01*
X109340000Y-138203000D02*
X109340000Y-146277000D01*
X109300000Y-138198000D02*
X109300000Y-146282000D01*
X109260000Y-138192000D02*
X109260000Y-146288000D01*
X109220000Y-138188000D02*
X109220000Y-146292000D01*
X109180000Y-138183000D02*
X109180000Y-146297000D01*
X109140000Y-138179000D02*
X109140000Y-146301000D01*
X109100000Y-138175000D02*
X109100000Y-146305000D01*
X109060000Y-138172000D02*
X109060000Y-146308000D01*
X109020000Y-138169000D02*
X109020000Y-146311000D01*
X108980000Y-138166000D02*
X108980000Y-146314000D01*
X108940000Y-138164000D02*
X108940000Y-146316000D01*
X108900000Y-138163000D02*
X108900000Y-146317000D01*
X108860000Y-138161000D02*
X108860000Y-146319000D01*
X108820000Y-138160000D02*
X108820000Y-146320000D01*
X108780000Y-138160000D02*
X108780000Y-146320000D01*
X108740000Y-138160000D02*
X108740000Y-146320000D01*
X104730302Y-139525000D02*
X104730302Y-140325000D01*
X104330302Y-139925000D02*
X105130302Y-139925000D01*
X108112500Y-106895255D02*
X108112500Y-106125255D01*
X106742500Y-106125255D02*
X109482500Y-106125255D01*
X109482500Y-106125255D02*
X109482500Y-99585255D01*
X106742500Y-99585255D02*
X106742500Y-106125255D01*
X109482500Y-99585255D02*
X106742500Y-99585255D01*
X108112500Y-98815255D02*
X108112500Y-99585255D01*
D17*
X145060000Y-92710000D02*
X145060000Y-80010000D01*
X180060000Y-92710000D02*
X145060000Y-92710000D01*
X145060000Y-80010000D02*
X180060000Y-80010000D01*
X180060000Y-80010000D02*
X180060000Y-92710000D01*
D15*
X163600000Y-107695000D02*
X163600000Y-108010000D01*
X163600000Y-105270000D02*
X163600000Y-105585000D01*
X158660000Y-108010000D02*
X163600000Y-108010000D01*
X158660000Y-107695000D02*
X158660000Y-108010000D01*
X158660000Y-105270000D02*
X163600000Y-105270000D01*
X158660000Y-105270000D02*
X158660000Y-105585000D01*
X148470000Y-126730000D02*
X148470000Y-127500000D01*
X149840000Y-127500000D02*
X147100000Y-127500000D01*
X147100000Y-127500000D02*
X147100000Y-134040000D01*
X149840000Y-134040000D02*
X149840000Y-127500000D01*
X147100000Y-134040000D02*
X149840000Y-134040000D01*
X148470000Y-134810000D02*
X148470000Y-134040000D01*
D17*
X169720000Y-167670000D02*
X169720000Y-152670000D01*
X175720000Y-167670000D02*
X169720000Y-167670000D01*
X166220000Y-152670000D02*
X166220000Y-139670000D01*
X175720000Y-152670000D02*
X175720000Y-167670000D01*
X179220000Y-152670000D02*
X166220000Y-152670000D01*
X166220000Y-139670000D02*
X179220000Y-139670000D01*
X179220000Y-139670000D02*
X179220000Y-152670000D01*
D15*
X109382500Y-112775255D02*
X109382500Y-113545255D01*
X110752500Y-113545255D02*
X108012500Y-113545255D01*
X108012500Y-113545255D02*
X108012500Y-120085255D01*
X110752500Y-120085255D02*
X110752500Y-113545255D01*
X108012500Y-120085255D02*
X110752500Y-120085255D01*
X109382500Y-120855255D02*
X109382500Y-120085255D01*
%LPC*%
D18*
X152019000Y-97790000D03*
D19*
X152019000Y-107950000D03*
D18*
X113284000Y-97790000D03*
D19*
X113284000Y-107950000D03*
D20*
X139780000Y-140920000D03*
X144780000Y-145920000D03*
X144780000Y-148420000D03*
X134780000Y-145920000D03*
X134780000Y-148420000D03*
D21*
X134780000Y-140920000D03*
X144780000Y-140920000D03*
X139780000Y-145920000D03*
D22*
X120812500Y-81590255D03*
X123352500Y-81590255D03*
D23*
X125892500Y-81590255D03*
D19*
X125892500Y-129515255D03*
D18*
X115732500Y-129515255D03*
D24*
X157480000Y-55245000D03*
X154940000Y-55245000D03*
X152400000Y-55245000D03*
D25*
X149860000Y-55245000D03*
D21*
X144780000Y-65920000D03*
X134780000Y-65920000D03*
X139780000Y-60920000D03*
D20*
X139780000Y-65920000D03*
X134780000Y-60920000D03*
X144780000Y-60920000D03*
X134780000Y-58420000D03*
X144780000Y-58420000D03*
D19*
X148470000Y-111720000D03*
D18*
X148470000Y-121880000D03*
D19*
X166250000Y-102830000D03*
D18*
X156090000Y-102830000D03*
D19*
X130972500Y-111745255D03*
D18*
X130972500Y-121905255D03*
D22*
X125892500Y-91100255D03*
X123352500Y-91100255D03*
D23*
X120812500Y-91100255D03*
D26*
X165100000Y-76200000D03*
D27*
X177800000Y-76200000D03*
D25*
X151210000Y-151130000D03*
D24*
X153750000Y-151130000D03*
X156290000Y-151130000D03*
X158830000Y-151130000D03*
D19*
X130972500Y-125705255D03*
D18*
X130972500Y-135865255D03*
D26*
X125892500Y-76185255D03*
D27*
X138592500Y-76185255D03*
D18*
X124542500Y-106655255D03*
X119542500Y-106655255D03*
X170060000Y-135850000D03*
D19*
X170060000Y-125690000D03*
X164980000Y-129500000D03*
D18*
X154820000Y-129500000D03*
D19*
X157360000Y-111720000D03*
X159900000Y-111720000D03*
X162440000Y-111720000D03*
X164980000Y-111720000D03*
X164980000Y-119340000D03*
X162440000Y-119340000D03*
X159900000Y-119340000D03*
D28*
X157360000Y-119340000D03*
D19*
X109382500Y-125705255D03*
D18*
X109382500Y-135865255D03*
D28*
X120650000Y-141510000D03*
D18*
X120650000Y-143510000D03*
D19*
X170060000Y-111730000D03*
D18*
X170060000Y-121890000D03*
D19*
X117002500Y-99035255D03*
D18*
X127162500Y-99035255D03*
D19*
X156090000Y-99020000D03*
D18*
X166250000Y-99020000D03*
D19*
X118272500Y-111735255D03*
X120812500Y-111735255D03*
X123352500Y-111735255D03*
X125892500Y-111735255D03*
X125892500Y-119355255D03*
X123352500Y-119355255D03*
X120812500Y-119355255D03*
D28*
X118272500Y-119355255D03*
D18*
X166210000Y-124420000D03*
X161210000Y-124420000D03*
D29*
X137322500Y-96505255D03*
X136052500Y-96505255D03*
D30*
X134782500Y-96505255D03*
D27*
X162560000Y-62052755D03*
D31*
X162560000Y-69552755D03*
D18*
X127122500Y-124435255D03*
X122122500Y-124435255D03*
X153550000Y-118030000D03*
X153550000Y-113030000D03*
D27*
X123352500Y-62038010D03*
D31*
X123352500Y-69538010D03*
D32*
X175180000Y-106600000D03*
X172680000Y-104100000D03*
X177680000Y-104100000D03*
D18*
X119542500Y-124435255D03*
X114542500Y-124435255D03*
D19*
X147200000Y-107920000D03*
D18*
X147200000Y-97760000D03*
D26*
X147320000Y-76200000D03*
D27*
X160020000Y-76200000D03*
D18*
X114462500Y-118045255D03*
X114462500Y-113045255D03*
D33*
X136052500Y-86345255D03*
X110652500Y-86345255D03*
D18*
X158630000Y-124420000D03*
X153630000Y-124420000D03*
X160020000Y-142970000D03*
D28*
X160020000Y-140970000D03*
D29*
X176530000Y-96520000D03*
X175260000Y-96520000D03*
D30*
X173990000Y-96520000D03*
D32*
X136012500Y-106645255D03*
X133512500Y-104145255D03*
X138512500Y-104145255D03*
D19*
X127162500Y-102845255D03*
D18*
X117002500Y-102845255D03*
D22*
X165100000Y-91115000D03*
X162560000Y-91115000D03*
D23*
X160020000Y-91115000D03*
D25*
X104140000Y-148590000D03*
D24*
X104140000Y-151130000D03*
D26*
X108112500Y-76185255D03*
D27*
X120812500Y-76185255D03*
D22*
X160020000Y-81605000D03*
X162560000Y-81605000D03*
D23*
X165100000Y-81605000D03*
D19*
X125892500Y-134595255D03*
D18*
X115732500Y-134595255D03*
D19*
X164980000Y-134580000D03*
D18*
X154820000Y-134580000D03*
X110490000Y-142240000D03*
D28*
X106990000Y-142240000D03*
D19*
X108112500Y-107935255D03*
D18*
X108112500Y-97775255D03*
D33*
X175260000Y-86360000D03*
X149860000Y-86360000D03*
D18*
X163630000Y-106640000D03*
X158630000Y-106640000D03*
D19*
X148470000Y-125690000D03*
D18*
X148470000Y-135850000D03*
D34*
X176470000Y-146670000D03*
X172720000Y-146670000D03*
X168970000Y-146670000D03*
X176470000Y-141670000D03*
X172720000Y-141670000D03*
X168970000Y-141670000D03*
D19*
X109382500Y-111735255D03*
D18*
X109382500Y-121895255D03*
%LPD*%
M02*
