%TF.GenerationSoftware,KiCad,Pcbnew,7.0.7*%
%TF.CreationDate,2024-06-09T16:01:03+02:00*%
%TF.ProjectId,Audio Amplifier,41756469-6f20-4416-9d70-6c6966696572,rev?*%
%TF.SameCoordinates,Original*%
%TF.FileFunction,Drillmap*%
%TF.FilePolarity,Positive*%
%FSLAX45Y45*%
G04 Gerber Fmt 4.5, Leading zero omitted, Abs format (unit mm)*
G04 Created by KiCad (PCBNEW 7.0.7) date 2024-06-09 16:01:03*
%MOMM*%
%LPD*%
G01*
G04 APERTURE LIST*
%ADD10C,0.100000*%
%ADD11C,0.200000*%
%ADD12C,0.120000*%
G04 APERTURE END LIST*
D10*
X10176250Y-5316276D02*
X18405850Y-5316276D01*
X18405850Y-15349275D01*
X10176250Y-15349275D01*
X10176250Y-5316276D01*
D11*
D12*
X13418000Y-5782000D02*
X13538000Y-5902000D01*
X13538000Y-5782000D02*
X13418000Y-5902000D01*
X13418000Y-6032000D02*
X13538000Y-6152000D01*
X13538000Y-6032000D02*
X13418000Y-6152000D01*
X13418000Y-14532000D02*
X13538000Y-14652000D01*
X13538000Y-14532000D02*
X13418000Y-14652000D01*
X13418000Y-14782000D02*
X13538000Y-14902000D01*
X13538000Y-14782000D02*
X13418000Y-14902000D01*
X13918000Y-6532000D02*
X14038000Y-6652000D01*
X14038000Y-6532000D02*
X13918000Y-6652000D01*
X13918000Y-14032000D02*
X14038000Y-14152000D01*
X14038000Y-14032000D02*
X13918000Y-14152000D01*
X14418000Y-5782000D02*
X14538000Y-5902000D01*
X14538000Y-5782000D02*
X14418000Y-5902000D01*
X14418000Y-6032000D02*
X14538000Y-6152000D01*
X14538000Y-6032000D02*
X14418000Y-6152000D01*
X14418000Y-14532000D02*
X14538000Y-14652000D01*
X14538000Y-14532000D02*
X14418000Y-14652000D01*
X14418000Y-14782000D02*
X14538000Y-14902000D01*
X14538000Y-14782000D02*
X14418000Y-14902000D01*
D11*
X10432027Y-15665759D02*
X10432027Y-15465759D01*
X10432027Y-15465759D02*
X10479646Y-15465759D01*
X10479646Y-15465759D02*
X10508217Y-15475283D01*
X10508217Y-15475283D02*
X10527265Y-15494331D01*
X10527265Y-15494331D02*
X10536789Y-15513378D01*
X10536789Y-15513378D02*
X10546313Y-15551473D01*
X10546313Y-15551473D02*
X10546313Y-15580045D01*
X10546313Y-15580045D02*
X10536789Y-15618140D01*
X10536789Y-15618140D02*
X10527265Y-15637188D01*
X10527265Y-15637188D02*
X10508217Y-15656235D01*
X10508217Y-15656235D02*
X10479646Y-15665759D01*
X10479646Y-15665759D02*
X10432027Y-15665759D01*
X10632027Y-15665759D02*
X10632027Y-15532426D01*
X10632027Y-15570521D02*
X10641551Y-15551473D01*
X10641551Y-15551473D02*
X10651074Y-15541950D01*
X10651074Y-15541950D02*
X10670122Y-15532426D01*
X10670122Y-15532426D02*
X10689170Y-15532426D01*
X10755836Y-15665759D02*
X10755836Y-15532426D01*
X10755836Y-15465759D02*
X10746313Y-15475283D01*
X10746313Y-15475283D02*
X10755836Y-15484807D01*
X10755836Y-15484807D02*
X10765360Y-15475283D01*
X10765360Y-15475283D02*
X10755836Y-15465759D01*
X10755836Y-15465759D02*
X10755836Y-15484807D01*
X10879646Y-15665759D02*
X10860598Y-15656235D01*
X10860598Y-15656235D02*
X10851074Y-15637188D01*
X10851074Y-15637188D02*
X10851074Y-15465759D01*
X10984408Y-15665759D02*
X10965360Y-15656235D01*
X10965360Y-15656235D02*
X10955836Y-15637188D01*
X10955836Y-15637188D02*
X10955836Y-15465759D01*
X11212979Y-15665759D02*
X11212979Y-15465759D01*
X11212979Y-15465759D02*
X11279646Y-15608616D01*
X11279646Y-15608616D02*
X11346312Y-15465759D01*
X11346312Y-15465759D02*
X11346312Y-15665759D01*
X11527265Y-15665759D02*
X11527265Y-15560997D01*
X11527265Y-15560997D02*
X11517741Y-15541950D01*
X11517741Y-15541950D02*
X11498693Y-15532426D01*
X11498693Y-15532426D02*
X11460598Y-15532426D01*
X11460598Y-15532426D02*
X11441551Y-15541950D01*
X11527265Y-15656235D02*
X11508217Y-15665759D01*
X11508217Y-15665759D02*
X11460598Y-15665759D01*
X11460598Y-15665759D02*
X11441551Y-15656235D01*
X11441551Y-15656235D02*
X11432027Y-15637188D01*
X11432027Y-15637188D02*
X11432027Y-15618140D01*
X11432027Y-15618140D02*
X11441551Y-15599093D01*
X11441551Y-15599093D02*
X11460598Y-15589569D01*
X11460598Y-15589569D02*
X11508217Y-15589569D01*
X11508217Y-15589569D02*
X11527265Y-15580045D01*
X11622503Y-15532426D02*
X11622503Y-15732426D01*
X11622503Y-15541950D02*
X11641551Y-15532426D01*
X11641551Y-15532426D02*
X11679646Y-15532426D01*
X11679646Y-15532426D02*
X11698693Y-15541950D01*
X11698693Y-15541950D02*
X11708217Y-15551473D01*
X11708217Y-15551473D02*
X11717741Y-15570521D01*
X11717741Y-15570521D02*
X11717741Y-15627664D01*
X11717741Y-15627664D02*
X11708217Y-15646712D01*
X11708217Y-15646712D02*
X11698693Y-15656235D01*
X11698693Y-15656235D02*
X11679646Y-15665759D01*
X11679646Y-15665759D02*
X11641551Y-15665759D01*
X11641551Y-15665759D02*
X11622503Y-15656235D01*
X11803455Y-15646712D02*
X11812979Y-15656235D01*
X11812979Y-15656235D02*
X11803455Y-15665759D01*
X11803455Y-15665759D02*
X11793932Y-15656235D01*
X11793932Y-15656235D02*
X11803455Y-15646712D01*
X11803455Y-15646712D02*
X11803455Y-15665759D01*
X11803455Y-15541950D02*
X11812979Y-15551473D01*
X11812979Y-15551473D02*
X11803455Y-15560997D01*
X11803455Y-15560997D02*
X11793932Y-15551473D01*
X11793932Y-15551473D02*
X11803455Y-15541950D01*
X11803455Y-15541950D02*
X11803455Y-15560997D01*
D12*
X10051250Y-15934275D02*
X10171250Y-16054275D01*
X10171250Y-15934275D02*
X10051250Y-16054275D01*
D11*
X10536789Y-16085759D02*
X10422503Y-16085759D01*
X10479646Y-16085759D02*
X10479646Y-15885759D01*
X10479646Y-15885759D02*
X10460598Y-15914331D01*
X10460598Y-15914331D02*
X10441551Y-15933378D01*
X10441551Y-15933378D02*
X10422503Y-15942902D01*
X10622503Y-16066712D02*
X10632027Y-16076235D01*
X10632027Y-16076235D02*
X10622503Y-16085759D01*
X10622503Y-16085759D02*
X10612979Y-16076235D01*
X10612979Y-16076235D02*
X10622503Y-16066712D01*
X10622503Y-16066712D02*
X10622503Y-16085759D01*
X10708217Y-15904807D02*
X10717741Y-15895283D01*
X10717741Y-15895283D02*
X10736789Y-15885759D01*
X10736789Y-15885759D02*
X10784408Y-15885759D01*
X10784408Y-15885759D02*
X10803455Y-15895283D01*
X10803455Y-15895283D02*
X10812979Y-15904807D01*
X10812979Y-15904807D02*
X10822503Y-15923854D01*
X10822503Y-15923854D02*
X10822503Y-15942902D01*
X10822503Y-15942902D02*
X10812979Y-15971473D01*
X10812979Y-15971473D02*
X10698694Y-16085759D01*
X10698694Y-16085759D02*
X10822503Y-16085759D01*
X10946313Y-15885759D02*
X10965360Y-15885759D01*
X10965360Y-15885759D02*
X10984408Y-15895283D01*
X10984408Y-15895283D02*
X10993932Y-15904807D01*
X10993932Y-15904807D02*
X11003455Y-15923854D01*
X11003455Y-15923854D02*
X11012979Y-15961950D01*
X11012979Y-15961950D02*
X11012979Y-16009569D01*
X11012979Y-16009569D02*
X11003455Y-16047664D01*
X11003455Y-16047664D02*
X10993932Y-16066712D01*
X10993932Y-16066712D02*
X10984408Y-16076235D01*
X10984408Y-16076235D02*
X10965360Y-16085759D01*
X10965360Y-16085759D02*
X10946313Y-16085759D01*
X10946313Y-16085759D02*
X10927265Y-16076235D01*
X10927265Y-16076235D02*
X10917741Y-16066712D01*
X10917741Y-16066712D02*
X10908217Y-16047664D01*
X10908217Y-16047664D02*
X10898694Y-16009569D01*
X10898694Y-16009569D02*
X10898694Y-15961950D01*
X10898694Y-15961950D02*
X10908217Y-15923854D01*
X10908217Y-15923854D02*
X10917741Y-15904807D01*
X10917741Y-15904807D02*
X10927265Y-15895283D01*
X10927265Y-15895283D02*
X10946313Y-15885759D01*
X11136789Y-15885759D02*
X11155836Y-15885759D01*
X11155836Y-15885759D02*
X11174884Y-15895283D01*
X11174884Y-15895283D02*
X11184408Y-15904807D01*
X11184408Y-15904807D02*
X11193932Y-15923854D01*
X11193932Y-15923854D02*
X11203455Y-15961950D01*
X11203455Y-15961950D02*
X11203455Y-16009569D01*
X11203455Y-16009569D02*
X11193932Y-16047664D01*
X11193932Y-16047664D02*
X11184408Y-16066712D01*
X11184408Y-16066712D02*
X11174884Y-16076235D01*
X11174884Y-16076235D02*
X11155836Y-16085759D01*
X11155836Y-16085759D02*
X11136789Y-16085759D01*
X11136789Y-16085759D02*
X11117741Y-16076235D01*
X11117741Y-16076235D02*
X11108217Y-16066712D01*
X11108217Y-16066712D02*
X11098694Y-16047664D01*
X11098694Y-16047664D02*
X11089170Y-16009569D01*
X11089170Y-16009569D02*
X11089170Y-15961950D01*
X11089170Y-15961950D02*
X11098694Y-15923854D01*
X11098694Y-15923854D02*
X11108217Y-15904807D01*
X11108217Y-15904807D02*
X11117741Y-15895283D01*
X11117741Y-15895283D02*
X11136789Y-15885759D01*
X11289170Y-16085759D02*
X11289170Y-15952426D01*
X11289170Y-15971473D02*
X11298693Y-15961950D01*
X11298693Y-15961950D02*
X11317741Y-15952426D01*
X11317741Y-15952426D02*
X11346313Y-15952426D01*
X11346313Y-15952426D02*
X11365360Y-15961950D01*
X11365360Y-15961950D02*
X11374884Y-15980997D01*
X11374884Y-15980997D02*
X11374884Y-16085759D01*
X11374884Y-15980997D02*
X11384408Y-15961950D01*
X11384408Y-15961950D02*
X11403455Y-15952426D01*
X11403455Y-15952426D02*
X11432027Y-15952426D01*
X11432027Y-15952426D02*
X11451074Y-15961950D01*
X11451074Y-15961950D02*
X11460598Y-15980997D01*
X11460598Y-15980997D02*
X11460598Y-16085759D01*
X11555836Y-16085759D02*
X11555836Y-15952426D01*
X11555836Y-15971473D02*
X11565360Y-15961950D01*
X11565360Y-15961950D02*
X11584408Y-15952426D01*
X11584408Y-15952426D02*
X11612979Y-15952426D01*
X11612979Y-15952426D02*
X11632027Y-15961950D01*
X11632027Y-15961950D02*
X11641551Y-15980997D01*
X11641551Y-15980997D02*
X11641551Y-16085759D01*
X11641551Y-15980997D02*
X11651074Y-15961950D01*
X11651074Y-15961950D02*
X11670122Y-15952426D01*
X11670122Y-15952426D02*
X11698693Y-15952426D01*
X11698693Y-15952426D02*
X11717741Y-15961950D01*
X11717741Y-15961950D02*
X11727265Y-15980997D01*
X11727265Y-15980997D02*
X11727265Y-16085759D01*
X12117741Y-15876235D02*
X11946313Y-16133378D01*
X12374884Y-15885759D02*
X12393932Y-15885759D01*
X12393932Y-15885759D02*
X12412979Y-15895283D01*
X12412979Y-15895283D02*
X12422503Y-15904807D01*
X12422503Y-15904807D02*
X12432027Y-15923854D01*
X12432027Y-15923854D02*
X12441551Y-15961950D01*
X12441551Y-15961950D02*
X12441551Y-16009569D01*
X12441551Y-16009569D02*
X12432027Y-16047664D01*
X12432027Y-16047664D02*
X12422503Y-16066712D01*
X12422503Y-16066712D02*
X12412979Y-16076235D01*
X12412979Y-16076235D02*
X12393932Y-16085759D01*
X12393932Y-16085759D02*
X12374884Y-16085759D01*
X12374884Y-16085759D02*
X12355836Y-16076235D01*
X12355836Y-16076235D02*
X12346313Y-16066712D01*
X12346313Y-16066712D02*
X12336789Y-16047664D01*
X12336789Y-16047664D02*
X12327265Y-16009569D01*
X12327265Y-16009569D02*
X12327265Y-15961950D01*
X12327265Y-15961950D02*
X12336789Y-15923854D01*
X12336789Y-15923854D02*
X12346313Y-15904807D01*
X12346313Y-15904807D02*
X12355836Y-15895283D01*
X12355836Y-15895283D02*
X12374884Y-15885759D01*
X12527265Y-16066712D02*
X12536789Y-16076235D01*
X12536789Y-16076235D02*
X12527265Y-16085759D01*
X12527265Y-16085759D02*
X12517741Y-16076235D01*
X12517741Y-16076235D02*
X12527265Y-16066712D01*
X12527265Y-16066712D02*
X12527265Y-16085759D01*
X12660598Y-15885759D02*
X12679646Y-15885759D01*
X12679646Y-15885759D02*
X12698694Y-15895283D01*
X12698694Y-15895283D02*
X12708217Y-15904807D01*
X12708217Y-15904807D02*
X12717741Y-15923854D01*
X12717741Y-15923854D02*
X12727265Y-15961950D01*
X12727265Y-15961950D02*
X12727265Y-16009569D01*
X12727265Y-16009569D02*
X12717741Y-16047664D01*
X12717741Y-16047664D02*
X12708217Y-16066712D01*
X12708217Y-16066712D02*
X12698694Y-16076235D01*
X12698694Y-16076235D02*
X12679646Y-16085759D01*
X12679646Y-16085759D02*
X12660598Y-16085759D01*
X12660598Y-16085759D02*
X12641551Y-16076235D01*
X12641551Y-16076235D02*
X12632027Y-16066712D01*
X12632027Y-16066712D02*
X12622503Y-16047664D01*
X12622503Y-16047664D02*
X12612979Y-16009569D01*
X12612979Y-16009569D02*
X12612979Y-15961950D01*
X12612979Y-15961950D02*
X12622503Y-15923854D01*
X12622503Y-15923854D02*
X12632027Y-15904807D01*
X12632027Y-15904807D02*
X12641551Y-15895283D01*
X12641551Y-15895283D02*
X12660598Y-15885759D01*
X12898694Y-15952426D02*
X12898694Y-16085759D01*
X12851075Y-15876235D02*
X12803456Y-16019093D01*
X12803456Y-16019093D02*
X12927265Y-16019093D01*
X12984408Y-15885759D02*
X13117741Y-15885759D01*
X13117741Y-15885759D02*
X13032027Y-16085759D01*
X13184408Y-15904807D02*
X13193932Y-15895283D01*
X13193932Y-15895283D02*
X13212979Y-15885759D01*
X13212979Y-15885759D02*
X13260598Y-15885759D01*
X13260598Y-15885759D02*
X13279646Y-15895283D01*
X13279646Y-15895283D02*
X13289170Y-15904807D01*
X13289170Y-15904807D02*
X13298694Y-15923854D01*
X13298694Y-15923854D02*
X13298694Y-15942902D01*
X13298694Y-15942902D02*
X13289170Y-15971473D01*
X13289170Y-15971473D02*
X13174884Y-16085759D01*
X13174884Y-16085759D02*
X13298694Y-16085759D01*
X13374884Y-15885759D02*
X13374884Y-15923854D01*
X13451075Y-15885759D02*
X13451075Y-15923854D01*
X13746313Y-16161950D02*
X13736789Y-16152426D01*
X13736789Y-16152426D02*
X13717741Y-16123854D01*
X13717741Y-16123854D02*
X13708218Y-16104807D01*
X13708218Y-16104807D02*
X13698694Y-16076235D01*
X13698694Y-16076235D02*
X13689170Y-16028616D01*
X13689170Y-16028616D02*
X13689170Y-15990521D01*
X13689170Y-15990521D02*
X13698694Y-15942902D01*
X13698694Y-15942902D02*
X13708218Y-15914331D01*
X13708218Y-15914331D02*
X13717741Y-15895283D01*
X13717741Y-15895283D02*
X13736789Y-15866712D01*
X13736789Y-15866712D02*
X13746313Y-15857188D01*
X13927265Y-16085759D02*
X13812979Y-16085759D01*
X13870122Y-16085759D02*
X13870122Y-15885759D01*
X13870122Y-15885759D02*
X13851075Y-15914331D01*
X13851075Y-15914331D02*
X13832027Y-15933378D01*
X13832027Y-15933378D02*
X13812979Y-15942902D01*
X14051075Y-15885759D02*
X14070122Y-15885759D01*
X14070122Y-15885759D02*
X14089170Y-15895283D01*
X14089170Y-15895283D02*
X14098694Y-15904807D01*
X14098694Y-15904807D02*
X14108218Y-15923854D01*
X14108218Y-15923854D02*
X14117741Y-15961950D01*
X14117741Y-15961950D02*
X14117741Y-16009569D01*
X14117741Y-16009569D02*
X14108218Y-16047664D01*
X14108218Y-16047664D02*
X14098694Y-16066712D01*
X14098694Y-16066712D02*
X14089170Y-16076235D01*
X14089170Y-16076235D02*
X14070122Y-16085759D01*
X14070122Y-16085759D02*
X14051075Y-16085759D01*
X14051075Y-16085759D02*
X14032027Y-16076235D01*
X14032027Y-16076235D02*
X14022503Y-16066712D01*
X14022503Y-16066712D02*
X14012979Y-16047664D01*
X14012979Y-16047664D02*
X14003456Y-16009569D01*
X14003456Y-16009569D02*
X14003456Y-15961950D01*
X14003456Y-15961950D02*
X14012979Y-15923854D01*
X14012979Y-15923854D02*
X14022503Y-15904807D01*
X14022503Y-15904807D02*
X14032027Y-15895283D01*
X14032027Y-15895283D02*
X14051075Y-15885759D01*
X14355837Y-16085759D02*
X14355837Y-15885759D01*
X14441551Y-16085759D02*
X14441551Y-15980997D01*
X14441551Y-15980997D02*
X14432027Y-15961950D01*
X14432027Y-15961950D02*
X14412980Y-15952426D01*
X14412980Y-15952426D02*
X14384408Y-15952426D01*
X14384408Y-15952426D02*
X14365360Y-15961950D01*
X14365360Y-15961950D02*
X14355837Y-15971473D01*
X14565360Y-16085759D02*
X14546313Y-16076235D01*
X14546313Y-16076235D02*
X14536789Y-16066712D01*
X14536789Y-16066712D02*
X14527265Y-16047664D01*
X14527265Y-16047664D02*
X14527265Y-15990521D01*
X14527265Y-15990521D02*
X14536789Y-15971473D01*
X14536789Y-15971473D02*
X14546313Y-15961950D01*
X14546313Y-15961950D02*
X14565360Y-15952426D01*
X14565360Y-15952426D02*
X14593932Y-15952426D01*
X14593932Y-15952426D02*
X14612980Y-15961950D01*
X14612980Y-15961950D02*
X14622503Y-15971473D01*
X14622503Y-15971473D02*
X14632027Y-15990521D01*
X14632027Y-15990521D02*
X14632027Y-16047664D01*
X14632027Y-16047664D02*
X14622503Y-16066712D01*
X14622503Y-16066712D02*
X14612980Y-16076235D01*
X14612980Y-16076235D02*
X14593932Y-16085759D01*
X14593932Y-16085759D02*
X14565360Y-16085759D01*
X14746313Y-16085759D02*
X14727265Y-16076235D01*
X14727265Y-16076235D02*
X14717741Y-16057188D01*
X14717741Y-16057188D02*
X14717741Y-15885759D01*
X14898694Y-16076235D02*
X14879646Y-16085759D01*
X14879646Y-16085759D02*
X14841551Y-16085759D01*
X14841551Y-16085759D02*
X14822503Y-16076235D01*
X14822503Y-16076235D02*
X14812980Y-16057188D01*
X14812980Y-16057188D02*
X14812980Y-15980997D01*
X14812980Y-15980997D02*
X14822503Y-15961950D01*
X14822503Y-15961950D02*
X14841551Y-15952426D01*
X14841551Y-15952426D02*
X14879646Y-15952426D01*
X14879646Y-15952426D02*
X14898694Y-15961950D01*
X14898694Y-15961950D02*
X14908218Y-15980997D01*
X14908218Y-15980997D02*
X14908218Y-16000045D01*
X14908218Y-16000045D02*
X14812980Y-16019093D01*
X14984408Y-16076235D02*
X15003456Y-16085759D01*
X15003456Y-16085759D02*
X15041551Y-16085759D01*
X15041551Y-16085759D02*
X15060599Y-16076235D01*
X15060599Y-16076235D02*
X15070122Y-16057188D01*
X15070122Y-16057188D02*
X15070122Y-16047664D01*
X15070122Y-16047664D02*
X15060599Y-16028616D01*
X15060599Y-16028616D02*
X15041551Y-16019093D01*
X15041551Y-16019093D02*
X15012980Y-16019093D01*
X15012980Y-16019093D02*
X14993932Y-16009569D01*
X14993932Y-16009569D02*
X14984408Y-15990521D01*
X14984408Y-15990521D02*
X14984408Y-15980997D01*
X14984408Y-15980997D02*
X14993932Y-15961950D01*
X14993932Y-15961950D02*
X15012980Y-15952426D01*
X15012980Y-15952426D02*
X15041551Y-15952426D01*
X15041551Y-15952426D02*
X15060599Y-15961950D01*
X15136789Y-16161950D02*
X15146313Y-16152426D01*
X15146313Y-16152426D02*
X15165361Y-16123854D01*
X15165361Y-16123854D02*
X15174884Y-16104807D01*
X15174884Y-16104807D02*
X15184408Y-16076235D01*
X15184408Y-16076235D02*
X15193932Y-16028616D01*
X15193932Y-16028616D02*
X15193932Y-15990521D01*
X15193932Y-15990521D02*
X15184408Y-15942902D01*
X15184408Y-15942902D02*
X15174884Y-15914331D01*
X15174884Y-15914331D02*
X15165361Y-15895283D01*
X15165361Y-15895283D02*
X15146313Y-15866712D01*
X15146313Y-15866712D02*
X15136789Y-15857188D01*
X15498694Y-16161950D02*
X15489170Y-16152426D01*
X15489170Y-16152426D02*
X15470122Y-16123854D01*
X15470122Y-16123854D02*
X15460599Y-16104807D01*
X15460599Y-16104807D02*
X15451075Y-16076235D01*
X15451075Y-16076235D02*
X15441551Y-16028616D01*
X15441551Y-16028616D02*
X15441551Y-15990521D01*
X15441551Y-15990521D02*
X15451075Y-15942902D01*
X15451075Y-15942902D02*
X15460599Y-15914331D01*
X15460599Y-15914331D02*
X15470122Y-15895283D01*
X15470122Y-15895283D02*
X15489170Y-15866712D01*
X15489170Y-15866712D02*
X15498694Y-15857188D01*
X15574884Y-15952426D02*
X15574884Y-16085759D01*
X15574884Y-15971473D02*
X15584408Y-15961950D01*
X15584408Y-15961950D02*
X15603456Y-15952426D01*
X15603456Y-15952426D02*
X15632027Y-15952426D01*
X15632027Y-15952426D02*
X15651075Y-15961950D01*
X15651075Y-15961950D02*
X15660599Y-15980997D01*
X15660599Y-15980997D02*
X15660599Y-16085759D01*
X15784408Y-16085759D02*
X15765361Y-16076235D01*
X15765361Y-16076235D02*
X15755837Y-16066712D01*
X15755837Y-16066712D02*
X15746313Y-16047664D01*
X15746313Y-16047664D02*
X15746313Y-15990521D01*
X15746313Y-15990521D02*
X15755837Y-15971473D01*
X15755837Y-15971473D02*
X15765361Y-15961950D01*
X15765361Y-15961950D02*
X15784408Y-15952426D01*
X15784408Y-15952426D02*
X15812980Y-15952426D01*
X15812980Y-15952426D02*
X15832027Y-15961950D01*
X15832027Y-15961950D02*
X15841551Y-15971473D01*
X15841551Y-15971473D02*
X15851075Y-15990521D01*
X15851075Y-15990521D02*
X15851075Y-16047664D01*
X15851075Y-16047664D02*
X15841551Y-16066712D01*
X15841551Y-16066712D02*
X15832027Y-16076235D01*
X15832027Y-16076235D02*
X15812980Y-16085759D01*
X15812980Y-16085759D02*
X15784408Y-16085759D01*
X15908218Y-15952426D02*
X15984408Y-15952426D01*
X15936789Y-15885759D02*
X15936789Y-16057188D01*
X15936789Y-16057188D02*
X15946313Y-16076235D01*
X15946313Y-16076235D02*
X15965361Y-16085759D01*
X15965361Y-16085759D02*
X15984408Y-16085759D01*
X16203456Y-15952426D02*
X16203456Y-16152426D01*
X16203456Y-15961950D02*
X16222503Y-15952426D01*
X16222503Y-15952426D02*
X16260599Y-15952426D01*
X16260599Y-15952426D02*
X16279646Y-15961950D01*
X16279646Y-15961950D02*
X16289170Y-15971473D01*
X16289170Y-15971473D02*
X16298694Y-15990521D01*
X16298694Y-15990521D02*
X16298694Y-16047664D01*
X16298694Y-16047664D02*
X16289170Y-16066712D01*
X16289170Y-16066712D02*
X16279646Y-16076235D01*
X16279646Y-16076235D02*
X16260599Y-16085759D01*
X16260599Y-16085759D02*
X16222503Y-16085759D01*
X16222503Y-16085759D02*
X16203456Y-16076235D01*
X16412980Y-16085759D02*
X16393932Y-16076235D01*
X16393932Y-16076235D02*
X16384408Y-16057188D01*
X16384408Y-16057188D02*
X16384408Y-15885759D01*
X16574884Y-16085759D02*
X16574884Y-15980997D01*
X16574884Y-15980997D02*
X16565361Y-15961950D01*
X16565361Y-15961950D02*
X16546313Y-15952426D01*
X16546313Y-15952426D02*
X16508218Y-15952426D01*
X16508218Y-15952426D02*
X16489170Y-15961950D01*
X16574884Y-16076235D02*
X16555837Y-16085759D01*
X16555837Y-16085759D02*
X16508218Y-16085759D01*
X16508218Y-16085759D02*
X16489170Y-16076235D01*
X16489170Y-16076235D02*
X16479646Y-16057188D01*
X16479646Y-16057188D02*
X16479646Y-16038140D01*
X16479646Y-16038140D02*
X16489170Y-16019093D01*
X16489170Y-16019093D02*
X16508218Y-16009569D01*
X16508218Y-16009569D02*
X16555837Y-16009569D01*
X16555837Y-16009569D02*
X16574884Y-16000045D01*
X16641551Y-15952426D02*
X16717742Y-15952426D01*
X16670123Y-15885759D02*
X16670123Y-16057188D01*
X16670123Y-16057188D02*
X16679646Y-16076235D01*
X16679646Y-16076235D02*
X16698694Y-16085759D01*
X16698694Y-16085759D02*
X16717742Y-16085759D01*
X16860599Y-16076235D02*
X16841551Y-16085759D01*
X16841551Y-16085759D02*
X16803456Y-16085759D01*
X16803456Y-16085759D02*
X16784408Y-16076235D01*
X16784408Y-16076235D02*
X16774884Y-16057188D01*
X16774884Y-16057188D02*
X16774884Y-15980997D01*
X16774884Y-15980997D02*
X16784408Y-15961950D01*
X16784408Y-15961950D02*
X16803456Y-15952426D01*
X16803456Y-15952426D02*
X16841551Y-15952426D01*
X16841551Y-15952426D02*
X16860599Y-15961950D01*
X16860599Y-15961950D02*
X16870123Y-15980997D01*
X16870123Y-15980997D02*
X16870123Y-16000045D01*
X16870123Y-16000045D02*
X16774884Y-16019093D01*
X17041551Y-16085759D02*
X17041551Y-15885759D01*
X17041551Y-16076235D02*
X17022504Y-16085759D01*
X17022504Y-16085759D02*
X16984408Y-16085759D01*
X16984408Y-16085759D02*
X16965361Y-16076235D01*
X16965361Y-16076235D02*
X16955837Y-16066712D01*
X16955837Y-16066712D02*
X16946313Y-16047664D01*
X16946313Y-16047664D02*
X16946313Y-15990521D01*
X16946313Y-15990521D02*
X16955837Y-15971473D01*
X16955837Y-15971473D02*
X16965361Y-15961950D01*
X16965361Y-15961950D02*
X16984408Y-15952426D01*
X16984408Y-15952426D02*
X17022504Y-15952426D01*
X17022504Y-15952426D02*
X17041551Y-15961950D01*
X17117742Y-16161950D02*
X17127266Y-16152426D01*
X17127266Y-16152426D02*
X17146313Y-16123854D01*
X17146313Y-16123854D02*
X17155837Y-16104807D01*
X17155837Y-16104807D02*
X17165361Y-16076235D01*
X17165361Y-16076235D02*
X17174885Y-16028616D01*
X17174885Y-16028616D02*
X17174885Y-15990521D01*
X17174885Y-15990521D02*
X17165361Y-15942902D01*
X17165361Y-15942902D02*
X17155837Y-15914331D01*
X17155837Y-15914331D02*
X17146313Y-15895283D01*
X17146313Y-15895283D02*
X17127266Y-15866712D01*
X17127266Y-15866712D02*
X17117742Y-15857188D01*
M02*
